<svg width="50" height="50" viewBox="0 0 50 50" fill="none" xmlns="http://www.w3.org/2000/svg">
<path d="M42.9375 39.9792C44.2431 38.2291 45.1391 36.2082 45.5593 34.0655C45.9795 31.9229 45.9132 29.7132 45.3653 27.5996C44.8174 25.486 43.8019 23.5224 42.3937 21.8537C40.9855 20.185 39.2206 18.8538 37.2292 17.9584C36.7954 15.4628 35.7985 13.0988 34.3142 11.0462C32.8299 8.99364 30.8973 7.30636 28.6632 6.11261C26.4291 4.91887 23.9523 4.25006 21.421 4.157C18.8896 4.06395 16.3704 4.5491 14.0547 5.57559C11.7389 6.60208 9.68765 8.14291 8.05667 10.081C6.42568 12.0191 5.25791 14.3034 4.64208 16.7605C4.02626 19.2175 3.97858 21.7826 4.50267 24.2608C5.02677 26.739 6.10884 29.0652 7.66668 31.0626L4.77084 33.9376C4.48177 34.2305 4.28594 34.6025 4.20808 35.0067C4.13022 35.4108 4.1738 35.829 4.33334 36.2084C4.48964 36.5888 4.75505 36.9145 5.09613 37.1444C5.43722 37.3742 5.83871 37.498 6.25001 37.5001H18.1042C19.2847 39.9888 21.1459 42.0923 23.4724 43.5671C25.7989 45.0419 28.4955 45.8277 31.25 45.8334H43.75C44.1613 45.8313 44.5628 45.7076 44.9039 45.4777C45.245 45.2479 45.5104 44.9222 45.6667 44.5417C45.8262 44.1623 45.8698 43.7442 45.7919 43.34C45.7141 42.9359 45.5183 42.5639 45.2292 42.2709L42.9375 39.9792ZM16.6667 31.2501C16.6695 31.9477 16.7253 32.6441 16.8333 33.3334H11.2708L12 32.6251C12.1953 32.4314 12.3503 32.201 12.456 31.9471C12.5618 31.6932 12.6163 31.4209 12.6163 31.1459C12.6163 30.8709 12.5618 30.5986 12.456 30.3447C12.3503 30.0908 12.1953 29.8604 12 29.6667C10.8324 28.5119 9.90678 27.136 9.27721 25.6193C8.64763 24.1026 8.32676 22.4756 8.33334 20.8334C8.33334 17.5182 9.65031 14.3388 11.9945 11.9945C14.3387 9.65034 17.5181 8.33338 20.8333 8.33338C23.4202 8.31784 25.9469 9.11335 28.0582 10.6081C30.1695 12.1028 31.7593 14.2217 32.6042 16.6667C32.1458 16.6667 31.7083 16.6667 31.25 16.6667C27.3823 16.6667 23.6729 18.2032 20.938 20.9381C18.2031 23.673 16.6667 27.3823 16.6667 31.2501ZM38.625 41.6667L38.7292 41.7709H31.25C28.8403 41.7666 26.5066 40.927 24.6465 39.395C22.7864 37.8631 21.515 35.7337 21.0488 33.3695C20.5826 31.0053 20.9504 28.5526 22.0898 26.4293C23.2291 24.3059 25.0693 22.6432 27.297 21.7244C29.5247 20.8057 32.002 20.6877 34.3069 21.3905C36.6119 22.0934 38.6018 23.5736 39.9378 25.5791C41.2738 27.5846 41.8731 29.9912 41.6338 32.389C41.3944 34.7868 40.3311 37.0274 38.625 38.7292C38.2325 39.1139 38.0078 39.638 38 40.1876C38.0012 40.4632 38.057 40.7359 38.1643 40.9898C38.2716 41.2437 38.4282 41.4738 38.625 41.6667Z" fill="#3DB1CA"/>
</svg>
