<svg width="50" height="50" viewBox="0 0 50 50" fill="none" xmlns="http://www.w3.org/2000/svg">
<path d="M17.6412 17.4886L17.6365 17.4924L17.632 17.4968L17.6412 17.4886ZM38.3789 17.1C38.234 16.9603 38.0731 16.8381 37.8997 16.7358C37.6543 16.5914 37.3818 16.4988 37.0992 16.4638C36.8165 16.4289 36.5297 16.4522 36.2565 16.5325C35.9832 16.6128 35.7293 16.7483 35.5105 16.9306C35.2917 17.1129 35.1126 17.3381 34.9843 17.5924C34.2667 19.0063 33.2769 20.2646 32.0718 21.2952C32.2561 20.2568 32.349 19.2044 32.3495 18.1498C32.3534 14.9417 31.5071 11.7898 29.8967 9.01515C28.2864 6.24048 25.9695 3.94208 23.182 2.35398C22.875 2.17991 22.5287 2.08671 22.1758 2.08312C21.8228 2.07952 21.4747 2.16566 21.1642 2.33344C20.8536 2.50122 20.5908 2.74515 20.4003 3.04234C20.2099 3.33952 20.0981 3.68022 20.0754 4.03246C19.9588 6.00782 19.4424 7.93895 18.5574 9.70885C17.6725 11.4787 16.4374 13.0506 14.9271 14.329L14.4469 14.7197C12.8676 15.7824 11.4696 17.0924 10.3067 18.5995C8.49905 20.8768 7.24682 23.5439 6.64935 26.3894C6.05187 29.2349 6.12558 32.1805 6.86464 34.9925C7.60369 37.8046 8.98776 40.4058 10.9071 42.5898C12.8264 44.7738 15.2282 46.4806 17.922 47.5749C18.2382 47.7041 18.5815 47.7536 18.9214 47.7188C19.2613 47.684 19.5874 47.5662 19.871 47.3756C20.1546 47.185 20.3869 46.9275 20.5474 46.6259C20.708 46.3243 20.7919 45.9879 20.7917 45.6462C20.7902 45.4252 20.7552 45.2057 20.6879 44.9951C20.2218 43.2431 20.0876 41.4193 20.2922 39.6179C22.2635 43.3361 25.4279 46.2833 29.2766 47.9859C29.7463 48.196 30.2774 48.2243 30.7669 48.0652C33.8076 47.0838 36.5469 45.3411 38.7245 43.0028C40.902 40.6645 42.4455 37.8083 43.2083 34.7054C43.971 31.6026 43.9277 28.3562 43.0825 25.2749C42.2372 22.1935 40.6181 19.3794 38.3789 17.1ZM30.2439 43.8314C28.4279 42.911 26.826 41.6188 25.5422 40.0386C24.2584 38.4585 23.3216 36.6258 22.7926 34.6599C22.631 33.9979 22.506 33.3275 22.4182 32.6518C22.3587 32.2215 22.1662 31.8205 21.8676 31.505C21.5691 31.1895 21.1793 30.9751 20.753 30.8919C20.6216 30.866 20.488 30.8531 20.3542 30.8533C19.988 30.8532 19.6283 30.9496 19.3113 31.1328C18.9943 31.3161 18.7312 31.5797 18.5485 31.897C16.8199 34.8785 15.9506 38.2804 16.0369 41.7257C14.5166 40.5437 13.246 39.0716 12.2988 37.3949C11.3515 35.7181 10.7465 33.8701 10.5188 31.9578C10.291 30.0455 10.4451 28.107 10.972 26.2547C11.4989 24.4024 12.3882 22.6731 13.5884 21.1671C14.4997 19.9834 15.599 18.9573 16.8426 18.1296C16.8964 18.0948 16.9481 18.0568 16.9972 18.0156C16.9972 18.0156 17.6153 17.5042 17.6364 17.4925C20.6046 14.982 22.7156 11.6082 23.6755 7.84106C25.9454 9.93946 27.459 12.7286 27.9812 15.7755C28.5034 18.8223 28.005 21.9563 26.5635 24.6908C26.373 25.0557 26.2949 25.4689 26.3389 25.8781C26.383 26.2874 26.5472 26.6744 26.811 26.9904C27.0748 27.3064 27.4262 27.5372 27.821 27.6537C28.2158 27.7702 28.6362 27.7672 29.0293 27.645C32.2205 26.6447 35.0287 24.6907 37.0758 22.046C38.3061 23.8633 39.1104 25.9348 39.4289 28.1062C39.7473 30.2775 39.5717 32.4927 38.915 34.5868C38.2583 36.6808 37.1375 38.5996 35.6362 40.2003C34.1348 41.801 32.2916 43.0422 30.2439 43.8315L30.2439 43.8314Z" fill="#3DB1CA"/>
</svg>
