<svg width="476" height="397" viewBox="0 0 476 397" fill="none" xmlns="http://www.w3.org/2000/svg">
<rect width="476" height="397" fill="white"/>
<path d="M318 228.575H317.85H318ZM109.251 301.5C110.201 301.65 115.401 301.9 115.401 301C115.401 300.475 114.451 300.5 114.451 300.5C114.576 296.5 119.651 295.5 123.276 297.6C124.275 298.175 125.199 298.871 126.026 299.675C120.901 299.95 114.101 303.45 114.551 308.525C114.809 309.848 115.364 311.096 116.174 312.175C116.984 313.252 118.027 314.133 119.226 314.75C120.725 315.871 122.431 316.683 124.247 317.137C126.062 317.594 127.95 317.681 129.801 317.4C133.096 316.56 135.996 314.598 138.001 311.85C142.532 311.994 146.965 310.512 150.501 307.675C150.65 307.556 150.774 307.408 150.864 307.241C150.954 307.073 151.009 306.89 151.026 306.7C151.026 305.825 151.026 305.875 146.026 300.325C145.884 300.166 145.707 300.046 145.509 299.971C145.31 299.896 145.097 299.869 144.886 299.894C144.675 299.916 144.474 299.991 144.298 300.11C144.122 300.229 143.977 300.39 143.876 300.575C143.79 300.683 143.714 300.802 143.651 300.925C143.254 301.671 142.612 302.256 141.833 302.585C141.055 302.912 140.187 302.962 139.376 302.725C136.876 302 133.651 295.375 127.776 291.425C122.651 287.975 115.776 286.95 110.926 291.05C108.838 292.841 107.354 295.233 106.676 297.9C106.406 298.723 106.46 299.616 106.826 300.4C107.483 301.035 108.34 301.425 109.251 301.5ZM118.651 310.775C117.965 310.285 117.49 309.556 117.318 308.731C117.147 307.906 117.292 307.048 117.726 306.325C118.835 304.791 120.375 303.627 122.151 302.975C120.718 305.404 119.545 307.975 118.651 310.65V310.775ZM142.201 306.825C142.801 305.025 142.201 305.65 143.201 305.2C143.958 304.823 144.644 304.315 145.226 303.7L147.501 306.4C145.617 307.594 143.534 308.441 141.351 308.9C141.601 308.25 142.001 307.25 142.201 306.7V306.825ZM133.151 300.45C135.526 303.425 137.501 306.075 141.126 305.775C140.609 306.852 140.19 307.973 139.876 309.125C138.051 309.25 137.801 308.825 137.076 309.125C135.651 309.675 133.301 314.8 127.601 314.775C127.955 313.981 128.183 313.137 128.276 312.275C129.889 311.95 131.399 311.237 132.676 310.2C133.223 309.725 133.579 309.069 133.676 308.35C133.676 307.475 133.376 306.35 131.526 304.875C132.215 303.415 132.759 301.891 133.151 300.325V300.45ZM124.751 309.9C122.551 308.725 126.301 306.65 128.726 306.725C129.283 306.729 129.828 306.891 130.296 307.191C130.765 307.491 131.14 307.921 131.376 308.425C131.042 308.962 130.601 309.427 130.082 309.787C129.562 310.15 128.975 310.402 128.354 310.527C127.734 310.654 127.095 310.652 126.475 310.523C125.855 310.394 125.269 310.14 124.751 309.775V309.9ZM127.701 294.6C129.398 296.044 130.94 297.66 132.301 299.425C131.51 300.866 130.905 302.404 130.501 304C129.45 303.698 128.349 303.616 127.265 303.758C126.181 303.9 125.138 304.262 124.201 304.825C119.626 307.325 120.701 312.8 127.051 312.175C126.678 312.894 126.4 313.658 126.226 314.45C123.69 313.944 121.32 312.819 119.326 311.175C121.098 308.421 122.478 305.433 123.426 302.3C124.398 301.854 125.449 301.606 126.518 301.571C127.587 301.537 128.652 301.716 129.651 302.1L130.176 300.125L129.626 299.875C128.451 299.075 127.926 298.45 126.576 297.375C127.077 296.462 127.455 295.487 127.701 294.475V294.6ZM118.001 290.6C121.13 290.656 124.159 291.708 126.651 293.6C126.203 294.619 125.868 295.683 125.651 296.775C124.453 295.835 123.039 295.206 121.537 294.95C120.036 294.691 118.494 294.812 117.051 295.3C117.578 293.783 117.898 292.202 118.001 290.6ZM112.276 292.55C113.662 291.471 115.327 290.812 117.076 290.65C116.3 292.331 115.818 294.131 115.651 295.975C114.906 296.421 114.296 297.062 113.887 297.829C113.477 298.594 113.283 299.456 113.326 300.325C111.574 300.421 109.821 300.158 108.176 299.55C108.548 296.773 110.004 294.256 112.226 292.55H112.276ZM74.9259 288.375C70.4259 286.425 60.4259 292.2 58.6009 295.3C58.3368 295.983 58.3368 296.741 58.6009 297.425C60.1759 303.4 74.8759 324.5 77.6009 327.775C78.0759 328.375 78.7259 327.55 78.3009 326.85C77.0009 324.7 77.1509 329.025 83.8009 307.5C84.4168 307.258 84.9904 306.921 85.5009 306.5C85.7327 306.241 85.8609 305.908 85.8609 305.562C85.8609 305.216 85.7327 304.881 85.5009 304.625C85.2736 304.344 85.0136 304.091 84.7259 303.875L86.3009 298.05L92.5509 301.5C91.2868 304.658 90.365 307.944 89.8009 311.3C87.28 312.208 84.9177 313.508 82.8009 315.15C81.3259 316.775 83.6509 319.775 85.1009 321.575C86.5509 323.375 87.7759 324.6 88.0509 324.875C88.3259 325.15 89.2009 324.875 89.1259 324.425C88.9673 324.062 88.7564 323.727 88.5009 323.425C87.1459 321.316 85.9832 319.091 85.0259 316.775C86.9686 315.612 89.02 314.641 91.1509 313.875C91.9259 313.6 94.3259 312.85 94.9759 313.25C98.1832 314.94 101.529 316.352 104.976 317.475C105.115 317.541 105.275 317.55 105.42 317.498C105.565 317.446 105.685 317.34 105.751 317.2C105.817 317.06 105.825 316.9 105.774 316.756C105.722 316.61 105.615 316.491 105.476 316.425L101.151 313.8C102.071 311.712 102.662 309.494 102.901 307.225L113.576 313C114.226 313.375 114.726 312.35 114.251 312.075C113.776 311.8 81.3759 291.2 74.9259 288.375ZM71.1259 291.025C71.9982 290.762 72.9282 290.762 73.8009 291.025C74.3759 291.275 75.7759 292.025 77.6759 293.075C77.035 294.844 76.5986 296.681 76.3759 298.55C74.7009 297.6 73.7009 296.875 72.3759 297.1C71.6536 297.262 70.9777 297.587 70.4009 298.05C70.6509 296.1 70.8759 294.6 71.1259 291.025ZM61.1259 296.525C63.7186 294.052 66.8641 292.235 70.3009 291.225C68.9664 297.123 68.0309 303.102 67.5009 309.125C64.98 305.133 62.8532 300.904 61.1509 296.5L61.1259 296.525ZM72.4759 317.55C71.1009 315.275 69.6009 312.75 68.1759 310.275C69.0259 306.7 69.3009 305.05 69.8259 301.675C71.1936 304.048 72.775 306.29 74.5509 308.375C73.5427 311.352 72.8554 314.427 72.5009 317.55H72.4759ZM76.8509 324.75C75.9509 323.325 74.8009 321.4 73.3009 318.925C74.25 315.787 74.8782 312.562 75.1759 309.3C75.7259 310.625 80.6259 308.725 81.9509 308.225C80.9759 311.3 77.5759 322 76.8759 324.75H76.8509ZM76.1009 308.525C74.5514 305.844 73.1818 303.062 72.0009 300.2L72.7759 299.775C73.1259 299.975 81.6759 305.025 82.3009 305.425C80.3523 306.665 78.2836 307.702 76.1259 308.525H76.1009ZM83.6009 303.025C81.7259 301.775 79.1759 300.25 77.2259 299.125C77.8927 297.354 78.33 295.506 78.5259 293.625L85.6259 297.625C85.5009 298.575 84.6509 300.525 83.7509 303.025H83.6009ZM100.151 313.025L96.3009 310.7C94.59 310.025 92.6863 310.025 90.9759 310.7C91.945 307.777 92.6477 304.773 93.0759 301.725L102.126 306.725C101.201 308.765 100.586 310.929 100.301 313.15L100.151 313.025Z" fill="black"/>
<path d="M473.877 321.925C469.827 284.225 434.925 226.25 414.075 194.575C425.717 195.506 437.402 195.798 449.073 195.45C452.4 195.45 461.1 194.85 462.777 194.525C463.75 194.325 463.9 193.4 462.427 193.35C460.95 193.3 450.45 192.8 449.027 192.775H423.6C419.7 192.925 413.6 193.275 413.25 193.275C405.75 181.85 400.525 174.7 400.475 174.675C400.419 174.617 400.348 174.571 400.273 174.542C400.196 174.513 400.115 174.5 400.031 174.504C399.95 174.51 399.871 174.531 399.798 174.571C399.725 174.609 399.663 174.66 399.613 174.725C399.563 174.79 399.527 174.865 399.506 174.944C399.488 175.025 399.485 175.106 399.502 175.188C399.517 175.267 399.55 175.344 399.596 175.41C399.644 175.477 399.704 175.534 399.775 175.575C400.925 176.5 451.45 250.325 466.9 301.175C473.027 321.35 476.65 346.675 456.9 353.675C410 370.425 42.675 375.875 7.9503 356.175C3.1253 353.45 2.0003 347.775 2.9503 340.125C4.4253 329.5 10.1502 315.125 17.0503 299.025C24.8252 306.525 89.325 365.75 99.775 363.525C110.225 361.3 169 334 171.425 328.775C172.834 325.146 173.579 321.292 173.625 317.4C173.921 316.992 174.059 316.492 174.013 315.99C173.967 315.49 173.74 315.021 173.375 314.675C169.5 310.825 92.625 249.875 87.675 250.05C84.225 250.2 77.975 253.75 75 255.5C74.0355 253.921 72.5996 252.688 70.895 251.969C69.19 251.25 67.3032 251.088 65.5 251.5C63.8005 252.185 62.2782 253.25 61.0487 254.609C59.8187 255.969 58.9132 257.59 58.4 259.35C58.4282 259.485 58.5023 259.606 58.6091 259.694C58.7159 259.781 58.85 259.827 58.9878 259.827C59.1259 259.827 59.2596 259.781 59.3664 259.694C59.4737 259.606 59.5473 259.485 59.575 259.35C61.0791 256.806 63.4628 254.904 66.275 254C67.445 253.821 68.6409 253.977 69.7255 254.45C70.8096 254.923 71.7373 255.696 72.4 256.675L44.6 268.55C43.1241 267.034 41.2814 265.921 39.25 265.325C34.5 264.075 31.3002 267.2 29.4002 271.775C29.3586 271.906 29.3633 272.048 29.414 272.177C29.4646 272.306 29.5582 272.413 29.6786 272.479C29.799 272.548 29.939 272.571 30.075 272.548C30.2111 272.525 30.3348 272.454 30.4253 272.35C33.625 267.725 37.325 266.15 41.75 269.85C36.4 272.225 28.9252 275.6 23.6752 278.2C24.0502 277.6 78 179.9 78 179.65C80.375 175.25 85.15 167.375 90.075 166.35C92.3014 165.865 94.5723 165.613 96.85 165.6C93.375 171.35 65.175 218.1 65.125 224.7C65.125 232.2 66.425 231.025 70.425 232.2C74.425 233.375 298.25 232 298.65 232C302.525 232 317.675 231.5 319.075 230.475C323.425 227.275 322.45 222.5 320.55 217.475C320.1 216.275 317.825 211.3 314.775 204.65C327.9 200.7 337.775 205.725 338.675 227.15C339.575 245.675 332.275 251.325 318.3 250.525C307.075 249.875 299.325 246.575 296.875 250.95C294.125 255.825 301.725 266.775 305.025 271.325C304.55 271.325 283.625 270.9 278.35 270.675C270.917 270.388 263.475 270.479 256.05 270.95C250.937 271.063 245.854 271.759 240.9 273.025C239.025 273.95 236.6 278.775 235.575 280.8C233.55 284.775 224.325 309.725 221.775 316.925C220.275 321.075 215.2 334.825 218.6 337.25C218.475 339.925 218.9 343.5 221.25 344.75C223.6 346 255.9 346.9 258.375 346.95C262.75 347.075 306.975 347.65 335.2 346.4C363.425 345.15 375.75 342.45 375.025 342.525C375.742 342.315 376.385 341.909 376.885 341.35C377.383 340.794 377.719 340.11 377.85 339.375C378.235 337.527 378.115 335.61 377.5 333.825C380.65 327.7 356.825 276.85 350.225 273.275C349.835 273.056 349.398 272.935 348.95 272.925C347.625 272.925 317.975 271.675 306.45 271.3C303.95 267.775 295.825 254.5 298.95 251.675C303.7 247.525 343.375 268.325 341.25 226.925C340.15 208.2 331.525 197.225 314.025 203.575C312.5 200.275 299.7 172.925 296.275 165.65C309.544 166.444 322.854 166.152 336.075 164.775C336.265 167.109 336.935 169.377 338.046 171.438C339.156 173.498 340.681 175.309 342.525 176.75C352.525 184.25 392.325 183.125 399.55 173.95C401.575 171.181 402.975 168.006 403.652 164.644C404.329 161.281 404.269 157.813 403.475 154.475C404.14 154.052 404.656 153.431 404.95 152.7C405.35 151.925 404.95 150.95 403.225 150.6C401 150.266 398.75 150.133 396.5 150.2C396.5 148.15 396.625 144.325 396.5 139.975C396.725 139.825 398.35 137.875 398.525 137.65C400.517 135.322 402.092 132.666 403.175 129.8C404 127.475 404.325 124.8 402.15 123.5C398.8 121.675 396.45 125.025 395.325 128.775C394.275 123 391.85 114.525 386.05 115.375C376.2 116.875 383 140.75 386.2 150.2C383.39 149.804 380.535 149.804 377.725 150.2C380.85 142.35 382.45 132.2 374.425 130.675C373.208 130.406 371.94 130.5 370.775 130.944C369.612 131.388 368.604 132.164 367.875 133.175C367.715 132.609 367.413 132.093 366.998 131.676C366.585 131.259 366.071 130.953 365.506 130.788C364.942 130.623 364.344 130.604 363.771 130.733C363.198 130.862 362.665 131.135 362.225 131.525C358.55 134.175 360.65 140.25 364.925 142.25C364.7 144.82 364.7 147.405 364.925 149.975C362.265 149.654 359.571 149.712 356.925 150.15C356.777 144.046 356.108 137.965 354.925 131.975C356.444 130.894 357.723 129.509 358.677 127.908C359.633 126.307 360.246 124.525 360.475 122.675C360.825 119.35 359.65 116.575 356.875 115.85C353.4 114.95 351.35 117.375 350.75 120.85C347.675 116.6 341.65 115.075 338.725 119.95C329.35 110.2 324.825 115.65 327.2 119.95C328.975 123.25 333.6 125.1 337.2 126.125C337.2 131.725 339.7 136.45 342.8 141.275C344.875 144.525 347.2 147.65 349 149.95C345.11 149.825 341.217 150.076 337.375 150.7C335.025 151.325 334.65 153.025 336.825 154.25C336.138 157.18 335.885 160.196 336.075 163.2C322.646 162.485 309.181 162.802 295.8 164.15C294.95 162.325 292.425 157 292.125 156.375C291.825 155.75 294.225 148.5 297.6 81.1C313.1 79.8 382.8 81.35 389.2 78.875C389.567 78.7432 389.892 78.5164 390.144 78.2177C390.394 77.9191 390.56 77.5591 390.625 77.175C392.75 70.2 394.2 10.25 390.625 4.675C389.75 3.3 386.625 2.87499 384.9 2.625C362.625 -0.625005 269.675 0.774997 264.9 3.3C260.125 5.825 262.15 30.475 263.05 35.375C214.775 33.825 103.3 36.85 92.8 40.775C90.3 41.675 89.375 45.1 88.875 47.675C84.725 69.1 96.375 138.05 100.275 159.35C100.025 159.35 100.275 159.35 97.225 164.1C94.6437 163.909 92.0482 164.044 89.5 164.5C83.8 165.375 78.55 173.25 75.65 178.15C75.525 178.4 68.15 190.65 67.05 192.65C60.775 191.675 31.6002 192.05 27.9002 192.25C24.2002 192.45 20.4002 192.725 17.0503 192.975C16.4503 192.975 16.4002 194.125 17.0503 194.15C24.0502 194.575 26.6252 194.725 32.0502 194.8C45.325 195 64.9 195.55 65.525 195.475C64.225 197.75 44.975 232 42.4 236.85C31.2003 257.85 22.4002 277.075 21.8752 278.7C18.9692 280.021 16.2396 281.702 13.7502 283.7C12.9473 285.902 12.4673 288.21 12.3253 290.55C12.2003 294.575 13.6502 295.55 15.8752 297.8C9.90502 310.592 4.99684 323.854 1.2003 337.45C-0.0391136 342.95 -0.0902954 348.652 1.0503 354.175C2.07107 359.696 3.97911 365.015 6.7003 369.925C7.92266 371.167 9.50671 371.99 11.2252 372.275C17.8002 374.125 38.175 376.5 45 377.275C44.4859 380.329 44.3432 383.435 44.575 386.525C44.5823 389.709 45.045 392.873 45.95 395.925C45.9587 396 45.9814 396.073 46.0178 396.14C46.0546 396.206 46.1037 396.265 46.1628 396.313C46.2223 396.36 46.29 396.396 46.3628 396.417C46.4359 396.44 46.5123 396.446 46.5878 396.438C46.6632 396.429 46.7364 396.406 46.8032 396.369C46.87 396.334 46.9287 396.284 46.9759 396.225C47.0237 396.165 47.0591 396.098 47.0805 396.025C47.1018 395.952 47.1087 395.875 47.1 395.8C47.5 392.684 47.6091 389.538 47.425 386.4C47.4087 383.379 47.065 380.371 46.4 377.425C49.85 377.725 53.175 377.975 56.075 378.075C55.6141 380.992 55.4882 383.954 55.7 386.9C55.7087 390.084 56.1718 393.248 57.075 396.3C57.075 396.452 57.1359 396.598 57.2437 396.706C57.3514 396.815 57.4978 396.875 57.65 396.875C57.8028 396.875 57.9491 396.815 58.0568 396.706C58.165 396.598 58.225 396.452 58.225 396.3C58.6387 393.185 58.7559 390.038 58.575 386.9C58.5582 383.981 58.2228 381.071 57.575 378.225C63.15 378.35 145.2 385.725 286.9 382.925C324.875 382.175 370.525 380.425 408.125 376.3C407.629 379.315 407.485 382.377 407.7 385.425C407.712 388.6 408.183 391.759 409.1 394.8C409.083 394.884 409.083 394.971 409.104 395.054C409.123 395.138 409.162 395.215 409.217 395.281C409.271 395.348 409.337 395.402 409.415 395.438C409.492 395.475 409.577 395.494 409.662 395.494C409.748 395.494 409.833 395.475 409.91 395.438C409.987 395.402 410.056 395.348 410.111 395.281C410.162 395.215 410.202 395.138 410.221 395.054C410.242 394.971 410.244 394.884 410.225 394.8C410.663 391.688 410.779 388.538 410.575 385.4C410.548 382.313 410.188 379.235 409.5 376.225C412.275 375.925 418.7 375.125 419.25 375.05C418.758 378.048 418.623 381.094 418.85 384.125C418.852 387.309 419.315 390.475 420.225 393.525C420.242 393.677 420.319 393.817 420.438 393.913C420.558 394.009 420.71 394.054 420.862 394.038C421.015 394.021 421.154 393.944 421.25 393.825C421.348 393.704 421.392 393.552 421.375 393.4C421.788 390.292 421.896 387.152 421.7 384.025C421.683 380.944 421.323 377.875 420.625 374.875C431.9 373.35 466.373 368.7 471.073 359.075C476.623 348.1 476.177 333.825 473.877 321.925ZM246.375 281.675C246.65 281 255.025 279.175 264.175 281.675C264.258 281.656 264.346 281.659 264.429 281.679C264.513 281.698 264.59 281.738 264.656 281.79C264.723 281.844 264.777 281.913 264.812 281.99C264.85 282.067 264.869 282.152 264.869 282.238C264.869 282.323 264.85 282.409 264.812 282.485C264.777 282.563 264.723 282.631 264.656 282.684C264.59 282.738 264.513 282.777 264.429 282.796C264.346 282.817 264.258 282.817 264.175 282.8C259.619 283.609 254.967 283.727 250.375 283.15C248.225 282.8 245.5 282.775 246.3 281.675H246.375ZM374.9 341.125C351.775 345.525 224.025 344.525 222.1 343.625C220.175 342.725 220 339.825 219.95 337.925C233.8 342.425 369.125 338.95 376.65 334.975C377.05 337.175 377.15 340.7 374.825 341.125H374.9ZM326.375 281.95C326.375 281.1 331.875 280.625 332.125 280.6C335.396 280.348 338.679 280.348 341.95 280.6C343.775 280.8 346.3 281.05 346.1 281.825C345.9 282.6 342.125 282.925 341.475 283.025C339.031 283.25 336.579 283.35 334.125 283.325C332.475 283.275 326.2 282.975 326.3 281.95H326.375ZM358.5 290.275C364.754 302.192 370.006 314.61 374.2 327.4C374.733 329.015 375.029 330.7 375.075 332.4C363.8 335.9 233.85 339.5 220.7 335.725C220.075 335.55 219.9 335.725 219.75 334.675C218.8 327.875 229.925 300.85 232.5 294.55C279.8 292.975 358 290.55 358.425 290.275H358.5ZM337.45 125C334.717 123.498 332.235 121.575 330.1 119.3C329.125 117.825 329.35 116.8 332.225 118.2C334.025 119.025 336.55 120.5 338.25 121.525C337.813 122.637 337.544 123.809 337.45 125ZM397.45 129.475C399.45 125.875 401.425 124.85 401.225 126.975C400.15 130.778 398.623 134.437 396.675 137.875C396.525 135.375 396.35 133.7 396.15 132.05C396.25 131.7 396.75 130.65 397.375 129.475H397.45ZM386.825 151.225C387.325 152.65 387.65 153.5 387.675 153.55C387.702 153.621 387.744 153.685 387.798 153.74C387.85 153.795 387.913 153.839 387.983 153.869C388.052 153.899 388.127 153.915 388.204 153.916C388.279 153.917 388.354 153.903 388.425 153.875C389.525 153.45 387.9 152.425 385.3 137.35C384.525 132.85 382.225 118.975 386.775 118.325C390.475 117.775 392.475 126.95 393.175 130.575C394.473 137.562 395.308 144.628 395.675 151.725C395.673 151.864 395.721 151.998 395.81 152.104C395.9 152.209 396.025 152.279 396.163 152.3C396.298 152.322 396.44 152.293 396.556 152.22C396.673 152.146 396.76 152.032 396.8 151.9C396.808 151.759 396.808 151.616 396.8 151.475C399.06 151.541 401.306 151.852 403.5 152.4C403.221 152.726 402.871 152.983 402.475 153.15C397.225 155.85 381.35 155.325 375.875 155.225C376.625 153.725 377.15 152.575 377.725 151.2C380.713 151.691 383.76 151.7 386.75 151.225H386.825ZM367.325 145.75C367.9 140.75 369.175 132.775 374.225 133.725C379.275 134.675 378 142 376.9 146.9C376.223 149.711 375.387 152.482 374.4 155.2H366.9C366.84 152.046 366.956 148.891 367.25 145.75H367.325ZM364.15 134C364.267 133.889 364.404 133.804 364.556 133.75C364.706 133.696 364.869 133.674 365.027 133.685C365.187 133.697 365.344 133.743 365.485 133.818C365.627 133.894 365.752 133.999 365.85 134.125C366.248 134.524 366.608 134.959 366.925 135.425C366.215 137.019 365.719 138.7 365.45 140.425C364.15 138.625 362.475 135.35 364.15 134ZM356.275 118.8C359.525 119.825 356.975 128.375 354.8 130.975C354.2 128.284 353.302 125.668 352.125 123.175C352.85 120.975 354.075 118.1 356.275 118.775V118.8ZM350.125 151.5C351.35 153.05 352.15 154 352.15 154C352.25 154.098 352.381 154.156 352.521 154.165C352.66 154.173 352.798 154.13 352.906 154.045C353.017 153.959 353.092 153.836 353.119 153.699C353.146 153.562 353.121 153.42 353.05 153.3C353.05 153.3 348.625 147 344.975 140.475C342.225 135.475 339.6 130.475 340.325 124.95C340.9 120.6 343.2 118.75 347.075 121.275C352.675 124.875 355.225 147.075 356.025 153.775C356.033 153.95 356.096 154.119 356.202 154.258C356.31 154.396 356.458 154.499 356.625 154.55C357.3 154.55 357.2 153.825 357.175 153.475C357.15 153.125 357.175 151.375 357.175 151.2C359.831 151.536 362.519 151.536 365.175 151.2C365.325 153.025 365.5 154.45 365.625 155.2C356.75 155.2 346.025 155.8 338.675 152.925C342.452 152.178 346.279 151.701 350.125 151.5ZM338.15 155.175C341.806 156.592 345.66 157.435 349.575 157.675C354 158.075 384.125 158.125 387.55 157.95C392.715 157.865 397.829 156.91 402.675 155.125C403.14 158.194 402.965 161.327 402.16 164.327C401.356 167.325 399.94 170.125 398 172.55C391.925 179.675 353.5 181.3 344.275 174.8C338.2 170.625 337.1 162.275 338.15 155.15V155.175ZM318 228.575C318.525 230.25 80.15 230.325 79.9 230.3C69.9 230.3 72.4 230.3 69.05 229.475C68.15 229.275 67.975 229.275 67.8 228.4C67.5882 227.027 67.5296 225.635 67.625 224.25C67.6778 224.352 67.7623 224.435 67.8664 224.485C67.97 224.534 68.0873 224.548 68.2 224.525C68.2 224.525 317.925 221.125 319.55 221.075C320.225 224 320.325 226.725 318 228.575ZM388.325 76.85C388.325 76.85 388.475 76.6 388.525 76.675C388.575 76.75 388.325 76.825 388.2 76.85H388.325ZM264 13.8C264 12.175 264.65 6.025 266.1 5.275C269.4 3.625 374.275 2.225 388.6 6.7C391.1 11.95 390.3 70.925 388.2 76.85C375.9 78.775 314 78.625 297.9 80.275C298.875 60.6 299.3 44.025 298.5 40.8C298.346 40.3795 298.096 40.0004 297.771 39.6923C297.446 39.3841 297.054 39.1559 296.625 39.025C291.15 36.65 270.55 35.975 264.55 35.775C263.771 28.4768 263.588 21.1277 264 13.8ZM91.125 76.75C90.75 71.5 88.9 45 93.9 43.15C96.4 42.275 105.2 41.4 117.975 40.65C142.45 39.125 181.025 37.9 216.125 37.65C223.925 37.65 289.825 37.075 296.275 41.5C298.175 50.15 292.1 146.25 290.75 155.525C231.675 157.45 161.675 160.35 102.1 158.9C101.1 153.175 93.45 109 91.125 76.75ZM101.325 160.575C101.33 160.517 101.33 160.459 101.325 160.4C143.45 161.7 275.275 157.375 291.325 157.275C293.1 161.4 318.025 216.7 319.075 219.775C318.8 219.775 68 223.175 67.675 223.425C70.825 212.875 96.875 168.275 101.325 160.575ZM170.05 328.075C168.2 331.675 112.15 356.725 100.625 360.2C100.849 359.048 100.933 357.873 100.875 356.7C117.9 350.8 154.85 335.225 171.425 324.2C171.11 325.546 170.648 326.854 170.05 328.1V328.075ZM171.775 322.55C166.775 325.5 162 327.55 100.85 355.35C100.853 354.219 100.701 353.092 100.4 352C108.4 348.25 162.65 327.225 172.325 318.85C172.2 319.925 172.025 321.225 171.775 322.575V322.55ZM43 271.25C44.2023 272.667 44.9464 274.415 45.1341 276.263C45.3214 278.11 44.9437 279.971 44.05 281.6C43.65 282.225 44.6 282.875 45 282.225C46.5096 280.579 47.4018 278.463 47.525 276.234C47.6478 274.004 46.9946 271.802 45.675 270C57.825 264.425 69.775 259.175 73.05 257.75C73.8696 259.415 74.3082 261.24 74.3341 263.096C74.36 264.95 73.9727 266.788 73.2 268.475C72.9 269.275 73.8 269.575 74.225 269.05C75.6 267.302 76.4559 265.204 76.695 262.994C76.9337 260.784 76.5455 258.55 75.575 256.55C78.275 255.025 84.575 251.55 87.65 251.55C91.5 251.55 169.625 315.1 171.075 316.55C164.55 323.275 103.975 347.25 98.875 349.7C88.125 347.2 22.5252 290.775 16.3752 284.975C20.2002 281.8 38.7 273.25 43 271.25ZM14.4752 286.125C22.2752 293.75 87.35 350.55 98.25 352.35C98.0318 353.292 97.9309 354.259 97.95 355.225C80.45 346.675 30.4502 303.375 13.9002 289.45C13.9752 289.45 14.3502 287 14.5502 286.125H14.4752ZM14.8503 294.7C14.145 293.627 13.7953 292.359 13.8503 291.075C30.2002 307.575 76.35 348.15 97.925 356.6C97.8809 357.938 98.0155 359.273 98.325 360.575C85.5 357.7 16.5503 296.75 14.9253 294.7H14.8503ZM469.85 358.25C453.7 390.3 15.4502 381.925 8.35029 369.425C5.34075 364.194 3.3077 358.459 2.3503 352.5C3.3147 354.613 4.92561 356.363 6.9503 357.5C43.75 378.925 409.875 373.325 457.673 356.15C467.8 352.5 472.9 344.625 474.05 333.65C474.727 342.077 473.268 350.54 469.8 358.25H469.85Z" fill="black"/>
<path d="M95.4995 188.225C272.275 190.725 289.15 189.2 294.1 188.425C295.275 188.25 296.025 187.85 295.975 186.475C295.975 182.85 287.475 166.225 285.225 165.075C284.225 164.55 105.225 167.075 104.6 167.275C104.483 167.302 104.374 167.356 104.279 167.429C104.185 167.502 104.106 167.594 104.05 167.7C102.35 170.475 94.0495 184.175 94.4245 187.275C94.465 187.533 94.595 187.771 94.7909 187.944C94.9873 188.117 95.2377 188.217 95.4995 188.225ZM105.325 169C107.125 168.775 283.225 167.025 284.3 167.125C286.167 169.81 287.838 172.625 289.3 175.55C285.2 175.55 101.95 176.525 101 176.55C102.1 174.35 103.55 171.85 105.325 169ZM100.325 177.75C101.3 177.75 286.725 176.8 289.9 176.725C291.546 179.788 292.846 183.025 293.775 186.375C284.875 187.8 203.775 187.1 96.3995 186.375C97.4027 183.346 98.7005 180.425 100.275 177.65L100.325 177.75ZM233.475 196.725C232.977 195.621 232.162 194.69 231.133 194.05C230.106 193.408 228.91 193.088 227.7 193.125C221.35 193.125 168.025 191.65 163.225 193.6C160.16 197.313 157.789 201.548 156.225 206.1C156.075 207.2 156.625 207.7 157.3 207.775C172.3 209.4 222.025 210.95 234.925 208.575C236.525 208.275 236.725 206.575 236.4 204.95C235.627 202.142 234.648 199.392 233.475 196.725ZM158 206.1C159.435 202.044 161.385 198.188 163.8 194.625C167.6 193.375 217.025 195.975 227.775 195.95C228.415 195.927 229.048 196.09 229.598 196.417C230.148 196.746 230.592 197.225 230.875 197.8C232.09 200.396 233.038 203.11 233.7 205.9C221.025 207.875 167.2 206.75 158 206.1ZM407.1 199.925C403.575 195.075 385.9 195.3 379.975 195.475C374.975 195.475 356.8 196.3 356.8 201.2C356.821 201.596 356.935 201.984 357.135 202.327C357.335 202.671 357.615 202.96 357.95 203.175C358.425 203.55 355.15 236.5 359.65 254.175C361.125 260.025 363.025 262.925 368.6 265.35C379.3 270 397.05 268.975 404.175 259.05C405.6 256.15 405.3 247.7 405.425 245.125C416.5 247.325 425.575 242.825 427.925 230.9C429.4 223.225 427.5 218.2 424.225 215.15C422.038 213.369 419.45 212.142 416.687 211.577C413.923 211.01 411.062 211.121 408.35 211.9C408.256 211.931 408.154 211.942 408.056 211.925C407.956 211.91 407.862 211.873 407.783 211.813C407.702 211.754 407.635 211.677 407.592 211.588C407.546 211.498 407.523 211.4 407.525 211.3C407.525 209.975 408 201 407.1 199.925ZM359.6 200.45C366.35 196.5 393.85 196.2 402.725 200.225C403.025 200.375 404.15 200.95 404.15 201.2C404.15 201.45 403 202.05 402.725 202.175C396.025 205.2 372.1 206.575 359.525 201.975C358.65 201.5 359.525 200.55 359.525 200.45H359.6ZM409.05 214.45C411.323 213.796 413.719 213.702 416.035 214.175C418.352 214.65 420.519 215.679 422.35 217.175C425.05 219.675 426.4 223.975 425.15 230.35C424.902 232.567 424.133 234.692 422.908 236.556C421.683 238.419 420.035 239.969 418.1 241.075C414 242.921 409.383 243.273 405.05 242.075C404.838 241.998 404.61 241.965 404.385 241.979C404.158 241.994 403.937 242.054 403.735 242.156C403.533 242.26 403.356 242.404 403.213 242.579C403.069 242.754 402.962 242.956 402.9 243.175C402.225 245.075 403.175 252.75 401.8 257.6C395.475 266.175 379.3 266.95 369.725 262.925C364.875 260.85 363.525 258.7 362.225 253.525C358.875 241.25 358.675 216.25 359.425 203.95C367.3 207.675 394.575 208.75 405.3 203.25C405.3 211 404.35 212.3 406.3 213.875C406.677 214.16 407.113 214.358 407.575 214.458C408.035 214.556 408.515 214.554 408.975 214.45H409.05ZM166.2 267.425C159.634 261.856 152.571 256.902 145.1 252.625C142.221 250.927 139.16 249.56 135.975 248.55C133.3 247.85 132.175 249.225 132.725 251.05C133.851 253.671 135.341 256.119 137.15 258.325C142.902 265.606 149.517 272.163 156.85 277.85C168 287.175 182.45 298.475 193 306.5C193.537 306.894 194.148 307.175 194.795 307.327C195.443 307.481 196.115 307.504 196.773 307.396C197.429 307.285 198.056 307.046 198.621 306.69C199.183 306.335 199.669 305.871 200.05 305.325C201.9 303.3 203.05 299.75 200.975 297.825C198.575 295.675 183.9 281.85 166.2 267.425ZM142.25 261.875L138.825 256.35C140.044 255.844 141.075 254.969 141.775 253.85L147.2 256.05C145.838 256.321 144.608 257.042 143.71 258.1C142.811 259.158 142.296 260.488 142.25 261.875ZM149.925 268.25C148.118 266.729 146.445 265.056 144.925 263.25C145.1 260.225 146.05 258.875 149.075 258.775C151.09 259.738 152.993 260.921 154.75 262.3C153.405 262.627 152.205 263.388 151.334 264.46C150.462 265.535 149.967 266.867 149.925 268.25ZM192.675 304.625C189.9 302.3 153 271 150.725 269C150.915 267.6 151.527 266.292 152.478 265.248C153.428 264.202 154.674 263.471 156.05 263.15C164.675 269.55 177.075 280.15 198.7 298.15C197.858 298.106 197.017 298.25 196.236 298.567C195.455 298.883 194.752 299.367 194.178 299.984C193.604 300.6 193.172 301.335 192.912 302.138C192.652 302.94 192.571 303.788 192.675 304.625ZM390.775 332.325C393.9 334.45 396.075 333.475 398.1 330.525C403.1 323.425 420.6 292 420.6 291.75C420.6 291.5 420.8 291.975 419.975 281.875C419.94 281.496 419.802 281.131 419.577 280.823C419.354 280.515 419.05 280.273 418.7 280.123C418.35 279.971 417.965 279.917 417.587 279.967C417.208 280.015 416.85 280.165 416.55 280.4L408 286.625C408 286.625 389.025 325.85 388.825 326.2C388.481 327.298 388.485 328.475 388.833 329.571C389.183 330.667 389.86 331.627 390.775 332.325ZM417.25 283.45C417.4 285.275 417.6 287.7 417.75 289.375C415.894 288.485 413.95 287.792 411.95 287.3L417.25 283.45ZM410.1 289C412.267 290.535 414.771 291.531 417.4 291.9C417.025 292.55 397.925 327.4 397.725 327.75C397.144 326.569 396.19 325.613 395.01 325.029C393.831 324.446 392.492 324.269 391.2 324.525C393.15 320.9 409.4 290.25 410.1 289Z" fill="black"/>
<path d="M398.6 239.425C398.331 239.046 397.99 238.725 397.594 238.481C397.198 238.237 396.758 238.073 396.3 238C394.821 237.604 393.319 237.304 391.8 237.1C392.65 243.05 393.15 249.6 393.125 250.175C393.087 250.556 392.9 250.906 392.606 251.15C392.31 251.392 391.931 251.511 391.55 251.475C391.169 251.431 390.817 251.24 390.575 250.94C390.331 250.642 390.215 250.258 390.25 249.875C390.25 249.45 390.1 247.725 389.975 236.85C384.975 236.225 360.9 234.35 361.85 239.15C361.85 239.4 359.875 251.65 367.525 257.525C375.175 263.4 390.475 262.25 395.825 256.275C397.344 254.456 398.346 252.262 398.725 249.925C399.317 246.446 399.273 242.89 398.6 239.425ZM404.6 216.8C404.6 217.925 403.1 226.525 402.1 238.075L403.3 238.325C407.7 239.258 412.281 238.758 416.375 236.9C417.804 236.106 418.985 234.937 419.792 233.517C420.6 232.096 421 230.483 420.95 228.85C421.121 226.821 420.767 224.781 419.925 222.927C419.083 221.073 417.781 219.465 416.142 218.258C414.502 217.05 412.581 216.281 410.56 216.025C408.54 215.771 406.49 216.037 404.6 216.8ZM405.725 217.65C407.321 217.398 408.952 217.49 410.508 217.921C412.067 218.352 413.512 219.112 414.75 220.15C415.94 221.24 416.86 222.59 417.442 224.096C418.023 225.6 418.248 227.219 418.1 228.825C417.875 235.25 411.275 236.475 404.95 235.825C405.25 231.275 405.5 226.05 405.725 217.65ZM163.75 194.625C163.75 194.625 163.775 194.65 163.75 194.625V194.625ZM378.95 70.8996C378.944 71.345 379.025 71.7873 379.19 72.2009C379.356 72.6146 379.6 72.9914 379.913 73.31C380.223 73.6282 380.596 73.8818 381.004 74.0559C381.415 74.23 381.854 74.3218 382.3 74.325C382.981 74.3396 383.65 74.1518 384.223 73.7846C384.796 73.4173 385.248 72.8877 385.517 72.2632C385.787 71.6391 385.867 70.9482 385.744 70.2791C385.621 69.6096 385.3 68.9923 384.823 68.5059C384.348 68.0196 383.738 67.6855 383.071 67.5473C382.406 67.4091 381.713 67.4723 381.083 67.7291C380.452 67.9859 379.913 68.4246 379.533 68.9896C379.154 69.5541 378.95 70.2196 378.95 70.8996ZM105.325 153.375C105.9 154.5 106.65 154.625 107.125 154.275C107.6 153.925 265.925 152.55 277.7 151.925C280.233 151.964 282.758 151.644 285.2 150.975C290.825 145.975 293.025 52.4996 290.825 48.1746C285.2 36.9495 109.15 44.175 98.3255 47.45C89.7005 50.05 101.35 145.4 105.325 153.375ZM97.8505 51.4996C97.8505 51.0496 98.4005 49.2996 98.8255 49.1746C110.8 45.5746 284.675 39.65 289.4 49.05C289.804 50.9305 289.987 52.8518 289.95 54.775C290.375 65.675 289.95 89.0246 288.825 109.95C288.6 113.95 286.825 146.725 284.225 149.7C273.85 151.9 113.975 152.4 106.875 152.675C102.825 143.275 94.0755 67.9996 97.8505 51.4996ZM382.625 15.7746C383.304 15.7896 383.973 15.6023 384.546 15.2359C385.119 14.87 385.569 14.3418 385.84 13.7191C386.113 13.0959 386.192 12.4068 386.071 11.7382C385.948 11.0696 385.631 10.4523 385.158 9.96455C384.683 9.47728 384.077 9.14182 383.412 9.00046C382.748 8.85955 382.056 8.9191 381.425 9.17228C380.794 9.42501 380.254 9.86001 379.871 10.4214C379.487 10.9827 379.281 11.6455 379.275 12.3246C379.265 12.7723 379.344 13.2173 379.508 13.6336C379.671 14.05 379.917 14.43 380.229 14.7509C380.54 15.0723 380.913 15.3277 381.325 15.5036C381.735 15.6796 382.177 15.7718 382.625 15.7746Z" fill="black"/>
<path d="M146.776 114.5H176.476C179.912 114.486 183.204 113.11 185.627 110.673C188.05 108.236 189.407 104.937 189.401 101.5V77.3995C189.401 73.9555 188.045 70.6495 185.626 68.1977C183.207 65.7464 179.92 64.3459 176.476 64.2995H146.776C145.054 64.2932 143.347 64.6273 141.755 65.2836C140.162 65.9395 138.715 66.9041 137.498 68.1218C136.28 69.3396 135.315 70.7864 134.66 72.3786C134.004 73.9714 133.669 75.6777 133.676 77.3995V101.5C133.682 103.214 134.026 104.909 134.688 106.49C135.35 108.071 136.317 109.506 137.533 110.713C138.75 111.92 140.192 112.876 141.778 113.525C143.364 114.175 145.062 114.506 146.776 114.5ZM135.801 77.3995C135.846 74.51 137.02 71.7527 139.07 69.7164C141.121 67.6795 143.886 66.5255 146.776 66.4995H176.476C177.935 66.4832 179.384 66.7559 180.737 67.3023C182.09 67.8486 183.322 68.6577 184.361 69.6827C185.401 70.7082 186.226 71.9286 186.79 73.2746C187.355 74.6205 187.647 76.065 187.651 77.5246V101.5C187.644 102.961 187.35 104.406 186.785 105.753C186.22 107.1 185.395 108.323 184.357 109.352C183.32 110.38 182.089 111.194 180.737 111.747C179.385 112.3 177.937 112.581 176.476 112.575H146.776C145.328 112.568 143.895 112.277 142.56 111.716C141.225 111.156 140.014 110.339 138.995 109.31C137.975 108.282 137.169 107.063 136.621 105.723C136.073 104.382 135.794 102.948 135.801 101.5V77.3995ZM227.075 132.35C227.575 133.825 228.825 133.5 229.175 132.575C229.65 131.25 232.425 121.725 232.775 120.075C234.7 119.475 229.275 121.35 246.05 115.25C246.225 115.182 246.373 115.064 246.479 114.91C246.585 114.756 246.642 114.574 246.642 114.387C246.642 114.2 246.585 114.019 246.479 113.865C246.373 113.71 246.225 113.592 246.05 113.525L220.35 103.25C220.192 103.175 220.017 103.143 219.844 103.157C219.669 103.171 219.502 103.23 219.358 103.329C219.215 103.427 219.098 103.562 219.023 103.719C218.946 103.876 218.912 104.05 218.925 104.225C218.925 104.225 225.7 128.375 227.075 132.35ZM221.5 105.925L243.15 114.45C240.25 115.525 235.35 117.375 233 118.325C231.95 118.725 231.525 118.9 231.275 119.225C231.025 119.55 231.9 117.6 228.225 128.925L221.5 105.925ZM280.5 32.6245C280.529 32.7745 280.61 32.9095 280.729 33.0055C280.848 33.1018 280.998 33.1527 281.15 33.1495C281.675 33.1495 297.85 34.6995 301.15 33.8245C303.275 33.2495 303.65 29.4996 303.85 27.2996C304.1 23.9746 303.85 15.8246 302.45 13.0496C300.55 9.29955 286.525 10.5496 282.45 11.2746C281.369 11.4268 280.336 11.82 279.425 12.4245C278.896 13.0395 278.587 13.8141 278.55 14.6245C278.525 20.6786 279.179 26.7164 280.5 32.6245ZM281.225 14.3495C285.175 13.1245 296.425 12.6495 300 14.3495C301.225 17.5995 301.875 28.7746 300.4 31.3746C298.075 31.9746 283.875 31.9745 281.5 31.9995C281.425 30.0495 280.275 19.5245 281.225 14.3495ZM314.05 32.5246C314.083 32.6723 314.167 32.8046 314.283 32.9C314.402 32.995 314.548 33.0477 314.7 33.0496C315.225 33.0496 331.4 34.5996 334.7 33.7246C336.825 33.1496 337.2 29.3995 337.425 27.1995C337.65 23.8745 337.425 15.7246 336 12.9496C334.1 9.17455 320.075 10.4496 316 11.1746C314.921 11.3373 313.89 11.7296 312.975 12.3246C312.456 12.9464 312.15 13.7168 312.1 14.5245C312.077 20.5786 312.731 26.6164 314.05 32.5246ZM314.775 14.2496C318.725 12.9996 329.975 12.5496 333.55 14.2496C334.775 17.4996 335.425 28.6746 333.95 31.2496C331.625 31.8746 317.425 31.8745 315.05 31.8995C314.975 29.9495 313.825 19.4246 314.775 14.2496ZM349.15 33.6245C349.179 33.7745 349.261 33.9096 349.379 34.0055C349.498 34.1018 349.648 34.1527 349.8 34.1496C350.325 34.1496 366.5 35.6995 369.8 34.8245C371.925 34.2495 372.3 30.4995 372.5 28.2995C372.75 24.9745 372.5 16.8245 371.1 14.0495C369.2 10.2995 355.175 11.5495 351.1 12.2745C350.021 12.4332 348.987 12.8259 348.075 13.4246C347.546 14.0396 347.237 14.8141 347.2 15.6246C347.175 21.6786 347.829 27.7164 349.15 33.6245ZM349.875 15.3496C353.825 14.1246 365.075 13.6496 368.65 15.3496C369.875 18.5996 370.525 29.7745 369.05 32.3745C366.725 32.9745 352.525 32.9746 350.15 32.9996C350.075 31.0496 348.925 20.5246 349.875 15.3496ZM314.275 70.9746C314.45 71.4746 314.85 71.5245 314.925 71.4995C315.475 71.4995 331.625 73.0496 334.925 72.1746C337.05 71.5996 337.425 67.8496 337.65 65.6496C337.875 62.3246 337.65 54.1745 336.25 51.4245C334.325 47.6495 320.3 48.9245 316.25 49.6245C315.16 49.7795 314.121 50.1723 313.2 50.7745C312.677 51.4027 312.369 52.1832 312.325 52.9995C312.302 59.0455 312.956 65.0746 314.275 70.9746ZM315.025 52.6995C318.975 51.4745 330.2 50.9995 333.775 52.6995C335 55.9495 335.65 67.1246 334.175 69.7246C331.85 70.3246 317.675 70.3245 315.3 70.3495C315.2 68.3995 314.05 57.8745 315.025 52.6995ZM372.725 50.3995C376.725 44.4995 380.225 39.1745 380.35 38.9245C380.475 38.6745 378.65 36.4245 377.575 38.0245C369.925 49.7995 370.975 48.6745 370.425 48.4745C366.025 46.8745 351.825 47.4245 349.6 49.4995C348.1 50.8995 348.675 55.9745 348.85 58.1495C347.25 57.2495 346.025 56.5995 345.575 56.4245C344.425 55.9745 344.5 57.0995 345.125 57.4995L349.025 59.9996C349.342 63.285 349.85 66.5491 350.55 69.7746C350.575 69.9268 350.654 70.065 350.775 70.1618C350.894 70.2586 351.046 70.3077 351.2 70.2995C351.725 70.2995 367.9 71.8496 371.2 70.9746C375.5 69.7746 374.175 53.9995 372.725 50.3995ZM351.275 51.4245C357.156 50.0868 363.25 49.9759 369.175 51.0996L360.5 64.7745C359.625 64.2745 354.95 61.5246 351.05 59.3246C350.886 56.715 350.961 54.0959 351.275 51.4995V51.4245ZM370.45 68.4245C368.1 69.0495 353.925 69.0496 351.55 69.0746C351.55 68.0746 351.175 64.7995 351 61.1745L360.5 67.0746C360.74 67.1009 360.983 67.0586 361.2 66.9523C361.417 66.8464 361.598 66.6805 361.725 66.4746C362.525 65.4496 366.55 59.5995 370.65 53.5745C371.425 58.0745 371.675 66.2745 370.5 68.4245H370.45ZM271.05 14.9495C271.729 14.9595 272.394 14.7677 272.965 14.3986C273.533 14.0296 273.979 13.4996 274.248 12.8764C274.515 12.2527 274.592 11.5641 274.467 10.8968C274.342 10.23 274.023 9.615 273.548 9.13C273.073 8.645 272.467 8.31182 271.802 8.17273C271.138 8.03364 270.448 8.095 269.819 8.3491C269.19 8.60273 268.65 9.03773 268.269 9.59864C267.887 10.1596 267.679 10.8214 267.675 11.4996C267.675 12.4018 268.027 13.2682 268.658 13.9132C269.29 14.5582 270.148 14.93 271.05 14.9495Z" fill="black"/>
</svg>
