<svg width="50" height="50" viewBox="0 0 50 50" fill="none" xmlns="http://www.w3.org/2000/svg">
<path d="M35.6041 5.87504C33.6881 4.29918 31.4444 3.17093 29.0368 2.57263C26.6291 1.97433 24.1183 1.92106 21.6875 2.41671C18.4508 3.0705 15.4812 4.67103 13.1556 7.01521C10.8299 9.35939 9.25305 12.3416 8.62498 15.5834C8.16633 18.014 8.24967 20.516 8.86907 22.9107C9.48846 25.3055 10.6287 27.5341 12.2083 29.4375C13.6743 31.0919 14.5146 33.2074 14.5833 35.4167V41.6667C14.5833 43.3243 15.2418 44.914 16.4139 46.0861C17.586 47.2582 19.1757 47.9167 20.8333 47.9167H29.1666C30.8243 47.9167 32.414 47.2582 33.5861 46.0861C34.7582 44.914 35.4166 43.3243 35.4166 41.6667V35.8125C35.4866 33.3733 36.3827 31.0301 37.9583 29.1667C40.719 25.7517 42.0203 21.3851 41.5795 17.0159C41.1387 12.6468 38.9913 8.62814 35.6041 5.83337V5.87504ZM31.25 41.6667C31.25 42.2192 31.0305 42.7491 30.6398 43.1399C30.2491 43.5306 29.7192 43.75 29.1666 43.75H20.8333C20.2808 43.75 19.7509 43.5306 19.3602 43.1399C18.9695 42.7491 18.75 42.2192 18.75 41.6667V39.5834H31.25V41.6667ZM34.7291 26.5834C32.6344 29.068 31.4122 32.171 31.25 35.4167H27.0833V29.1667C27.0833 28.6142 26.8638 28.0843 26.4731 27.6936C26.0824 27.3029 25.5525 27.0834 25 27.0834C24.4474 27.0834 23.9175 27.3029 23.5268 27.6936C23.1361 28.0843 22.9166 28.6142 22.9166 29.1667V35.4167H18.75C18.695 32.2253 17.5145 29.1558 15.4166 26.75C14.0326 25.0917 13.1018 23.103 12.7152 20.9778C12.3286 18.8527 12.4993 16.6636 13.2106 14.6241C13.9219 12.5845 15.1496 10.7641 16.774 9.3403C18.3984 7.91652 20.364 6.93796 22.4791 6.50004C24.297 6.12576 26.1753 6.16096 27.9778 6.6031C29.7803 7.04524 31.4618 7.88322 32.9001 9.05619C34.3384 10.2292 35.4974 11.7077 36.2931 13.3845C37.0887 15.0612 37.501 16.8941 37.5 18.75C37.5154 21.6039 36.5356 24.3739 34.7291 26.5834Z" fill="#00ADB5"/>
</svg>
