<svg width="312" height="312" viewBox="0 0 312 312" fill="none" xmlns="http://www.w3.org/2000/svg">
<g filter="url(#filter0_d_142_10)">
<rect x="18" y="14" width="276" height="276" rx="10" fill="#A0A0A0"/>
</g>
<path d="M54.8667 242.14C54.008 242.14 53.294 241.981 52.7247 241.664C52.1647 241.347 51.74 240.903 51.4507 240.334C51.1614 239.765 51.0027 239.102 50.9747 238.346C50.9654 237.963 50.9607 237.553 50.9607 237.114C50.9607 236.675 50.9654 236.255 50.9747 235.854C51.0027 235.098 51.1614 234.435 51.4507 233.866C51.74 233.297 52.1647 232.853 52.7247 232.536C53.294 232.219 54.008 232.06 54.8667 232.06C55.5107 232.06 56.0754 232.149 56.5607 232.326C57.046 232.503 57.4474 232.741 57.7647 233.04C58.0914 233.339 58.3387 233.675 58.5067 234.048C58.6747 234.412 58.768 234.79 58.7867 235.182C58.796 235.266 58.768 235.336 58.7027 235.392C58.6467 235.448 58.5767 235.476 58.4927 235.476H57.7227C57.6387 235.476 57.564 235.453 57.4987 235.406C57.4427 235.359 57.4007 235.275 57.3727 235.154C57.214 234.426 56.9154 233.927 56.4767 233.656C56.0474 233.385 55.506 233.25 54.8527 233.25C54.106 233.25 53.5134 233.465 53.0747 233.894C52.636 234.314 52.398 234.991 52.3607 235.924C52.3327 236.689 52.3327 237.473 52.3607 238.276C52.398 239.209 52.636 239.891 53.0747 240.32C53.5134 240.74 54.106 240.95 54.8527 240.95C55.506 240.95 56.0474 240.815 56.4767 240.544C56.9154 240.273 57.214 239.774 57.3727 239.046C57.4007 238.925 57.4427 238.841 57.4987 238.794C57.564 238.747 57.6387 238.724 57.7227 238.724H58.4927C58.5767 238.724 58.6467 238.752 58.7027 238.808C58.768 238.864 58.796 238.934 58.7867 239.018C58.768 239.41 58.6747 239.793 58.5067 240.166C58.3387 240.53 58.0914 240.861 57.7647 241.16C57.4474 241.459 57.046 241.697 56.5607 241.874C56.0754 242.051 55.5107 242.14 54.8667 242.14ZM64.5829 242.14C63.8736 242.14 63.2809 242.005 62.8049 241.734C62.3289 241.463 61.9649 241.09 61.7129 240.614C61.4609 240.129 61.3209 239.578 61.2929 238.962C61.2836 238.803 61.2789 238.603 61.2789 238.36C61.2789 238.108 61.2836 237.907 61.2929 237.758C61.3209 237.133 61.4609 236.582 61.7129 236.106C61.9743 235.63 62.3429 235.257 62.8189 234.986C63.2949 234.715 63.8829 234.58 64.5829 234.58C65.2829 234.58 65.8709 234.715 66.3469 234.986C66.8229 235.257 67.1869 235.63 67.4389 236.106C67.7003 236.582 67.8449 237.133 67.8729 237.758C67.8823 237.907 67.8869 238.108 67.8869 238.36C67.8869 238.603 67.8823 238.803 67.8729 238.962C67.8449 239.578 67.7049 240.129 67.4529 240.614C67.2009 241.09 66.8369 241.463 66.3609 241.734C65.8849 242.005 65.2923 242.14 64.5829 242.14ZM64.5829 241.062C65.1616 241.062 65.6236 240.88 65.9689 240.516C66.3143 240.143 66.5009 239.601 66.5289 238.892C66.5383 238.752 66.5429 238.575 66.5429 238.36C66.5429 238.145 66.5383 237.968 66.5289 237.828C66.5009 237.119 66.3143 236.582 65.9689 236.218C65.6236 235.845 65.1616 235.658 64.5829 235.658C64.0043 235.658 63.5376 235.845 63.1829 236.218C62.8376 236.582 62.6556 237.119 62.6369 237.828C62.6276 237.968 62.6229 238.145 62.6229 238.36C62.6229 238.575 62.6276 238.752 62.6369 238.892C62.6556 239.601 62.8376 240.143 63.1829 240.516C63.5376 240.88 64.0043 241.062 64.5829 241.062ZM71.082 242C70.9887 242 70.9093 241.972 70.844 241.916C70.788 241.851 70.76 241.771 70.76 241.678V235.042C70.76 234.949 70.788 234.874 70.844 234.818C70.9093 234.753 70.9887 234.72 71.082 234.72H71.74C71.8333 234.72 71.908 234.753 71.964 234.818C72.0293 234.874 72.062 234.949 72.062 235.042V235.658C72.3047 235.341 72.608 235.084 72.972 234.888C73.3453 234.683 73.8213 234.58 74.4 234.58C75.0067 234.58 75.52 234.715 75.94 234.986C76.3693 235.247 76.6913 235.616 76.906 236.092C77.1207 236.559 77.228 237.105 77.228 237.73V241.678C77.228 241.771 77.2 241.851 77.144 241.916C77.088 241.972 77.0133 242 76.92 242H76.22C76.1267 242 76.0473 241.972 75.982 241.916C75.926 241.851 75.898 241.771 75.898 241.678V237.8C75.898 237.147 75.7393 236.638 75.422 236.274C75.1047 235.901 74.638 235.714 74.022 235.714C73.4433 235.714 72.9767 235.901 72.622 236.274C72.2767 236.638 72.104 237.147 72.104 237.8V241.678C72.104 241.771 72.0713 241.851 72.006 241.916C71.95 241.972 71.8753 242 71.782 242H71.082ZM82.8902 242.14C82.3676 242.14 81.9196 242.075 81.5462 241.944C81.1729 241.813 80.8696 241.655 80.6362 241.468C80.4029 241.281 80.2256 241.095 80.1042 240.908C79.9922 240.721 79.9316 240.572 79.9222 240.46C79.9129 240.357 79.9456 240.278 80.0202 240.222C80.0949 240.166 80.1696 240.138 80.2442 240.138H80.8602C80.9162 240.138 80.9582 240.147 80.9862 240.166C81.0236 240.175 81.0702 240.213 81.1262 240.278C81.2476 240.409 81.3829 240.539 81.5322 240.67C81.6816 240.801 81.8636 240.908 82.0782 240.992C82.3022 241.076 82.5776 241.118 82.9042 241.118C83.3802 241.118 83.7722 241.029 84.0802 240.852C84.3882 240.665 84.5422 240.395 84.5422 240.04C84.5422 239.807 84.4769 239.62 84.3462 239.48C84.2249 239.34 84.0009 239.214 83.6742 239.102C83.3569 238.99 82.9182 238.873 82.3582 238.752C81.7982 238.621 81.3549 238.463 81.0282 238.276C80.7016 238.08 80.4682 237.851 80.3282 237.59C80.1882 237.319 80.1182 237.016 80.1182 236.68C80.1182 236.335 80.2209 236.003 80.4262 235.686C80.6316 235.359 80.9302 235.093 81.3222 234.888C81.7236 234.683 82.2229 234.58 82.8202 234.58C83.3056 234.58 83.7209 234.641 84.0662 234.762C84.4116 234.883 84.6962 235.037 84.9202 235.224C85.1442 235.401 85.3122 235.579 85.4242 235.756C85.5362 235.933 85.5969 236.083 85.6062 236.204C85.6156 236.297 85.5876 236.377 85.5222 236.442C85.4569 236.498 85.3822 236.526 85.2982 236.526H84.7102C84.6449 236.526 84.5889 236.512 84.5422 236.484C84.5049 236.456 84.4676 236.423 84.4302 236.386C84.3369 236.265 84.2249 236.143 84.0942 236.022C83.9729 235.901 83.8096 235.803 83.6042 235.728C83.4082 235.644 83.1469 235.602 82.8202 235.602C82.3536 235.602 82.0036 235.7 81.7702 235.896C81.5369 236.092 81.4202 236.339 81.4202 236.638C81.4202 236.815 81.4716 236.974 81.5742 237.114C81.6769 237.254 81.8729 237.38 82.1622 237.492C82.4516 237.604 82.8809 237.725 83.4502 237.856C84.0662 237.977 84.5516 238.141 84.9062 238.346C85.2609 238.551 85.5129 238.789 85.6622 239.06C85.8116 239.331 85.8862 239.643 85.8862 239.998C85.8862 240.39 85.7696 240.749 85.5362 241.076C85.3122 241.403 84.9762 241.664 84.5282 241.86C84.0896 242.047 83.5436 242.14 82.8902 242.14ZM91.3429 242.14C90.7456 242.14 90.2369 242.009 89.8169 241.748C89.4063 241.477 89.0936 241.104 88.8789 240.628C88.6643 240.152 88.5569 239.606 88.5569 238.99V235.042C88.5569 234.949 88.5849 234.874 88.6409 234.818C88.7063 234.753 88.7856 234.72 88.8789 234.72H89.5789C89.6723 234.72 89.7469 234.753 89.8029 234.818C89.8683 234.874 89.9009 234.949 89.9009 235.042V238.92C89.9009 240.311 90.5076 241.006 91.7209 241.006C92.2996 241.006 92.7616 240.824 93.1069 240.46C93.4616 240.087 93.6389 239.573 93.6389 238.92V235.042C93.6389 234.949 93.6669 234.874 93.7229 234.818C93.7883 234.753 93.8676 234.72 93.9609 234.72H94.6469C94.7496 234.72 94.8289 234.753 94.8849 234.818C94.9409 234.874 94.9689 234.949 94.9689 235.042V241.678C94.9689 241.771 94.9409 241.851 94.8849 241.916C94.8289 241.972 94.7496 242 94.6469 242H94.0029C93.9096 242 93.8303 241.972 93.7649 241.916C93.7089 241.851 93.6809 241.771 93.6809 241.678V241.062C93.4289 241.389 93.1209 241.65 92.7569 241.846C92.4023 242.042 91.9309 242.14 91.3429 242.14ZM98.5048 242C98.4115 242 98.3322 241.972 98.2668 241.916C98.2108 241.851 98.1828 241.771 98.1828 241.678V232.382C98.1828 232.289 98.2108 232.214 98.2668 232.158C98.3322 232.093 98.4115 232.06 98.5048 232.06H99.1628C99.2655 232.06 99.3448 232.093 99.4008 232.158C99.4568 232.214 99.4848 232.289 99.4848 232.382V241.678C99.4848 241.771 99.4568 241.851 99.4008 241.916C99.3448 241.972 99.2655 242 99.1628 242H98.5048ZM105.535 242C105.012 242 104.588 241.902 104.261 241.706C103.934 241.501 103.696 241.216 103.547 240.852C103.398 240.479 103.323 240.04 103.323 239.536V235.84H102.231C102.138 235.84 102.058 235.812 101.993 235.756C101.937 235.691 101.909 235.611 101.909 235.518V235.042C101.909 234.949 101.937 234.874 101.993 234.818C102.058 234.753 102.138 234.72 102.231 234.72H103.323V232.382C103.323 232.289 103.351 232.214 103.407 232.158C103.472 232.093 103.552 232.06 103.645 232.06H104.303C104.396 232.06 104.471 232.093 104.527 232.158C104.592 232.214 104.625 232.289 104.625 232.382V234.72H106.361C106.454 234.72 106.529 234.753 106.585 234.818C106.65 234.874 106.683 234.949 106.683 235.042V235.518C106.683 235.611 106.65 235.691 106.585 235.756C106.529 235.812 106.454 235.84 106.361 235.84H104.625V239.438C104.625 239.877 104.7 240.222 104.849 240.474C104.998 240.726 105.264 240.852 105.647 240.852H106.501C106.594 240.852 106.669 240.885 106.725 240.95C106.79 241.006 106.823 241.081 106.823 241.174V241.678C106.823 241.771 106.79 241.851 106.725 241.916C106.669 241.972 106.594 242 106.501 242H105.535ZM115.437 242C115.316 242 115.223 241.972 115.157 241.916C115.092 241.851 115.036 241.762 114.989 241.65L113.001 235.154C112.983 235.107 112.973 235.061 112.973 235.014C112.973 234.93 113.001 234.86 113.057 234.804C113.123 234.748 113.193 234.72 113.267 234.72H113.883C113.986 234.72 114.065 234.748 114.121 234.804C114.177 234.86 114.215 234.911 114.233 234.958L115.787 240.236L117.453 235.014C117.472 234.949 117.509 234.883 117.565 234.818C117.631 234.753 117.724 234.72 117.845 234.72H118.321C118.443 234.72 118.536 234.753 118.601 234.818C118.667 234.883 118.704 234.949 118.713 235.014L120.379 240.236L121.933 234.958C121.943 234.911 121.975 234.86 122.031 234.804C122.087 234.748 122.167 234.72 122.269 234.72H122.885C122.969 234.72 123.039 234.748 123.095 234.804C123.151 234.86 123.179 234.93 123.179 235.014C123.179 235.061 123.17 235.107 123.151 235.154L121.163 241.65C121.135 241.762 121.084 241.851 121.009 241.916C120.944 241.972 120.846 242 120.715 242H120.169C120.048 242 119.945 241.972 119.861 241.916C119.787 241.851 119.735 241.762 119.707 241.65L118.083 236.638L116.459 241.65C116.422 241.762 116.366 241.851 116.291 241.916C116.217 241.972 116.114 242 115.983 242H115.437ZM126.172 242C126.079 242 125.999 241.972 125.934 241.916C125.878 241.851 125.85 241.771 125.85 241.678V235.042C125.85 234.949 125.878 234.874 125.934 234.818C125.999 234.753 126.079 234.72 126.172 234.72H126.844C126.937 234.72 127.012 234.753 127.068 234.818C127.124 234.874 127.152 234.949 127.152 235.042V241.678C127.152 241.771 127.124 241.851 127.068 241.916C127.012 241.972 126.937 242 126.844 242H126.172ZM126.06 233.362C125.967 233.362 125.887 233.334 125.822 233.278C125.766 233.213 125.738 233.133 125.738 233.04V232.284C125.738 232.191 125.766 232.116 125.822 232.06C125.887 231.995 125.967 231.962 126.06 231.962H126.942C127.035 231.962 127.11 231.995 127.166 232.06C127.231 232.116 127.264 232.191 127.264 232.284V233.04C127.264 233.133 127.231 233.213 127.166 233.278C127.11 233.334 127.035 233.362 126.942 233.362H126.06ZM133.203 242C132.68 242 132.255 241.902 131.929 241.706C131.602 241.501 131.364 241.216 131.215 240.852C131.065 240.479 130.991 240.04 130.991 239.536V235.84H129.899C129.805 235.84 129.726 235.812 129.661 235.756C129.605 235.691 129.577 235.611 129.577 235.518V235.042C129.577 234.949 129.605 234.874 129.661 234.818C129.726 234.753 129.805 234.72 129.899 234.72H130.991V232.382C130.991 232.289 131.019 232.214 131.075 232.158C131.14 232.093 131.219 232.06 131.313 232.06H131.971C132.064 232.06 132.139 232.093 132.195 232.158C132.26 232.214 132.293 232.289 132.293 232.382V234.72H134.029C134.122 234.72 134.197 234.753 134.253 234.818C134.318 234.874 134.351 234.949 134.351 235.042V235.518C134.351 235.611 134.318 235.691 134.253 235.756C134.197 235.812 134.122 235.84 134.029 235.84H132.293V239.438C132.293 239.877 132.367 240.222 132.517 240.474C132.666 240.726 132.932 240.852 133.315 240.852H134.169C134.262 240.852 134.337 240.885 134.393 240.95C134.458 241.006 134.491 241.081 134.491 241.174V241.678C134.491 241.771 134.458 241.851 134.393 241.916C134.337 241.972 134.262 242 134.169 242H133.203ZM137.285 242C137.192 242 137.113 241.972 137.047 241.916C136.991 241.851 136.963 241.771 136.963 241.678V232.382C136.963 232.289 136.991 232.214 137.047 232.158C137.113 232.093 137.192 232.06 137.285 232.06H137.985C138.088 232.06 138.167 232.093 138.223 232.158C138.279 232.214 138.307 232.289 138.307 232.382V235.644C138.559 235.327 138.867 235.07 139.231 234.874C139.595 234.678 140.057 234.58 140.617 234.58C141.224 234.58 141.737 234.715 142.157 234.986C142.587 235.247 142.909 235.616 143.123 236.092C143.347 236.559 143.459 237.105 143.459 237.73V241.678C143.459 241.771 143.431 241.851 143.375 241.916C143.319 241.972 143.24 242 143.137 242H142.437C142.344 242 142.265 241.972 142.199 241.916C142.143 241.851 142.115 241.771 142.115 241.678V237.8C142.115 237.147 141.957 236.638 141.639 236.274C141.322 235.901 140.855 235.714 140.239 235.714C139.661 235.714 139.194 235.901 138.839 236.274C138.485 236.638 138.307 237.147 138.307 237.8V241.678C138.307 241.771 138.279 241.851 138.223 241.916C138.167 241.972 138.088 242 137.985 242H137.285ZM153.98 242C153.887 242 153.808 241.972 153.742 241.916C153.686 241.851 153.658 241.771 153.658 241.678V233.838L151.334 235.63C151.26 235.686 151.18 235.709 151.096 235.7C151.012 235.691 150.942 235.649 150.886 235.574L150.522 235.112C150.466 235.028 150.443 234.944 150.452 234.86C150.471 234.776 150.518 234.706 150.592 234.65L153.644 232.298C153.71 232.251 153.77 232.223 153.826 232.214C153.882 232.205 153.943 232.2 154.008 232.2H154.722C154.816 232.2 154.89 232.233 154.946 232.298C155.002 232.354 155.03 232.429 155.03 232.522V241.678C155.03 241.771 155.002 241.851 154.946 241.916C154.89 241.972 154.816 242 154.722 242H153.98ZM161.663 242.14C161.019 242.14 160.473 242.042 160.025 241.846C159.586 241.641 159.227 241.361 158.947 241.006C158.667 240.651 158.461 240.245 158.331 239.788C158.209 239.331 158.139 238.845 158.121 238.332C158.111 238.08 158.102 237.814 158.093 237.534C158.093 237.254 158.093 236.974 158.093 236.694C158.102 236.405 158.111 236.129 158.121 235.868C158.13 235.355 158.2 234.869 158.331 234.412C158.471 233.945 158.676 233.539 158.947 233.194C159.227 232.839 159.591 232.564 160.039 232.368C160.487 232.163 161.028 232.06 161.663 232.06C162.307 232.06 162.848 232.163 163.287 232.368C163.735 232.564 164.099 232.839 164.379 233.194C164.659 233.539 164.864 233.945 164.995 234.412C165.135 234.869 165.209 235.355 165.219 235.868C165.228 236.129 165.233 236.405 165.233 236.694C165.242 236.974 165.242 237.254 165.233 237.534C165.233 237.814 165.228 238.08 165.219 238.332C165.209 238.845 165.135 239.331 164.995 239.788C164.864 240.245 164.659 240.651 164.379 241.006C164.108 241.361 163.749 241.641 163.301 241.846C162.862 242.042 162.316 242.14 161.663 242.14ZM161.663 240.95C162.391 240.95 162.927 240.712 163.273 240.236C163.627 239.751 163.809 239.093 163.819 238.262C163.837 237.991 163.847 237.73 163.847 237.478C163.847 237.217 163.847 236.96 163.847 236.708C163.847 236.447 163.837 236.19 163.819 235.938C163.809 235.126 163.627 234.477 163.273 233.992C162.927 233.497 162.391 233.25 161.663 233.25C160.944 233.25 160.407 233.497 160.053 233.992C159.707 234.477 159.525 235.126 159.507 235.938C159.507 236.19 159.502 236.447 159.493 236.708C159.493 236.96 159.493 237.217 159.493 237.478C159.502 237.73 159.507 237.991 159.507 238.262C159.525 239.093 159.712 239.751 160.067 240.236C160.421 240.712 160.953 240.95 161.663 240.95ZM167.964 243.05C167.89 243.05 167.829 243.022 167.782 242.966C167.745 242.91 167.731 242.84 167.74 242.756L168.062 240.754C168.081 240.642 168.118 240.549 168.174 240.474C168.24 240.39 168.333 240.348 168.454 240.348H169.392C169.458 240.348 169.509 240.371 169.546 240.418C169.593 240.465 169.616 240.521 169.616 240.586C169.616 240.661 169.598 240.735 169.56 240.81L168.832 242.728C168.795 242.821 168.744 242.896 168.678 242.952C168.622 243.017 168.538 243.05 168.426 243.05H167.964ZM175.865 242.14C175.221 242.14 174.675 242.042 174.227 241.846C173.789 241.641 173.429 241.361 173.149 241.006C172.869 240.651 172.664 240.245 172.533 239.788C172.412 239.331 172.342 238.845 172.323 238.332C172.314 238.08 172.305 237.814 172.295 237.534C172.295 237.254 172.295 236.974 172.295 236.694C172.305 236.405 172.314 236.129 172.323 235.868C172.333 235.355 172.403 234.869 172.533 234.412C172.673 233.945 172.879 233.539 173.149 233.194C173.429 232.839 173.793 232.564 174.241 232.368C174.689 232.163 175.231 232.06 175.865 232.06C176.509 232.06 177.051 232.163 177.489 232.368C177.937 232.564 178.301 232.839 178.581 233.194C178.861 233.539 179.067 233.945 179.197 234.412C179.337 234.869 179.412 235.355 179.421 235.868C179.431 236.129 179.435 236.405 179.435 236.694C179.445 236.974 179.445 237.254 179.435 237.534C179.435 237.814 179.431 238.08 179.421 238.332C179.412 238.845 179.337 239.331 179.197 239.788C179.067 240.245 178.861 240.651 178.581 241.006C178.311 241.361 177.951 241.641 177.503 241.846C177.065 242.042 176.519 242.14 175.865 242.14ZM175.865 240.95C176.593 240.95 177.13 240.712 177.475 240.236C177.83 239.751 178.012 239.093 178.021 238.262C178.04 237.991 178.049 237.73 178.049 237.478C178.049 237.217 178.049 236.96 178.049 236.708C178.049 236.447 178.04 236.19 178.021 235.938C178.012 235.126 177.83 234.477 177.475 233.992C177.13 233.497 176.593 233.25 175.865 233.25C175.147 233.25 174.61 233.497 174.255 233.992C173.91 234.477 173.728 235.126 173.709 235.938C173.709 236.19 173.705 236.447 173.695 236.708C173.695 236.96 173.695 237.217 173.695 237.478C173.705 237.73 173.709 237.991 173.709 238.262C173.728 239.093 173.915 239.751 174.269 240.236C174.624 240.712 175.156 240.95 175.865 240.95ZM185.872 242.14C185.228 242.14 184.682 242.042 184.234 241.846C183.795 241.641 183.436 241.361 183.156 241.006C182.876 240.651 182.671 240.245 182.54 239.788C182.419 239.331 182.349 238.845 182.33 238.332C182.321 238.08 182.311 237.814 182.302 237.534C182.302 237.254 182.302 236.974 182.302 236.694C182.311 236.405 182.321 236.129 182.33 235.868C182.339 235.355 182.409 234.869 182.54 234.412C182.68 233.945 182.885 233.539 183.156 233.194C183.436 232.839 183.8 232.564 184.248 232.368C184.696 232.163 185.237 232.06 185.872 232.06C186.516 232.06 187.057 232.163 187.496 232.368C187.944 232.564 188.308 232.839 188.588 233.194C188.868 233.539 189.073 233.945 189.204 234.412C189.344 234.869 189.419 235.355 189.428 235.868C189.437 236.129 189.442 236.405 189.442 236.694C189.451 236.974 189.451 237.254 189.442 237.534C189.442 237.814 189.437 238.08 189.428 238.332C189.419 238.845 189.344 239.331 189.204 239.788C189.073 240.245 188.868 240.651 188.588 241.006C188.317 241.361 187.958 241.641 187.51 241.846C187.071 242.042 186.525 242.14 185.872 242.14ZM185.872 240.95C186.6 240.95 187.137 240.712 187.482 240.236C187.837 239.751 188.019 239.093 188.028 238.262C188.047 237.991 188.056 237.73 188.056 237.478C188.056 237.217 188.056 236.96 188.056 236.708C188.056 236.447 188.047 236.19 188.028 235.938C188.019 235.126 187.837 234.477 187.482 233.992C187.137 233.497 186.6 233.25 185.872 233.25C185.153 233.25 184.617 233.497 184.262 233.992C183.917 234.477 183.735 235.126 183.716 235.938C183.716 236.19 183.711 236.447 183.702 236.708C183.702 236.96 183.702 237.217 183.702 237.478C183.711 237.73 183.716 237.991 183.716 238.262C183.735 239.093 183.921 239.751 184.276 240.236C184.631 240.712 185.163 240.95 185.872 240.95ZM195.879 242.14C195.235 242.14 194.689 242.042 194.241 241.846C193.802 241.641 193.443 241.361 193.163 241.006C192.883 240.651 192.678 240.245 192.547 239.788C192.426 239.331 192.356 238.845 192.337 238.332C192.328 238.08 192.318 237.814 192.309 237.534C192.309 237.254 192.309 236.974 192.309 236.694C192.318 236.405 192.328 236.129 192.337 235.868C192.346 235.355 192.416 234.869 192.547 234.412C192.687 233.945 192.892 233.539 193.163 233.194C193.443 232.839 193.807 232.564 194.255 232.368C194.703 232.163 195.244 232.06 195.879 232.06C196.523 232.06 197.064 232.163 197.503 232.368C197.951 232.564 198.315 232.839 198.595 233.194C198.875 233.539 199.08 233.945 199.211 234.412C199.351 234.869 199.426 235.355 199.435 235.868C199.444 236.129 199.449 236.405 199.449 236.694C199.458 236.974 199.458 237.254 199.449 237.534C199.449 237.814 199.444 238.08 199.435 238.332C199.426 238.845 199.351 239.331 199.211 239.788C199.08 240.245 198.875 240.651 198.595 241.006C198.324 241.361 197.965 241.641 197.517 241.846C197.078 242.042 196.532 242.14 195.879 242.14ZM195.879 240.95C196.607 240.95 197.144 240.712 197.489 240.236C197.844 239.751 198.026 239.093 198.035 238.262C198.054 237.991 198.063 237.73 198.063 237.478C198.063 237.217 198.063 236.96 198.063 236.708C198.063 236.447 198.054 236.19 198.035 235.938C198.026 235.126 197.844 234.477 197.489 233.992C197.144 233.497 196.607 233.25 195.879 233.25C195.16 233.25 194.624 233.497 194.269 233.992C193.924 234.477 193.742 235.126 193.723 235.938C193.723 236.19 193.718 236.447 193.709 236.708C193.709 236.96 193.709 237.217 193.709 237.478C193.718 237.73 193.723 237.991 193.723 238.262C193.742 239.093 193.928 239.751 194.283 240.236C194.638 240.712 195.17 240.95 195.879 240.95ZM205.55 241.538C205.456 241.538 205.377 241.51 205.312 241.454C205.256 241.389 205.228 241.309 205.228 241.216V238.304H202.358C202.264 238.304 202.185 238.276 202.12 238.22C202.064 238.155 202.036 238.075 202.036 237.982V237.534C202.036 237.441 202.064 237.366 202.12 237.31C202.185 237.245 202.264 237.212 202.358 237.212H205.228V234.384C205.228 234.291 205.256 234.216 205.312 234.16C205.377 234.095 205.456 234.062 205.55 234.062H206.04C206.133 234.062 206.208 234.095 206.264 234.16C206.329 234.216 206.362 234.291 206.362 234.384V237.212H209.246C209.339 237.212 209.414 237.245 209.47 237.31C209.535 237.366 209.568 237.441 209.568 237.534V237.982C209.568 238.075 209.535 238.155 209.47 238.22C209.414 238.276 209.339 238.304 209.246 238.304H206.362V241.216C206.362 241.309 206.329 241.389 206.264 241.454C206.208 241.51 206.133 241.538 206.04 241.538H205.55ZM217.186 242C217.093 242 217.014 241.972 216.948 241.916C216.892 241.851 216.864 241.771 216.864 241.678V235.042C216.864 234.949 216.892 234.874 216.948 234.818C217.014 234.753 217.093 234.72 217.186 234.72H217.816C217.91 234.72 217.984 234.753 218.04 234.818C218.106 234.874 218.138 234.949 218.138 235.042V235.532C218.353 235.243 218.624 235.014 218.95 234.846C219.277 234.669 219.669 234.58 220.126 234.58C221.181 234.571 221.928 235 222.366 235.868C222.581 235.476 222.894 235.163 223.304 234.93C223.715 234.697 224.182 234.58 224.704 234.58C225.19 234.58 225.628 234.692 226.02 234.916C226.422 235.14 226.734 235.481 226.958 235.938C227.192 236.386 227.308 236.951 227.308 237.632V241.678C227.308 241.771 227.276 241.851 227.21 241.916C227.154 241.972 227.08 242 226.986 242H226.328C226.235 242 226.156 241.972 226.09 241.916C226.034 241.851 226.006 241.771 226.006 241.678V237.758C226.006 237.235 225.932 236.825 225.782 236.526C225.633 236.227 225.432 236.017 225.18 235.896C224.928 235.775 224.653 235.714 224.354 235.714C224.112 235.714 223.864 235.775 223.612 235.896C223.36 236.017 223.15 236.227 222.982 236.526C222.824 236.825 222.744 237.235 222.744 237.758V241.678C222.744 241.771 222.712 241.851 222.646 241.916C222.59 241.972 222.516 242 222.422 242H221.764C221.671 242 221.592 241.972 221.526 241.916C221.47 241.851 221.442 241.771 221.442 241.678V237.758C221.442 237.235 221.363 236.825 221.204 236.526C221.046 236.227 220.84 236.017 220.588 235.896C220.336 235.775 220.07 235.714 219.79 235.714C219.548 235.714 219.3 235.775 219.048 235.896C218.796 236.017 218.586 236.227 218.418 236.526C218.26 236.825 218.18 237.231 218.18 237.744V241.678C218.18 241.771 218.148 241.851 218.082 241.916C218.026 241.972 217.952 242 217.858 242H217.186ZM233.324 242.14C232.362 242.14 231.597 241.846 231.028 241.258C230.458 240.661 230.146 239.849 230.09 238.822C230.08 238.701 230.076 238.547 230.076 238.36C230.076 238.164 230.08 238.005 230.09 237.884C230.127 237.221 230.281 236.643 230.552 236.148C230.822 235.644 231.191 235.257 231.658 234.986C232.134 234.715 232.689 234.58 233.324 234.58C234.033 234.58 234.626 234.729 235.102 235.028C235.587 235.327 235.956 235.751 236.208 236.302C236.46 236.853 236.586 237.497 236.586 238.234V238.472C236.586 238.575 236.553 238.654 236.488 238.71C236.432 238.766 236.357 238.794 236.264 238.794H231.42C231.42 238.803 231.42 238.822 231.42 238.85C231.42 238.878 231.42 238.901 231.42 238.92C231.438 239.303 231.522 239.662 231.672 239.998C231.821 240.325 232.036 240.591 232.316 240.796C232.596 241.001 232.932 241.104 233.324 241.104C233.66 241.104 233.94 241.053 234.164 240.95C234.388 240.847 234.57 240.735 234.71 240.614C234.85 240.483 234.943 240.385 234.99 240.32C235.074 240.199 235.139 240.129 235.186 240.11C235.232 240.082 235.307 240.068 235.41 240.068H236.082C236.175 240.068 236.25 240.096 236.306 240.152C236.371 240.199 236.399 240.269 236.39 240.362C236.38 240.502 236.306 240.675 236.166 240.88C236.026 241.076 235.825 241.272 235.564 241.468C235.302 241.664 234.985 241.827 234.612 241.958C234.238 242.079 233.809 242.14 233.324 242.14ZM231.42 237.828H235.256V237.786C235.256 237.366 235.176 236.993 235.018 236.666C234.868 236.339 234.649 236.083 234.36 235.896C234.07 235.7 233.725 235.602 233.324 235.602C232.922 235.602 232.577 235.7 232.288 235.896C232.008 236.083 231.793 236.339 231.644 236.666C231.494 236.993 231.42 237.366 231.42 237.786V237.828ZM242.04 242.14C241.526 242.14 241.083 242.051 240.71 241.874C240.336 241.687 240.028 241.44 239.786 241.132C239.552 240.815 239.375 240.455 239.254 240.054C239.142 239.653 239.076 239.228 239.058 238.78C239.048 238.631 239.044 238.491 239.044 238.36C239.044 238.229 239.048 238.089 239.058 237.94C239.076 237.501 239.142 237.081 239.254 236.68C239.375 236.279 239.552 235.919 239.786 235.602C240.028 235.285 240.336 235.037 240.71 234.86C241.083 234.673 241.526 234.58 242.04 234.58C242.59 234.58 243.048 234.678 243.412 234.874C243.776 235.07 244.074 235.313 244.308 235.602V232.382C244.308 232.289 244.336 232.214 244.392 232.158C244.457 232.093 244.536 232.06 244.63 232.06H245.302C245.395 232.06 245.47 232.093 245.526 232.158C245.591 232.214 245.624 232.289 245.624 232.382V241.678C245.624 241.771 245.591 241.851 245.526 241.916C245.47 241.972 245.395 242 245.302 242H244.672C244.569 242 244.49 241.972 244.434 241.916C244.378 241.851 244.35 241.771 244.35 241.678V241.09C244.116 241.389 243.813 241.641 243.44 241.846C243.066 242.042 242.6 242.14 242.04 242.14ZM242.334 241.006C242.8 241.006 243.174 240.899 243.454 240.684C243.734 240.469 243.944 240.199 244.084 239.872C244.224 239.536 244.298 239.195 244.308 238.85C244.317 238.701 244.322 238.523 244.322 238.318C244.322 238.103 244.317 237.921 244.308 237.772C244.298 237.445 244.219 237.123 244.07 236.806C243.93 236.489 243.715 236.227 243.426 236.022C243.146 235.817 242.782 235.714 242.334 235.714C241.858 235.714 241.48 235.821 241.2 236.036C240.92 236.241 240.719 236.517 240.598 236.862C240.476 237.198 240.406 237.562 240.388 237.954C240.378 238.225 240.378 238.495 240.388 238.766C240.406 239.158 240.476 239.527 240.598 239.872C240.719 240.208 240.92 240.483 241.2 240.698C241.48 240.903 241.858 241.006 242.334 241.006ZM249.148 242C249.054 242 248.975 241.972 248.91 241.916C248.854 241.851 248.826 241.771 248.826 241.678V235.042C248.826 234.949 248.854 234.874 248.91 234.818C248.975 234.753 249.054 234.72 249.148 234.72H249.82C249.913 234.72 249.988 234.753 250.044 234.818C250.1 234.874 250.128 234.949 250.128 235.042V241.678C250.128 241.771 250.1 241.851 250.044 241.916C249.988 241.972 249.913 242 249.82 242H249.148ZM249.036 233.362C248.942 233.362 248.863 233.334 248.798 233.278C248.742 233.213 248.714 233.133 248.714 233.04V232.284C248.714 232.191 248.742 232.116 248.798 232.06C248.863 231.995 248.942 231.962 249.036 231.962H249.918C250.011 231.962 250.086 231.995 250.142 232.06C250.207 232.116 250.24 232.191 250.24 232.284V233.04C250.24 233.133 250.207 233.213 250.142 233.278C250.086 233.334 250.011 233.362 249.918 233.362H249.036ZM255.366 242.14C254.9 242.14 254.475 242.047 254.092 241.86C253.71 241.673 253.402 241.421 253.168 241.104C252.935 240.787 252.818 240.427 252.818 240.026C252.818 239.382 253.08 238.869 253.602 238.486C254.125 238.103 254.806 237.851 255.646 237.73L257.732 237.436V237.03C257.732 236.582 257.602 236.232 257.34 235.98C257.088 235.728 256.673 235.602 256.094 235.602C255.674 235.602 255.334 235.686 255.072 235.854C254.82 236.022 254.643 236.237 254.54 236.498C254.484 236.638 254.386 236.708 254.246 236.708H253.616C253.514 236.708 253.434 236.68 253.378 236.624C253.332 236.559 253.308 236.484 253.308 236.4C253.308 236.26 253.36 236.087 253.462 235.882C253.574 235.677 253.742 235.476 253.966 235.28C254.19 235.084 254.475 234.921 254.82 234.79C255.175 234.65 255.604 234.58 256.108 234.58C256.668 234.58 257.14 234.655 257.522 234.804C257.905 234.944 258.204 235.135 258.418 235.378C258.642 235.621 258.801 235.896 258.894 236.204C258.997 236.512 259.048 236.825 259.048 237.142V241.678C259.048 241.771 259.016 241.851 258.95 241.916C258.894 241.972 258.82 242 258.726 242H258.082C257.98 242 257.9 241.972 257.844 241.916C257.788 241.851 257.76 241.771 257.76 241.678V241.076C257.639 241.244 257.476 241.412 257.27 241.58C257.065 241.739 256.808 241.874 256.5 241.986C256.192 242.089 255.814 242.14 255.366 242.14ZM255.66 241.09C256.043 241.09 256.393 241.011 256.71 240.852C257.028 240.684 257.275 240.427 257.452 240.082C257.639 239.737 257.732 239.303 257.732 238.78V238.388L256.108 238.626C255.446 238.719 254.946 238.878 254.61 239.102C254.274 239.317 254.106 239.592 254.106 239.928C254.106 240.189 254.181 240.409 254.33 240.586C254.489 240.754 254.685 240.88 254.918 240.964C255.161 241.048 255.408 241.09 255.66 241.09ZM49.5204 261C49.399 261 49.3057 260.972 49.2404 260.916C49.175 260.851 49.119 260.762 49.0724 260.65L47.0844 254.154C47.0657 254.107 47.0564 254.061 47.0564 254.014C47.0564 253.93 47.0844 253.86 47.1404 253.804C47.2057 253.748 47.2757 253.72 47.3504 253.72H47.9664C48.069 253.72 48.1484 253.748 48.2044 253.804C48.2604 253.86 48.2977 253.911 48.3164 253.958L49.8704 259.236L51.5364 254.014C51.555 253.949 51.5924 253.883 51.6484 253.818C51.7137 253.753 51.807 253.72 51.9284 253.72H52.4044C52.5257 253.72 52.619 253.753 52.6844 253.818C52.7497 253.883 52.787 253.949 52.7964 254.014L54.4624 259.236L56.0164 253.958C56.0257 253.911 56.0584 253.86 56.1144 253.804C56.1704 253.748 56.2497 253.72 56.3524 253.72H56.9684C57.0524 253.72 57.1224 253.748 57.1784 253.804C57.2344 253.86 57.2624 253.93 57.2624 254.014C57.2624 254.061 57.253 254.107 57.2344 254.154L55.2464 260.65C55.2184 260.762 55.167 260.851 55.0924 260.916C55.027 260.972 54.929 261 54.7984 261H54.2524C54.131 261 54.0284 260.972 53.9444 260.916C53.8697 260.851 53.8184 260.762 53.7904 260.65L52.1664 255.638L50.5424 260.65C50.505 260.762 50.449 260.851 50.3744 260.916C50.2997 260.972 50.197 261 50.0664 261H49.5204ZM62.7236 261.14C62.0142 261.14 61.4216 261.005 60.9456 260.734C60.4696 260.463 60.1056 260.09 59.8536 259.614C59.6016 259.129 59.4616 258.578 59.4336 257.962C59.4242 257.803 59.4196 257.603 59.4196 257.36C59.4196 257.108 59.4242 256.907 59.4336 256.758C59.4616 256.133 59.6016 255.582 59.8536 255.106C60.1149 254.63 60.4836 254.257 60.9596 253.986C61.4356 253.715 62.0236 253.58 62.7236 253.58C63.4236 253.58 64.0116 253.715 64.4876 253.986C64.9636 254.257 65.3276 254.63 65.5796 255.106C65.8409 255.582 65.9856 256.133 66.0136 256.758C66.0229 256.907 66.0276 257.108 66.0276 257.36C66.0276 257.603 66.0229 257.803 66.0136 257.962C65.9856 258.578 65.8456 259.129 65.5936 259.614C65.3416 260.09 64.9776 260.463 64.5016 260.734C64.0256 261.005 63.4329 261.14 62.7236 261.14ZM62.7236 260.062C63.3022 260.062 63.7642 259.88 64.1096 259.516C64.4549 259.143 64.6416 258.601 64.6696 257.892C64.6789 257.752 64.6836 257.575 64.6836 257.36C64.6836 257.145 64.6789 256.968 64.6696 256.828C64.6416 256.119 64.4549 255.582 64.1096 255.218C63.7642 254.845 63.3022 254.658 62.7236 254.658C62.1449 254.658 61.6782 254.845 61.3236 255.218C60.9782 255.582 60.7962 256.119 60.7776 256.828C60.7682 256.968 60.7636 257.145 60.7636 257.36C60.7636 257.575 60.7682 257.752 60.7776 257.892C60.7962 258.601 60.9782 259.143 61.3236 259.516C61.6782 259.88 62.1449 260.062 62.7236 260.062ZM69.2226 261C69.1293 261 69.05 260.972 68.9846 260.916C68.9286 260.851 68.9006 260.771 68.9006 260.678V254.056C68.9006 253.963 68.9286 253.883 68.9846 253.818C69.05 253.753 69.1293 253.72 69.2226 253.72H69.8666C69.96 253.72 70.0393 253.753 70.1046 253.818C70.17 253.883 70.2026 253.963 70.2026 254.056V254.672C70.3893 254.355 70.646 254.117 70.9726 253.958C71.2993 253.799 71.6913 253.72 72.1486 253.72H72.7086C72.802 253.72 72.8766 253.753 72.9326 253.818C72.9886 253.874 73.0166 253.949 73.0166 254.042V254.616C73.0166 254.709 72.9886 254.784 72.9326 254.84C72.8766 254.896 72.802 254.924 72.7086 254.924H71.8686C71.3646 254.924 70.968 255.073 70.6786 255.372C70.3893 255.661 70.2446 256.058 70.2446 256.562V260.678C70.2446 260.771 70.212 260.851 70.1466 260.916C70.0813 260.972 70.002 261 69.9086 261H69.2226ZM75.675 261C75.5816 261 75.5023 260.972 75.437 260.916C75.381 260.851 75.353 260.771 75.353 260.678V251.382C75.353 251.289 75.381 251.214 75.437 251.158C75.5023 251.093 75.5816 251.06 75.675 251.06H76.333C76.4263 251.06 76.501 251.093 76.557 251.158C76.6223 251.214 76.655 251.289 76.655 251.382V256.254L79.413 253.958C79.525 253.865 79.609 253.804 79.665 253.776C79.7303 253.739 79.833 253.72 79.973 253.72H80.715C80.799 253.72 80.869 253.748 80.925 253.804C80.981 253.86 81.009 253.93 81.009 254.014C81.009 254.051 80.995 254.093 80.967 254.14C80.9483 254.187 80.9063 254.233 80.841 254.28L77.607 256.968L81.191 260.454C81.303 260.547 81.359 260.631 81.359 260.706C81.359 260.79 81.331 260.86 81.275 260.916C81.219 260.972 81.149 261 81.065 261H80.337C80.197 261 80.0943 260.986 80.029 260.958C79.9636 260.921 79.8796 260.855 79.777 260.762L76.655 257.78V260.678C76.655 260.771 76.6223 260.851 76.557 260.916C76.501 260.972 76.4263 261 76.333 261H75.675ZM86.2339 261.14C85.2726 261.14 84.5073 260.846 83.9379 260.258C83.3686 259.661 83.0559 258.849 82.9999 257.822C82.9906 257.701 82.9859 257.547 82.9859 257.36C82.9859 257.164 82.9906 257.005 82.9999 256.884C83.0373 256.221 83.1913 255.643 83.4619 255.148C83.7326 254.644 84.1013 254.257 84.5679 253.986C85.0439 253.715 85.5993 253.58 86.2339 253.58C86.9433 253.58 87.5359 253.729 88.0119 254.028C88.4973 254.327 88.8659 254.751 89.1179 255.302C89.3699 255.853 89.4959 256.497 89.4959 257.234V257.472C89.4959 257.575 89.4633 257.654 89.3979 257.71C89.3419 257.766 89.2673 257.794 89.1739 257.794H84.3299C84.3299 257.803 84.3299 257.822 84.3299 257.85C84.3299 257.878 84.3299 257.901 84.3299 257.92C84.3486 258.303 84.4326 258.662 84.5819 258.998C84.7313 259.325 84.9459 259.591 85.2259 259.796C85.5059 260.001 85.8419 260.104 86.2339 260.104C86.5699 260.104 86.8499 260.053 87.0739 259.95C87.2979 259.847 87.4799 259.735 87.6199 259.614C87.7599 259.483 87.8533 259.385 87.8999 259.32C87.9839 259.199 88.0493 259.129 88.0959 259.11C88.1426 259.082 88.2173 259.068 88.3199 259.068H88.9919C89.0853 259.068 89.1599 259.096 89.2159 259.152C89.2813 259.199 89.3093 259.269 89.2999 259.362C89.2906 259.502 89.2159 259.675 89.0759 259.88C88.9359 260.076 88.7353 260.272 88.4739 260.468C88.2126 260.664 87.8953 260.827 87.5219 260.958C87.1486 261.079 86.7193 261.14 86.2339 261.14ZM84.3299 256.828H88.1659V256.786C88.1659 256.366 88.0866 255.993 87.9279 255.666C87.7786 255.339 87.5593 255.083 87.2699 254.896C86.9806 254.7 86.6353 254.602 86.2339 254.602C85.8326 254.602 85.4873 254.7 85.1979 254.896C84.9179 255.083 84.7033 255.339 84.5539 255.666C84.4046 255.993 84.3299 256.366 84.3299 256.786V256.828ZM92.6119 261C92.5186 261 92.4392 260.972 92.3739 260.916C92.3179 260.851 92.2899 260.771 92.2899 260.678V254.056C92.2899 253.963 92.3179 253.883 92.3739 253.818C92.4392 253.753 92.5186 253.72 92.6119 253.72H93.2559C93.3492 253.72 93.4286 253.753 93.4939 253.818C93.5592 253.883 93.5919 253.963 93.5919 254.056V254.672C93.7786 254.355 94.0352 254.117 94.3619 253.958C94.6886 253.799 95.0806 253.72 95.5379 253.72H96.0979C96.1912 253.72 96.2659 253.753 96.3219 253.818C96.3779 253.874 96.4059 253.949 96.4059 254.042V254.616C96.4059 254.709 96.3779 254.784 96.3219 254.84C96.2659 254.896 96.1912 254.924 96.0979 254.924H95.2579C94.7539 254.924 94.3572 255.073 94.0679 255.372C93.7786 255.661 93.6339 256.058 93.6339 256.562V260.678C93.6339 260.771 93.6012 260.851 93.5359 260.916C93.4706 260.972 93.3912 261 93.2979 261H92.6119ZM101.248 261.14C100.726 261.14 100.278 261.075 99.9043 260.944C99.5309 260.813 99.2276 260.655 98.9943 260.468C98.7609 260.281 98.5836 260.095 98.4623 259.908C98.3503 259.721 98.2896 259.572 98.2803 259.46C98.2709 259.357 98.3036 259.278 98.3783 259.222C98.4529 259.166 98.5276 259.138 98.6023 259.138H99.2183C99.2743 259.138 99.3163 259.147 99.3443 259.166C99.3816 259.175 99.4283 259.213 99.4843 259.278C99.6056 259.409 99.7409 259.539 99.8903 259.67C100.04 259.801 100.222 259.908 100.436 259.992C100.66 260.076 100.936 260.118 101.262 260.118C101.738 260.118 102.13 260.029 102.438 259.852C102.746 259.665 102.9 259.395 102.9 259.04C102.9 258.807 102.835 258.62 102.704 258.48C102.583 258.34 102.359 258.214 102.032 258.102C101.715 257.99 101.276 257.873 100.716 257.752C100.156 257.621 99.7129 257.463 99.3863 257.276C99.0596 257.08 98.8263 256.851 98.6863 256.59C98.5463 256.319 98.4763 256.016 98.4763 255.68C98.4763 255.335 98.5789 255.003 98.7843 254.686C98.9896 254.359 99.2883 254.093 99.6803 253.888C100.082 253.683 100.581 253.58 101.178 253.58C101.664 253.58 102.079 253.641 102.424 253.762C102.77 253.883 103.054 254.037 103.278 254.224C103.502 254.401 103.67 254.579 103.782 254.756C103.894 254.933 103.955 255.083 103.964 255.204C103.974 255.297 103.946 255.377 103.88 255.442C103.815 255.498 103.74 255.526 103.656 255.526H103.068C103.003 255.526 102.947 255.512 102.9 255.484C102.863 255.456 102.826 255.423 102.788 255.386C102.695 255.265 102.583 255.143 102.452 255.022C102.331 254.901 102.168 254.803 101.962 254.728C101.766 254.644 101.505 254.602 101.178 254.602C100.712 254.602 100.362 254.7 100.128 254.896C99.8949 255.092 99.7783 255.339 99.7783 255.638C99.7783 255.815 99.8296 255.974 99.9323 256.114C100.035 256.254 100.231 256.38 100.52 256.492C100.81 256.604 101.239 256.725 101.808 256.856C102.424 256.977 102.91 257.141 103.264 257.346C103.619 257.551 103.871 257.789 104.02 258.06C104.17 258.331 104.244 258.643 104.244 258.998C104.244 259.39 104.128 259.749 103.894 260.076C103.67 260.403 103.334 260.664 102.886 260.86C102.448 261.047 101.902 261.14 101.248 261.14ZM113.567 261.14C113.1 261.14 112.675 261.047 112.293 260.86C111.91 260.673 111.602 260.421 111.369 260.104C111.135 259.787 111.019 259.427 111.019 259.026C111.019 258.382 111.28 257.869 111.803 257.486C112.325 257.103 113.007 256.851 113.847 256.73L115.933 256.436V256.03C115.933 255.582 115.802 255.232 115.541 254.98C115.289 254.728 114.873 254.602 114.295 254.602C113.875 254.602 113.534 254.686 113.273 254.854C113.021 255.022 112.843 255.237 112.741 255.498C112.685 255.638 112.587 255.708 112.447 255.708H111.817C111.714 255.708 111.635 255.68 111.579 255.624C111.532 255.559 111.509 255.484 111.509 255.4C111.509 255.26 111.56 255.087 111.663 254.882C111.775 254.677 111.943 254.476 112.167 254.28C112.391 254.084 112.675 253.921 113.021 253.79C113.375 253.65 113.805 253.58 114.309 253.58C114.869 253.58 115.34 253.655 115.723 253.804C116.105 253.944 116.404 254.135 116.619 254.378C116.843 254.621 117.001 254.896 117.095 255.204C117.197 255.512 117.249 255.825 117.249 256.142V260.678C117.249 260.771 117.216 260.851 117.151 260.916C117.095 260.972 117.02 261 116.927 261H116.283C116.18 261 116.101 260.972 116.045 260.916C115.989 260.851 115.961 260.771 115.961 260.678V260.076C115.839 260.244 115.676 260.412 115.471 260.58C115.265 260.739 115.009 260.874 114.701 260.986C114.393 261.089 114.015 261.14 113.567 261.14ZM113.861 260.09C114.243 260.09 114.593 260.011 114.911 259.852C115.228 259.684 115.475 259.427 115.653 259.082C115.839 258.737 115.933 258.303 115.933 257.78V257.388L114.309 257.626C113.646 257.719 113.147 257.878 112.811 258.102C112.475 258.317 112.307 258.592 112.307 258.928C112.307 259.189 112.381 259.409 112.531 259.586C112.689 259.754 112.885 259.88 113.119 259.964C113.361 260.048 113.609 260.09 113.861 260.09ZM123.979 261.14C123.419 261.14 122.953 261.042 122.579 260.846C122.206 260.641 121.907 260.389 121.683 260.09V260.678C121.683 260.771 121.651 260.851 121.585 260.916C121.529 260.972 121.455 261 121.361 261H120.717C120.624 261 120.545 260.972 120.479 260.916C120.423 260.851 120.395 260.771 120.395 260.678V251.382C120.395 251.289 120.423 251.214 120.479 251.158C120.545 251.093 120.624 251.06 120.717 251.06H121.389C121.492 251.06 121.571 251.093 121.627 251.158C121.683 251.214 121.711 251.289 121.711 251.382V254.602C121.945 254.313 122.243 254.07 122.607 253.874C122.981 253.678 123.438 253.58 123.979 253.58C124.502 253.58 124.945 253.673 125.309 253.86C125.683 254.037 125.986 254.285 126.219 254.602C126.462 254.919 126.644 255.279 126.765 255.68C126.887 256.081 126.952 256.501 126.961 256.94C126.971 257.089 126.975 257.229 126.975 257.36C126.975 257.491 126.971 257.631 126.961 257.78C126.952 258.228 126.887 258.653 126.765 259.054C126.644 259.455 126.462 259.815 126.219 260.132C125.986 260.44 125.683 260.687 125.309 260.874C124.945 261.051 124.502 261.14 123.979 261.14ZM123.685 260.006C124.171 260.006 124.549 259.903 124.819 259.698C125.099 259.483 125.3 259.208 125.421 258.872C125.543 258.527 125.613 258.158 125.631 257.766C125.641 257.495 125.641 257.225 125.631 256.954C125.613 256.562 125.543 256.198 125.421 255.862C125.3 255.517 125.099 255.241 124.819 255.036C124.549 254.821 124.171 254.714 123.685 254.714C123.247 254.714 122.883 254.817 122.593 255.022C122.304 255.227 122.085 255.489 121.935 255.806C121.795 256.123 121.721 256.445 121.711 256.772C121.702 256.921 121.697 257.103 121.697 257.318C121.697 257.523 121.702 257.701 121.711 257.85C121.73 258.195 121.805 258.536 121.935 258.872C122.075 259.199 122.285 259.469 122.565 259.684C122.855 259.899 123.228 260.006 123.685 260.006ZM132.809 261.14C132.1 261.14 131.507 261.005 131.031 260.734C130.555 260.463 130.191 260.09 129.939 259.614C129.687 259.129 129.547 258.578 129.519 257.962C129.51 257.803 129.505 257.603 129.505 257.36C129.505 257.108 129.51 256.907 129.519 256.758C129.547 256.133 129.687 255.582 129.939 255.106C130.201 254.63 130.569 254.257 131.045 253.986C131.521 253.715 132.109 253.58 132.809 253.58C133.509 253.58 134.097 253.715 134.573 253.986C135.049 254.257 135.413 254.63 135.665 255.106C135.927 255.582 136.071 256.133 136.099 256.758C136.109 256.907 136.113 257.108 136.113 257.36C136.113 257.603 136.109 257.803 136.099 257.962C136.071 258.578 135.931 259.129 135.679 259.614C135.427 260.09 135.063 260.463 134.587 260.734C134.111 261.005 133.519 261.14 132.809 261.14ZM132.809 260.062C133.388 260.062 133.85 259.88 134.195 259.516C134.541 259.143 134.727 258.601 134.755 257.892C134.765 257.752 134.769 257.575 134.769 257.36C134.769 257.145 134.765 256.968 134.755 256.828C134.727 256.119 134.541 255.582 134.195 255.218C133.85 254.845 133.388 254.658 132.809 254.658C132.231 254.658 131.764 254.845 131.409 255.218C131.064 255.582 130.882 256.119 130.863 256.828C130.854 256.968 130.849 257.145 130.849 257.36C130.849 257.575 130.854 257.752 130.863 257.892C130.882 258.601 131.064 259.143 131.409 259.516C131.764 259.88 132.231 260.062 132.809 260.062ZM141.702 261.14C141.105 261.14 140.596 261.009 140.176 260.748C139.766 260.477 139.453 260.104 139.238 259.628C139.024 259.152 138.916 258.606 138.916 257.99V254.042C138.916 253.949 138.944 253.874 139 253.818C139.066 253.753 139.145 253.72 139.238 253.72H139.938C140.032 253.72 140.106 253.753 140.162 253.818C140.228 253.874 140.26 253.949 140.26 254.042V257.92C140.26 259.311 140.867 260.006 142.08 260.006C142.659 260.006 143.121 259.824 143.466 259.46C143.821 259.087 143.998 258.573 143.998 257.92V254.042C143.998 253.949 144.026 253.874 144.082 253.818C144.148 253.753 144.227 253.72 144.32 253.72H145.006C145.109 253.72 145.188 253.753 145.244 253.818C145.3 253.874 145.328 253.949 145.328 254.042V260.678C145.328 260.771 145.3 260.851 145.244 260.916C145.188 260.972 145.109 261 145.006 261H144.362C144.269 261 144.19 260.972 144.124 260.916C144.068 260.851 144.04 260.771 144.04 260.678V260.062C143.788 260.389 143.48 260.65 143.116 260.846C142.762 261.042 142.29 261.14 141.702 261.14ZM151.37 261C150.848 261 150.423 260.902 150.096 260.706C149.77 260.501 149.532 260.216 149.382 259.852C149.233 259.479 149.158 259.04 149.158 258.536V254.84H148.066C147.973 254.84 147.894 254.812 147.828 254.756C147.772 254.691 147.744 254.611 147.744 254.518V254.042C147.744 253.949 147.772 253.874 147.828 253.818C147.894 253.753 147.973 253.72 148.066 253.72H149.158V251.382C149.158 251.289 149.186 251.214 149.242 251.158C149.308 251.093 149.387 251.06 149.48 251.06H150.138C150.232 251.06 150.306 251.093 150.362 251.158C150.428 251.214 150.46 251.289 150.46 251.382V253.72H152.196C152.29 253.72 152.364 253.753 152.42 253.818C152.486 253.874 152.518 253.949 152.518 254.042V254.518C152.518 254.611 152.486 254.691 152.42 254.756C152.364 254.812 152.29 254.84 152.196 254.84H150.46V258.438C150.46 258.877 150.535 259.222 150.684 259.474C150.834 259.726 151.1 259.852 151.482 259.852H152.336C152.43 259.852 152.504 259.885 152.56 259.95C152.626 260.006 152.658 260.081 152.658 260.174V260.678C152.658 260.771 152.626 260.851 152.56 260.916C152.504 260.972 152.43 261 152.336 261H151.37ZM160.56 263.66C160.485 263.66 160.42 263.632 160.364 263.576C160.308 263.52 160.28 263.455 160.28 263.38C160.28 263.343 160.285 263.305 160.294 263.268C160.303 263.231 160.322 263.184 160.35 263.128L161.428 260.566L158.754 254.252C158.707 254.14 158.684 254.061 158.684 254.014C158.684 253.93 158.712 253.86 158.768 253.804C158.824 253.748 158.894 253.72 158.978 253.72H159.664C159.757 253.72 159.832 253.743 159.888 253.79C159.944 253.837 159.981 253.893 160 253.958L162.128 259.054L164.312 253.958C164.34 253.893 164.377 253.837 164.424 253.79C164.48 253.743 164.559 253.72 164.662 253.72H165.32C165.404 253.72 165.474 253.748 165.53 253.804C165.586 253.86 165.614 253.925 165.614 254C165.614 254.047 165.591 254.131 165.544 254.252L161.568 263.422C161.54 263.487 161.498 263.543 161.442 263.59C161.395 263.637 161.321 263.66 161.218 263.66H160.56ZM170.853 261.14C170.143 261.14 169.551 261.005 169.075 260.734C168.599 260.463 168.235 260.09 167.983 259.614C167.731 259.129 167.591 258.578 167.563 257.962C167.553 257.803 167.549 257.603 167.549 257.36C167.549 257.108 167.553 256.907 167.563 256.758C167.591 256.133 167.731 255.582 167.983 255.106C168.244 254.63 168.613 254.257 169.089 253.986C169.565 253.715 170.153 253.58 170.853 253.58C171.553 253.58 172.141 253.715 172.617 253.986C173.093 254.257 173.457 254.63 173.709 255.106C173.97 255.582 174.115 256.133 174.143 256.758C174.152 256.907 174.157 257.108 174.157 257.36C174.157 257.603 174.152 257.803 174.143 257.962C174.115 258.578 173.975 259.129 173.723 259.614C173.471 260.09 173.107 260.463 172.631 260.734C172.155 261.005 171.562 261.14 170.853 261.14ZM170.853 260.062C171.431 260.062 171.893 259.88 172.239 259.516C172.584 259.143 172.771 258.601 172.799 257.892C172.808 257.752 172.813 257.575 172.813 257.36C172.813 257.145 172.808 256.968 172.799 256.828C172.771 256.119 172.584 255.582 172.239 255.218C171.893 254.845 171.431 254.658 170.853 254.658C170.274 254.658 169.807 254.845 169.453 255.218C169.107 255.582 168.925 256.119 168.907 256.828C168.897 256.968 168.893 257.145 168.893 257.36C168.893 257.575 168.897 257.752 168.907 257.892C168.925 258.601 169.107 259.143 169.453 259.516C169.807 259.88 170.274 260.062 170.853 260.062ZM179.746 261.14C179.149 261.14 178.64 261.009 178.22 260.748C177.809 260.477 177.497 260.104 177.282 259.628C177.067 259.152 176.96 258.606 176.96 257.99V254.042C176.96 253.949 176.988 253.874 177.044 253.818C177.109 253.753 177.189 253.72 177.282 253.72H177.982C178.075 253.72 178.15 253.753 178.206 253.818C178.271 253.874 178.304 253.949 178.304 254.042V257.92C178.304 259.311 178.911 260.006 180.124 260.006C180.703 260.006 181.165 259.824 181.51 259.46C181.865 259.087 182.042 258.573 182.042 257.92V254.042C182.042 253.949 182.07 253.874 182.126 253.818C182.191 253.753 182.271 253.72 182.364 253.72H183.05C183.153 253.72 183.232 253.753 183.288 253.818C183.344 253.874 183.372 253.949 183.372 254.042V260.678C183.372 260.771 183.344 260.851 183.288 260.916C183.232 260.972 183.153 261 183.05 261H182.406C182.313 261 182.233 260.972 182.168 260.916C182.112 260.851 182.084 260.771 182.084 260.678V260.062C181.832 260.389 181.524 260.65 181.16 260.846C180.805 261.042 180.334 261.14 179.746 261.14ZM186.894 261C186.8 261 186.721 260.972 186.656 260.916C186.6 260.851 186.572 260.771 186.572 260.678V254.056C186.572 253.963 186.6 253.883 186.656 253.818C186.721 253.753 186.8 253.72 186.894 253.72H187.538C187.631 253.72 187.71 253.753 187.776 253.818C187.841 253.883 187.874 253.963 187.874 254.056V254.672C188.06 254.355 188.317 254.117 188.644 253.958C188.97 253.799 189.362 253.72 189.82 253.72H190.38C190.473 253.72 190.548 253.753 190.604 253.818C190.66 253.874 190.688 253.949 190.688 254.042V254.616C190.688 254.709 190.66 254.784 190.604 254.84C190.548 254.896 190.473 254.924 190.38 254.924H189.54C189.036 254.924 188.639 255.073 188.35 255.372C188.06 255.661 187.916 256.058 187.916 256.562V260.678C187.916 260.771 187.883 260.851 187.818 260.916C187.752 260.972 187.673 261 187.58 261H186.894ZM200.174 261.14C199.511 261.14 198.937 261.014 198.452 260.762C197.976 260.501 197.607 260.132 197.346 259.656C197.084 259.171 196.944 258.592 196.926 257.92C196.916 257.78 196.912 257.593 196.912 257.36C196.912 257.127 196.916 256.94 196.926 256.8C196.944 256.128 197.084 255.554 197.346 255.078C197.607 254.593 197.976 254.224 198.452 253.972C198.937 253.711 199.511 253.58 200.174 253.58C200.715 253.58 201.177 253.655 201.56 253.804C201.952 253.953 202.274 254.145 202.526 254.378C202.778 254.611 202.964 254.863 203.086 255.134C203.216 255.405 203.286 255.661 203.296 255.904C203.305 255.997 203.277 256.072 203.212 256.128C203.146 256.184 203.067 256.212 202.974 256.212H202.302C202.208 256.212 202.138 256.193 202.092 256.156C202.045 256.109 201.998 256.035 201.952 255.932C201.784 255.475 201.555 255.153 201.266 254.966C200.976 254.779 200.617 254.686 200.188 254.686C199.628 254.686 199.17 254.859 198.816 255.204C198.47 255.549 198.284 256.105 198.256 256.87C198.246 257.206 198.246 257.533 198.256 257.85C198.284 258.625 198.47 259.185 198.816 259.53C199.17 259.866 199.628 260.034 200.188 260.034C200.617 260.034 200.976 259.941 201.266 259.754C201.555 259.567 201.784 259.245 201.952 258.788C201.998 258.685 202.045 258.615 202.092 258.578C202.138 258.531 202.208 258.508 202.302 258.508H202.974C203.067 258.508 203.146 258.536 203.212 258.592C203.277 258.648 203.305 258.723 203.296 258.816C203.286 259.012 203.244 259.213 203.17 259.418C203.095 259.623 202.974 259.833 202.806 260.048C202.647 260.253 202.446 260.44 202.204 260.608C201.961 260.767 201.667 260.897 201.322 261C200.986 261.093 200.603 261.14 200.174 261.14ZM209.06 261.14C208.351 261.14 207.758 261.005 207.282 260.734C206.806 260.463 206.442 260.09 206.19 259.614C205.938 259.129 205.798 258.578 205.77 257.962C205.761 257.803 205.756 257.603 205.756 257.36C205.756 257.108 205.761 256.907 205.77 256.758C205.798 256.133 205.938 255.582 206.19 255.106C206.452 254.63 206.82 254.257 207.296 253.986C207.772 253.715 208.36 253.58 209.06 253.58C209.76 253.58 210.348 253.715 210.824 253.986C211.3 254.257 211.664 254.63 211.916 255.106C212.178 255.582 212.322 256.133 212.35 256.758C212.36 256.907 212.364 257.108 212.364 257.36C212.364 257.603 212.36 257.803 212.35 257.962C212.322 258.578 212.182 259.129 211.93 259.614C211.678 260.09 211.314 260.463 210.838 260.734C210.362 261.005 209.77 261.14 209.06 261.14ZM209.06 260.062C209.639 260.062 210.101 259.88 210.446 259.516C210.792 259.143 210.978 258.601 211.006 257.892C211.016 257.752 211.02 257.575 211.02 257.36C211.02 257.145 211.016 256.968 211.006 256.828C210.978 256.119 210.792 255.582 210.446 255.218C210.101 254.845 209.639 254.658 209.06 254.658C208.482 254.658 208.015 254.845 207.66 255.218C207.315 255.582 207.133 256.119 207.114 256.828C207.105 256.968 207.1 257.145 207.1 257.36C207.1 257.575 207.105 257.752 207.114 257.892C207.133 258.601 207.315 259.143 207.66 259.516C208.015 259.88 208.482 260.062 209.06 260.062ZM215.559 261C215.466 261 215.387 260.972 215.321 260.916C215.265 260.851 215.237 260.771 215.237 260.678V254.042C215.237 253.949 215.265 253.874 215.321 253.818C215.387 253.753 215.466 253.72 215.559 253.72H216.217C216.311 253.72 216.385 253.753 216.441 253.818C216.507 253.874 216.539 253.949 216.539 254.042V254.658C216.782 254.341 217.085 254.084 217.449 253.888C217.823 253.683 218.299 253.58 218.877 253.58C219.484 253.58 219.997 253.715 220.417 253.986C220.847 254.247 221.169 254.616 221.383 255.092C221.598 255.559 221.705 256.105 221.705 256.73V260.678C221.705 260.771 221.677 260.851 221.621 260.916C221.565 260.972 221.491 261 221.397 261H220.697C220.604 261 220.525 260.972 220.459 260.916C220.403 260.851 220.375 260.771 220.375 260.678V256.8C220.375 256.147 220.217 255.638 219.899 255.274C219.582 254.901 219.115 254.714 218.499 254.714C217.921 254.714 217.454 254.901 217.099 255.274C216.754 255.638 216.581 256.147 216.581 256.8V260.678C216.581 260.771 216.549 260.851 216.483 260.916C216.427 260.972 216.353 261 216.259 261H215.559ZM227.787 261.14C227.125 261.14 226.551 261.014 226.065 260.762C225.589 260.501 225.221 260.132 224.959 259.656C224.698 259.171 224.558 258.592 224.539 257.92C224.53 257.78 224.525 257.593 224.525 257.36C224.525 257.127 224.53 256.94 224.539 256.8C224.558 256.128 224.698 255.554 224.959 255.078C225.221 254.593 225.589 254.224 226.065 253.972C226.551 253.711 227.125 253.58 227.787 253.58C228.329 253.58 228.791 253.655 229.173 253.804C229.565 253.953 229.887 254.145 230.139 254.378C230.391 254.611 230.578 254.863 230.699 255.134C230.83 255.405 230.9 255.661 230.909 255.904C230.919 255.997 230.891 256.072 230.825 256.128C230.76 256.184 230.681 256.212 230.587 256.212H229.915C229.822 256.212 229.752 256.193 229.705 256.156C229.659 256.109 229.612 256.035 229.565 255.932C229.397 255.475 229.169 255.153 228.879 254.966C228.59 254.779 228.231 254.686 227.801 254.686C227.241 254.686 226.784 254.859 226.429 255.204C226.084 255.549 225.897 256.105 225.869 256.87C225.86 257.206 225.86 257.533 225.869 257.85C225.897 258.625 226.084 259.185 226.429 259.53C226.784 259.866 227.241 260.034 227.801 260.034C228.231 260.034 228.59 259.941 228.879 259.754C229.169 259.567 229.397 259.245 229.565 258.788C229.612 258.685 229.659 258.615 229.705 258.578C229.752 258.531 229.822 258.508 229.915 258.508H230.587C230.681 258.508 230.76 258.536 230.825 258.592C230.891 258.648 230.919 258.723 230.909 258.816C230.9 259.012 230.858 259.213 230.783 259.418C230.709 259.623 230.587 259.833 230.419 260.048C230.261 260.253 230.06 260.44 229.817 260.608C229.575 260.767 229.281 260.897 228.935 261C228.599 261.093 228.217 261.14 227.787 261.14ZM236.59 261.14C235.629 261.14 234.863 260.846 234.294 260.258C233.725 259.661 233.412 258.849 233.356 257.822C233.347 257.701 233.342 257.547 233.342 257.36C233.342 257.164 233.347 257.005 233.356 256.884C233.393 256.221 233.547 255.643 233.818 255.148C234.089 254.644 234.457 254.257 234.924 253.986C235.4 253.715 235.955 253.58 236.59 253.58C237.299 253.58 237.892 253.729 238.368 254.028C238.853 254.327 239.222 254.751 239.474 255.302C239.726 255.853 239.852 256.497 239.852 257.234V257.472C239.852 257.575 239.819 257.654 239.754 257.71C239.698 257.766 239.623 257.794 239.53 257.794H234.686C234.686 257.803 234.686 257.822 234.686 257.85C234.686 257.878 234.686 257.901 234.686 257.92C234.705 258.303 234.789 258.662 234.938 258.998C235.087 259.325 235.302 259.591 235.582 259.796C235.862 260.001 236.198 260.104 236.59 260.104C236.926 260.104 237.206 260.053 237.43 259.95C237.654 259.847 237.836 259.735 237.976 259.614C238.116 259.483 238.209 259.385 238.256 259.32C238.34 259.199 238.405 259.129 238.452 259.11C238.499 259.082 238.573 259.068 238.676 259.068H239.348C239.441 259.068 239.516 259.096 239.572 259.152C239.637 259.199 239.665 259.269 239.656 259.362C239.647 259.502 239.572 259.675 239.432 259.88C239.292 260.076 239.091 260.272 238.83 260.468C238.569 260.664 238.251 260.827 237.878 260.958C237.505 261.079 237.075 261.14 236.59 261.14ZM234.686 256.828H238.522V256.786C238.522 256.366 238.443 255.993 238.284 255.666C238.135 255.339 237.915 255.083 237.626 254.896C237.337 254.7 236.991 254.602 236.59 254.602C236.189 254.602 235.843 254.7 235.554 254.896C235.274 255.083 235.059 255.339 234.91 255.666C234.761 255.993 234.686 256.366 234.686 256.786V256.828ZM242.982 263.66C242.889 263.66 242.809 263.627 242.744 263.562C242.688 263.506 242.66 263.431 242.66 263.338V254.042C242.66 253.949 242.688 253.874 242.744 253.818C242.809 253.753 242.889 253.72 242.982 253.72H243.626C243.719 253.72 243.794 253.753 243.85 253.818C243.915 253.874 243.948 253.949 243.948 254.042V254.658C244.172 254.35 244.471 254.093 244.844 253.888C245.217 253.683 245.684 253.58 246.244 253.58C246.767 253.58 247.21 253.669 247.574 253.846C247.947 254.023 248.251 254.266 248.484 254.574C248.727 254.882 248.909 255.232 249.03 255.624C249.151 256.016 249.217 256.436 249.226 256.884C249.235 257.033 249.24 257.192 249.24 257.36C249.24 257.528 249.235 257.687 249.226 257.836C249.217 258.275 249.151 258.695 249.03 259.096C248.909 259.488 248.727 259.838 248.484 260.146C248.251 260.445 247.947 260.687 247.574 260.874C247.21 261.051 246.767 261.14 246.244 261.14C245.703 261.14 245.245 261.042 244.872 260.846C244.508 260.641 244.209 260.389 243.976 260.09V263.338C243.976 263.431 243.948 263.506 243.892 263.562C243.836 263.627 243.757 263.66 243.654 263.66H242.982ZM245.95 260.006C246.435 260.006 246.813 259.903 247.084 259.698C247.364 259.483 247.565 259.208 247.686 258.872C247.807 258.527 247.877 258.158 247.896 257.766C247.905 257.495 247.905 257.225 247.896 256.954C247.877 256.562 247.807 256.198 247.686 255.862C247.565 255.517 247.364 255.241 247.084 255.036C246.813 254.821 246.435 254.714 245.95 254.714C245.493 254.714 245.119 254.821 244.83 255.036C244.55 255.251 244.34 255.526 244.2 255.862C244.069 256.189 243.995 256.525 243.976 256.87C243.967 257.019 243.962 257.197 243.962 257.402C243.962 257.607 243.967 257.789 243.976 257.948C243.985 258.275 244.06 258.597 244.2 258.914C244.349 259.231 244.569 259.493 244.858 259.698C245.147 259.903 245.511 260.006 245.95 260.006ZM254.866 261C254.343 261 253.919 260.902 253.592 260.706C253.265 260.501 253.027 260.216 252.878 259.852C252.729 259.479 252.654 259.04 252.654 258.536V254.84H251.562C251.469 254.84 251.389 254.812 251.324 254.756C251.268 254.691 251.24 254.611 251.24 254.518V254.042C251.24 253.949 251.268 253.874 251.324 253.818C251.389 253.753 251.469 253.72 251.562 253.72H252.654V251.382C252.654 251.289 252.682 251.214 252.738 251.158C252.803 251.093 252.883 251.06 252.976 251.06H253.634C253.727 251.06 253.802 251.093 253.858 251.158C253.923 251.214 253.956 251.289 253.956 251.382V253.72H255.692C255.785 253.72 255.86 253.753 255.916 253.818C255.981 253.874 256.014 253.949 256.014 254.042V254.518C256.014 254.611 255.981 254.691 255.916 254.756C255.86 254.812 255.785 254.84 255.692 254.84H253.956V258.438C253.956 258.877 254.031 259.222 254.18 259.474C254.329 259.726 254.595 259.852 254.978 259.852H255.832C255.925 259.852 256 259.885 256.056 259.95C256.121 260.006 256.154 260.081 256.154 260.174V260.678C256.154 260.771 256.121 260.851 256.056 260.916C256 260.972 255.925 261 255.832 261H254.866ZM261.133 261.14C260.61 261.14 260.162 261.075 259.789 260.944C259.415 260.813 259.112 260.655 258.879 260.468C258.645 260.281 258.468 260.095 258.347 259.908C258.235 259.721 258.174 259.572 258.165 259.46C258.155 259.357 258.188 259.278 258.263 259.222C258.337 259.166 258.412 259.138 258.487 259.138H259.103C259.159 259.138 259.201 259.147 259.229 259.166C259.266 259.175 259.313 259.213 259.369 259.278C259.49 259.409 259.625 259.539 259.775 259.67C259.924 259.801 260.106 259.908 260.321 259.992C260.545 260.076 260.82 260.118 261.147 260.118C261.623 260.118 262.015 260.029 262.323 259.852C262.631 259.665 262.785 259.395 262.785 259.04C262.785 258.807 262.719 258.62 262.589 258.48C262.467 258.34 262.243 258.214 261.917 258.102C261.599 257.99 261.161 257.873 260.601 257.752C260.041 257.621 259.597 257.463 259.271 257.276C258.944 257.08 258.711 256.851 258.571 256.59C258.431 256.319 258.361 256.016 258.361 255.68C258.361 255.335 258.463 255.003 258.669 254.686C258.874 254.359 259.173 254.093 259.565 253.888C259.966 253.683 260.465 253.58 261.063 253.58C261.548 253.58 261.963 253.641 262.309 253.762C262.654 253.883 262.939 254.037 263.163 254.224C263.387 254.401 263.555 254.579 263.667 254.756C263.779 254.933 263.839 255.083 263.849 255.204C263.858 255.297 263.83 255.377 263.765 255.442C263.699 255.498 263.625 255.526 263.541 255.526H262.953C262.887 255.526 262.831 255.512 262.785 255.484C262.747 255.456 262.71 255.423 262.673 255.386C262.579 255.265 262.467 255.143 262.337 255.022C262.215 254.901 262.052 254.803 261.847 254.728C261.651 254.644 261.389 254.602 261.063 254.602C260.596 254.602 260.246 254.7 260.013 254.896C259.779 255.092 259.663 255.339 259.663 255.638C259.663 255.815 259.714 255.974 259.817 256.114C259.919 256.254 260.115 256.38 260.405 256.492C260.694 256.604 261.123 256.725 261.693 256.856C262.309 256.977 262.794 257.141 263.149 257.346C263.503 257.551 263.755 257.789 263.905 258.06C264.054 258.331 264.129 258.643 264.129 258.998C264.129 259.39 264.012 259.749 263.779 260.076C263.555 260.403 263.219 260.664 262.771 260.86C262.332 261.047 261.786 261.14 261.133 261.14Z" fill="white"/>
<path d="M56.1457 208C56.0137 208 55.8997 207.958 55.8037 207.874C55.7197 207.79 55.6777 207.682 55.6777 207.55V206.272C55.6777 206.188 55.7017 206.062 55.7497 205.894C55.7977 205.714 55.9237 205.546 56.1277 205.39L57.9997 203.554C58.9597 202.822 59.7457 202.204 60.3577 201.7C60.9817 201.184 61.4437 200.728 61.7437 200.332C62.0437 199.936 62.1937 199.564 62.1937 199.216C62.1937 198.808 62.0857 198.472 61.8697 198.208C61.6657 197.932 61.3057 197.794 60.7897 197.794C60.4417 197.794 60.1477 197.872 59.9077 198.028C59.6797 198.172 59.5057 198.364 59.3857 198.604C59.2657 198.844 59.1817 199.09 59.1337 199.342C59.0857 199.498 59.0017 199.606 58.8817 199.666C58.7737 199.726 58.6537 199.756 58.5217 199.756H56.2717C56.1637 199.756 56.0737 199.72 56.0017 199.648C55.9297 199.576 55.8937 199.486 55.8937 199.378C55.9057 198.802 56.0257 198.262 56.2537 197.758C56.4937 197.254 56.8237 196.81 57.2437 196.426C57.6757 196.03 58.1857 195.724 58.7737 195.508C59.3737 195.292 60.0457 195.184 60.7897 195.184C61.8097 195.184 62.6737 195.346 63.3817 195.67C64.1017 195.994 64.6477 196.45 65.0197 197.038C65.3917 197.614 65.5777 198.292 65.5777 199.072C65.5777 199.66 65.4457 200.212 65.1817 200.728C64.9297 201.232 64.5637 201.718 64.0837 202.186C63.6157 202.642 63.0577 203.116 62.4097 203.608L60.7537 205.282H65.3797C65.5117 205.282 65.6197 205.324 65.7037 205.408C65.7997 205.492 65.8477 205.6 65.8477 205.732V207.55C65.8477 207.682 65.7997 207.79 65.7037 207.874C65.6197 207.958 65.5117 208 65.3797 208H56.1457ZM75.0185 208C74.8985 208 74.7905 207.958 74.6945 207.874C74.6105 207.79 74.5685 207.682 74.5685 207.55V205.516H68.9705C68.8505 205.516 68.7425 205.474 68.6465 205.39C68.5625 205.306 68.5205 205.198 68.5205 205.066V203.356C68.5205 203.248 68.5385 203.152 68.5745 203.068C68.6225 202.972 68.6705 202.882 68.7185 202.798L73.9565 195.706C74.1125 195.502 74.3345 195.4 74.6225 195.4H77.2325C77.3645 195.4 77.4725 195.442 77.5565 195.526C77.6525 195.61 77.7005 195.718 77.7005 195.85V202.834H79.2845C79.4285 202.834 79.5425 202.882 79.6265 202.978C79.7105 203.062 79.7525 203.164 79.7525 203.284V205.066C79.7525 205.198 79.7045 205.306 79.6085 205.39C79.5245 205.474 79.4225 205.516 79.3025 205.516H77.7005V207.55C77.7005 207.682 77.6525 207.79 77.5565 207.874C77.4725 207.958 77.3645 208 77.2325 208H75.0185ZM71.6165 202.96H74.6405V198.712L71.6165 202.96ZM82.41 208C82.302 208 82.206 207.964 82.122 207.892C82.05 207.808 82.014 207.712 82.014 207.604C82.014 207.568 82.02 207.526 82.032 207.478C82.044 207.418 82.068 207.364 82.104 207.316L85.11 203.194L82.374 199.324C82.338 199.276 82.308 199.228 82.284 199.18C82.272 199.132 82.266 199.084 82.266 199.036C82.266 198.928 82.308 198.838 82.392 198.766C82.476 198.682 82.572 198.64 82.68 198.64H84.876C85.032 198.64 85.146 198.676 85.218 198.748C85.302 198.82 85.362 198.886 85.398 198.946L87.072 201.268L88.728 198.964C88.776 198.904 88.836 198.838 88.908 198.766C88.992 198.682 89.112 198.64 89.268 198.64H91.374C91.482 198.64 91.572 198.682 91.644 198.766C91.728 198.838 91.77 198.928 91.77 199.036C91.77 199.084 91.764 199.132 91.752 199.18C91.74 199.228 91.716 199.276 91.68 199.324L88.872 203.194L91.914 207.316C91.962 207.364 91.992 207.412 92.004 207.46C92.016 207.508 92.022 207.556 92.022 207.604C92.022 207.712 91.98 207.808 91.896 207.892C91.824 207.964 91.728 208 91.608 208H89.322C89.178 208 89.07 207.97 88.998 207.91C88.926 207.838 88.866 207.772 88.818 207.712L87 205.246L85.164 207.712C85.116 207.76 85.056 207.82 84.984 207.892C84.912 207.964 84.798 208 84.642 208H82.41ZM96.286 208C96.178 208 96.088 207.964 96.016 207.892C95.944 207.808 95.908 207.712 95.908 207.604C95.908 207.556 95.92 207.502 95.944 207.442L100.102 198.118H94.702C94.582 198.118 94.474 198.076 94.378 197.992C94.294 197.896 94.252 197.782 94.252 197.65V195.85C94.252 195.718 94.294 195.61 94.378 195.526C94.474 195.442 94.582 195.4 94.702 195.4H103.126C103.27 195.4 103.384 195.442 103.468 195.526C103.552 195.61 103.594 195.718 103.594 195.85V197.452C103.594 197.632 103.576 197.782 103.54 197.902C103.504 198.022 103.456 198.142 103.396 198.262L99.238 207.568C99.202 207.64 99.136 207.73 99.04 207.838C98.944 207.946 98.8 208 98.608 208H96.286ZM112.488 208C112.368 208 112.26 207.958 112.164 207.874C112.08 207.79 112.038 207.682 112.038 207.55V195.85C112.038 195.718 112.08 195.61 112.164 195.526C112.26 195.442 112.368 195.4 112.488 195.4H114.432C114.624 195.4 114.768 195.454 114.864 195.562C114.972 195.658 115.038 195.736 115.062 195.796L118.23 201.484L121.398 195.796C121.434 195.736 121.494 195.658 121.578 195.562C121.674 195.454 121.824 195.4 122.028 195.4H123.954C124.086 195.4 124.194 195.442 124.278 195.526C124.374 195.61 124.422 195.718 124.422 195.85V207.55C124.422 207.682 124.374 207.79 124.278 207.874C124.194 207.958 124.086 208 123.954 208H121.812C121.68 208 121.566 207.958 121.47 207.874C121.386 207.79 121.344 207.682 121.344 207.55V200.8L119.31 204.562C119.262 204.67 119.19 204.766 119.094 204.85C118.998 204.934 118.866 204.976 118.698 204.976H117.762C117.594 204.976 117.462 204.934 117.366 204.85C117.27 204.766 117.192 204.67 117.132 204.562L115.098 200.8V207.55C115.098 207.682 115.056 207.79 114.972 207.874C114.888 207.958 114.78 208 114.648 208H112.488ZM132.489 208.18C131.073 208.18 129.945 207.796 129.105 207.028C128.265 206.26 127.827 205.12 127.791 203.608C127.791 203.524 127.791 203.416 127.791 203.284C127.791 203.152 127.791 203.05 127.791 202.978C127.827 202.03 128.037 201.22 128.421 200.548C128.817 199.864 129.357 199.348 130.041 199C130.737 198.64 131.547 198.46 132.471 198.46C133.527 198.46 134.397 198.67 135.081 199.09C135.777 199.51 136.299 200.08 136.647 200.8C136.995 201.52 137.169 202.342 137.169 203.266V203.698C137.169 203.83 137.121 203.938 137.025 204.022C136.941 204.106 136.839 204.148 136.719 204.148H130.959C130.959 204.16 130.959 204.178 130.959 204.202C130.959 204.226 130.959 204.25 130.959 204.274C130.971 204.622 131.031 204.94 131.139 205.228C131.247 205.516 131.415 205.744 131.643 205.912C131.871 206.08 132.147 206.164 132.471 206.164C132.711 206.164 132.909 206.128 133.065 206.056C133.233 205.972 133.371 205.882 133.479 205.786C133.587 205.678 133.671 205.588 133.731 205.516C133.839 205.396 133.923 205.324 133.983 205.3C134.055 205.264 134.163 205.246 134.307 205.246H136.539C136.659 205.246 136.755 205.282 136.827 205.354C136.911 205.414 136.947 205.504 136.935 205.624C136.923 205.828 136.821 206.074 136.629 206.362C136.437 206.65 136.155 206.938 135.783 207.226C135.423 207.502 134.967 207.73 134.415 207.91C133.863 208.09 133.221 208.18 132.489 208.18ZM130.959 202.366H134.001V202.33C134.001 201.946 133.941 201.61 133.821 201.322C133.713 201.034 133.539 200.812 133.299 200.656C133.071 200.5 132.795 200.422 132.471 200.422C132.147 200.422 131.871 200.5 131.643 200.656C131.427 200.812 131.259 201.034 131.139 201.322C131.019 201.61 130.959 201.946 130.959 202.33V202.366ZM143.789 208.18C143.213 208.18 142.691 208.09 142.223 207.91C141.767 207.718 141.371 207.442 141.035 207.082C140.711 206.71 140.459 206.266 140.279 205.75C140.099 205.222 139.997 204.622 139.973 203.95C139.961 203.71 139.955 203.5 139.955 203.32C139.955 203.128 139.961 202.918 139.973 202.69C139.997 202.042 140.099 201.46 140.279 200.944C140.459 200.428 140.711 199.984 141.035 199.612C141.359 199.24 141.755 198.958 142.223 198.766C142.691 198.562 143.213 198.46 143.789 198.46C144.389 198.46 144.905 198.562 145.337 198.766C145.769 198.958 146.135 199.21 146.435 199.522V195.67C146.435 195.538 146.477 195.43 146.561 195.346C146.645 195.262 146.753 195.22 146.885 195.22H149.081C149.201 195.22 149.303 195.262 149.387 195.346C149.483 195.43 149.531 195.538 149.531 195.67V207.55C149.531 207.682 149.483 207.79 149.387 207.874C149.303 207.958 149.201 208 149.081 208H147.047C146.915 208 146.807 207.958 146.723 207.874C146.639 207.79 146.597 207.682 146.597 207.55V206.974C146.309 207.322 145.937 207.61 145.481 207.838C145.025 208.066 144.461 208.18 143.789 208.18ZM144.761 205.768C145.169 205.768 145.487 205.684 145.715 205.516C145.955 205.336 146.129 205.108 146.237 204.832C146.357 204.556 146.423 204.256 146.435 203.932C146.447 203.692 146.453 203.464 146.453 203.248C146.453 203.032 146.447 202.81 146.435 202.582C146.423 202.282 146.357 202.006 146.237 201.754C146.117 201.49 145.937 201.28 145.697 201.124C145.457 200.956 145.145 200.872 144.761 200.872C144.365 200.872 144.047 200.956 143.807 201.124C143.579 201.292 143.417 201.52 143.321 201.808C143.225 202.096 143.165 202.414 143.141 202.762C143.105 203.134 143.105 203.506 143.141 203.878C143.165 204.226 143.225 204.544 143.321 204.832C143.417 205.12 143.579 205.348 143.807 205.516C144.047 205.684 144.365 205.768 144.761 205.768ZM153.542 208C153.41 208 153.302 207.958 153.218 207.874C153.134 207.79 153.092 207.682 153.092 207.55V199.09C153.092 198.958 153.134 198.85 153.218 198.766C153.302 198.682 153.41 198.64 153.542 198.64H155.666C155.786 198.64 155.888 198.682 155.972 198.766C156.068 198.85 156.116 198.958 156.116 199.09V207.55C156.116 207.682 156.068 207.79 155.972 207.874C155.888 207.958 155.786 208 155.666 208H153.542ZM153.524 197.29C153.392 197.29 153.284 197.248 153.2 197.164C153.116 197.08 153.074 196.972 153.074 196.84V195.238C153.074 195.106 153.116 194.998 153.2 194.914C153.284 194.818 153.392 194.77 153.524 194.77H155.666C155.798 194.77 155.906 194.818 155.99 194.914C156.086 194.998 156.134 195.106 156.134 195.238V196.84C156.134 196.972 156.086 197.08 155.99 197.164C155.906 197.248 155.798 197.29 155.666 197.29H153.524ZM162.473 208.18C161.825 208.18 161.243 208.06 160.727 207.82C160.223 207.568 159.821 207.232 159.521 206.812C159.221 206.392 159.071 205.918 159.071 205.39C159.071 204.538 159.419 203.866 160.115 203.374C160.811 202.87 161.735 202.528 162.887 202.348L165.137 202.006V201.754C165.137 201.322 165.047 200.992 164.867 200.764C164.687 200.536 164.357 200.422 163.877 200.422C163.541 200.422 163.265 200.488 163.049 200.62C162.845 200.752 162.683 200.932 162.563 201.16C162.455 201.316 162.305 201.394 162.113 201.394H160.097C159.965 201.394 159.863 201.358 159.791 201.286C159.719 201.202 159.689 201.106 159.701 200.998C159.701 200.782 159.779 200.536 159.935 200.26C160.103 199.972 160.355 199.69 160.691 199.414C161.027 199.138 161.459 198.91 161.987 198.73C162.515 198.55 163.151 198.46 163.895 198.46C164.675 198.46 165.341 198.55 165.893 198.73C166.445 198.91 166.889 199.162 167.225 199.486C167.573 199.81 167.831 200.194 167.999 200.638C168.167 201.07 168.251 201.55 168.251 202.078V207.55C168.251 207.682 168.203 207.79 168.107 207.874C168.023 207.958 167.921 208 167.801 208H165.713C165.581 208 165.473 207.958 165.389 207.874C165.305 207.79 165.263 207.682 165.263 207.55V206.92C165.107 207.148 164.897 207.358 164.633 207.55C164.369 207.742 164.057 207.892 163.697 208C163.349 208.12 162.941 208.18 162.473 208.18ZM163.319 206.128C163.667 206.128 163.979 206.056 164.255 205.912C164.543 205.756 164.765 205.522 164.921 205.21C165.089 204.886 165.173 204.484 165.173 204.004V203.752L163.643 204.022C163.079 204.118 162.665 204.268 162.401 204.472C162.149 204.664 162.023 204.892 162.023 205.156C162.023 205.36 162.083 205.534 162.203 205.678C162.323 205.822 162.479 205.936 162.671 206.02C162.863 206.092 163.079 206.128 163.319 206.128ZM180.846 208.18C180.066 208.18 179.4 208.096 178.848 207.928C178.308 207.748 177.864 207.532 177.516 207.28C177.18 207.028 176.928 206.77 176.76 206.506C176.592 206.23 176.502 205.996 176.49 205.804C176.478 205.672 176.52 205.564 176.616 205.48C176.712 205.384 176.814 205.336 176.922 205.336H178.974C179.01 205.336 179.04 205.342 179.064 205.354C179.088 205.366 179.124 205.39 179.172 205.426C179.328 205.51 179.484 205.618 179.64 205.75C179.796 205.87 179.976 205.978 180.18 206.074C180.384 206.17 180.63 206.218 180.918 206.218C181.254 206.218 181.536 206.152 181.764 206.02C181.992 205.888 182.106 205.69 182.106 205.426C182.106 205.234 182.052 205.078 181.944 204.958C181.836 204.826 181.614 204.7 181.278 204.58C180.954 204.46 180.462 204.34 179.802 204.22C179.178 204.076 178.632 203.89 178.164 203.662C177.696 203.422 177.336 203.116 177.084 202.744C176.832 202.36 176.706 201.898 176.706 201.358C176.706 200.878 176.862 200.416 177.174 199.972C177.486 199.528 177.942 199.168 178.542 198.892C179.142 198.604 179.88 198.46 180.756 198.46C181.452 198.46 182.052 198.544 182.556 198.712C183.072 198.868 183.504 199.072 183.852 199.324C184.212 199.576 184.482 199.834 184.662 200.098C184.842 200.362 184.938 200.602 184.95 200.818C184.962 200.938 184.926 201.046 184.842 201.142C184.758 201.226 184.662 201.268 184.554 201.268H182.682C182.634 201.268 182.586 201.262 182.538 201.25C182.49 201.226 182.448 201.202 182.412 201.178C182.268 201.106 182.124 201.01 181.98 200.89C181.836 200.77 181.668 200.662 181.476 200.566C181.284 200.47 181.044 200.422 180.756 200.422C180.432 200.422 180.18 200.494 180 200.638C179.82 200.782 179.73 200.968 179.73 201.196C179.73 201.352 179.778 201.496 179.874 201.628C179.982 201.76 180.192 201.88 180.504 201.988C180.828 202.096 181.326 202.216 181.998 202.348C182.826 202.48 183.486 202.696 183.978 202.996C184.47 203.284 184.818 203.626 185.022 204.022C185.226 204.406 185.328 204.814 185.328 205.246C185.328 205.822 185.154 206.332 184.806 206.776C184.47 207.22 183.966 207.568 183.294 207.82C182.622 208.06 181.806 208.18 180.846 208.18ZM191.821 208.18C191.137 208.18 190.525 208.024 189.985 207.712C189.457 207.4 189.043 206.944 188.743 206.344C188.443 205.732 188.293 204.988 188.293 204.112V199.09C188.293 198.958 188.335 198.85 188.419 198.766C188.503 198.682 188.611 198.64 188.743 198.64H190.993C191.125 198.64 191.233 198.682 191.317 198.766C191.401 198.85 191.443 198.958 191.443 199.09V204.004C191.443 205.18 191.971 205.768 193.027 205.768C193.519 205.768 193.909 205.618 194.197 205.318C194.497 205.006 194.647 204.568 194.647 204.004V199.09C194.647 198.958 194.689 198.85 194.773 198.766C194.857 198.682 194.965 198.64 195.097 198.64H197.347C197.479 198.64 197.587 198.682 197.671 198.766C197.755 198.85 197.797 198.958 197.797 199.09V207.55C197.797 207.682 197.755 207.79 197.671 207.874C197.587 207.958 197.479 208 197.347 208H195.259C195.139 208 195.031 207.958 194.935 207.874C194.851 207.79 194.809 207.682 194.809 207.55V206.866C194.497 207.298 194.089 207.628 193.585 207.856C193.093 208.072 192.505 208.18 191.821 208.18ZM201.805 211.42C201.673 211.42 201.565 211.378 201.481 211.294C201.397 211.21 201.355 211.102 201.355 210.97V199.09C201.355 198.958 201.397 198.85 201.481 198.766C201.565 198.682 201.673 198.64 201.805 198.64H203.839C203.959 198.64 204.061 198.682 204.145 198.766C204.241 198.85 204.289 198.958 204.289 199.09V199.756C204.565 199.384 204.931 199.078 205.387 198.838C205.843 198.586 206.407 198.46 207.079 198.46C207.679 198.46 208.207 198.556 208.663 198.748C209.119 198.928 209.509 199.198 209.833 199.558C210.157 199.918 210.409 200.356 210.589 200.872C210.781 201.388 210.889 201.982 210.913 202.654C210.925 202.894 210.931 203.116 210.931 203.32C210.931 203.524 210.925 203.746 210.913 203.986C210.889 204.634 210.787 205.216 210.607 205.732C210.427 206.248 210.175 206.686 209.851 207.046C209.527 207.406 209.131 207.688 208.663 207.892C208.207 208.084 207.679 208.18 207.079 208.18C206.491 208.18 205.975 208.078 205.531 207.874C205.099 207.658 204.739 207.358 204.451 206.974V210.97C204.451 211.102 204.409 211.21 204.325 211.294C204.241 211.378 204.133 211.42 204.001 211.42H201.805ZM206.107 205.768C206.515 205.768 206.833 205.684 207.061 205.516C207.289 205.348 207.451 205.12 207.547 204.832C207.655 204.544 207.721 204.226 207.745 203.878C207.769 203.506 207.769 203.134 207.745 202.762C207.721 202.414 207.655 202.096 207.547 201.808C207.451 201.52 207.289 201.292 207.061 201.124C206.833 200.956 206.515 200.872 206.107 200.872C205.711 200.872 205.393 200.962 205.153 201.142C204.913 201.31 204.739 201.532 204.631 201.808C204.523 202.084 204.463 202.384 204.451 202.708C204.439 202.936 204.433 203.158 204.433 203.374C204.433 203.59 204.439 203.818 204.451 204.058C204.463 204.358 204.529 204.64 204.649 204.904C204.769 205.156 204.949 205.366 205.189 205.534C205.429 205.69 205.735 205.768 206.107 205.768ZM214.6 211.42C214.468 211.42 214.36 211.378 214.276 211.294C214.192 211.21 214.15 211.102 214.15 210.97V199.09C214.15 198.958 214.192 198.85 214.276 198.766C214.36 198.682 214.468 198.64 214.6 198.64H216.634C216.754 198.64 216.856 198.682 216.94 198.766C217.036 198.85 217.084 198.958 217.084 199.09V199.756C217.36 199.384 217.726 199.078 218.182 198.838C218.638 198.586 219.202 198.46 219.874 198.46C220.474 198.46 221.002 198.556 221.458 198.748C221.914 198.928 222.304 199.198 222.628 199.558C222.952 199.918 223.204 200.356 223.384 200.872C223.576 201.388 223.684 201.982 223.708 202.654C223.72 202.894 223.726 203.116 223.726 203.32C223.726 203.524 223.72 203.746 223.708 203.986C223.684 204.634 223.582 205.216 223.402 205.732C223.222 206.248 222.97 206.686 222.646 207.046C222.322 207.406 221.926 207.688 221.458 207.892C221.002 208.084 220.474 208.18 219.874 208.18C219.286 208.18 218.77 208.078 218.326 207.874C217.894 207.658 217.534 207.358 217.246 206.974V210.97C217.246 211.102 217.204 211.21 217.12 211.294C217.036 211.378 216.928 211.42 216.796 211.42H214.6ZM218.902 205.768C219.31 205.768 219.628 205.684 219.856 205.516C220.084 205.348 220.246 205.12 220.342 204.832C220.45 204.544 220.516 204.226 220.54 203.878C220.564 203.506 220.564 203.134 220.54 202.762C220.516 202.414 220.45 202.096 220.342 201.808C220.246 201.52 220.084 201.292 219.856 201.124C219.628 200.956 219.31 200.872 218.902 200.872C218.506 200.872 218.188 200.962 217.948 201.142C217.708 201.31 217.534 201.532 217.426 201.808C217.318 202.084 217.258 202.384 217.246 202.708C217.234 202.936 217.228 203.158 217.228 203.374C217.228 203.59 217.234 203.818 217.246 204.058C217.258 204.358 217.324 204.64 217.444 204.904C217.564 205.156 217.744 205.366 217.984 205.534C218.224 205.69 218.53 205.768 218.902 205.768ZM231.373 208.18C230.365 208.18 229.513 208.018 228.817 207.694C228.133 207.37 227.605 206.908 227.233 206.308C226.873 205.696 226.669 204.97 226.621 204.13C226.609 203.89 226.603 203.62 226.603 203.32C226.603 203.008 226.609 202.738 226.621 202.51C226.669 201.658 226.885 200.932 227.269 200.332C227.653 199.732 228.187 199.27 228.871 198.946C229.567 198.622 230.401 198.46 231.373 198.46C232.357 198.46 233.191 198.622 233.875 198.946C234.571 199.27 235.111 199.732 235.495 200.332C235.879 200.932 236.095 201.658 236.143 202.51C236.155 202.738 236.161 203.008 236.161 203.32C236.161 203.62 236.155 203.89 236.143 204.13C236.095 204.97 235.885 205.696 235.513 206.308C235.153 206.908 234.625 207.37 233.929 207.694C233.245 208.018 232.393 208.18 231.373 208.18ZM231.373 205.984C231.913 205.984 232.303 205.822 232.543 205.498C232.795 205.174 232.939 204.688 232.975 204.04C232.987 203.86 232.993 203.62 232.993 203.32C232.993 203.02 232.987 202.78 232.975 202.6C232.939 201.964 232.795 201.484 232.543 201.16C232.303 200.824 231.913 200.656 231.373 200.656C230.845 200.656 230.455 200.824 230.203 201.16C229.951 201.484 229.813 201.964 229.789 202.6C229.777 202.78 229.771 203.02 229.771 203.32C229.771 203.62 229.777 203.86 229.789 204.04C229.813 204.688 229.951 205.174 230.203 205.498C230.455 205.822 230.845 205.984 231.373 205.984ZM239.822 208C239.69 208 239.582 207.958 239.498 207.874C239.414 207.79 239.372 207.682 239.372 207.55V199.09C239.372 198.97 239.414 198.868 239.498 198.784C239.582 198.688 239.69 198.64 239.822 198.64H241.892C242.024 198.64 242.132 198.688 242.216 198.784C242.3 198.868 242.342 198.97 242.342 199.09V199.81C242.666 199.438 243.05 199.15 243.494 198.946C243.95 198.742 244.46 198.64 245.024 198.64H245.816C245.936 198.64 246.038 198.682 246.122 198.766C246.218 198.85 246.266 198.958 246.266 199.09V200.944C246.266 201.064 246.218 201.172 246.122 201.268C246.038 201.352 245.936 201.394 245.816 201.394H244.07C243.578 201.394 243.194 201.532 242.918 201.808C242.654 202.072 242.522 202.45 242.522 202.942V207.55C242.522 207.682 242.474 207.79 242.378 207.874C242.294 207.958 242.186 208 242.054 208H239.822ZM253.774 208C253.006 208 252.34 207.88 251.776 207.64C251.224 207.388 250.798 207.004 250.498 206.488C250.198 205.96 250.048 205.282 250.048 204.454V200.998H248.644C248.512 200.998 248.398 200.956 248.302 200.872C248.218 200.788 248.176 200.68 248.176 200.548V199.09C248.176 198.958 248.218 198.85 248.302 198.766C248.398 198.682 248.512 198.64 248.644 198.64H250.048V195.67C250.048 195.538 250.09 195.43 250.174 195.346C250.27 195.262 250.378 195.22 250.498 195.22H252.586C252.718 195.22 252.826 195.262 252.91 195.346C252.994 195.43 253.036 195.538 253.036 195.67V198.64H255.286C255.418 198.64 255.526 198.682 255.61 198.766C255.694 198.85 255.736 198.958 255.736 199.09V200.548C255.736 200.68 255.694 200.788 255.61 200.872C255.526 200.956 255.418 200.998 255.286 200.998H253.036V204.202C253.036 204.61 253.114 204.934 253.27 205.174C253.426 205.414 253.69 205.534 254.062 205.534H255.448C255.58 205.534 255.688 205.576 255.772 205.66C255.856 205.744 255.898 205.852 255.898 205.984V207.55C255.898 207.682 255.856 207.79 255.772 207.874C255.688 207.958 255.58 208 255.448 208H253.774Z" fill="white"/>
<path d="M214.125 97C212.369 94.8916 210.171 93.1943 207.687 92.028C205.204 90.8617 202.494 90.2547 199.75 90.25H171.25L174.75 81.3125C176.206 77.3993 176.691 73.1913 176.163 69.0495C175.635 64.9078 174.111 60.9558 171.72 57.5327C169.329 54.1096 166.144 51.3175 162.437 49.3959C158.73 47.4743 154.613 46.4806 150.438 46.5C149.235 46.5025 148.059 46.8518 147.05 47.5058C146.042 48.1598 145.243 49.091 144.75 50.1875L126.938 90.25H112.25C107.277 90.25 102.508 92.2255 98.9917 95.7418C95.4754 99.2581 93.5 104.027 93.5 109V152.75C93.5 157.723 95.4754 162.492 98.9917 166.008C102.508 169.525 107.277 171.5 112.25 171.5H191.813C196.199 171.499 200.446 169.959 203.815 167.15C207.183 164.341 209.46 160.44 210.25 156.125L218.188 112.375C218.678 109.671 218.569 106.892 217.867 104.236C217.165 101.579 215.887 99.1085 214.125 97ZM124.75 159H112.25C110.592 159 109.003 158.342 107.831 157.169C106.658 155.997 106 154.408 106 152.75V109C106 107.342 106.658 105.753 107.831 104.581C109.003 103.409 110.592 102.75 112.25 102.75H124.75V159ZM206 110.125L198.063 153.875C197.796 155.331 197.022 156.645 195.877 157.584C194.733 158.522 193.292 159.024 191.813 159H137.25V97.8125L154.25 59.5625C156 60.0727 157.625 60.9401 159.023 62.1099C160.421 63.2798 161.561 64.7267 162.371 66.3594C163.182 67.992 163.645 69.775 163.732 71.5957C163.818 73.4164 163.527 75.2352 162.875 76.9375L159.563 85.875C158.857 87.7641 158.618 89.796 158.868 91.7971C159.118 93.7983 159.848 95.7093 160.996 97.3672C162.144 99.025 163.676 100.38 165.462 101.318C167.248 102.255 169.233 102.747 171.25 102.75H199.75C200.668 102.749 201.575 102.949 202.407 103.338C203.239 103.727 203.975 104.295 204.563 105C205.165 105.696 205.606 106.516 205.854 107.402C206.103 108.288 206.152 109.218 206 110.125Z" fill="white"/>
<defs>
<filter id="filter0_d_142_10" x="0" y="0" width="312" height="312" filterUnits="userSpaceOnUse" color-interpolation-filters="sRGB">
<feFlood flood-opacity="0" result="BackgroundImageFix"/>
<feColorMatrix in="SourceAlpha" type="matrix" values="0 0 0 0 0 0 0 0 0 0 0 0 0 0 0 0 0 0 127 0" result="hardAlpha"/>
<feOffset dy="4"/>
<feGaussianBlur stdDeviation="9"/>
<feColorMatrix type="matrix" values="0 0 0 0 0.345098 0 0 0 0 0.494118 0 0 0 0 0.92549 0 0 0 0.18 0"/>
<feBlend mode="normal" in2="BackgroundImageFix" result="effect1_dropShadow_142_10"/>
<feBlend mode="normal" in="SourceGraphic" in2="effect1_dropShadow_142_10" result="shape"/>
</filter>
</defs>
</svg>
