<svg width="200" height="42" viewBox="0 0 200 42" fill="none" xmlns="http://www.w3.org/2000/svg">
<rect width="40" height="40" transform="translate(0 1)" fill="white"/>
<path d="M37.5 10.1667C37.942 10.1667 38.366 9.99107 38.6785 9.67851C38.9911 9.36595 39.1667 8.94203 39.1667 8.5V3.5C39.1667 3.05797 38.9911 2.63405 38.6785 2.32149C38.366 2.00893 37.942 1.83333 37.5 1.83333H32.5C32.058 1.83333 31.634 2.00893 31.3215 2.32149C31.0089 2.63405 30.8333 3.05797 30.8333 3.5C30.8333 3.72101 30.7455 3.93297 30.5893 4.08925C30.433 4.24553 30.221 4.33333 30 4.33333C29.779 4.33333 29.567 4.24553 29.4107 4.08925C29.2545 3.93297 29.1667 3.72101 29.1667 3.5C29.1667 3.05797 28.9911 2.63405 28.6785 2.32149C28.366 2.00893 27.942 1.83333 27.5 1.83333H22.5C22.058 1.83333 21.634 2.00893 21.3215 2.32149C21.0089 2.63405 20.8333 3.05797 20.8333 3.5C20.8333 3.72101 20.7455 3.93297 20.5893 4.08925C20.433 4.24553 20.221 4.33333 20 4.33333C19.779 4.33333 19.567 4.24553 19.4107 4.08925C19.2545 3.93297 19.1667 3.72101 19.1667 3.5C19.1667 3.05797 18.9911 2.63405 18.6785 2.32149C18.3659 2.00893 17.942 1.83333 17.5 1.83333H12.5C12.058 1.83333 11.634 2.00893 11.3215 2.32149C11.0089 2.63405 10.8333 3.05797 10.8333 3.5C10.8333 3.72101 10.7455 3.93297 10.5893 4.08925C10.433 4.24553 10.221 4.33333 10 4.33333C9.77899 4.33333 9.56702 4.24553 9.41074 4.08925C9.25446 3.93297 9.16667 3.72101 9.16667 3.5C9.16667 3.05797 8.99107 2.63405 8.67851 2.32149C8.36595 2.00893 7.94203 1.83333 7.5 1.83333H2.5C2.05797 1.83333 1.63405 2.00893 1.32149 2.32149C1.00893 2.63405 0.833332 3.05797 0.833332 3.5V8.5C0.833332 8.94203 1.00893 9.36595 1.32149 9.67851C1.63405 9.99107 2.05797 10.1667 2.5 10.1667C2.72101 10.1667 2.93297 10.2545 3.08925 10.4107C3.24553 10.567 3.33333 10.779 3.33333 11C3.33333 11.221 3.24553 11.433 3.08925 11.5893C2.93297 11.7455 2.72101 11.8333 2.5 11.8333C2.05797 11.8333 1.63405 12.0089 1.32149 12.3215C1.00893 12.634 0.833332 13.058 0.833332 13.5V18.5C0.833332 18.942 1.00893 19.3659 1.32149 19.6785C1.63405 19.9911 2.05797 20.1667 2.5 20.1667C2.72101 20.1667 2.93297 20.2545 3.08925 20.4107C3.24553 20.567 3.33333 20.779 3.33333 21C3.33333 21.221 3.24553 21.433 3.08925 21.5893C2.93297 21.7455 2.72101 21.8333 2.5 21.8333C2.05797 21.8333 1.63405 22.0089 1.32149 22.3215C1.00893 22.634 0.833332 23.058 0.833332 23.5V28.5C0.833332 28.942 1.00893 29.366 1.32149 29.6785C1.63405 29.9911 2.05797 30.1667 2.5 30.1667C2.72101 30.1667 2.93297 30.2545 3.08925 30.4107C3.24553 30.567 3.33333 30.779 3.33333 31C3.33333 31.221 3.24553 31.433 3.08925 31.5893C2.93297 31.7455 2.72101 31.8333 2.5 31.8333C2.05797 31.8333 1.63405 32.0089 1.32149 32.3215C1.00893 32.634 0.833332 33.058 0.833332 33.5V38.5C0.833332 38.942 1.00893 39.366 1.32149 39.6785C1.63405 39.9911 2.05797 40.1667 2.5 40.1667H7.5C7.94203 40.1667 8.36595 39.9911 8.67851 39.6785C8.99107 39.366 9.16667 38.942 9.16667 38.5C9.16667 38.279 9.25446 38.067 9.41074 37.9107C9.56702 37.7545 9.77899 37.6667 10 37.6667C10.221 37.6667 10.433 37.7545 10.5893 37.9107C10.7455 38.067 10.8333 38.279 10.8333 38.5C10.8333 38.942 11.0089 39.366 11.3215 39.6785C11.634 39.9911 12.058 40.1667 12.5 40.1667H17.5C17.942 40.1667 18.3659 39.9911 18.6785 39.6785C18.9911 39.366 19.1667 38.942 19.1667 38.5C19.1667 38.279 19.2545 38.067 19.4107 37.9107C19.567 37.7545 19.779 37.6667 20 37.6667C20.221 37.6667 20.433 37.7545 20.5893 37.9107C20.7455 38.067 20.8333 38.279 20.8333 38.5C20.8333 38.942 21.0089 39.366 21.3215 39.6785C21.634 39.9911 22.058 40.1667 22.5 40.1667H27.5C27.942 40.1667 28.366 39.9911 28.6785 39.6785C28.9911 39.366 29.1667 38.942 29.1667 38.5C29.1667 38.279 29.2545 38.067 29.4107 37.9107C29.567 37.7545 29.779 37.6667 30 37.6667C30.221 37.6667 30.433 37.7545 30.5893 37.9107C30.7455 38.067 30.8333 38.279 30.8333 38.5C30.8333 38.942 31.0089 39.366 31.3215 39.6785C31.634 39.9911 32.058 40.1667 32.5 40.1667H37.5C37.942 40.1667 38.366 39.9911 38.6785 39.6785C38.9911 39.366 39.1667 38.942 39.1667 38.5V33.5C39.1667 33.058 38.9911 32.634 38.6785 32.3215C38.366 32.0089 37.942 31.8333 37.5 31.8333C37.279 31.8333 37.067 31.7455 36.9107 31.5893C36.7545 31.433 36.6667 31.221 36.6667 31C36.6667 30.779 36.7545 30.567 36.9107 30.4107C37.067 30.2545 37.279 30.1667 37.5 30.1667C37.942 30.1667 38.366 29.9911 38.6785 29.6785C38.9911 29.366 39.1667 28.942 39.1667 28.5V23.5C39.1667 23.058 38.9911 22.634 38.6785 22.3215C38.366 22.0089 37.942 21.8333 37.5 21.8333C37.279 21.8333 37.067 21.7455 36.9107 21.5893C36.7545 21.433 36.6667 21.221 36.6667 21C36.6667 20.779 36.7545 20.567 36.9107 20.4107C37.067 20.2545 37.279 20.1667 37.5 20.1667C37.942 20.1667 38.366 19.9911 38.6785 19.6785C38.9911 19.3659 39.1667 18.942 39.1667 18.5V13.5C39.1667 13.058 38.9911 12.634 38.6785 12.3215C38.366 12.0089 37.942 11.8333 37.5 11.8333C37.279 11.8333 37.067 11.7455 36.9107 11.5893C36.7545 11.433 36.6667 11.221 36.6667 11C36.6667 10.779 36.7545 10.567 36.9107 10.4107C37.067 10.2545 37.279 10.1667 37.5 10.1667ZM35.8333 7.18333C35.0915 7.50822 34.4605 8.04223 34.0174 8.72006C33.5742 9.3979 33.3382 10.1902 33.3382 11C33.3382 11.8098 33.5742 12.6021 34.0174 13.2799C34.4605 13.9578 35.0915 14.4918 35.8333 14.8167V17.1833C35.0915 17.5082 34.4605 18.0422 34.0174 18.7201C33.5742 19.3979 33.3382 20.1902 33.3382 21C33.3382 21.8098 33.5742 22.6021 34.0174 23.2799C34.4605 23.9578 35.0915 24.4918 35.8333 24.8167V27.1833C35.0915 27.5082 34.4605 28.0422 34.0174 28.7201C33.5742 29.3979 33.3382 30.1902 33.3382 31C33.3382 31.8098 33.5742 32.6021 34.0174 33.2799C34.4605 33.9578 35.0915 34.4918 35.8333 34.8167V36.8333H33.8167C33.4918 36.0915 32.9578 35.4605 32.2799 35.0174C31.6021 34.5742 30.8098 34.3382 30 34.3382C29.1902 34.3382 28.3979 34.5742 27.7201 35.0174C27.0422 35.4605 26.5082 36.0915 26.1833 36.8333H23.8167C23.4918 36.0915 22.9578 35.4605 22.2799 35.0174C21.6021 34.5742 20.8098 34.3382 20 34.3382C19.1902 34.3382 18.3979 34.5742 17.7201 35.0174C17.0422 35.4605 16.5082 36.0915 16.1833 36.8333H13.8167C13.4918 36.0915 12.9578 35.4605 12.2799 35.0174C11.6021 34.5742 10.8098 34.3382 10 34.3382C9.19017 34.3382 8.3979 34.5742 7.72006 35.0174C7.04223 35.4605 6.50822 36.0915 6.18333 36.8333H4.16667V34.8167C4.90847 34.4918 5.53952 33.9578 5.98264 33.2799C6.42576 32.6021 6.66176 31.8098 6.66176 31C6.66176 30.1902 6.42576 29.3979 5.98264 28.7201C5.53952 28.0422 4.90847 27.5082 4.16667 27.1833V24.8167C4.90847 24.4918 5.53952 23.9578 5.98264 23.2799C6.42576 22.6021 6.66176 21.8098 6.66176 21C6.66176 20.1902 6.42576 19.3979 5.98264 18.7201C5.53952 18.0422 4.90847 17.5082 4.16667 17.1833V14.8167C4.90847 14.4918 5.53952 13.9578 5.98264 13.2799C6.42576 12.6021 6.66176 11.8098 6.66176 11C6.66176 10.1902 6.42576 9.3979 5.98264 8.72006C5.53952 8.04223 4.90847 7.50822 4.16667 7.18333V5.16667H6.18333C6.50822 5.90847 7.04223 6.53952 7.72006 6.98264C8.3979 7.42576 9.19017 7.66176 10 7.66176C10.8098 7.66176 11.6021 7.42576 12.2799 6.98264C12.9578 6.53952 13.4918 5.90847 13.8167 5.16667H16.1833C16.5082 5.90847 17.0422 6.53952 17.7201 6.98264C18.3979 7.42576 19.1902 7.66176 20 7.66176C20.8098 7.66176 21.6021 7.42576 22.2799 6.98264C22.9578 6.53952 23.4918 5.90847 23.8167 5.16667H26.1833C26.5082 5.90847 27.0422 6.53952 27.7201 6.98264C28.3979 7.42576 29.1902 7.66176 30 7.66176C30.8098 7.66176 31.6021 7.42576 32.2799 6.98264C32.9578 6.53952 33.4918 5.90847 33.8167 5.16667H35.8333V7.18333ZM20 9.33333C16.9058 9.33333 13.9383 10.5625 11.7504 12.7504C9.5625 14.9383 8.33333 17.9058 8.33333 21C8.33333 24.0942 9.5625 27.0617 11.7504 29.2496C13.9383 31.4375 16.9058 32.6667 20 32.6667C22.049 32.6711 24.0623 32.1304 25.8333 31.1C26.0325 30.9958 26.2085 30.8524 26.3509 30.6784C26.4932 30.5044 26.5988 30.3034 26.6615 30.0876C26.7241 29.8717 26.7424 29.6454 26.7153 29.4222C26.6882 29.1991 26.6162 28.9837 26.5037 28.7891C26.3913 28.5945 26.2406 28.4247 26.0607 28.2898C25.8809 28.1549 25.6756 28.0579 25.4573 28.0044C25.239 27.9509 25.0121 27.9421 24.7903 27.9786C24.5685 28.0151 24.3564 28.0961 24.1667 28.2167C22.578 29.1339 20.731 29.5013 18.9123 29.2618C17.0935 29.0224 15.4046 28.1895 14.1074 26.8923C12.8103 25.5951 11.9774 23.9062 11.7379 22.0874C11.4985 20.2687 11.8659 18.4217 12.7832 16.833C13.7004 15.2444 15.1163 14.0027 16.8111 13.3007C18.5059 12.5988 20.385 12.4756 22.157 12.9504C23.9289 13.4253 25.4947 14.4715 26.6114 15.9269C27.7281 17.3823 28.3334 19.1655 28.3333 21V21.8333C28.3333 22.015 28.2976 22.1949 28.228 22.3627C28.1585 22.5305 28.0566 22.683 27.9282 22.8115C27.7997 22.94 27.6472 23.0418 27.4794 23.1114C27.3115 23.1809 27.1317 23.2167 26.95 23.2167C26.5816 23.2167 26.228 23.0715 25.9659 22.8125C25.7038 22.5536 25.5544 22.2017 25.55 21.8333V17.1167C25.5413 16.7752 25.4279 16.4445 25.2251 16.1696C25.0223 15.8947 24.74 15.6887 24.4162 15.5796C24.0925 15.4705 23.7431 15.4635 23.4152 15.5595C23.0874 15.6556 22.797 15.8501 22.5833 16.1167C21.7913 15.6825 20.9032 15.4534 20 15.45C18.528 15.45 17.1164 16.0347 16.0756 17.0756C15.0347 18.1164 14.45 19.528 14.45 21C14.45 22.472 15.0347 23.8836 16.0756 24.9244C17.1164 25.9653 18.528 26.55 20 26.55C21.3318 26.5502 22.6178 26.0642 23.6167 25.1833C24.2793 25.8342 25.1188 26.2758 26.0306 26.4529C26.9424 26.6301 27.8862 26.5351 28.7444 26.1798C29.6026 25.8244 30.3373 25.2244 30.8569 24.4545C31.3765 23.6846 31.6581 22.7788 31.6667 21.85V21C31.6667 17.9058 30.4375 14.9383 28.2496 12.7504C26.0617 10.5625 23.0942 9.33333 20 9.33333V9.33333ZM20 23.2167C19.5616 23.2167 19.133 23.0867 18.7685 22.8431C18.404 22.5995 18.1198 22.2533 17.9521 21.8483C17.7843 21.4432 17.7404 20.9975 17.8259 20.5675C17.9115 20.1376 18.1226 19.7426 18.4326 19.4326C18.7426 19.1226 19.1376 18.9115 19.5675 18.8259C19.9975 18.7404 20.4432 18.7843 20.8483 18.9521C21.2533 19.1198 21.5995 19.404 21.8431 19.7685C22.0867 20.133 22.2167 20.5616 22.2167 21C22.2189 21.2917 22.1631 21.581 22.0525 21.8509C21.9418 22.1208 21.7786 22.3661 21.5724 22.5724C21.3661 22.7786 21.1208 22.9418 20.8509 23.0525C20.581 23.1631 20.2917 23.2189 20 23.2167V23.2167Z" fill="#3DB1CA"/>
<path d="M50.04 32C49.8053 32 49.6133 31.9253 49.464 31.776C49.3147 31.6267 49.24 31.4347 49.24 31.2V10.4C49.24 10.1653 49.3147 9.97333 49.464 9.824C49.6133 9.67467 49.8053 9.6 50.04 9.6H64.984C65.2187 9.6 65.4107 9.67467 65.56 9.824C65.7093 9.97333 65.784 10.1653 65.784 10.4V13.408C65.784 13.6427 65.7093 13.8347 65.56 13.984C65.4107 14.1333 65.2187 14.208 64.984 14.208H54.776V18.528H64.28C64.5147 18.528 64.7067 18.6133 64.856 18.784C65.0053 18.9333 65.08 19.1253 65.08 19.36V22.144C65.08 22.3573 65.0053 22.5493 64.856 22.72C64.7067 22.8693 64.5147 22.944 64.28 22.944H54.776V27.392H65.24C65.4747 27.392 65.6667 27.4667 65.816 27.616C65.9653 27.7653 66.04 27.9573 66.04 28.192V31.2C66.04 31.4347 65.9653 31.6267 65.816 31.776C65.6667 31.9253 65.4747 32 65.24 32H50.04ZM69.8428 24.704C69.6081 24.704 69.4161 24.6293 69.2668 24.48C69.1174 24.3307 69.0428 24.1387 69.0428 23.904V20.896C69.0428 20.6613 69.1174 20.4693 69.2668 20.32C69.4161 20.1707 69.6081 20.096 69.8428 20.096H79.8588C80.0934 20.096 80.2854 20.1707 80.4348 20.32C80.5841 20.4693 80.6588 20.6613 80.6588 20.896V23.904C80.6588 24.1387 80.5841 24.3307 80.4348 24.48C80.2854 24.6293 80.0934 24.704 79.8588 24.704H69.8428ZM85.1568 32C84.9221 32 84.7301 31.9253 84.5807 31.776C84.4314 31.6267 84.3568 31.4347 84.3568 31.2V16.16C84.3568 15.9253 84.4314 15.7333 84.5807 15.584C84.7301 15.4347 84.9221 15.36 85.1568 15.36H88.6448C88.8794 15.36 89.0714 15.4347 89.2208 15.584C89.3701 15.7333 89.4448 15.9253 89.4448 16.16V17.248C89.8714 16.672 90.4688 16.1707 91.2368 15.744C92.0048 15.296 92.9114 15.0613 93.9568 15.04C96.4101 14.9973 98.0954 15.9253 99.0128 17.824C99.5034 17.0133 100.207 16.352 101.125 15.84C102.042 15.3067 103.045 15.04 104.133 15.04C105.242 15.04 106.234 15.296 107.109 15.808C108.005 16.2987 108.719 17.0667 109.253 18.112C109.786 19.136 110.053 20.4693 110.053 22.112V31.2C110.053 31.4347 109.967 31.6267 109.797 31.776C109.647 31.9253 109.466 32 109.253 32H105.541C105.306 32 105.103 31.9253 104.933 31.776C104.783 31.6267 104.709 31.4347 104.709 31.2V22.336C104.709 21.5893 104.602 21.0027 104.389 20.576C104.175 20.128 103.887 19.808 103.525 19.616C103.162 19.424 102.746 19.328 102.277 19.328C101.893 19.328 101.509 19.424 101.125 19.616C100.762 19.808 100.463 20.128 100.229 20.576C100.015 21.0027 99.9088 21.5893 99.9088 22.336V31.2C99.9088 31.4347 99.8341 31.6267 99.6848 31.776C99.5354 31.9253 99.3434 32 99.1088 32H95.3968C95.1621 32 94.9701 31.9253 94.8208 31.776C94.6714 31.6267 94.5968 31.4347 94.5968 31.2V22.336C94.5968 21.5893 94.4794 21.0027 94.2448 20.576C94.0101 20.128 93.7114 19.808 93.3488 19.616C92.9861 19.424 92.5808 19.328 92.1328 19.328C91.7488 19.328 91.3648 19.424 90.9808 19.616C90.6181 19.808 90.3194 20.128 90.0848 20.576C89.8714 21.0027 89.7648 21.5787 89.7648 22.304V31.2C89.7648 31.4347 89.6794 31.6267 89.5088 31.776C89.3594 31.9253 89.1674 32 88.9328 32H85.1568ZM118.63 32.32C117.478 32.32 116.443 32.1067 115.526 31.68C114.63 31.232 113.915 30.6347 113.382 29.888C112.849 29.1413 112.582 28.2987 112.582 27.36C112.582 25.8453 113.201 24.6507 114.438 23.776C115.675 22.88 117.318 22.272 119.366 21.952L123.366 21.344V20.896C123.366 20.128 123.206 19.5413 122.886 19.136C122.566 18.7307 121.979 18.528 121.126 18.528C120.529 18.528 120.038 18.6453 119.654 18.88C119.291 19.1147 119.003 19.4347 118.79 19.84C118.598 20.1173 118.331 20.256 117.99 20.256H114.406C114.171 20.256 113.99 20.192 113.862 20.064C113.734 19.9147 113.681 19.744 113.702 19.552C113.702 19.168 113.841 18.7307 114.118 18.24C114.417 17.728 114.865 17.2267 115.462 16.736C116.059 16.2453 116.827 15.84 117.766 15.52C118.705 15.2 119.835 15.04 121.158 15.04C122.545 15.04 123.729 15.2 124.71 15.52C125.691 15.84 126.481 16.288 127.078 16.864C127.697 17.44 128.155 18.1227 128.454 18.912C128.753 19.68 128.902 20.5333 128.902 21.472V31.2C128.902 31.4347 128.817 31.6267 128.646 31.776C128.497 31.9253 128.315 32 128.102 32H124.39C124.155 32 123.963 31.9253 123.814 31.776C123.665 31.6267 123.59 31.4347 123.59 31.2V30.08C123.313 30.4853 122.939 30.8587 122.47 31.2C122.001 31.5413 121.446 31.808 120.806 32C120.187 32.2133 119.462 32.32 118.63 32.32ZM120.134 28.672C120.753 28.672 121.307 28.544 121.798 28.288C122.31 28.0107 122.705 27.5947 122.982 27.04C123.281 26.464 123.43 25.7493 123.43 24.896V24.448L120.71 24.928C119.707 25.0987 118.971 25.3653 118.502 25.728C118.054 26.0693 117.83 26.4747 117.83 26.944C117.83 27.3067 117.937 27.616 118.15 27.872C118.363 28.128 118.641 28.3307 118.982 28.48C119.323 28.608 119.707 28.672 120.134 28.672ZM133.313 32C133.078 32 132.886 31.9253 132.737 31.776C132.588 31.6267 132.513 31.4347 132.513 31.2V16.16C132.513 15.9253 132.588 15.7333 132.737 15.584C132.886 15.4347 133.078 15.36 133.313 15.36H137.089C137.302 15.36 137.484 15.4347 137.633 15.584C137.804 15.7333 137.889 15.9253 137.889 16.16V31.2C137.889 31.4347 137.804 31.6267 137.633 31.776C137.484 31.9253 137.302 32 137.089 32H133.313ZM133.281 12.96C133.046 12.96 132.854 12.8853 132.705 12.736C132.556 12.5867 132.481 12.3947 132.481 12.16V9.312C132.481 9.07733 132.556 8.88533 132.705 8.736C132.854 8.56533 133.046 8.48 133.281 8.48H137.089C137.324 8.48 137.516 8.56533 137.665 8.736C137.836 8.88533 137.921 9.07733 137.921 9.312V12.16C137.921 12.3947 137.836 12.5867 137.665 12.736C137.516 12.8853 137.324 12.96 137.089 12.96H133.281ZM142.438 32C142.203 32 142.011 31.9253 141.862 31.776C141.713 31.6267 141.638 31.4347 141.638 31.2V10.08C141.638 9.84533 141.713 9.65333 141.862 9.504C142.011 9.35467 142.203 9.28 142.438 9.28H146.214C146.449 9.28 146.641 9.35467 146.79 9.504C146.939 9.65333 147.014 9.84533 147.014 10.08V31.2C147.014 31.4347 146.939 31.6267 146.79 31.776C146.641 31.9253 146.449 32 146.214 32H142.438Z" fill="black"/>
<path d="M160.394 32.32C158.368 32.32 156.618 31.9893 155.146 31.328C153.696 30.6453 152.565 29.664 151.754 28.384C150.965 27.0827 150.528 25.504 150.442 23.648C150.421 22.7307 150.41 21.76 150.41 20.736C150.41 19.6907 150.421 18.6987 150.442 17.76C150.528 15.9467 150.976 14.4107 151.786 13.152C152.597 11.8933 153.738 10.9333 155.21 10.272C156.682 9.61067 158.41 9.28 160.394 9.28C161.994 9.28 163.413 9.48267 164.65 9.888C165.888 10.272 166.922 10.7947 167.754 11.456C168.608 12.1173 169.248 12.8427 169.674 13.632C170.122 14.4213 170.357 15.2 170.378 15.968C170.4 16.16 170.336 16.32 170.186 16.448C170.058 16.576 169.898 16.64 169.706 16.64H165.034C164.8 16.64 164.618 16.608 164.49 16.544C164.384 16.4587 164.288 16.3413 164.202 16.192C164.053 15.872 163.829 15.5413 163.53 15.2C163.253 14.8373 162.858 14.528 162.346 14.272C161.856 14.016 161.205 13.888 160.394 13.888C159.178 13.888 158.218 14.208 157.514 14.848C156.832 15.488 156.458 16.512 156.394 17.92C156.33 19.7547 156.33 21.6107 156.394 23.488C156.458 24.9813 156.853 26.0587 157.578 26.72C158.304 27.3813 159.264 27.712 160.458 27.712C161.269 27.712 161.984 27.5733 162.602 27.296C163.242 27.0187 163.744 26.592 164.106 26.016C164.469 25.4187 164.65 24.6613 164.65 23.744V23.136H161.642C161.408 23.136 161.205 23.0613 161.034 22.912C160.885 22.7413 160.81 22.5387 160.81 22.304V19.936C160.81 19.7013 160.885 19.5093 161.034 19.36C161.205 19.1893 161.408 19.104 161.642 19.104H169.706C169.941 19.104 170.133 19.1893 170.282 19.36C170.432 19.5093 170.506 19.7013 170.506 19.936V23.584C170.506 25.4187 170.09 26.9867 169.258 28.288C168.426 29.5893 167.242 30.592 165.706 31.296C164.192 31.9787 162.421 32.32 160.394 32.32ZM181.698 32.32C179.906 32.32 178.391 32.032 177.154 31.456C175.938 30.88 174.999 30.0587 174.338 28.992C173.698 27.904 173.335 26.6133 173.25 25.12C173.228 24.6933 173.218 24.2133 173.218 23.68C173.218 23.1253 173.228 22.6453 173.25 22.24C173.335 20.7253 173.719 19.4347 174.402 18.368C175.084 17.3013 176.034 16.48 177.25 15.904C178.487 15.328 179.97 15.04 181.698 15.04C183.447 15.04 184.93 15.328 186.146 15.904C187.383 16.48 188.343 17.3013 189.026 18.368C189.708 19.4347 190.092 20.7253 190.178 22.24C190.199 22.6453 190.21 23.1253 190.21 23.68C190.21 24.2133 190.199 24.6933 190.178 25.12C190.092 26.6133 189.719 27.904 189.058 28.992C188.418 30.0587 187.479 30.88 186.242 31.456C185.026 32.032 183.511 32.32 181.698 32.32ZM181.698 28.416C182.658 28.416 183.351 28.128 183.778 27.552C184.226 26.976 184.482 26.112 184.546 24.96C184.567 24.64 184.578 24.2133 184.578 23.68C184.578 23.1467 184.567 22.72 184.546 22.4C184.482 21.2693 184.226 20.416 183.778 19.84C183.351 19.2427 182.658 18.944 181.698 18.944C180.759 18.944 180.066 19.2427 179.618 19.84C179.17 20.416 178.924 21.2693 178.882 22.4C178.86 22.72 178.85 23.1467 178.85 23.68C178.85 24.2133 178.86 24.64 178.882 24.96C178.924 26.112 179.17 26.976 179.618 27.552C180.066 28.128 180.759 28.416 181.698 28.416Z" fill="#3DB1CA"/>
</svg>
