<svg width="188" height="36" viewBox="0 0 188 36" fill="none" xmlns="http://www.w3.org/2000/svg">
<path d="M0 4.84536C0 2.16934 2.16934 0 4.84536 0H183.155C185.831 0 188 2.16934 188 4.84536V31.1546C188 33.8307 185.831 36 183.155 36H4.84537C2.16935 36 0 33.8307 0 31.1546V4.84536Z" fill="white"/>
<path d="M17.8527 26.1777C17.1657 26.1777 16.5321 26.0948 15.9517 25.9289C15.3832 25.7513 14.8916 25.5025 14.4771 25.1827C14.0744 24.8511 13.7605 24.4543 13.5355 23.9924C13.3104 23.5305 13.1979 23.0093 13.1979 22.429C13.1979 21.7065 13.3697 21.0846 13.7131 20.5635C14.0685 20.0424 14.5363 19.6456 15.1167 19.3732C14.6547 19.1007 14.2935 18.7454 14.0329 18.3072C13.7724 17.8689 13.6421 17.3478 13.6421 16.7437C13.6421 16.0331 13.8138 15.435 14.1573 14.9493C14.5126 14.4519 15.0042 14.067 15.6319 13.7945C16.2715 13.5221 17.0117 13.3859 17.8527 13.3859C18.6818 13.3859 19.4102 13.5221 20.0379 13.7945C20.6775 14.0551 21.1691 14.4341 21.5126 14.9316C21.8679 15.429 22.0455 16.0272 22.0455 16.726C22.0455 17.33 21.9153 17.8571 21.6547 18.3072C21.3941 18.7454 21.0388 19.1007 20.5887 19.3732C21.1691 19.6456 21.631 20.0424 21.9745 20.5635C22.3298 21.0846 22.5075 21.7065 22.5075 22.429C22.5075 23.1988 22.312 23.868 21.9212 24.4366C21.5303 24.9932 20.9855 25.4256 20.2867 25.7335C19.5879 26.0296 18.7765 26.1777 17.8527 26.1777ZM17.8527 24.7564C18.3975 24.7564 18.8891 24.6616 19.3273 24.4721C19.7655 24.2826 20.1149 24.0161 20.3755 23.6726C20.6361 23.3173 20.7664 22.9027 20.7664 22.429C20.7664 21.9434 20.6361 21.5347 20.3755 21.2031C20.1149 20.8596 19.7655 20.599 19.3273 20.4214C18.8891 20.2319 18.3975 20.1371 17.8527 20.1371C17.3079 20.1371 16.8104 20.2319 16.3603 20.4214C15.9221 20.599 15.5727 20.8596 15.3121 21.2031C15.0515 21.5347 14.9212 21.9434 14.9212 22.429C14.9212 22.9027 15.0515 23.3173 15.3121 23.6726C15.5727 24.0161 15.9221 24.2826 16.3603 24.4721C16.8104 24.6616 17.3079 24.7564 17.8527 24.7564ZM17.8527 18.7336C18.3028 18.7336 18.7173 18.6507 19.0963 18.4848C19.4872 18.319 19.7951 18.094 20.0202 17.8097C20.2571 17.5255 20.3755 17.182 20.3755 16.7793C20.3755 16.3766 20.263 16.0272 20.0379 15.7311C19.8247 15.435 19.5227 15.2099 19.1319 15.0559C18.7528 14.8901 18.3265 14.8072 17.8527 14.8072C17.3789 14.8072 16.9466 14.8901 16.5557 15.0559C16.1767 15.2099 15.8747 15.435 15.6497 15.7311C15.4246 16.0272 15.3121 16.3766 15.3121 16.7793C15.3121 17.1938 15.4246 17.5492 15.6497 17.8453C15.8747 18.1295 16.1767 18.3486 16.5557 18.5026C16.9466 18.6566 17.3789 18.7336 17.8527 18.7336ZM30.0891 28.8248C29.3192 28.8248 28.6678 28.659 28.1348 28.3274C27.6018 28.0076 27.1754 27.5101 26.8556 26.835C26.5358 26.1599 26.299 25.3012 26.145 24.2589C26.0028 23.2048 25.9318 21.9552 25.9318 20.5102C25.9318 19.0652 26.0028 17.8216 26.145 16.7793C26.299 15.7251 26.5358 14.8605 26.8556 14.1854C27.1754 13.5103 27.6018 13.0128 28.1348 12.693C28.6678 12.3732 29.3192 12.2133 30.0891 12.2133C30.1957 12.2133 30.2905 12.2548 30.3734 12.3377C30.4563 12.4206 30.4977 12.5154 30.4977 12.622V13.2438C30.4977 13.3504 30.4563 13.4451 30.3734 13.528C30.3023 13.6109 30.2253 13.6524 30.1424 13.6524C29.6449 13.6642 29.2245 13.7945 28.881 14.0433C28.5494 14.2801 28.2769 14.6651 28.0637 15.1981C27.8624 15.7311 27.7143 16.4358 27.6196 17.3123C27.5367 18.1769 27.4952 19.2429 27.4952 20.5102C27.4952 21.7775 27.5367 22.8494 27.6196 23.7259C27.7143 24.5905 27.8624 25.2953 28.0637 25.8401C28.2769 26.3731 28.5494 26.758 28.881 26.9949C29.2245 27.2436 29.6449 27.3739 30.1424 27.3858C30.2253 27.3858 30.3023 27.4272 30.3734 27.5101C30.4563 27.593 30.4977 27.6878 30.4977 27.7944V28.4162C30.4977 28.5228 30.4563 28.6176 30.3734 28.7005C30.2905 28.7834 30.1957 28.8248 30.0891 28.8248ZM37.5247 26.1777C36.8378 26.1777 36.2041 26.0948 35.6237 25.9289C35.0552 25.7513 34.5637 25.5025 34.1491 25.1827C33.7464 24.8511 33.4326 24.4543 33.2075 23.9924C32.9825 23.5305 32.87 23.0093 32.87 22.429C32.87 21.7065 33.0417 21.0846 33.3852 20.5635C33.7405 20.0424 34.2083 19.6456 34.7887 19.3732C34.3268 19.1007 33.9655 18.7454 33.705 18.3072C33.4444 17.8689 33.3141 17.3478 33.3141 16.7437C33.3141 16.0331 33.4858 15.435 33.8293 14.9493C34.1847 14.4519 34.6762 14.067 35.3039 13.7945C35.9435 13.5221 36.6838 13.3859 37.5247 13.3859C38.3538 13.3859 39.0822 13.5221 39.71 13.7945C40.3496 14.0551 40.8411 14.4341 41.1846 14.9316C41.5399 15.429 41.7176 16.0272 41.7176 16.726C41.7176 17.33 41.5873 17.8571 41.3267 18.3072C41.0661 18.7454 40.7108 19.1007 40.2607 19.3732C40.8411 19.6456 41.303 20.0424 41.6465 20.5635C42.0018 21.0846 42.1795 21.7065 42.1795 22.429C42.1795 23.1988 41.9841 23.868 41.5932 24.4366C41.2024 24.9932 40.6575 25.4256 39.9587 25.7335C39.2599 26.0296 38.4486 26.1777 37.5247 26.1777ZM37.5247 24.7564C38.0696 24.7564 38.5611 24.6616 38.9993 24.4721C39.4376 24.2826 39.787 24.0161 40.0475 23.6726C40.3081 23.3173 40.4384 22.9027 40.4384 22.429C40.4384 21.9434 40.3081 21.5347 40.0475 21.2031C39.787 20.8596 39.4376 20.599 38.9993 20.4214C38.5611 20.2319 38.0696 20.1371 37.5247 20.1371C36.9799 20.1371 36.4824 20.2319 36.0324 20.4214C35.5941 20.599 35.2447 20.8596 34.9841 21.2031C34.7236 21.5347 34.5933 21.9434 34.5933 22.429C34.5933 22.9027 34.7236 23.3173 34.9841 23.6726C35.2447 24.0161 35.5941 24.2826 36.0324 24.4721C36.4824 24.6616 36.9799 24.7564 37.5247 24.7564ZM37.5247 18.7336C37.9748 18.7336 38.3894 18.6507 38.7684 18.4848C39.1592 18.319 39.4672 18.094 39.6922 17.8097C39.9291 17.5255 40.0475 17.182 40.0475 16.7793C40.0475 16.3766 39.935 16.0272 39.71 15.7311C39.4968 15.435 39.1948 15.2099 38.8039 15.0559C38.4249 14.8901 37.9985 14.8072 37.5247 14.8072C37.051 14.8072 36.6186 14.8901 36.2278 15.0559C35.8488 15.2099 35.5467 15.435 35.3217 15.7311C35.0967 16.0272 34.9841 16.3766 34.9841 16.7793C34.9841 17.1938 35.0967 17.5492 35.3217 17.8453C35.5467 18.1295 35.8488 18.3486 36.2278 18.5026C36.6186 18.6566 37.051 18.7336 37.5247 18.7336ZM50.2231 26.1777C49.4058 26.1777 48.7129 26.0533 48.1444 25.8046C47.5877 25.544 47.1317 25.1887 46.7764 24.7386C46.4211 24.2885 46.1605 23.7733 45.9947 23.1929C45.8407 22.6126 45.7519 21.9967 45.7282 21.3452C45.7163 21.0254 45.7045 20.6879 45.6927 20.3325C45.6927 19.9772 45.6927 19.6219 45.6927 19.2666C45.7045 18.8994 45.7163 18.55 45.7282 18.2183C45.74 17.5669 45.8289 16.951 45.9947 16.3707C46.1723 15.7784 46.4329 15.2632 46.7764 14.825C47.1317 14.3749 47.5937 14.0255 48.1622 13.7768C48.7307 13.5162 49.4177 13.3859 50.2231 13.3859C51.0403 13.3859 51.7273 13.5162 52.284 13.7768C52.8525 14.0255 53.3144 14.3749 53.6697 14.825C54.0251 15.2632 54.2856 15.7784 54.4515 16.3707C54.6291 16.951 54.7239 17.5669 54.7357 18.2183C54.7476 18.55 54.7535 18.8994 54.7535 19.2666C54.7653 19.6219 54.7653 19.9772 54.7535 20.3325C54.7535 20.6879 54.7476 21.0254 54.7357 21.3452C54.7239 21.9967 54.6291 22.6126 54.4515 23.1929C54.2856 23.7733 54.0251 24.2885 53.6697 24.7386C53.3263 25.1887 52.8703 25.544 52.3017 25.8046C51.7451 26.0533 51.0522 26.1777 50.2231 26.1777ZM50.2231 24.6675C51.1469 24.6675 51.828 24.3655 52.2662 23.7614C52.7163 23.1455 52.9472 22.3105 52.9591 21.2564C52.9828 20.9129 52.9946 20.5813 52.9946 20.2615C52.9946 19.9298 52.9946 19.6041 52.9946 19.2843C52.9946 18.9527 52.9828 18.627 52.9591 18.3072C52.9472 17.2767 52.7163 16.4536 52.2662 15.8377C51.828 15.2099 51.1469 14.896 50.2231 14.896C49.3111 14.896 48.63 15.2099 48.1799 15.8377C47.7417 16.4536 47.5107 17.2767 47.4871 18.3072C47.4871 18.627 47.4811 18.9527 47.4693 19.2843C47.4693 19.6041 47.4693 19.9298 47.4693 20.2615C47.4811 20.5813 47.4871 20.9129 47.4871 21.2564C47.5107 22.3105 47.7476 23.1455 48.1977 23.7614C48.6478 24.3655 49.3229 24.6675 50.2231 24.6675ZM62.9218 26.1777C62.1046 26.1777 61.4117 26.0533 60.8432 25.8046C60.2865 25.544 59.8305 25.1887 59.4752 24.7386C59.1198 24.2885 58.8593 23.7733 58.6934 23.1929C58.5395 22.6126 58.4506 21.9967 58.4269 21.3452C58.4151 21.0254 58.4033 20.6879 58.3914 20.3325C58.3914 19.9772 58.3914 19.6219 58.3914 19.2666C58.4033 18.8994 58.4151 18.55 58.4269 18.2183C58.4388 17.5669 58.5276 16.951 58.6934 16.3707C58.8711 15.7784 59.1317 15.2632 59.4752 14.825C59.8305 14.3749 60.2924 14.0255 60.8609 13.7768C61.4295 13.5162 62.1164 13.3859 62.9218 13.3859C63.7391 13.3859 64.426 13.5162 64.9827 13.7768C65.5512 14.0255 66.0132 14.3749 66.3685 14.825C66.7238 15.2632 66.9844 15.7784 67.1502 16.3707C67.3279 16.951 67.4226 17.5669 67.4345 18.2183C67.4463 18.55 67.4522 18.8994 67.4522 19.2666C67.4641 19.6219 67.4641 19.9772 67.4522 20.3325C67.4522 20.6879 67.4463 21.0254 67.4345 21.3452C67.4226 21.9967 67.3279 22.6126 67.1502 23.1929C66.9844 23.7733 66.7238 24.2885 66.3685 24.7386C66.025 25.1887 65.569 25.544 65.0005 25.8046C64.4438 26.0533 63.7509 26.1777 62.9218 26.1777ZM62.9218 24.6675C63.8457 24.6675 64.5267 24.3655 64.965 23.7614C65.415 23.1455 65.646 22.3105 65.6578 21.2564C65.6815 20.9129 65.6934 20.5813 65.6934 20.2615C65.6934 19.9298 65.6934 19.6041 65.6934 19.2843C65.6934 18.9527 65.6815 18.627 65.6578 18.3072C65.646 17.2767 65.415 16.4536 64.965 15.8377C64.5267 15.2099 63.8457 14.896 62.9218 14.896C62.0098 14.896 61.3288 15.2099 60.8787 15.8377C60.4405 16.4536 60.2095 17.2767 60.1858 18.3072C60.1858 18.627 60.1799 18.9527 60.168 19.2843C60.168 19.6041 60.168 19.9298 60.168 20.2615C60.1799 20.5813 60.1858 20.9129 60.1858 21.2564C60.2095 22.3105 60.4464 23.1455 60.8965 23.7614C61.3465 24.3655 62.0217 24.6675 62.9218 24.6675ZM70.3205 28.8248C70.2139 28.8248 70.1192 28.7834 70.0363 28.7005C69.9534 28.6176 69.9119 28.5228 69.9119 28.4162V27.7944C69.9119 27.6878 69.9474 27.593 70.0185 27.5101C70.1014 27.4272 70.1903 27.3858 70.285 27.3858C70.7825 27.3739 71.197 27.2436 71.5286 26.9949C71.8721 26.758 72.1445 26.3731 72.3459 25.8401C72.5472 25.2953 72.6953 24.5905 72.7901 23.7259C72.8848 22.8494 72.9322 21.7775 72.9322 20.5102C72.9322 19.2429 72.8848 18.1769 72.7901 17.3123C72.6953 16.4358 72.5472 15.7311 72.3459 15.1981C72.1445 14.6651 71.8721 14.2801 71.5286 14.0433C71.197 13.7945 70.7825 13.6642 70.285 13.6524C70.1903 13.6524 70.1014 13.6109 70.0185 13.528C69.9474 13.4451 69.9119 13.3504 69.9119 13.2438V12.622C69.9119 12.5154 69.9534 12.4206 70.0363 12.3377C70.1192 12.2548 70.2139 12.2133 70.3205 12.2133C71.0904 12.2133 71.7418 12.3732 72.2748 12.693C72.8078 13.0128 73.2342 13.5103 73.554 14.1854C73.8738 14.8605 74.1048 15.7251 74.2469 16.7793C74.4009 17.8216 74.4779 19.0652 74.4779 20.5102C74.4779 21.9552 74.4009 23.2048 74.2469 24.2589C74.1048 25.3012 73.8738 26.1599 73.554 26.835C73.2342 27.5101 72.8078 28.0076 72.2748 28.3274C71.7418 28.659 71.0904 28.8248 70.3205 28.8248ZM82.0977 26.1777C81.162 26.1777 80.3684 26.0178 79.717 25.698C79.0774 25.3663 78.5859 24.9399 78.2424 24.4188C77.9107 23.8977 77.7331 23.3469 77.7094 22.7665C77.6975 22.6599 77.7271 22.577 77.7982 22.5178C77.8693 22.4586 77.9581 22.429 78.0647 22.429H79.0241C79.1307 22.429 79.2254 22.4527 79.3084 22.5C79.3913 22.5474 79.4564 22.6481 79.5038 22.8021C79.6222 23.2403 79.8117 23.6015 80.0723 23.8858C80.3447 24.1582 80.6527 24.3596 80.9962 24.4899C81.3515 24.6083 81.7186 24.6675 82.0977 24.6675C82.607 24.6675 83.0689 24.5668 83.4834 24.3655C83.9098 24.1523 84.2474 23.8444 84.4961 23.4416C84.7448 23.0271 84.8692 22.5296 84.8692 21.9493C84.8692 21.4163 84.7448 20.9603 84.4961 20.5813C84.2592 20.1904 83.9276 19.8943 83.5012 19.693C83.0867 19.4798 82.6188 19.3732 82.0977 19.3732C81.7068 19.3732 81.387 19.4205 81.1383 19.5153C80.8896 19.61 80.6764 19.7226 80.4987 19.8529C80.3329 19.9831 80.1789 20.0957 80.0368 20.1904C79.9065 20.2852 79.7584 20.3325 79.5926 20.3325H78.6688C78.5622 20.3325 78.4674 20.297 78.3845 20.2259C78.3016 20.143 78.2661 20.0483 78.2779 19.9417L78.8464 14.0077C78.8583 13.8656 78.8997 13.759 78.9708 13.6879C79.0537 13.605 79.1603 13.5636 79.2906 13.5636H85.491C85.6095 13.5636 85.7042 13.605 85.7753 13.6879C85.8582 13.759 85.8997 13.8538 85.8997 13.9722V14.6651C85.8997 14.7954 85.8582 14.896 85.7753 14.9671C85.7042 15.0382 85.6095 15.0737 85.491 15.0737H80.3743L80.0368 18.5737C80.2026 18.4671 80.4691 18.3427 80.8363 18.2006C81.2034 18.0466 81.7068 17.9696 82.3464 17.9696C82.9268 17.9696 83.4716 18.0585 83.9809 18.2361C84.502 18.4138 84.964 18.6744 85.3667 19.0178C85.7694 19.3613 86.0832 19.7818 86.3083 20.2792C86.5333 20.7649 86.6458 21.3275 86.6458 21.967C86.6458 22.8672 86.4445 23.6312 86.0418 24.2589C85.6509 24.8866 85.112 25.3663 84.4251 25.698C83.7499 26.0178 82.9741 26.1777 82.0977 26.1777ZM94.1743 26.1777C93.4281 26.1777 92.7767 26.0888 92.22 25.9112C91.6634 25.7217 91.1955 25.4729 90.8165 25.165C90.4375 24.857 90.1473 24.5195 89.9459 24.1523C89.7564 23.7851 89.6558 23.4061 89.6439 23.0153C89.6439 22.9087 89.6794 22.8257 89.7505 22.7665C89.8216 22.7073 89.9104 22.6777 90.017 22.6777H90.8876C90.9942 22.6777 91.0889 22.7014 91.1718 22.7488C91.2547 22.7961 91.3258 22.8968 91.385 23.0508C91.5035 23.4772 91.7048 23.8088 91.9891 24.0457C92.2852 24.2826 92.6227 24.4484 93.0017 24.5432C93.3926 24.6261 93.7835 24.6675 94.1743 24.6675C94.9916 24.6675 95.6549 24.4721 96.1642 24.0812C96.6735 23.6904 96.9281 23.1159 96.9281 22.3579C96.9281 21.588 96.6971 21.0373 96.2352 20.7056C95.7733 20.374 95.1337 20.2082 94.3165 20.2082H92.6287C92.5102 20.2082 92.4095 20.1726 92.3266 20.1016C92.2556 20.0305 92.22 19.9298 92.22 19.7996V19.3199C92.22 19.2133 92.2378 19.1244 92.2733 19.0534C92.3207 18.9705 92.3681 18.8994 92.4155 18.8402L95.8621 15.0737H90.6211C90.5026 15.0737 90.4019 15.0382 90.319 14.9671C90.248 14.896 90.2124 14.7954 90.2124 14.6651V13.99C90.2124 13.8597 90.248 13.759 90.319 13.6879C90.4019 13.605 90.5026 13.5636 90.6211 13.5636H97.7098C97.8401 13.5636 97.9408 13.605 98.0119 13.6879C98.0948 13.759 98.1362 13.8597 98.1362 13.99V14.6296C98.1362 14.7125 98.1125 14.7894 98.0651 14.8605C98.0296 14.9197 97.9882 14.979 97.9408 15.0382L94.5119 18.8579L94.7961 18.8757C95.5779 18.8994 96.2589 19.0415 96.8393 19.3021C97.4315 19.5627 97.8875 19.9535 98.2073 20.4747C98.5389 20.984 98.7047 21.6295 98.7047 22.4112C98.7047 23.2048 98.5093 23.8858 98.1184 24.4543C97.7276 25.011 97.1887 25.4374 96.5017 25.7335C95.8147 26.0296 95.039 26.1777 94.1743 26.1777ZM105.563 26C105.444 26 105.344 25.9645 105.261 25.8934C105.19 25.8105 105.154 25.7098 105.154 25.5914V15.6422L102.205 17.9163C102.11 17.9874 102.009 18.017 101.903 18.0052C101.796 17.9933 101.707 17.94 101.636 17.8453L101.174 17.259C101.103 17.1524 101.074 17.0458 101.086 16.9392C101.109 16.8326 101.168 16.7437 101.263 16.6727L105.136 13.6879C105.219 13.6287 105.296 13.5932 105.367 13.5813C105.438 13.5695 105.515 13.5636 105.598 13.5636H106.504C106.623 13.5636 106.717 13.605 106.789 13.6879C106.86 13.759 106.895 13.8538 106.895 13.9722V25.5914C106.895 25.7098 106.86 25.8105 106.789 25.8934C106.717 25.9645 106.623 26 106.504 26H105.563ZM111.314 21.4163C111.196 21.4163 111.095 21.3808 111.012 21.3097C110.941 21.2268 110.906 21.1261 110.906 21.0077V20.3325C110.906 20.2141 110.941 20.1193 111.012 20.0483C111.095 19.9654 111.196 19.9239 111.314 19.9239H116.644C116.763 19.9239 116.857 19.9654 116.928 20.0483C117.011 20.1193 117.053 20.2141 117.053 20.3325V21.0077C117.053 21.1261 117.011 21.2268 116.928 21.3097C116.857 21.3808 116.763 21.4163 116.644 21.4163H111.314ZM124.619 26.1777C123.873 26.1777 123.222 26.0888 122.665 25.9112C122.108 25.7217 121.64 25.4729 121.261 25.165C120.882 24.857 120.592 24.5195 120.391 24.1523C120.201 23.7851 120.101 23.4061 120.089 23.0153C120.089 22.9087 120.124 22.8257 120.195 22.7665C120.267 22.7073 120.355 22.6777 120.462 22.6777H121.333C121.439 22.6777 121.534 22.7014 121.617 22.7488C121.7 22.7961 121.771 22.8968 121.83 23.0508C121.948 23.4772 122.15 23.8088 122.434 24.0457C122.73 24.2826 123.068 24.4484 123.447 24.5432C123.838 24.6261 124.228 24.6675 124.619 24.6675C125.437 24.6675 126.1 24.4721 126.609 24.0812C127.118 23.6904 127.373 23.1159 127.373 22.3579C127.373 21.588 127.142 21.0373 126.68 20.7056C126.218 20.374 125.579 20.2082 124.761 20.2082H123.074C122.955 20.2082 122.854 20.1726 122.772 20.1016C122.701 20.0305 122.665 19.9298 122.665 19.7996V19.3199C122.665 19.2133 122.683 19.1244 122.718 19.0534C122.766 18.9705 122.813 18.8994 122.86 18.8402L126.307 15.0737H121.066C120.948 15.0737 120.847 15.0382 120.764 14.9671C120.693 14.896 120.657 14.7954 120.657 14.6651V13.99C120.657 13.8597 120.693 13.759 120.764 13.6879C120.847 13.605 120.948 13.5636 121.066 13.5636H128.155C128.285 13.5636 128.386 13.605 128.457 13.6879C128.54 13.759 128.581 13.8597 128.581 13.99V14.6296C128.581 14.7125 128.557 14.7894 128.51 14.8605C128.475 14.9197 128.433 14.979 128.386 15.0382L124.957 18.8579L125.241 18.8757C126.023 18.8994 126.704 19.0415 127.284 19.3021C127.876 19.5627 128.332 19.9535 128.652 20.4747C128.984 20.984 129.15 21.6295 129.15 22.4112C129.15 23.2048 128.954 23.8858 128.563 24.4543C128.173 25.011 127.634 25.4374 126.947 25.7335C126.26 26.0296 125.484 26.1777 124.619 26.1777ZM137.048 26.1777C136.231 26.1777 135.538 26.0533 134.97 25.8046C134.413 25.544 133.957 25.1887 133.602 24.7386C133.246 24.2885 132.986 23.7733 132.82 23.1929C132.666 22.6126 132.577 21.9967 132.553 21.3452C132.542 21.0254 132.53 20.6879 132.518 20.3325C132.518 19.9772 132.518 19.6219 132.518 19.2666C132.53 18.8994 132.542 18.55 132.553 18.2183C132.565 17.5669 132.654 16.951 132.82 16.3707C132.998 15.7784 133.258 15.2632 133.602 14.825C133.957 14.3749 134.419 14.0255 134.987 13.7768C135.556 13.5162 136.243 13.3859 137.048 13.3859C137.866 13.3859 138.553 13.5162 139.109 13.7768C139.678 14.0255 140.14 14.3749 140.495 14.825C140.85 15.2632 141.111 15.7784 141.277 16.3707C141.454 16.951 141.549 17.5669 141.561 18.2183C141.573 18.55 141.579 18.8994 141.579 19.2666C141.591 19.6219 141.591 19.9772 141.579 20.3325C141.579 20.6879 141.573 21.0254 141.561 21.3452C141.549 21.9967 141.454 22.6126 141.277 23.1929C141.111 23.7733 140.85 24.2885 140.495 24.7386C140.152 25.1887 139.696 25.544 139.127 25.8046C138.57 26.0533 137.877 26.1777 137.048 26.1777ZM137.048 24.6675C137.972 24.6675 138.653 24.3655 139.091 23.7614C139.542 23.1455 139.773 22.3105 139.784 21.2564C139.808 20.9129 139.82 20.5813 139.82 20.2615C139.82 19.9298 139.82 19.6041 139.82 19.2843C139.82 18.9527 139.808 18.627 139.784 18.3072C139.773 17.2767 139.542 16.4536 139.091 15.8377C138.653 15.2099 137.972 14.896 137.048 14.896C136.136 14.896 135.455 15.2099 135.005 15.8377C134.567 16.4536 134.336 17.2767 134.312 18.3072C134.312 18.627 134.306 18.9527 134.295 19.2843C134.295 19.6041 134.295 19.9298 134.295 20.2615C134.306 20.5813 134.312 20.9129 134.312 21.2564C134.336 22.3105 134.573 23.1455 135.023 23.7614C135.473 24.3655 136.148 24.6675 137.048 24.6675ZM145.75 21.4163C145.631 21.4163 145.531 21.3808 145.448 21.3097C145.377 21.2268 145.341 21.1261 145.341 21.0077V20.3325C145.341 20.2141 145.377 20.1193 145.448 20.0483C145.531 19.9654 145.631 19.9239 145.75 19.9239H151.08C151.198 19.9239 151.293 19.9654 151.364 20.0483C151.447 20.1193 151.488 20.2141 151.488 20.3325V21.0077C151.488 21.1261 151.447 21.2268 151.364 21.3097C151.293 21.3808 151.198 21.4163 151.08 21.4163H145.75ZM159.792 26.1777C159.105 26.1777 158.471 26.0948 157.891 25.9289C157.322 25.7513 156.831 25.5025 156.416 25.1827C156.013 24.8511 155.7 24.4543 155.475 23.9924C155.249 23.5305 155.137 23.0093 155.137 22.429C155.137 21.7065 155.309 21.0846 155.652 20.5635C156.008 20.0424 156.475 19.6456 157.056 19.3732C156.594 19.1007 156.233 18.7454 155.972 18.3072C155.711 17.8689 155.581 17.3478 155.581 16.7437C155.581 16.0331 155.753 15.435 156.096 14.9493C156.452 14.4519 156.943 14.067 157.571 13.7945C158.211 13.5221 158.951 13.3859 159.792 13.3859C160.621 13.3859 161.349 13.5221 161.977 13.7945C162.617 14.0551 163.108 14.4341 163.452 14.9316C163.807 15.429 163.985 16.0272 163.985 16.726C163.985 17.33 163.854 17.8571 163.594 18.3072C163.333 18.7454 162.978 19.1007 162.528 19.3732C163.108 19.6456 163.57 20.0424 163.914 20.5635C164.269 21.0846 164.447 21.7065 164.447 22.429C164.447 23.1988 164.251 23.868 163.86 24.4366C163.469 24.9932 162.925 25.4256 162.226 25.7335C161.527 26.0296 160.716 26.1777 159.792 26.1777ZM159.792 24.7564C160.337 24.7564 160.828 24.6616 161.266 24.4721C161.705 24.2826 162.054 24.0161 162.315 23.6726C162.575 23.3173 162.705 22.9027 162.705 22.429C162.705 21.9434 162.575 21.5347 162.315 21.2031C162.054 20.8596 161.705 20.599 161.266 20.4214C160.828 20.2319 160.337 20.1371 159.792 20.1371C159.247 20.1371 158.749 20.2319 158.299 20.4214C157.861 20.599 157.512 20.8596 157.251 21.2031C156.991 21.5347 156.86 21.9434 156.86 22.429C156.86 22.9027 156.991 23.3173 157.251 23.6726C157.512 24.0161 157.861 24.2826 158.299 24.4721C158.749 24.6616 159.247 24.7564 159.792 24.7564ZM159.792 18.7336C160.242 18.7336 160.656 18.6507 161.035 18.4848C161.426 18.319 161.734 18.094 161.959 17.8097C162.196 17.5255 162.315 17.182 162.315 16.7793C162.315 16.3766 162.202 16.0272 161.977 15.7311C161.764 15.435 161.462 15.2099 161.071 15.0559C160.692 14.8901 160.266 14.8072 159.792 14.8072C159.318 14.8072 158.886 14.8901 158.495 15.0559C158.116 15.2099 157.814 15.435 157.589 15.7311C157.364 16.0272 157.251 16.3766 157.251 16.7793C157.251 17.1938 157.364 17.5492 157.589 17.8453C157.814 18.1295 158.116 18.3486 158.495 18.5026C158.886 18.6566 159.318 18.7336 159.792 18.7336ZM168.137 26C168.019 26 167.918 25.9645 167.835 25.8934C167.764 25.8105 167.729 25.7098 167.729 25.5914V25.0229C167.729 24.9163 167.758 24.7978 167.818 24.6675C167.877 24.5372 167.995 24.3951 168.173 24.2411L171.939 20.4747C172.543 19.9654 173.017 19.5331 173.361 19.1777C173.716 18.8106 173.965 18.4612 174.107 18.1295C174.261 17.7979 174.338 17.4544 174.338 17.0991C174.338 16.424 174.148 15.891 173.769 15.5001C173.39 15.0974 172.828 14.896 172.081 14.896C171.608 14.896 171.199 14.9967 170.856 15.1981C170.512 15.3876 170.24 15.6541 170.038 15.9976C169.849 16.3292 169.724 16.7082 169.665 17.1346C169.642 17.2886 169.576 17.3952 169.47 17.4544C169.375 17.5136 169.286 17.5432 169.203 17.5432H168.279C168.173 17.5432 168.084 17.5136 168.013 17.4544C167.942 17.3833 167.906 17.3004 167.906 17.2057C167.918 16.7556 168.013 16.3055 168.191 15.8554C168.368 15.3935 168.629 14.979 168.972 14.6118C169.328 14.2446 169.76 13.9485 170.269 13.7235C170.79 13.4866 171.394 13.3681 172.081 13.3681C173.017 13.3681 173.781 13.5399 174.373 13.8834C174.977 14.215 175.422 14.6592 175.706 15.2158C175.99 15.7725 176.132 16.3825 176.132 17.0458C176.132 17.5669 176.043 18.0466 175.866 18.4848C175.688 18.9112 175.427 19.3317 175.084 19.7463C174.752 20.149 174.338 20.5635 173.84 20.9899L170.429 24.4543H175.972C176.103 24.4543 176.203 24.4899 176.274 24.5609C176.357 24.632 176.399 24.7327 176.399 24.863V25.5914C176.399 25.7098 176.357 25.8105 176.274 25.8934C176.203 25.9645 176.103 26 175.972 26H168.137Z" fill="black"/>
</svg>
