<svg width="587" height="514" viewBox="0 0 587 514" fill="none" xmlns="http://www.w3.org/2000/svg">
<path d="M253.908 119.473C260.086 119.927 268.536 119.838 272.318 119.63C273.092 119.587 273.425 118.733 272.923 118.142L265.274 109.132C264.201 107.869 264.373 105.988 265.522 104.794C275.217 94.7282 270.754 83.9228 267.035 79.5421L251.54 61.2901C239.621 47.2501 226.344 52.4813 221.018 57.0027C215.693 61.524 189.533 82.5246 178.412 93.1736C167.291 103.823 171.843 115.661 178.399 123.383L193.894 141.636C203.852 153.366 216.801 146.549 220.726 143.016L245.457 122.02C247.778 120.049 250.871 119.249 253.908 119.473Z" fill="#2BB2BC"/>
<path d="M63.1808 312.788C62.4152 283.24 255.954 241.251 349.605 222.4C380.924 227.551 456.787 269.192 509.684 394.546C390.252 431.061 146.469 500.648 126.798 486.875C102.209 469.659 64.1377 349.725 63.1808 312.788Z" fill="#C4C4C4"/>
<path d="M11.4415 277.249C10.676 247.7 204.215 205.712 297.865 186.861C329.185 192.012 405.047 233.653 457.945 359.006C338.512 395.522 94.7298 465.109 75.0588 451.336C50.4702 434.12 12.3984 314.185 11.4415 277.249Z" fill="#C4C4C4"/>
<path d="M99.797 288.199C100.618 258.623 282.181 224.082 369.96 208.835C398.722 215.19 466.88 259.746 509.416 387.124C396.825 419.043 167.263 479.248 149.744 464.72C127.845 446.559 98.7706 325.169 99.797 288.199Z" fill="white"/>
<path d="M370.443 197.845C282.757 214.422 101.369 251.867 100.366 282.97C99.1126 321.849 127.372 449.306 149.111 468.265C166.503 483.433 395.946 418.704 508.494 384.444" stroke="#574E56" stroke-width="3"/>
<path d="M78.0089 290.535C77.4451 260.953 257.192 217.953 344.162 198.615C373.19 203.617 443.358 244.935 491.808 370.182C380.834 407.335 154.342 478.217 136.162 464.525C113.437 447.409 78.7136 327.513 78.0089 290.535Z" fill="#EAFCFF"/>
<path d="M344.131 187.614C257.317 208.276 77.88 254.169 78.3337 285.285C78.9009 324.18 113.094 450.175 135.697 468.096C153.779 482.433 379.942 407.038 490.763 367.549" stroke="#574E56" stroke-width="3"/>
<path d="M17.6361 274.504C16.9545 247.7 191.629 209.551 276.151 192.421C304.413 197.084 372.863 234.834 420.562 348.528C312.767 381.689 92.7415 444.89 74.9936 432.402C52.8087 416.793 18.4881 308.01 17.6361 274.504Z" fill="#EAFCFF"/>
<path d="M327.396 270.122C326.856 270.75 326.927 271.697 327.555 272.237C328.183 272.777 329.13 272.706 329.671 272.078L327.396 270.122ZM342.946 265.699L343.439 267.115L342.946 265.699ZM371.041 258.031L371.286 259.511L371.434 259.486L371.574 259.433L371.041 258.031ZM411.63 251C412.416 250.74 412.842 249.891 412.581 249.104C412.32 248.318 411.472 247.892 410.685 248.153L411.63 251ZM329.671 272.078C330.572 271.031 332.165 270.329 334.673 269.609C337.031 268.933 340.203 268.241 343.439 267.115L342.453 264.282C339.296 265.38 336.484 265.968 333.845 266.726C331.356 267.44 328.941 268.327 327.396 270.122L329.671 272.078ZM343.439 267.115C345.157 266.518 347.414 266.039 350.137 265.395C352.809 264.762 355.827 263.991 358.862 262.823L357.786 260.023C354.946 261.115 352.089 261.85 349.447 262.475C346.857 263.088 344.362 263.618 342.453 264.282L343.439 267.115ZM358.862 262.823C361.709 261.729 364.813 260.899 367.224 260.341C368.426 260.063 369.446 259.855 370.165 259.716C370.524 259.647 370.807 259.595 370.999 259.561C371.095 259.543 371.168 259.531 371.217 259.522C371.241 259.518 371.259 259.515 371.271 259.513C371.276 259.512 371.281 259.512 371.283 259.511C371.285 259.511 371.285 259.511 371.286 259.511C371.286 259.511 371.286 259.511 371.286 259.511C371.286 259.511 371.286 259.511 371.286 259.511C371.286 259.511 371.286 259.511 371.041 258.031C370.796 256.551 370.796 256.551 370.795 256.551C370.795 256.551 370.795 256.551 370.795 256.551C370.795 256.551 370.794 256.551 370.793 256.551C370.792 256.552 370.791 256.552 370.789 256.552C370.785 256.553 370.779 256.554 370.772 256.555C370.757 256.557 370.736 256.561 370.709 256.566C370.654 256.575 370.575 256.589 370.472 256.607C370.267 256.644 369.97 256.698 369.596 256.77C368.848 256.915 367.791 257.131 366.548 257.418C364.07 257.992 360.815 258.858 357.786 260.023L358.862 262.823ZM371.574 259.433C376.916 257.402 380.868 255.725 383.889 254.533C386.962 253.32 389.075 252.607 390.977 252.35L390.575 249.377C388.276 249.688 385.862 250.529 382.787 251.742C379.661 252.977 375.846 254.6 370.508 256.629L371.574 259.433ZM390.977 252.35C392.969 252.081 397.033 252.054 401.249 251.948C403.317 251.897 405.391 251.825 407.179 251.69C408.922 251.559 410.547 251.36 411.63 251L410.685 248.153C409.994 248.382 408.709 248.567 406.954 248.699C405.245 248.827 403.233 248.898 401.174 248.949C397.137 249.051 392.784 249.079 390.575 249.377L390.977 252.35Z" fill="#C4C4C4"/>
<path d="M287.671 309.554C287.13 310.182 287.202 311.129 287.83 311.669C288.458 312.209 289.405 312.138 289.945 311.51L287.671 309.554ZM303.22 305.131L303.713 306.547L303.22 305.131ZM331.315 297.463L331.561 298.943L331.708 298.918L331.848 298.865L331.315 297.463ZM371.904 290.432C372.691 290.171 373.117 289.323 372.856 288.536C372.595 287.75 371.746 287.324 370.96 287.585L371.904 290.432ZM289.945 311.51C290.846 310.462 292.44 309.761 294.947 309.041C297.305 308.365 300.477 307.673 303.713 306.547L302.728 303.714C299.57 304.812 296.759 305.4 294.12 306.158C291.631 306.872 289.215 307.758 287.671 309.554L289.945 311.51ZM303.713 306.547C305.432 305.949 307.688 305.471 310.412 304.827C313.083 304.194 316.101 303.423 319.137 302.255L318.06 299.455C315.22 300.547 312.363 301.282 309.721 301.907C307.132 302.52 304.637 303.05 302.728 303.714L303.713 306.547ZM319.137 302.255C321.983 301.161 325.087 300.331 327.499 299.773C328.7 299.495 329.721 299.287 330.439 299.148C330.798 299.079 331.081 299.027 331.273 298.992C331.369 298.975 331.442 298.963 331.491 298.954C331.515 298.95 331.533 298.947 331.545 298.945C331.551 298.944 331.555 298.943 331.558 298.943C331.559 298.943 331.56 298.943 331.56 298.943C331.561 298.942 331.561 298.942 331.561 298.942C331.561 298.942 331.561 298.942 331.561 298.942C331.561 298.942 331.561 298.943 331.315 297.463C331.07 295.983 331.07 295.983 331.07 295.983C331.07 295.983 331.07 295.983 331.069 295.983C331.069 295.983 331.068 295.983 331.068 295.983C331.067 295.983 331.065 295.984 331.063 295.984C331.059 295.985 331.053 295.986 331.046 295.987C331.032 295.989 331.01 295.993 330.983 295.998C330.929 296.007 330.849 296.021 330.747 296.039C330.542 296.076 330.244 296.13 329.87 296.202C329.122 296.347 328.065 296.563 326.822 296.85C324.344 297.424 321.09 298.29 318.06 299.455L319.137 302.255ZM331.848 298.865C337.19 296.834 341.142 295.157 344.163 293.965C347.236 292.752 349.349 292.039 351.251 291.782L350.85 288.809C348.55 289.12 346.136 289.961 343.062 291.174C339.935 292.409 336.121 294.031 330.782 296.061L331.848 298.865ZM351.251 291.782C353.244 291.513 357.308 291.486 361.524 291.38C363.591 291.328 365.665 291.257 367.454 291.122C369.197 290.991 370.822 290.792 371.904 290.432L370.96 287.585C370.268 287.814 368.984 287.999 367.229 288.131C365.519 288.259 363.508 288.33 361.448 288.381C357.411 288.483 353.058 288.511 350.85 288.809L351.251 291.782Z" fill="#C4C4C4"/>
<path d="M278.908 181.581C194.552 199.89 17.3145 242.427 17.8973 270.596C18.6259 305.807 52.4611 420.015 74.5299 436.341C92.185 449.401 325.102 381.701 432.727 346.459" stroke="#574E56" stroke-width="3"/>
<path d="M104.377 261.224C69.2598 270.276 65.9968 307.257 75.0498 336.622C88.6776 367.347 117.327 370.321 150.596 361.533C183.866 352.745 190.805 321.249 180.816 290.974C171.113 261.565 139.494 252.171 104.377 261.224Z" fill="white"/>
<path d="M103.755 270.507C68.6377 279.559 65.3747 316.54 74.4277 345.905C88.0555 376.63 116.705 379.603 149.974 370.816C183.243 362.028 190.182 330.532 180.194 300.256C170.491 270.848 138.872 261.454 103.755 270.507Z" fill="white"/>
<path d="M209.48 258.541C205.188 261.948 198.989 269.554 208.529 272.727C220.455 276.693 251.774 259.792 250.463 253.371C249.152 246.95 239.025 250.795 240.97 256.429C242.914 262.063 263.559 265.859 272.615 260.661C281.672 255.463 290.657 251.315 288.014 247.444C285.371 243.572 277.471 248.848 282.461 252.349C287.451 255.85 300.743 256.741 310.117 246.814" stroke="#574E56" stroke-width="3"/>
<path d="M217.247 298.801C216.696 299.42 216.752 300.368 217.371 300.919C217.99 301.469 218.938 301.414 219.488 300.795L217.247 298.801ZM268.18 285.096L267.665 283.687L267.474 283.757L267.308 283.875L268.18 285.096ZM315.817 274.653C316.606 274.402 317.042 273.558 316.791 272.769C316.539 271.979 315.695 271.543 314.906 271.795L315.817 274.653ZM219.488 300.795C220.86 299.252 223.185 297.008 225.655 295.319C226.89 294.474 228.112 293.803 229.231 293.414C230.362 293.02 231.254 292.961 231.919 293.154L232.755 290.273C231.264 289.841 229.69 290.077 228.245 290.58C226.787 291.087 225.322 291.912 223.962 292.842C221.24 294.704 218.735 297.127 217.247 298.801L219.488 300.795ZM231.919 293.154C234.091 293.785 237.775 294.804 241.808 295.337C245.806 295.866 250.337 295.946 254.123 294.546L253.083 291.732C249.985 292.878 246.038 292.87 242.202 292.363C238.4 291.86 234.893 290.894 232.755 290.273L231.919 293.154ZM254.123 294.546C257.699 293.224 261.439 291.155 264.253 289.444C265.667 288.585 266.862 287.806 267.705 287.241C268.127 286.958 268.461 286.729 268.691 286.569C268.806 286.489 268.895 286.427 268.956 286.384C268.987 286.363 269.01 286.346 269.026 286.335C269.034 286.329 269.04 286.325 269.045 286.321C269.047 286.32 269.049 286.319 269.05 286.318C269.051 286.317 269.051 286.317 269.051 286.317C269.052 286.317 269.052 286.316 269.052 286.316C269.052 286.316 269.052 286.316 268.18 285.096C267.308 283.875 267.308 283.875 267.308 283.875C267.308 283.875 267.308 283.875 267.308 283.875C267.308 283.875 267.308 283.875 267.307 283.876C267.307 283.876 267.306 283.877 267.304 283.878C267.301 283.88 267.296 283.884 267.29 283.888C267.276 283.898 267.256 283.913 267.228 283.932C267.173 283.971 267.09 284.029 266.981 284.105C266.763 284.256 266.443 284.476 266.036 284.748C265.221 285.294 264.063 286.048 262.694 286.881C259.94 288.556 256.391 290.509 253.083 291.732L254.123 294.546ZM268.695 286.505C281.024 281.998 285.732 282.1 290.686 281.464L290.304 278.489C285.409 279.117 280.363 279.046 267.665 283.687L268.695 286.505ZM290.686 281.464C293.284 281.131 298.579 279.737 303.626 278.303C308.723 276.855 313.724 275.32 315.817 274.653L314.906 271.795C312.842 272.453 307.872 273.978 302.806 275.417C297.691 276.87 292.632 278.19 290.304 278.489L290.686 281.464Z" fill="#C4C4C4"/>
<path d="M297.178 342.664L297.509 344.127L297.603 344.105L297.693 344.072L297.178 342.664ZM337.15 330.204C337.94 329.953 338.376 329.109 338.124 328.32C337.873 327.53 337.029 327.094 336.239 327.346L337.15 330.204ZM243.906 355.095C244.641 355.308 245.577 355.389 246.573 355.404C247.594 355.42 248.785 355.365 250.081 355.259C252.674 355.046 255.767 354.618 258.92 354.074C265.201 352.99 271.884 351.418 275.457 350.097L274.416 347.283C271.105 348.507 264.637 350.043 258.41 351.117C255.31 351.652 252.311 352.066 249.835 352.269C248.597 352.371 247.51 352.418 246.618 352.404C245.7 352.391 245.086 352.313 244.743 352.213L243.906 355.095ZM275.457 350.097C278.814 348.855 284.301 347.366 289.006 346.176C291.347 345.585 293.474 345.072 295.016 344.707C295.787 344.525 296.411 344.379 296.842 344.28C297.058 344.23 297.225 344.191 297.338 344.166C297.395 344.153 297.438 344.143 297.466 344.136C297.481 344.133 297.492 344.131 297.499 344.129C297.502 344.128 297.505 344.127 297.507 344.127C297.508 344.127 297.508 344.127 297.509 344.127C297.509 344.127 297.509 344.127 297.509 344.127C297.509 344.127 297.509 344.127 297.178 342.664C296.846 341.201 296.846 341.201 296.846 341.201C296.846 341.201 296.846 341.201 296.845 341.201C296.845 341.201 296.844 341.201 296.843 341.201C296.841 341.202 296.838 341.203 296.834 341.203C296.827 341.205 296.815 341.208 296.8 341.211C296.771 341.218 296.727 341.228 296.669 341.241C296.554 341.267 296.384 341.306 296.167 341.357C295.731 341.457 295.102 341.604 294.325 341.788C292.773 342.155 290.63 342.671 288.271 343.268C283.577 344.455 277.943 345.979 274.416 347.283L275.457 350.097ZM297.693 344.072C304.062 341.744 306.634 340.052 308.26 338.809C309.106 338.163 309.447 337.851 309.939 337.583C310.353 337.357 310.908 337.158 312.02 337.015L311.638 334.04C310.287 334.213 309.343 334.492 308.504 334.949C307.742 335.363 307.075 335.939 306.438 336.426C305.098 337.45 302.806 339.009 296.663 341.255L297.693 344.072ZM312.02 337.015C314.617 336.682 319.912 335.288 324.959 333.854C330.056 332.406 335.057 330.871 337.15 330.204L336.239 327.346C334.175 328.004 329.205 329.529 324.14 330.968C319.024 332.421 313.966 333.741 311.638 334.04L312.02 337.015Z" fill="#C4C4C4"/>
<path d="M223.506 310.234C222.949 310.847 222.996 311.796 223.609 312.352C224.223 312.909 225.172 312.863 225.728 312.249L223.506 310.234ZM274.406 296.891L274.634 298.374L274.775 298.352L274.911 298.304L274.406 296.891ZM321.856 289.093C322.647 288.847 323.089 288.006 322.843 287.215C322.596 286.424 321.756 285.982 320.965 286.229L321.856 289.093ZM225.728 312.249C226.828 311.036 228.763 310.246 231.708 309.454C234.499 308.704 238.178 307.959 241.96 306.724L241.029 303.872C237.323 305.082 233.991 305.734 230.929 306.557C228.021 307.339 225.262 308.297 223.506 310.234L225.728 312.249ZM241.96 306.724C243.992 306.06 246.661 305.532 249.838 304.83C252.964 304.14 256.483 303.298 260.018 302.02L258.999 299.199C255.653 300.408 252.29 301.216 249.191 301.901C246.143 302.574 243.245 303.148 241.029 303.872L241.96 306.724ZM260.018 302.02C263.37 300.809 267.021 299.896 269.854 299.284C271.266 298.979 272.466 298.751 273.311 298.599C273.733 298.523 274.067 298.466 274.293 298.429C274.406 298.41 274.493 298.396 274.55 298.387C274.579 298.383 274.601 298.379 274.615 298.377C274.622 298.376 274.627 298.375 274.63 298.375C274.631 298.374 274.633 298.374 274.633 298.374C274.634 298.374 274.634 298.374 274.634 298.374C274.634 298.374 274.634 298.374 274.634 298.374C274.634 298.374 274.634 298.374 274.406 296.891C274.178 295.409 274.178 295.409 274.178 295.409C274.178 295.409 274.178 295.409 274.177 295.409C274.177 295.409 274.176 295.409 274.176 295.409C274.174 295.409 274.173 295.41 274.17 295.41C274.166 295.411 274.159 295.412 274.151 295.413C274.134 295.416 274.11 295.419 274.078 295.424C274.015 295.435 273.922 295.449 273.803 295.469C273.564 295.509 273.217 295.568 272.781 295.646C271.907 295.803 270.673 296.038 269.221 296.352C266.325 296.977 262.528 297.923 258.999 299.199L260.018 302.02ZM274.911 298.304C281.165 296.069 285.779 294.227 289.327 292.91C292.924 291.575 295.43 290.779 297.702 290.496L297.331 287.519C294.68 287.849 291.884 288.761 288.283 290.098C284.633 291.453 280.153 293.246 273.901 295.479L274.911 298.304ZM297.702 290.496C300.062 290.202 304.859 290.189 309.782 290.089C312.205 290.04 314.63 289.969 316.718 289.827C318.761 289.689 320.629 289.475 321.856 289.093L320.965 286.229C320.114 286.493 318.571 286.695 316.515 286.834C314.502 286.971 312.137 287.04 309.721 287.09C304.968 287.186 299.896 287.199 297.331 287.519L297.702 290.496Z" fill="#C4C4C4"/>
<path d="M238.662 338.31C238.105 338.924 238.152 339.872 238.766 340.429C239.379 340.985 240.328 340.939 240.884 340.325L238.662 338.31ZM256.651 333.374L256.185 331.948L256.651 333.374ZM289.562 324.968L289.79 326.45L289.932 326.428L290.067 326.38L289.562 324.968ZM370.942 304.41C371.733 304.163 372.174 303.323 371.928 302.532C371.682 301.741 370.841 301.299 370.05 301.545L370.942 304.41ZM240.884 340.325C241.984 339.113 243.92 338.322 246.864 337.531C249.655 336.78 253.334 336.035 257.116 334.8L256.185 331.948C252.479 333.159 249.147 333.81 246.086 334.633C243.177 335.415 240.418 336.373 238.662 338.31L240.884 340.325ZM257.116 334.8C259.148 334.136 261.817 333.609 264.994 332.907C268.121 332.216 271.64 331.374 275.175 330.096L274.155 327.275C270.809 328.484 267.446 329.293 264.347 329.977C261.299 330.651 258.401 331.224 256.185 331.948L257.116 334.8ZM275.175 330.096C278.526 328.885 282.178 327.972 285.01 327.36C286.422 327.055 287.622 326.827 288.467 326.675C288.889 326.599 289.223 326.543 289.449 326.505C289.562 326.487 289.649 326.473 289.706 326.463C289.735 326.459 289.757 326.455 289.771 326.453C289.778 326.452 289.783 326.451 289.786 326.451C289.788 326.451 289.789 326.45 289.789 326.45C289.79 326.45 289.79 326.45 289.79 326.45C289.79 326.45 289.79 326.45 289.79 326.45C289.79 326.45 289.79 326.45 289.562 324.968C289.334 323.485 289.334 323.485 289.334 323.485C289.334 323.485 289.334 323.485 289.333 323.485C289.333 323.485 289.333 323.485 289.332 323.485C289.331 323.486 289.329 323.486 289.326 323.486C289.322 323.487 289.315 323.488 289.307 323.489C289.29 323.492 289.266 323.496 289.234 323.501C289.171 323.511 289.079 323.526 288.959 323.546C288.72 323.585 288.374 323.644 287.937 323.723C287.064 323.879 285.829 324.114 284.377 324.428C281.481 325.053 277.684 325.999 274.155 327.275L275.175 330.096ZM290.067 326.38C296.322 324.146 300.935 322.303 304.483 320.986C308.08 319.651 310.587 318.855 312.858 318.572L312.488 315.595C309.836 315.925 307.04 316.837 303.439 318.174C299.789 319.529 295.309 321.322 289.057 323.555L290.067 326.38ZM312.858 318.572C314.191 318.406 318.263 317.502 323.543 316.263C328.878 315.011 335.569 313.387 342.232 311.742C355.523 308.461 368.809 305.074 370.942 304.41L370.05 301.545C368.027 302.175 354.863 305.534 341.513 308.829C334.855 310.473 328.177 312.094 322.858 313.342C317.485 314.603 313.618 315.454 312.488 315.595L312.858 318.572Z" fill="#C4C4C4"/>
<path d="M226.461 325.504C225.925 326.136 226.002 327.083 226.634 327.619C227.266 328.155 228.212 328.077 228.748 327.446L226.461 325.504ZM228.748 327.446C229.873 326.121 231.828 325.263 234.783 324.401C237.589 323.582 241.301 322.76 245.113 321.412L244.113 318.584C240.38 319.904 237.032 320.619 233.942 321.521C231.001 322.379 228.225 323.426 226.461 325.504L228.748 327.446ZM245.113 321.412C247.157 320.689 249.84 320.11 253.043 319.339C256.192 318.58 259.74 317.657 263.305 316.264L262.214 313.469C258.845 314.785 255.46 315.671 252.34 316.422C249.273 317.161 246.35 317.793 244.113 318.584L245.113 321.412ZM263.305 316.264C266.68 314.945 270.355 313.946 273.207 313.274C274.628 312.94 275.835 312.688 276.685 312.521C277.11 312.438 277.445 312.375 277.673 312.334C277.787 312.313 277.874 312.298 277.932 312.288C277.961 312.283 277.982 312.279 277.996 312.276C278.003 312.275 278.008 312.274 278.011 312.274C278.013 312.274 278.014 312.273 278.015 312.273C278.015 312.273 278.015 312.273 278.015 312.273C278.015 312.273 278.015 312.273 278.015 312.273C278.015 312.273 278.015 312.273 277.765 310.794C277.516 309.315 277.515 309.315 277.515 309.315C277.515 309.315 277.515 309.315 277.515 309.315C277.514 309.315 277.514 309.315 277.513 309.316C277.512 309.316 277.51 309.316 277.507 309.316C277.503 309.317 277.496 309.318 277.488 309.32C277.471 309.323 277.446 309.327 277.414 309.333C277.35 309.344 277.257 309.36 277.137 309.382C276.896 309.426 276.546 309.491 276.106 309.578C275.226 309.751 273.982 310.01 272.519 310.354C269.6 311.042 265.773 312.079 262.214 313.469L263.305 316.264Z" fill="#C4C4C4"/>
<path d="M288.767 183.168C294.641 222.554 339.378 239.606 361.012 243.209L456.83 207.351C459.995 204.235 467.674 191.987 473.07 167.92C479.817 137.837 461.646 109.019 430.842 92.2741C400.037 75.529 360.799 78.7716 335.334 88.2223C309.869 97.6729 281.424 133.936 288.767 183.168Z" fill="white"/>
<path d="M279.44 187.554C285.268 226.937 329.759 243.973 351.276 247.568L446.594 211.676C449.743 208.559 457.385 196.309 462.762 172.241C469.483 142.155 451.42 113.345 420.786 96.6115C390.153 79.8778 351.123 83.1344 325.791 92.5939C300.459 102.054 272.154 138.326 279.44 187.554Z" fill="#D5D4D6"/>
<path d="M521.633 378.758C524.186 406.969 501.935 417.189 472.768 409.121C468.719 408.001 465.088 405.767 461.961 402.962L479.059 394.586C488.658 322.21 419.188 198.121 445.431 213.922C469.695 256.309 518.904 348.619 521.633 378.758Z" fill="#C4C4C4"/>
<path d="M475.656 392.497L363.181 247.629C372.772 174.787 427.205 188.327 453.223 204.203C477.251 246.834 523.57 334.97 526.247 365.297C528.924 395.624 493.85 396.268 475.656 392.497Z" fill="white"/>
<path d="M460.968 384.556L351.428 243.532C361.03 171.065 415.876 184.583 442.098 200.4C466.339 242.837 515.502 335.254 518.225 365.43C520.544 391.135 494.778 394.951 475.761 393.19C469.827 392.64 464.624 389.263 460.968 384.556Z" fill="#2BB2BC"/>
<path d="M474.901 392.404L360.408 244.134C369.982 171.665 424.511 185.162 450.579 200.968C474.665 243.395 523.513 335.791 526.209 365.966C528.904 396.14 493.127 396.164 474.901 392.404Z" stroke="#574E56" stroke-width="3"/>
<path d="M407.547 303.456C407.547 303.456 411.188 284.616 435.545 267.164C459.902 249.713 480.901 255.746 480.901 255.746" stroke="#574E56" stroke-width="3"/>
<path d="M423.037 326.544C423.037 326.544 426.485 308.051 449.169 290.847C471.854 273.643 491.337 279.488 491.337 279.488" stroke="#574E56" stroke-width="3"/>
<path d="M523.368 354.861C521.587 354.741 476.384 343.795 471.042 387.891" stroke="#574E56" stroke-width="3"/>
<path d="M360.014 243.142C338.38 239.539 293.643 222.487 287.769 183.101C280.426 133.869 308.871 97.606 334.336 88.1554C359.801 78.7047 399.039 75.4621 429.844 92.2073C460.648 108.952 478.818 137.77 472.072 167.853C466.676 191.92 458.997 204.168 455.832 207.284" stroke="#574E56" stroke-width="3"/>
<path d="M332.654 89.9702C352.174 103.403 391.588 142.262 393.085 190.236" stroke="#574E56" stroke-width="3"/>
<path d="M367.313 81.2683C386.422 86.4429 420.26 115.952 418.43 185.921" stroke="#574E56" stroke-width="3"/>
<path d="M419.995 87.8057C435.319 98.9902 461.453 137.817 446.209 196.803" stroke="#574E56" stroke-width="3"/>
<path d="M306.373 108.254C316.914 152.057 356.982 183.67 376.452 199.143" stroke="#574E56" stroke-width="3"/>
<path d="M288.999 143.17C293.432 160.768 314.799 201.454 364.803 223.419" stroke="#574E56" stroke-width="3"/>
<path d="M298.688 207.963C302.435 187.076 321.118 141.191 365.876 124.751C421.822 104.201 458.417 118.507 465.496 126.686" stroke="#574E56" stroke-width="3"/>
<path d="M286.135 156.007C292.728 142.869 314.269 113.61 347.69 101.679C389.466 86.7657 413.666 87.2067 438.452 96.5435" stroke="#574E56" stroke-width="3"/>
<path d="M319.435 227.394C320.765 225.152 330.916 161.738 382.598 147.722C434.28 133.705 454.605 138.563 470.979 149.566" stroke="#574E56" stroke-width="3"/>
<path d="M342.647 239.974C344.145 220.561 356.086 178.906 391.866 167.585C427.645 156.265 457.603 169.429 468.11 177.426" stroke="#574E56" stroke-width="3"/>
<path d="M105.125 263.252C69.9353 272.243 66.683 309.039 75.7699 338.263C89.4424 368.841 118.156 371.814 151.494 363.086C184.832 354.358 191.771 323.021 181.746 292.891C172.007 263.624 140.315 254.262 105.125 263.252Z" stroke="#574E56" stroke-width="3"/>
<path d="M117.714 331.127L118.848 346.452L136.887 359.225C136.887 359.225 146.06 342.336 145.488 341.575C144.916 340.814 140.211 324.584 140.211 324.584L117.714 331.127Z" fill="white"/>
<path d="M108.647 312.11C108.647 312.11 105.089 293.768 105.035 293.488C105.035 293.488 105.312 287.623 110.493 286.618C115.647 285.473 113.22 286.089 115.345 287.566C117.58 288.876 124.093 292.552 128.16 286.533C132.254 280.654 137.134 281.015 139.177 283.524C141.056 285.92 141.926 288.947 143.149 295.248C144.371 301.548 146.136 311.376 146.136 311.376C146.136 311.376 147.517 323.602 138.598 328.673C129.679 333.745 120.328 332.944 115.016 326.71C113.9 325.329 112.538 323.414 111.504 320.999C109.707 317.57 108.946 314.377 108.647 312.11Z" fill="white"/>
<path d="M143.828 295.841C146.991 295.373 150.152 297.811 151.049 300.978C152.246 304.959 150.116 310.022 145.998 310.675" fill="white"/>
<path d="M106.199 303.141C103.091 303.89 101.071 307.332 101.423 310.606C101.801 314.745 105.67 318.644 109.733 317.71" fill="white"/>
<path d="M143.866 281.452C141.715 277.656 128.087 271.583 119.199 272.435C110.474 273.401 101.877 285.239 99.2831 290.1C96.6895 294.962 101.371 305.24 101.371 305.24L106.389 304.122C105.438 299.221 104.379 293.761 104.324 293.481C104.324 293.481 104.601 287.616 109.782 286.611C112.918 286.003 112.509 286.082 114.635 287.558C116.76 289.035 123.383 292.544 127.449 286.525C131.543 280.646 136.423 281.007 138.466 283.516C140.346 285.912 141.216 288.94 142.438 295.24C142.492 295.52 142.574 295.94 142.628 296.22L147.645 295.102C147.95 289.377 146.044 285.388 143.866 281.452Z" fill="#F39800"/>
<path d="M170.916 350.88C166.06 355.018 154.875 363.725 137.806 366.891C120.464 370.11 106.59 365.683 100.648 363.494C99.9676 361.446 99.0165 357.273 100.656 352.596C103.47 344.496 112.825 339.485 119.394 341.261C121.493 341.871 123.619 343.347 127.57 346.213C130.54 348.397 132.91 350.407 134.354 352.016C134.956 350.01 135.966 347.199 137.495 344.142C139.543 340.113 140.581 338.168 142.272 336.678C148.137 331.908 158.059 335.65 159.885 336.312C163.701 337.751 166.534 339.962 168.251 341.518C169.148 344.685 170.046 347.853 170.916 350.88Z" fill="#1E9EB0"/>
<path d="M120.031 331.404L120.733 340.857L133.267 350.774L142.274 336.678L139.391 327.649" stroke="#4D434B" stroke-width="3" stroke-miterlimit="10" stroke-linecap="round"/>
<path d="M120.732 340.856C120.732 340.856 109.716 343.139 106.196 346.146C102.677 349.153 97.7161 355.979 99.2914 364.1C99.2914 364.1 129.91 382.422 171.673 352.674" stroke="#4D434B" stroke-width="3" stroke-miterlimit="10" stroke-linecap="round"/>
<path d="M142.955 336.546C142.955 336.546 154.026 334.543 158.414 336.017C162.802 337.49 167.437 338.044 168.987 343.845C170.536 349.646 171.674 352.675 171.674 352.675" stroke="#4D434B" stroke-width="3" stroke-miterlimit="10" stroke-linecap="round"/>
<path d="M100.691 305.373C100.691 305.373 95.982 294.954 98.6028 290.233C101.196 285.371 102.949 275.443 118.682 272.681C130.598 270.661 141.171 277.762 143.349 281.698C145.527 285.634 147.296 289.649 146.992 295.374" stroke="#4D434B" stroke-width="3" stroke-miterlimit="10" stroke-linecap="round"/>
<path d="M107.285 312.375C107.285 312.375 103.727 294.033 103.673 293.753C103.673 293.753 103.95 287.888 109.13 286.883C114.284 285.738 111.857 286.354 113.983 287.831C116.217 289.141 122.731 292.817 126.797 286.798C130.864 280.779 135.771 281.28 137.814 283.789C139.694 286.185 140.564 289.212 141.786 295.513C143.008 301.813 144.773 311.641 144.773 311.641C144.773 311.641 146.154 323.867 137.235 328.938C128.316 334.01 118.966 333.209 113.654 326.975C112.537 325.594 111.175 323.679 110.141 321.264C108.344 317.835 107.583 314.642 107.285 312.375Z" stroke="#4D434B" stroke-width="3" stroke-miterlimit="10" stroke-linecap="round"/>
<path d="M142.492 296.248C145.655 295.779 148.816 298.217 149.713 301.385C150.91 305.366 148.78 310.428 144.662 311.081" stroke="#4D434B" stroke-width="3" stroke-miterlimit="10" stroke-linecap="round"/>
<path d="M104.728 303.573C101.619 304.321 99.5989 307.764 99.9509 311.037C100.33 315.177 104.198 319.075 108.261 318.142" stroke="#4D434B" stroke-width="3" stroke-miterlimit="10" stroke-linecap="round"/>
<path d="M511.437 125.176C506.651 125.62 500.584 125.748 497.527 125.694C496.75 125.68 496.39 124.839 496.878 124.234L502.493 117.27C503.533 115.98 503.304 114.104 502.156 112.909C494.531 104.972 497.957 96.1954 500.892 92.555L513.324 77.1366C522.887 65.2763 533.876 69.2443 538.324 72.8304C542.772 76.4165 564.598 93.0368 573.905 101.519C583.212 110.002 579.664 119.863 574.405 126.386L561.973 141.804C553.983 151.713 543.237 146.432 539.957 143.623L520.013 127.543C517.628 125.62 514.488 124.893 511.437 125.176Z" fill="#EAFCFF"/>
<path d="M317.128 62.3602C314.086 66.0807 309.92 70.4925 307.737 72.6313C307.182 73.1752 306.33 72.8417 306.241 72.0695L305.22 63.1822C305.031 61.5362 303.535 60.3825 301.878 60.3617C290.872 60.2234 287.024 51.6239 286.49 46.978L284.23 27.3014C282.492 12.1656 293.031 7.12124 298.707 6.46938C304.383 5.81752 317.788 3.51763 330.362 2.84034C342.936 2.16304 347.471 11.6103 348.428 19.935L350.687 39.6117C352.14 52.2572 340.836 56.2064 336.533 56.5728L324.837 57.9115C321.792 58.26 319.069 59.9874 317.128 62.3602Z" fill="#EAFCFF"/>
<path d="M436.638 70.7953C439.721 74.8082 444.051 79.6571 446.272 81.9527C446.811 82.5097 447.673 82.2038 447.787 81.4372L449.17 72.1537C449.415 70.5149 450.949 69.4104 452.605 69.4571C464.18 69.7838 468.508 61.0101 469.222 56.2218L472.232 36.0177C474.548 20.4762 463.729 14.8923 457.834 14.0138C451.939 13.1353 423.757 8.14145 410.671 6.98583C397.585 5.83022 392.543 15.4052 391.269 23.953L388.258 44.1571C386.323 57.1415 397.976 61.6242 402.449 62.1585L429.127 66.1337C432.138 66.5824 434.784 68.3811 436.638 70.7953Z" fill="white"/>
<path d="M438.352 66.6147C441.435 70.6275 445.765 75.4764 447.986 77.772C448.525 78.329 449.387 78.0231 449.501 77.2565L450.884 67.973C451.128 66.3343 452.663 65.2297 454.319 65.2765C465.894 65.6031 470.222 56.8294 470.936 52.0411L473.946 31.8371C476.262 16.2955 465.443 10.7116 459.548 9.83314C453.653 8.95464 425.47 3.96078 412.385 2.80517C399.299 1.64955 394.257 11.2245 392.983 19.7724L389.972 39.9764C388.037 52.9609 399.69 57.4436 404.163 57.9778L430.84 61.9531C433.851 62.4018 436.498 64.2005 438.352 66.6147Z" fill="#F39800"/>
<rect x="201.515" y="106.208" width="12.7921" height="20.1721" transform="rotate(-41.9099 201.515 106.208)" fill="white"/>
<path d="M214.084 86.3309C214.666 88.4528 213.292 95.637 212.531 98.9639L223.376 111.047C223.932 110.438 225.463 109.173 227.146 108.986C228.828 108.798 230.554 108.24 231.206 107.985C235.02 105.114 243.116 98.42 244.993 94.6192C246.871 90.8185 244.392 88.5478 242.918 87.8875C245.373 84.3618 242.029 82.8457 240.256 82.3435C241.123 79.185 237.971 77.3425 236.185 77.0719C236.608 75.7011 235.861 73.3961 233.411 73.6123C231.678 73.7651 230.739 74.6875 227.115 77.2791C223.492 79.8707 221.567 83.2508 221.623 82.2087C221.68 81.1665 219.36 78.9508 216.567 75.8386C213.773 72.7264 210.478 75.6841 209.563 76.5057C208.647 77.3273 209.962 78.7919 211.441 80.4395C212.92 82.0872 213.356 83.6786 214.084 86.3309Z" fill="white"/>
<path d="M212.678 99.4941C213.92 95.8449 215.497 86.6508 213.686 84.0445C211.876 81.4383 210.481 78.8777 209.508 77.5477C209.558 76.6213 210.25 74.7657 212.62 74.7543C215.582 74.74 220.77 78.6783 221.789 82.3915L228.455 76.4078C230.448 74.6196 233.176 72.5746 235.477 73.9422C236.288 74.4244 236.751 75.329 236.37 76.9074L229.962 82.6585" stroke="#574E56" stroke-width="3"/>
<path d="M236.003 77.2362C238.027 77.4035 241.714 78.5897 240.276 81.9961L234.234 87.4186" stroke="#574E56" stroke-width="3"/>
<path d="M240.074 82.5079C241.969 82.9005 245.268 84.391 243.304 87.2115C241.34 90.0321 238.824 91.6732 237.812 92.1411" stroke="#574E56" stroke-width="3"/>
<path d="M242.918 87.8876C244.77 89.0908 247.516 92.4212 243.694 96.117C238.915 100.737 231.536 108.352 229.78 108.605C228.024 108.859 226.855 107.925 223.194 111.211" stroke="#574E56" stroke-width="3"/>
<rect x="201.515" y="106.208" width="12.7921" height="20.6641" transform="rotate(-41.9099 201.515 106.208)" stroke="#574E56" stroke-width="3"/>
<ellipse cx="215.939" cy="113.326" rx="1.48346" ry="1.49851" transform="rotate(-39.8095 215.939 113.326)" fill="#574E56"/>
<path d="M428.45 25.7019C428.913 25.6875 429.333 25.4546 429.594 25.0602L434.069 18.6792C434.069 18.6792 435.214 16.5809 436.785 18.5494C438.356 20.5179 439.17 25.4848 439.522 26.0963C439.909 26.712 440.02 27.5428 441.377 27.7797C442.733 28.0166 449.08 29.2898 449.453 29.7262C449.861 30.1669 451.331 30.3467 449.93 31.6321C448.529 32.9176 442.179 36.6178 442.002 37.4844C441.825 38.351 441.91 38.8232 442.106 40.4105C442.303 41.9978 443.207 47.9706 442.055 48.6823C440.902 49.394 438.814 47.2913 437.421 46.4815C436.027 45.6716 433.146 42.7968 432.595 42.9427C432.044 43.0885 424.18 46.3905 423.712 46.4398C423.244 46.4892 421.778 46.2745 421.875 45.185C421.973 44.0956 424.56 36.5955 424.616 36.1405C424.636 35.6811 424.517 35.2046 424.052 34.6504C423.586 34.0961 418.781 28.357 418.509 27.9684C418.237 27.5799 417.988 26.4126 419.436 26.1987C420.629 26.0249 426.381 25.7688 428.45 25.7019Z" fill="white"/>
<path d="M425.816 25.6404C426.28 25.626 426.699 25.3931 426.96 24.9987L431.435 18.6177C431.435 18.6177 432.58 16.5193 434.151 18.4879C435.723 20.4564 436.537 25.4233 436.923 26.039C437.31 26.6547 437.421 27.4855 438.778 27.7225C440.135 27.9594 446.481 29.2326 446.854 29.669C447.262 30.1097 448.732 30.2894 447.331 31.5749C445.931 32.8603 439.581 36.5606 439.404 37.4272C439.227 38.2937 439.311 38.7659 439.508 40.3532C439.704 41.9406 440.609 47.9133 439.456 48.6251C438.303 49.3368 436.215 47.2341 434.822 46.4242C433.429 45.6144 430.547 42.7396 429.996 42.8854C429.445 43.0313 421.581 46.3332 421.113 46.3826C420.645 46.432 419.179 46.2172 419.277 45.1278C419.374 44.0383 421.961 36.5383 422.017 36.0832C422.037 35.6239 421.918 35.1474 421.453 34.5931C420.988 34.0389 416.182 28.2998 415.875 27.9069C415.603 27.5183 415.355 26.3511 416.802 26.1372C418.031 25.9677 423.782 25.7115 425.816 25.6404Z" stroke="#574E56" stroke-width="3" stroke-miterlimit="10"/>
<path d="M524.256 91.5559L526.188 100.234L535.986 98.4411" stroke="#574E56" stroke-width="3" stroke-linecap="round"/>
<path d="M546.305 106.925L562.808 120.912" stroke="#574E56" stroke-width="3" stroke-linecap="round"/>
<path d="M541.643 112.426L551.791 120.677" stroke="#574E56" stroke-width="3" stroke-linecap="round"/>
<path d="M301.724 27.5131C302.633 35.8734 313.687 42.3146 319.101 44.4902C332.362 30.8334 334.496 26.0983 330.972 20.4134C327.447 14.7278 320.134 16.7415 316.952 19.7627C312.92 13.9113 300.587 17.0626 301.724 27.5131Z" stroke="#574E56" stroke-width="3"/>
<ellipse cx="510.102" cy="385.716" rx="11.7008" ry="6.84321" transform="rotate(-15.4669 510.102 385.716)" fill="#574E56"/>
</svg>
