<svg width="312" height="312" viewBox="0 0 312 312" fill="none" xmlns="http://www.w3.org/2000/svg">
<g filter="url(#filter0_d_142_11)">
<rect x="18" y="14" width="276" height="276" rx="10" fill="#A0A0A0"/>
</g>
<path d="M67.16 242C67.0386 242 66.9406 241.967 66.866 241.902C66.8006 241.837 66.754 241.743 66.726 241.622L64.92 232.634C64.9106 232.597 64.906 232.564 64.906 232.536C64.906 232.508 64.906 232.489 64.906 232.48C64.906 232.405 64.934 232.34 64.99 232.284C65.046 232.228 65.1113 232.2 65.186 232.2H65.914C66.11 232.2 66.222 232.279 66.25 232.438L67.678 239.662L69.19 234.706C69.218 234.622 69.2646 234.547 69.33 234.482C69.4046 234.407 69.5073 234.37 69.638 234.37H70.156C70.296 234.37 70.3986 234.407 70.464 234.482C70.5293 234.547 70.5713 234.622 70.59 234.706L72.116 239.662L73.53 232.438C73.558 232.279 73.6746 232.2 73.88 232.2H74.608C74.6826 232.2 74.748 232.228 74.804 232.284C74.86 232.34 74.888 232.405 74.888 232.48C74.888 232.489 74.8833 232.508 74.874 232.536C74.874 232.564 74.874 232.597 74.874 232.634L73.068 241.622C73.04 241.743 72.9886 241.837 72.914 241.902C72.8486 241.967 72.7553 242 72.634 242H72.088C71.9573 242 71.8546 241.967 71.78 241.902C71.7053 241.837 71.654 241.753 71.626 241.65L69.89 236.316L68.168 241.65C68.1306 241.753 68.0746 241.837 68 241.902C67.9346 241.967 67.8366 242 67.706 242H67.16ZM80.2541 242.14C79.2928 242.14 78.5275 241.846 77.9581 241.258C77.3888 240.661 77.0761 239.849 77.0201 238.822C77.0108 238.701 77.0061 238.547 77.0061 238.36C77.0061 238.164 77.0108 238.005 77.0201 237.884C77.0575 237.221 77.2115 236.643 77.4821 236.148C77.7528 235.644 78.1215 235.257 78.5881 234.986C79.0641 234.715 79.6195 234.58 80.2541 234.58C80.9635 234.58 81.5561 234.729 82.0321 235.028C82.5175 235.327 82.8861 235.751 83.1381 236.302C83.3901 236.853 83.5161 237.497 83.5161 238.234V238.472C83.5161 238.575 83.4835 238.654 83.4181 238.71C83.3621 238.766 83.2875 238.794 83.1941 238.794H78.3501C78.3501 238.803 78.3501 238.822 78.3501 238.85C78.3501 238.878 78.3501 238.901 78.3501 238.92C78.3688 239.303 78.4528 239.662 78.6021 239.998C78.7515 240.325 78.9661 240.591 79.2461 240.796C79.5261 241.001 79.8621 241.104 80.2541 241.104C80.5901 241.104 80.8701 241.053 81.0941 240.95C81.3181 240.847 81.5001 240.735 81.6401 240.614C81.7801 240.483 81.8735 240.385 81.9201 240.32C82.0041 240.199 82.0695 240.129 82.1161 240.11C82.1628 240.082 82.2375 240.068 82.3401 240.068H83.0121C83.1055 240.068 83.1801 240.096 83.2361 240.152C83.3015 240.199 83.3295 240.269 83.3201 240.362C83.3108 240.502 83.2361 240.675 83.0961 240.88C82.9561 241.076 82.7555 241.272 82.4941 241.468C82.2328 241.664 81.9155 241.827 81.5421 241.958C81.1688 242.079 80.7395 242.14 80.2541 242.14ZM78.3501 237.828H82.1861V237.786C82.1861 237.366 82.1068 236.993 81.9481 236.666C81.7988 236.339 81.5795 236.083 81.2901 235.896C81.0008 235.7 80.6555 235.602 80.2541 235.602C79.8528 235.602 79.5075 235.7 79.2181 235.896C78.9381 236.083 78.7235 236.339 78.5741 236.666C78.4248 236.993 78.3501 237.366 78.3501 237.786V237.828ZM93.5217 242.14C93.0084 242.14 92.5651 242.051 92.1917 241.874C91.8184 241.687 91.5104 241.44 91.2677 241.132C91.0344 240.815 90.8571 240.455 90.7357 240.054C90.6237 239.653 90.5584 239.228 90.5397 238.78C90.5304 238.631 90.5257 238.491 90.5257 238.36C90.5257 238.229 90.5304 238.089 90.5397 237.94C90.5584 237.501 90.6237 237.081 90.7357 236.68C90.8571 236.279 91.0344 235.919 91.2677 235.602C91.5104 235.285 91.8184 235.037 92.1917 234.86C92.5651 234.673 93.0084 234.58 93.5217 234.58C94.0724 234.58 94.5297 234.678 94.8937 234.874C95.2577 235.07 95.5564 235.313 95.7897 235.602V232.382C95.7897 232.289 95.8177 232.214 95.8737 232.158C95.9391 232.093 96.0184 232.06 96.1117 232.06H96.7837C96.8771 232.06 96.9517 232.093 97.0077 232.158C97.0731 232.214 97.1057 232.289 97.1057 232.382V241.678C97.1057 241.771 97.0731 241.851 97.0077 241.916C96.9517 241.972 96.8771 242 96.7837 242H96.1537C96.0511 242 95.9717 241.972 95.9157 241.916C95.8597 241.851 95.8317 241.771 95.8317 241.678V241.09C95.5984 241.389 95.2951 241.641 94.9217 241.846C94.5484 242.042 94.0817 242.14 93.5217 242.14ZM93.8157 241.006C94.2824 241.006 94.6557 240.899 94.9357 240.684C95.2157 240.469 95.4257 240.199 95.5657 239.872C95.7057 239.536 95.7804 239.195 95.7897 238.85C95.7991 238.701 95.8037 238.523 95.8037 238.318C95.8037 238.103 95.7991 237.921 95.7897 237.772C95.7804 237.445 95.7011 237.123 95.5517 236.806C95.4117 236.489 95.1971 236.227 94.9077 236.022C94.6277 235.817 94.2637 235.714 93.8157 235.714C93.3397 235.714 92.9617 235.821 92.6817 236.036C92.4017 236.241 92.2011 236.517 92.0797 236.862C91.9584 237.198 91.8884 237.562 91.8697 237.954C91.8604 238.225 91.8604 238.495 91.8697 238.766C91.8884 239.158 91.9584 239.527 92.0797 239.872C92.2011 240.208 92.4017 240.483 92.6817 240.698C92.9617 240.903 93.3397 241.006 93.8157 241.006ZM103.29 242.14C102.581 242.14 101.988 242.005 101.512 241.734C101.036 241.463 100.672 241.09 100.42 240.614C100.168 240.129 100.028 239.578 99.9999 238.962C99.9906 238.803 99.9859 238.603 99.9859 238.36C99.9859 238.108 99.9906 237.907 99.9999 237.758C100.028 237.133 100.168 236.582 100.42 236.106C100.681 235.63 101.05 235.257 101.526 234.986C102.002 234.715 102.59 234.58 103.29 234.58C103.99 234.58 104.578 234.715 105.054 234.986C105.53 235.257 105.894 235.63 106.146 236.106C106.407 236.582 106.552 237.133 106.58 237.758C106.589 237.907 106.594 238.108 106.594 238.36C106.594 238.603 106.589 238.803 106.58 238.962C106.552 239.578 106.412 240.129 106.16 240.614C105.908 241.09 105.544 241.463 105.068 241.734C104.592 242.005 103.999 242.14 103.29 242.14ZM103.29 241.062C103.869 241.062 104.331 240.88 104.676 240.516C105.021 240.143 105.208 239.601 105.236 238.892C105.245 238.752 105.25 238.575 105.25 238.36C105.25 238.145 105.245 237.968 105.236 237.828C105.208 237.119 105.021 236.582 104.676 236.218C104.331 235.845 103.869 235.658 103.29 235.658C102.711 235.658 102.245 235.845 101.89 236.218C101.545 236.582 101.363 237.119 101.344 237.828C101.335 237.968 101.33 238.145 101.33 238.36C101.33 238.575 101.335 238.752 101.344 238.892C101.363 239.601 101.545 240.143 101.89 240.516C102.245 240.88 102.711 241.062 103.29 241.062ZM114.341 242C114.247 242 114.168 241.972 114.103 241.916C114.047 241.851 114.019 241.771 114.019 241.678V235.042C114.019 234.949 114.047 234.874 114.103 234.818C114.168 234.753 114.247 234.72 114.341 234.72H114.999C115.092 234.72 115.167 234.753 115.223 234.818C115.288 234.874 115.321 234.949 115.321 235.042V235.658C115.563 235.341 115.867 235.084 116.231 234.888C116.604 234.683 117.08 234.58 117.659 234.58C118.265 234.58 118.779 234.715 119.199 234.986C119.628 235.247 119.95 235.616 120.165 236.092C120.379 236.559 120.487 237.105 120.487 237.73V241.678C120.487 241.771 120.459 241.851 120.403 241.916C120.347 241.972 120.272 242 120.179 242H119.479C119.385 242 119.306 241.972 119.241 241.916C119.185 241.851 119.157 241.771 119.157 241.678V237.8C119.157 237.147 118.998 236.638 118.681 236.274C118.363 235.901 117.897 235.714 117.281 235.714C116.702 235.714 116.235 235.901 115.881 236.274C115.535 236.638 115.363 237.147 115.363 237.8V241.678C115.363 241.771 115.33 241.851 115.265 241.916C115.209 241.972 115.134 242 115.041 242H114.341ZM126.611 242.14C125.902 242.14 125.309 242.005 124.833 241.734C124.357 241.463 123.993 241.09 123.741 240.614C123.489 240.129 123.349 239.578 123.321 238.962C123.312 238.803 123.307 238.603 123.307 238.36C123.307 238.108 123.312 237.907 123.321 237.758C123.349 237.133 123.489 236.582 123.741 236.106C124.002 235.63 124.371 235.257 124.847 234.986C125.323 234.715 125.911 234.58 126.611 234.58C127.311 234.58 127.899 234.715 128.375 234.986C128.851 235.257 129.215 235.63 129.467 236.106C129.728 236.582 129.873 237.133 129.901 237.758C129.91 237.907 129.915 238.108 129.915 238.36C129.915 238.603 129.91 238.803 129.901 238.962C129.873 239.578 129.733 240.129 129.481 240.614C129.229 241.09 128.865 241.463 128.389 241.734C127.913 242.005 127.32 242.14 126.611 242.14ZM126.611 241.062C127.19 241.062 127.652 240.88 127.997 240.516C128.342 240.143 128.529 239.601 128.557 238.892C128.566 238.752 128.571 238.575 128.571 238.36C128.571 238.145 128.566 237.968 128.557 237.828C128.529 237.119 128.342 236.582 127.997 236.218C127.652 235.845 127.19 235.658 126.611 235.658C126.032 235.658 125.566 235.845 125.211 236.218C124.866 236.582 124.684 237.119 124.665 237.828C124.656 237.968 124.651 238.145 124.651 238.36C124.651 238.575 124.656 238.752 124.665 238.892C124.684 239.601 124.866 240.143 125.211 240.516C125.566 240.88 126.032 241.062 126.611 241.062ZM135.562 242C135.039 242 134.614 241.902 134.288 241.706C133.961 241.501 133.723 241.216 133.574 240.852C133.424 240.479 133.35 240.04 133.35 239.536V235.84H132.258C132.164 235.84 132.085 235.812 132.02 235.756C131.964 235.691 131.936 235.611 131.936 235.518V235.042C131.936 234.949 131.964 234.874 132.02 234.818C132.085 234.753 132.164 234.72 132.258 234.72H133.35V232.382C133.35 232.289 133.378 232.214 133.434 232.158C133.499 232.093 133.578 232.06 133.672 232.06H134.33C134.423 232.06 134.498 232.093 134.554 232.158C134.619 232.214 134.652 232.289 134.652 232.382V234.72H136.388C136.481 234.72 136.556 234.753 136.612 234.818C136.677 234.874 136.71 234.949 136.71 235.042V235.518C136.71 235.611 136.677 235.691 136.612 235.756C136.556 235.812 136.481 235.84 136.388 235.84H134.652V239.438C134.652 239.877 134.726 240.222 134.876 240.474C135.025 240.726 135.291 240.852 135.674 240.852H136.528C136.621 240.852 136.696 240.885 136.752 240.95C136.817 241.006 136.85 241.081 136.85 241.174V241.678C136.85 241.771 136.817 241.851 136.752 241.916C136.696 241.972 136.621 242 136.528 242H135.562ZM146.38 242.14C145.857 242.14 145.409 242.075 145.036 241.944C144.663 241.813 144.359 241.655 144.126 241.468C143.893 241.281 143.715 241.095 143.594 240.908C143.482 240.721 143.421 240.572 143.412 240.46C143.403 240.357 143.435 240.278 143.51 240.222C143.585 240.166 143.659 240.138 143.734 240.138H144.35C144.406 240.138 144.448 240.147 144.476 240.166C144.513 240.175 144.56 240.213 144.616 240.278C144.737 240.409 144.873 240.539 145.022 240.67C145.171 240.801 145.353 240.908 145.568 240.992C145.792 241.076 146.067 241.118 146.394 241.118C146.87 241.118 147.262 241.029 147.57 240.852C147.878 240.665 148.032 240.395 148.032 240.04C148.032 239.807 147.967 239.62 147.836 239.48C147.715 239.34 147.491 239.214 147.164 239.102C146.847 238.99 146.408 238.873 145.848 238.752C145.288 238.621 144.845 238.463 144.518 238.276C144.191 238.08 143.958 237.851 143.818 237.59C143.678 237.319 143.608 237.016 143.608 236.68C143.608 236.335 143.711 236.003 143.916 235.686C144.121 235.359 144.42 235.093 144.812 234.888C145.213 234.683 145.713 234.58 146.31 234.58C146.795 234.58 147.211 234.641 147.556 234.762C147.901 234.883 148.186 235.037 148.41 235.224C148.634 235.401 148.802 235.579 148.914 235.756C149.026 235.933 149.087 236.083 149.096 236.204C149.105 236.297 149.077 236.377 149.012 236.442C148.947 236.498 148.872 236.526 148.788 236.526H148.2C148.135 236.526 148.079 236.512 148.032 236.484C147.995 236.456 147.957 236.423 147.92 236.386C147.827 236.265 147.715 236.143 147.584 236.022C147.463 235.901 147.299 235.803 147.094 235.728C146.898 235.644 146.637 235.602 146.31 235.602C145.843 235.602 145.493 235.7 145.26 235.896C145.027 236.092 144.91 236.339 144.91 236.638C144.91 236.815 144.961 236.974 145.064 237.114C145.167 237.254 145.363 237.38 145.652 237.492C145.941 237.604 146.371 237.725 146.94 237.856C147.556 237.977 148.041 238.141 148.396 238.346C148.751 238.551 149.003 238.789 149.152 239.06C149.301 239.331 149.376 239.643 149.376 239.998C149.376 240.39 149.259 240.749 149.026 241.076C148.802 241.403 148.466 241.664 148.018 241.86C147.579 242.047 147.033 242.14 146.38 242.14ZM154.945 242C154.422 242 153.998 241.902 153.671 241.706C153.344 241.501 153.106 241.216 152.957 240.852C152.808 240.479 152.733 240.04 152.733 239.536V235.84H151.641C151.548 235.84 151.468 235.812 151.403 235.756C151.347 235.691 151.319 235.611 151.319 235.518V235.042C151.319 234.949 151.347 234.874 151.403 234.818C151.468 234.753 151.548 234.72 151.641 234.72H152.733V232.382C152.733 232.289 152.761 232.214 152.817 232.158C152.882 232.093 152.962 232.06 153.055 232.06H153.713C153.806 232.06 153.881 232.093 153.937 232.158C154.002 232.214 154.035 232.289 154.035 232.382V234.72H155.771C155.864 234.72 155.939 234.753 155.995 234.818C156.06 234.874 156.093 234.949 156.093 235.042V235.518C156.093 235.611 156.06 235.691 155.995 235.756C155.939 235.812 155.864 235.84 155.771 235.84H154.035V239.438C154.035 239.877 154.11 240.222 154.259 240.474C154.408 240.726 154.674 240.852 155.057 240.852H155.911C156.004 240.852 156.079 240.885 156.135 240.95C156.2 241.006 156.233 241.081 156.233 241.174V241.678C156.233 241.771 156.2 241.851 156.135 241.916C156.079 241.972 156.004 242 155.911 242H154.945ZM161.674 242.14C160.964 242.14 160.372 242.005 159.896 241.734C159.42 241.463 159.056 241.09 158.804 240.614C158.552 240.129 158.412 239.578 158.384 238.962C158.374 238.803 158.37 238.603 158.37 238.36C158.37 238.108 158.374 237.907 158.384 237.758C158.412 237.133 158.552 236.582 158.804 236.106C159.065 235.63 159.434 235.257 159.91 234.986C160.386 234.715 160.974 234.58 161.674 234.58C162.374 234.58 162.962 234.715 163.438 234.986C163.914 235.257 164.278 235.63 164.53 236.106C164.791 236.582 164.936 237.133 164.964 237.758C164.973 237.907 164.978 238.108 164.978 238.36C164.978 238.603 164.973 238.803 164.964 238.962C164.936 239.578 164.796 240.129 164.544 240.614C164.292 241.09 163.928 241.463 163.452 241.734C162.976 242.005 162.383 242.14 161.674 242.14ZM161.674 241.062C162.252 241.062 162.714 240.88 163.06 240.516C163.405 240.143 163.592 239.601 163.62 238.892C163.629 238.752 163.634 238.575 163.634 238.36C163.634 238.145 163.629 237.968 163.62 237.828C163.592 237.119 163.405 236.582 163.06 236.218C162.714 235.845 162.252 235.658 161.674 235.658C161.095 235.658 160.628 235.845 160.274 236.218C159.928 236.582 159.746 237.119 159.728 237.828C159.718 237.968 159.714 238.145 159.714 238.36C159.714 238.575 159.718 238.752 159.728 238.892C159.746 239.601 159.928 240.143 160.274 240.516C160.628 240.88 161.095 241.062 161.674 241.062ZM168.173 242C168.079 242 168 241.972 167.935 241.916C167.879 241.851 167.851 241.771 167.851 241.678V235.056C167.851 234.963 167.879 234.883 167.935 234.818C168 234.753 168.079 234.72 168.173 234.72H168.817C168.91 234.72 168.989 234.753 169.055 234.818C169.12 234.883 169.153 234.963 169.153 235.056V235.672C169.339 235.355 169.596 235.117 169.923 234.958C170.249 234.799 170.641 234.72 171.099 234.72H171.659C171.752 234.72 171.827 234.753 171.883 234.818C171.939 234.874 171.967 234.949 171.967 235.042V235.616C171.967 235.709 171.939 235.784 171.883 235.84C171.827 235.896 171.752 235.924 171.659 235.924H170.819C170.315 235.924 169.918 236.073 169.629 236.372C169.339 236.661 169.195 237.058 169.195 237.562V241.678C169.195 241.771 169.162 241.851 169.097 241.916C169.031 241.972 168.952 242 168.859 242H168.173ZM177.05 242.14C176.089 242.14 175.324 241.846 174.754 241.258C174.185 240.661 173.872 239.849 173.816 238.822C173.807 238.701 173.802 238.547 173.802 238.36C173.802 238.164 173.807 238.005 173.816 237.884C173.854 237.221 174.008 236.643 174.278 236.148C174.549 235.644 174.918 235.257 175.384 234.986C175.86 234.715 176.416 234.58 177.05 234.58C177.76 234.58 178.352 234.729 178.828 235.028C179.314 235.327 179.682 235.751 179.934 236.302C180.186 236.853 180.312 237.497 180.312 238.234V238.472C180.312 238.575 180.28 238.654 180.214 238.71C180.158 238.766 180.084 238.794 179.99 238.794H175.146C175.146 238.803 175.146 238.822 175.146 238.85C175.146 238.878 175.146 238.901 175.146 238.92C175.165 239.303 175.249 239.662 175.398 239.998C175.548 240.325 175.762 240.591 176.042 240.796C176.322 241.001 176.658 241.104 177.05 241.104C177.386 241.104 177.666 241.053 177.89 240.95C178.114 240.847 178.296 240.735 178.436 240.614C178.576 240.483 178.67 240.385 178.716 240.32C178.8 240.199 178.866 240.129 178.912 240.11C178.959 240.082 179.034 240.068 179.136 240.068H179.808C179.902 240.068 179.976 240.096 180.032 240.152C180.098 240.199 180.126 240.269 180.116 240.362C180.107 240.502 180.032 240.675 179.892 240.88C179.752 241.076 179.552 241.272 179.29 241.468C179.029 241.664 178.712 241.827 178.338 241.958C177.965 242.079 177.536 242.14 177.05 242.14ZM175.146 237.828H178.982V237.786C178.982 237.366 178.903 236.993 178.744 236.666C178.595 236.339 178.376 236.083 178.086 235.896C177.797 235.7 177.452 235.602 177.05 235.602C176.649 235.602 176.304 235.7 176.014 235.896C175.734 236.083 175.52 236.339 175.37 236.666C175.221 236.993 175.146 237.366 175.146 237.786V237.828ZM189.688 242.14C189.221 242.14 188.797 242.047 188.414 241.86C188.031 241.673 187.723 241.421 187.49 241.104C187.257 240.787 187.14 240.427 187.14 240.026C187.14 239.382 187.401 238.869 187.924 238.486C188.447 238.103 189.128 237.851 189.968 237.73L192.054 237.436V237.03C192.054 236.582 191.923 236.232 191.662 235.98C191.41 235.728 190.995 235.602 190.416 235.602C189.996 235.602 189.655 235.686 189.394 235.854C189.142 236.022 188.965 236.237 188.862 236.498C188.806 236.638 188.708 236.708 188.568 236.708H187.938C187.835 236.708 187.756 236.68 187.7 236.624C187.653 236.559 187.63 236.484 187.63 236.4C187.63 236.26 187.681 236.087 187.784 235.882C187.896 235.677 188.064 235.476 188.288 235.28C188.512 235.084 188.797 234.921 189.142 234.79C189.497 234.65 189.926 234.58 190.43 234.58C190.99 234.58 191.461 234.655 191.844 234.804C192.227 234.944 192.525 235.135 192.74 235.378C192.964 235.621 193.123 235.896 193.216 236.204C193.319 236.512 193.37 236.825 193.37 237.142V241.678C193.37 241.771 193.337 241.851 193.272 241.916C193.216 241.972 193.141 242 193.048 242H192.404C192.301 242 192.222 241.972 192.166 241.916C192.11 241.851 192.082 241.771 192.082 241.678V241.076C191.961 241.244 191.797 241.412 191.592 241.58C191.387 241.739 191.13 241.874 190.822 241.986C190.514 242.089 190.136 242.14 189.688 242.14ZM189.982 241.09C190.365 241.09 190.715 241.011 191.032 240.852C191.349 240.684 191.597 240.427 191.774 240.082C191.961 239.737 192.054 239.303 192.054 238.78V238.388L190.43 238.626C189.767 238.719 189.268 238.878 188.932 239.102C188.596 239.317 188.428 239.592 188.428 239.928C188.428 240.189 188.503 240.409 188.652 240.586C188.811 240.754 189.007 240.88 189.24 240.964C189.483 241.048 189.73 241.09 189.982 241.09ZM196.825 242C196.731 242 196.652 241.972 196.587 241.916C196.531 241.851 196.503 241.771 196.503 241.678V235.042C196.503 234.949 196.531 234.874 196.587 234.818C196.652 234.753 196.731 234.72 196.825 234.72H197.483C197.576 234.72 197.651 234.753 197.707 234.818C197.772 234.874 197.805 234.949 197.805 235.042V235.658C198.047 235.341 198.351 235.084 198.715 234.888C199.088 234.683 199.564 234.58 200.143 234.58C200.749 234.58 201.263 234.715 201.683 234.986C202.112 235.247 202.434 235.616 202.649 236.092C202.863 236.559 202.971 237.105 202.971 237.73V241.678C202.971 241.771 202.943 241.851 202.887 241.916C202.831 241.972 202.756 242 202.663 242H201.963C201.869 242 201.79 241.972 201.725 241.916C201.669 241.851 201.641 241.771 201.641 241.678V237.8C201.641 237.147 201.482 236.638 201.165 236.274C200.847 235.901 200.381 235.714 199.765 235.714C199.186 235.714 198.719 235.901 198.365 236.274C198.019 236.638 197.847 237.147 197.847 237.8V241.678C197.847 241.771 197.814 241.851 197.749 241.916C197.693 241.972 197.618 242 197.525 242H196.825ZM207.168 244.66C207.094 244.66 207.028 244.632 206.972 244.576C206.916 244.52 206.888 244.455 206.888 244.38C206.888 244.343 206.893 244.305 206.902 244.268C206.912 244.231 206.93 244.184 206.958 244.128L208.036 241.566L205.362 235.252C205.316 235.14 205.292 235.061 205.292 235.014C205.292 234.93 205.32 234.86 205.376 234.804C205.432 234.748 205.502 234.72 205.586 234.72H206.272C206.366 234.72 206.44 234.743 206.496 234.79C206.552 234.837 206.59 234.893 206.608 234.958L208.736 240.054L210.92 234.958C210.948 234.893 210.986 234.837 211.032 234.79C211.088 234.743 211.168 234.72 211.27 234.72H211.928C212.012 234.72 212.082 234.748 212.138 234.804C212.194 234.86 212.222 234.925 212.222 235C212.222 235.047 212.199 235.131 212.152 235.252L208.176 244.422C208.148 244.487 208.106 244.543 208.05 244.59C208.004 244.637 207.929 244.66 207.826 244.66H207.168ZM221.568 242.14C221.054 242.14 220.611 242.051 220.238 241.874C219.864 241.687 219.556 241.44 219.314 241.132C219.08 240.815 218.903 240.455 218.782 240.054C218.67 239.653 218.604 239.228 218.586 238.78C218.576 238.631 218.572 238.491 218.572 238.36C218.572 238.229 218.576 238.089 218.586 237.94C218.604 237.501 218.67 237.081 218.782 236.68C218.903 236.279 219.08 235.919 219.314 235.602C219.556 235.285 219.864 235.037 220.238 234.86C220.611 234.673 221.054 234.58 221.568 234.58C222.118 234.58 222.576 234.678 222.94 234.874C223.304 235.07 223.602 235.313 223.836 235.602V232.382C223.836 232.289 223.864 232.214 223.92 232.158C223.985 232.093 224.064 232.06 224.158 232.06H224.83C224.923 232.06 224.998 232.093 225.054 232.158C225.119 232.214 225.152 232.289 225.152 232.382V241.678C225.152 241.771 225.119 241.851 225.054 241.916C224.998 241.972 224.923 242 224.83 242H224.2C224.097 242 224.018 241.972 223.962 241.916C223.906 241.851 223.878 241.771 223.878 241.678V241.09C223.644 241.389 223.341 241.641 222.968 241.846C222.594 242.042 222.128 242.14 221.568 242.14ZM221.862 241.006C222.328 241.006 222.702 240.899 222.982 240.684C223.262 240.469 223.472 240.199 223.612 239.872C223.752 239.536 223.826 239.195 223.836 238.85C223.845 238.701 223.85 238.523 223.85 238.318C223.85 238.103 223.845 237.921 223.836 237.772C223.826 237.445 223.747 237.123 223.598 236.806C223.458 236.489 223.243 236.227 222.954 236.022C222.674 235.817 222.31 235.714 221.862 235.714C221.386 235.714 221.008 235.821 220.728 236.036C220.448 236.241 220.247 236.517 220.126 236.862C220.004 237.198 219.934 237.562 219.916 237.954C219.906 238.225 219.906 238.495 219.916 238.766C219.934 239.158 220.004 239.527 220.126 239.872C220.247 240.208 220.448 240.483 220.728 240.698C221.008 240.903 221.386 241.006 221.862 241.006ZM230.384 242.14C229.917 242.14 229.492 242.047 229.11 241.86C228.727 241.673 228.419 241.421 228.186 241.104C227.952 240.787 227.836 240.427 227.836 240.026C227.836 239.382 228.097 238.869 228.62 238.486C229.142 238.103 229.824 237.851 230.664 237.73L232.75 237.436V237.03C232.75 236.582 232.619 236.232 232.358 235.98C232.106 235.728 231.69 235.602 231.112 235.602C230.692 235.602 230.351 235.686 230.09 235.854C229.838 236.022 229.66 236.237 229.558 236.498C229.502 236.638 229.404 236.708 229.264 236.708H228.634C228.531 236.708 228.452 236.68 228.396 236.624C228.349 236.559 228.326 236.484 228.326 236.4C228.326 236.26 228.377 236.087 228.48 235.882C228.592 235.677 228.76 235.476 228.984 235.28C229.208 235.084 229.492 234.921 229.838 234.79C230.192 234.65 230.622 234.58 231.126 234.58C231.686 234.58 232.157 234.655 232.54 234.804C232.922 234.944 233.221 235.135 233.436 235.378C233.66 235.621 233.818 235.896 233.912 236.204C234.014 236.512 234.066 236.825 234.066 237.142V241.678C234.066 241.771 234.033 241.851 233.968 241.916C233.912 241.972 233.837 242 233.744 242H233.1C232.997 242 232.918 241.972 232.862 241.916C232.806 241.851 232.778 241.771 232.778 241.678V241.076C232.656 241.244 232.493 241.412 232.288 241.58C232.082 241.739 231.826 241.874 231.518 241.986C231.21 242.089 230.832 242.14 230.384 242.14ZM230.678 241.09C231.06 241.09 231.41 241.011 231.728 240.852C232.045 240.684 232.292 240.427 232.47 240.082C232.656 239.737 232.75 239.303 232.75 238.78V238.388L231.126 238.626C230.463 238.719 229.964 238.878 229.628 239.102C229.292 239.317 229.124 239.592 229.124 239.928C229.124 240.189 229.198 240.409 229.348 240.586C229.506 240.754 229.702 240.88 229.936 240.964C230.178 241.048 230.426 241.09 230.678 241.09ZM239.972 242C239.449 242 239.025 241.902 238.698 241.706C238.371 241.501 238.133 241.216 237.984 240.852C237.835 240.479 237.76 240.04 237.76 239.536V235.84H236.668C236.575 235.84 236.495 235.812 236.43 235.756C236.374 235.691 236.346 235.611 236.346 235.518V235.042C236.346 234.949 236.374 234.874 236.43 234.818C236.495 234.753 236.575 234.72 236.668 234.72H237.76V232.382C237.76 232.289 237.788 232.214 237.844 232.158C237.909 232.093 237.989 232.06 238.082 232.06H238.74C238.833 232.06 238.908 232.093 238.964 232.158C239.029 232.214 239.062 232.289 239.062 232.382V234.72H240.798C240.891 234.72 240.966 234.753 241.022 234.818C241.087 234.874 241.12 234.949 241.12 235.042V235.518C241.12 235.611 241.087 235.691 241.022 235.756C240.966 235.812 240.891 235.84 240.798 235.84H239.062V239.438C239.062 239.877 239.137 240.222 239.286 240.474C239.435 240.726 239.701 240.852 240.084 240.852H240.938C241.031 240.852 241.106 240.885 241.162 240.95C241.227 241.006 241.26 241.081 241.26 241.174V241.678C241.26 241.771 241.227 241.851 241.162 241.916C241.106 241.972 241.031 242 240.938 242H239.972ZM245.749 242.14C245.282 242.14 244.857 242.047 244.475 241.86C244.092 241.673 243.784 241.421 243.551 241.104C243.317 240.787 243.201 240.427 243.201 240.026C243.201 239.382 243.462 238.869 243.985 238.486C244.507 238.103 245.189 237.851 246.029 237.73L248.115 237.436V237.03C248.115 236.582 247.984 236.232 247.723 235.98C247.471 235.728 247.055 235.602 246.477 235.602C246.057 235.602 245.716 235.686 245.455 235.854C245.203 236.022 245.025 236.237 244.923 236.498C244.867 236.638 244.769 236.708 244.629 236.708H243.999C243.896 236.708 243.817 236.68 243.761 236.624C243.714 236.559 243.691 236.484 243.691 236.4C243.691 236.26 243.742 236.087 243.845 235.882C243.957 235.677 244.125 235.476 244.349 235.28C244.573 235.084 244.857 234.921 245.203 234.79C245.557 234.65 245.987 234.58 246.491 234.58C247.051 234.58 247.522 234.655 247.905 234.804C248.287 234.944 248.586 235.135 248.801 235.378C249.025 235.621 249.183 235.896 249.277 236.204C249.379 236.512 249.431 236.825 249.431 237.142V241.678C249.431 241.771 249.398 241.851 249.333 241.916C249.277 241.972 249.202 242 249.109 242H248.465C248.362 242 248.283 241.972 248.227 241.916C248.171 241.851 248.143 241.771 248.143 241.678V241.076C248.021 241.244 247.858 241.412 247.653 241.58C247.447 241.739 247.191 241.874 246.883 241.986C246.575 242.089 246.197 242.14 245.749 242.14ZM246.043 241.09C246.425 241.09 246.775 241.011 247.093 240.852C247.41 240.684 247.657 240.427 247.835 240.082C248.021 239.737 248.115 239.303 248.115 238.78V238.388L246.491 238.626C245.828 238.719 245.329 238.878 244.993 239.102C244.657 239.317 244.489 239.592 244.489 239.928C244.489 240.189 244.563 240.409 244.713 240.586C244.871 240.754 245.067 240.88 245.301 240.964C245.543 241.048 245.791 241.09 246.043 241.09ZM78.4417 261.14C77.975 261.14 77.5503 261.047 77.1677 260.86C76.785 260.673 76.477 260.421 76.2437 260.104C76.0103 259.787 75.8937 259.427 75.8937 259.026C75.8937 258.382 76.155 257.869 76.6777 257.486C77.2003 257.103 77.8817 256.851 78.7217 256.73L80.8077 256.436V256.03C80.8077 255.582 80.677 255.232 80.4157 254.98C80.1637 254.728 79.7483 254.602 79.1697 254.602C78.7497 254.602 78.409 254.686 78.1477 254.854C77.8957 255.022 77.7183 255.237 77.6157 255.498C77.5597 255.638 77.4617 255.708 77.3217 255.708H76.6917C76.589 255.708 76.5097 255.68 76.4537 255.624C76.407 255.559 76.3837 255.484 76.3837 255.4C76.3837 255.26 76.435 255.087 76.5377 254.882C76.6497 254.677 76.8177 254.476 77.0417 254.28C77.2657 254.084 77.5503 253.921 77.8957 253.79C78.2503 253.65 78.6797 253.58 79.1837 253.58C79.7437 253.58 80.215 253.655 80.5977 253.804C80.9803 253.944 81.279 254.135 81.4937 254.378C81.7177 254.621 81.8763 254.896 81.9697 255.204C82.0723 255.512 82.1237 255.825 82.1237 256.142V260.678C82.1237 260.771 82.091 260.851 82.0257 260.916C81.9697 260.972 81.895 261 81.8017 261H81.1577C81.055 261 80.9757 260.972 80.9197 260.916C80.8637 260.851 80.8357 260.771 80.8357 260.678V260.076C80.7143 260.244 80.551 260.412 80.3457 260.58C80.1403 260.739 79.8837 260.874 79.5757 260.986C79.2677 261.089 78.8897 261.14 78.4417 261.14ZM78.7357 260.09C79.1183 260.09 79.4683 260.011 79.7857 259.852C80.103 259.684 80.3503 259.427 80.5277 259.082C80.7143 258.737 80.8077 258.303 80.8077 257.78V257.388L79.1837 257.626C78.521 257.719 78.0217 257.878 77.6857 258.102C77.3497 258.317 77.1817 258.592 77.1817 258.928C77.1817 259.189 77.2563 259.409 77.4057 259.586C77.5643 259.754 77.7603 259.88 77.9937 259.964C78.2363 260.048 78.4837 260.09 78.7357 260.09ZM88.8543 261.14C88.2943 261.14 87.8276 261.042 87.4543 260.846C87.0809 260.641 86.7823 260.389 86.5583 260.09V260.678C86.5583 260.771 86.5256 260.851 86.4603 260.916C86.4043 260.972 86.3296 261 86.2363 261H85.5923C85.4989 261 85.4196 260.972 85.3543 260.916C85.2983 260.851 85.2703 260.771 85.2703 260.678V251.382C85.2703 251.289 85.2983 251.214 85.3543 251.158C85.4196 251.093 85.4989 251.06 85.5923 251.06H86.2643C86.3669 251.06 86.4463 251.093 86.5023 251.158C86.5583 251.214 86.5863 251.289 86.5863 251.382V254.602C86.8196 254.313 87.1183 254.07 87.4823 253.874C87.8556 253.678 88.3129 253.58 88.8543 253.58C89.3769 253.58 89.8203 253.673 90.1843 253.86C90.5576 254.037 90.8609 254.285 91.0943 254.602C91.3369 254.919 91.5189 255.279 91.6403 255.68C91.7616 256.081 91.8269 256.501 91.8363 256.94C91.8456 257.089 91.8503 257.229 91.8503 257.36C91.8503 257.491 91.8456 257.631 91.8363 257.78C91.8269 258.228 91.7616 258.653 91.6403 259.054C91.5189 259.455 91.3369 259.815 91.0943 260.132C90.8609 260.44 90.5576 260.687 90.1843 260.874C89.8203 261.051 89.3769 261.14 88.8543 261.14ZM88.5603 260.006C89.0456 260.006 89.4236 259.903 89.6943 259.698C89.9743 259.483 90.1749 259.208 90.2963 258.872C90.4176 258.527 90.4876 258.158 90.5063 257.766C90.5156 257.495 90.5156 257.225 90.5063 256.954C90.4876 256.562 90.4176 256.198 90.2963 255.862C90.1749 255.517 89.9743 255.241 89.6943 255.036C89.4236 254.821 89.0456 254.714 88.5603 254.714C88.1216 254.714 87.7576 254.817 87.4683 255.022C87.1789 255.227 86.9596 255.489 86.8103 255.806C86.6703 256.123 86.5956 256.445 86.5863 256.772C86.5769 256.921 86.5723 257.103 86.5723 257.318C86.5723 257.523 86.5769 257.701 86.5863 257.85C86.6049 258.195 86.6796 258.536 86.8103 258.872C86.9503 259.199 87.1603 259.469 87.4403 259.684C87.7296 259.899 88.1029 260.006 88.5603 260.006ZM97.6845 261.14C96.9751 261.14 96.3825 261.005 95.9065 260.734C95.4305 260.463 95.0665 260.09 94.8145 259.614C94.5625 259.129 94.4225 258.578 94.3945 257.962C94.3851 257.803 94.3805 257.603 94.3805 257.36C94.3805 257.108 94.3851 256.907 94.3945 256.758C94.4225 256.133 94.5625 255.582 94.8145 255.106C95.0758 254.63 95.4445 254.257 95.9205 253.986C96.3965 253.715 96.9845 253.58 97.6845 253.58C98.3845 253.58 98.9725 253.715 99.4485 253.986C99.9245 254.257 100.288 254.63 100.54 255.106C100.802 255.582 100.946 256.133 100.974 256.758C100.984 256.907 100.988 257.108 100.988 257.36C100.988 257.603 100.984 257.803 100.974 257.962C100.946 258.578 100.806 259.129 100.554 259.614C100.302 260.09 99.9385 260.463 99.4625 260.734C98.9865 261.005 98.3938 261.14 97.6845 261.14ZM97.6845 260.062C98.2631 260.062 98.7251 259.88 99.0705 259.516C99.4158 259.143 99.6025 258.601 99.6305 257.892C99.6398 257.752 99.6445 257.575 99.6445 257.36C99.6445 257.145 99.6398 256.968 99.6305 256.828C99.6025 256.119 99.4158 255.582 99.0705 255.218C98.7251 254.845 98.2631 254.658 97.6845 254.658C97.1058 254.658 96.6391 254.845 96.2845 255.218C95.9391 255.582 95.7571 256.119 95.7385 256.828C95.7291 256.968 95.7245 257.145 95.7245 257.36C95.7245 257.575 95.7291 257.752 95.7385 257.892C95.7571 258.601 95.9391 259.143 96.2845 259.516C96.6391 259.88 97.1058 260.062 97.6845 260.062ZM106.578 261.14C105.98 261.14 105.472 261.009 105.052 260.748C104.641 260.477 104.328 260.104 104.114 259.628C103.899 259.152 103.792 258.606 103.792 257.99V254.042C103.792 253.949 103.82 253.874 103.876 253.818C103.941 253.753 104.02 253.72 104.114 253.72H104.814C104.907 253.72 104.982 253.753 105.038 253.818C105.103 253.874 105.136 253.949 105.136 254.042V257.92C105.136 259.311 105.742 260.006 106.956 260.006C107.534 260.006 107.996 259.824 108.342 259.46C108.696 259.087 108.874 258.573 108.874 257.92V254.042C108.874 253.949 108.902 253.874 108.958 253.818C109.023 253.753 109.102 253.72 109.196 253.72H109.882C109.984 253.72 110.064 253.753 110.12 253.818C110.176 253.874 110.204 253.949 110.204 254.042V260.678C110.204 260.771 110.176 260.851 110.12 260.916C110.064 260.972 109.984 261 109.882 261H109.238C109.144 261 109.065 260.972 109 260.916C108.944 260.851 108.916 260.771 108.916 260.678V260.062C108.664 260.389 108.356 260.65 107.992 260.846C107.637 261.042 107.166 261.14 106.578 261.14ZM116.245 261C115.723 261 115.298 260.902 114.971 260.706C114.645 260.501 114.407 260.216 114.257 259.852C114.108 259.479 114.033 259.04 114.033 258.536V254.84H112.941C112.848 254.84 112.769 254.812 112.703 254.756C112.647 254.691 112.619 254.611 112.619 254.518V254.042C112.619 253.949 112.647 253.874 112.703 253.818C112.769 253.753 112.848 253.72 112.941 253.72H114.033V251.382C114.033 251.289 114.061 251.214 114.117 251.158C114.183 251.093 114.262 251.06 114.355 251.06H115.013C115.107 251.06 115.181 251.093 115.237 251.158C115.303 251.214 115.335 251.289 115.335 251.382V253.72H117.071C117.165 253.72 117.239 253.753 117.295 253.818C117.361 253.874 117.393 253.949 117.393 254.042V254.518C117.393 254.611 117.361 254.691 117.295 254.756C117.239 254.812 117.165 254.84 117.071 254.84H115.335V258.438C115.335 258.877 115.41 259.222 115.559 259.474C115.709 259.726 115.975 259.852 116.357 259.852H117.211C117.305 259.852 117.379 259.885 117.435 259.95C117.501 260.006 117.533 260.081 117.533 260.174V260.678C117.533 260.771 117.501 260.851 117.435 260.916C117.379 260.972 117.305 261 117.211 261H116.245ZM127.526 261.14C126.816 261.14 126.224 261.005 125.748 260.734C125.272 260.463 124.908 260.09 124.656 259.614C124.404 259.129 124.264 258.578 124.236 257.962C124.226 257.803 124.222 257.603 124.222 257.36C124.222 257.108 124.226 256.907 124.236 256.758C124.264 256.133 124.404 255.582 124.656 255.106C124.917 254.63 125.286 254.257 125.762 253.986C126.238 253.715 126.826 253.58 127.526 253.58C128.226 253.58 128.814 253.715 129.29 253.986C129.766 254.257 130.13 254.63 130.382 255.106C130.643 255.582 130.788 256.133 130.816 256.758C130.825 256.907 130.83 257.108 130.83 257.36C130.83 257.603 130.825 257.803 130.816 257.962C130.788 258.578 130.648 259.129 130.396 259.614C130.144 260.09 129.78 260.463 129.304 260.734C128.828 261.005 128.235 261.14 127.526 261.14ZM127.526 260.062C128.104 260.062 128.566 259.88 128.912 259.516C129.257 259.143 129.444 258.601 129.472 257.892C129.481 257.752 129.486 257.575 129.486 257.36C129.486 257.145 129.481 256.968 129.472 256.828C129.444 256.119 129.257 255.582 128.912 255.218C128.566 254.845 128.104 254.658 127.526 254.658C126.947 254.658 126.48 254.845 126.126 255.218C125.78 255.582 125.598 256.119 125.58 256.828C125.57 256.968 125.566 257.145 125.566 257.36C125.566 257.575 125.57 257.752 125.58 257.892C125.598 258.601 125.78 259.143 126.126 259.516C126.48 259.88 126.947 260.062 127.526 260.062ZM136.419 261.14C135.822 261.14 135.313 261.009 134.893 260.748C134.482 260.477 134.17 260.104 133.955 259.628C133.74 259.152 133.633 258.606 133.633 257.99V254.042C133.633 253.949 133.661 253.874 133.717 253.818C133.782 253.753 133.862 253.72 133.955 253.72H134.655C134.748 253.72 134.823 253.753 134.879 253.818C134.944 253.874 134.977 253.949 134.977 254.042V257.92C134.977 259.311 135.584 260.006 136.797 260.006C137.376 260.006 137.838 259.824 138.183 259.46C138.538 259.087 138.715 258.573 138.715 257.92V254.042C138.715 253.949 138.743 253.874 138.799 253.818C138.864 253.753 138.944 253.72 139.037 253.72H139.723C139.826 253.72 139.905 253.753 139.961 253.818C140.017 253.874 140.045 253.949 140.045 254.042V260.678C140.045 260.771 140.017 260.851 139.961 260.916C139.905 260.972 139.826 261 139.723 261H139.079C138.986 261 138.906 260.972 138.841 260.916C138.785 260.851 138.757 260.771 138.757 260.678V260.062C138.505 260.389 138.197 260.65 137.833 260.846C137.478 261.042 137.007 261.14 136.419 261.14ZM143.567 261C143.473 261 143.394 260.972 143.329 260.916C143.273 260.851 143.245 260.771 143.245 260.678V254.056C143.245 253.963 143.273 253.883 143.329 253.818C143.394 253.753 143.473 253.72 143.567 253.72H144.211C144.304 253.72 144.383 253.753 144.449 253.818C144.514 253.883 144.547 253.963 144.547 254.056V254.672C144.733 254.355 144.99 254.117 145.317 253.958C145.643 253.799 146.035 253.72 146.493 253.72H147.053C147.146 253.72 147.221 253.753 147.277 253.818C147.333 253.874 147.361 253.949 147.361 254.042V254.616C147.361 254.709 147.333 254.784 147.277 254.84C147.221 254.896 147.146 254.924 147.053 254.924H146.213C145.709 254.924 145.312 255.073 145.023 255.372C144.733 255.661 144.589 256.058 144.589 256.562V260.678C144.589 260.771 144.556 260.851 144.491 260.916C144.425 260.972 144.346 261 144.253 261H143.567ZM156.847 261.14C156.184 261.14 155.61 261.014 155.125 260.762C154.649 260.501 154.28 260.132 154.019 259.656C153.757 259.171 153.617 258.592 153.599 257.92C153.589 257.78 153.585 257.593 153.585 257.36C153.585 257.127 153.589 256.94 153.599 256.8C153.617 256.128 153.757 255.554 154.019 255.078C154.28 254.593 154.649 254.224 155.125 253.972C155.61 253.711 156.184 253.58 156.847 253.58C157.388 253.58 157.85 253.655 158.233 253.804C158.625 253.953 158.947 254.145 159.199 254.378C159.451 254.611 159.637 254.863 159.759 255.134C159.889 255.405 159.959 255.661 159.969 255.904C159.978 255.997 159.95 256.072 159.885 256.128C159.819 256.184 159.74 256.212 159.647 256.212H158.975C158.881 256.212 158.811 256.193 158.765 256.156C158.718 256.109 158.671 256.035 158.625 255.932C158.457 255.475 158.228 255.153 157.939 254.966C157.649 254.779 157.29 254.686 156.861 254.686C156.301 254.686 155.843 254.859 155.489 255.204C155.143 255.549 154.957 256.105 154.929 256.87C154.919 257.206 154.919 257.533 154.929 257.85C154.957 258.625 155.143 259.185 155.489 259.53C155.843 259.866 156.301 260.034 156.861 260.034C157.29 260.034 157.649 259.941 157.939 259.754C158.228 259.567 158.457 259.245 158.625 258.788C158.671 258.685 158.718 258.615 158.765 258.578C158.811 258.531 158.881 258.508 158.975 258.508H159.647C159.74 258.508 159.819 258.536 159.885 258.592C159.95 258.648 159.978 258.723 159.969 258.816C159.959 259.012 159.917 259.213 159.843 259.418C159.768 259.623 159.647 259.833 159.479 260.048C159.32 260.253 159.119 260.44 158.877 260.608C158.634 260.767 158.34 260.897 157.995 261C157.659 261.093 157.276 261.14 156.847 261.14ZM165.467 261.14C164.87 261.14 164.361 261.009 163.941 260.748C163.531 260.477 163.218 260.104 163.003 259.628C162.789 259.152 162.681 258.606 162.681 257.99V254.042C162.681 253.949 162.709 253.874 162.765 253.818C162.831 253.753 162.91 253.72 163.003 253.72H163.703C163.797 253.72 163.871 253.753 163.927 253.818C163.993 253.874 164.025 253.949 164.025 254.042V257.92C164.025 259.311 164.632 260.006 165.845 260.006C166.424 260.006 166.886 259.824 167.231 259.46C167.586 259.087 167.763 258.573 167.763 257.92V254.042C167.763 253.949 167.791 253.874 167.847 253.818C167.913 253.753 167.992 253.72 168.085 253.72H168.771C168.874 253.72 168.953 253.753 169.009 253.818C169.065 253.874 169.093 253.949 169.093 254.042V260.678C169.093 260.771 169.065 260.851 169.009 260.916C168.953 260.972 168.874 261 168.771 261H168.127C168.034 261 167.955 260.972 167.889 260.916C167.833 260.851 167.805 260.771 167.805 260.678V260.062C167.553 260.389 167.245 260.65 166.881 260.846C166.527 261.042 166.055 261.14 165.467 261.14ZM174.813 261.14C174.29 261.14 173.842 261.075 173.469 260.944C173.096 260.813 172.792 260.655 172.559 260.468C172.326 260.281 172.148 260.095 172.027 259.908C171.915 259.721 171.854 259.572 171.845 259.46C171.836 259.357 171.868 259.278 171.943 259.222C172.018 259.166 172.092 259.138 172.167 259.138H172.783C172.839 259.138 172.881 259.147 172.909 259.166C172.946 259.175 172.993 259.213 173.049 259.278C173.17 259.409 173.306 259.539 173.455 259.67C173.604 259.801 173.786 259.908 174.001 259.992C174.225 260.076 174.5 260.118 174.827 260.118C175.303 260.118 175.695 260.029 176.003 259.852C176.311 259.665 176.465 259.395 176.465 259.04C176.465 258.807 176.4 258.62 176.269 258.48C176.148 258.34 175.924 258.214 175.597 258.102C175.28 257.99 174.841 257.873 174.281 257.752C173.721 257.621 173.278 257.463 172.951 257.276C172.624 257.08 172.391 256.851 172.251 256.59C172.111 256.319 172.041 256.016 172.041 255.68C172.041 255.335 172.144 255.003 172.349 254.686C172.554 254.359 172.853 254.093 173.245 253.888C173.646 253.683 174.146 253.58 174.743 253.58C175.228 253.58 175.644 253.641 175.989 253.762C176.334 253.883 176.619 254.037 176.843 254.224C177.067 254.401 177.235 254.579 177.347 254.756C177.459 254.933 177.52 255.083 177.529 255.204C177.538 255.297 177.51 255.377 177.445 255.442C177.38 255.498 177.305 255.526 177.221 255.526H176.633C176.568 255.526 176.512 255.512 176.465 255.484C176.428 255.456 176.39 255.423 176.353 255.386C176.26 255.265 176.148 255.143 176.017 255.022C175.896 254.901 175.732 254.803 175.527 254.728C175.331 254.644 175.07 254.602 174.743 254.602C174.276 254.602 173.926 254.7 173.693 254.896C173.46 255.092 173.343 255.339 173.343 255.638C173.343 255.815 173.394 255.974 173.497 256.114C173.6 256.254 173.796 256.38 174.085 256.492C174.374 256.604 174.804 256.725 175.373 256.856C175.989 256.977 176.474 257.141 176.829 257.346C177.184 257.551 177.436 257.789 177.585 258.06C177.734 258.331 177.809 258.643 177.809 258.998C177.809 259.39 177.692 259.749 177.459 260.076C177.235 260.403 176.899 260.664 176.451 260.86C176.012 261.047 175.466 261.14 174.813 261.14ZM183.378 261C182.855 261 182.431 260.902 182.104 260.706C181.777 260.501 181.539 260.216 181.39 259.852C181.241 259.479 181.166 259.04 181.166 258.536V254.84H180.074C179.981 254.84 179.901 254.812 179.836 254.756C179.78 254.691 179.752 254.611 179.752 254.518V254.042C179.752 253.949 179.78 253.874 179.836 253.818C179.901 253.753 179.981 253.72 180.074 253.72H181.166V251.382C181.166 251.289 181.194 251.214 181.25 251.158C181.315 251.093 181.395 251.06 181.488 251.06H182.146C182.239 251.06 182.314 251.093 182.37 251.158C182.435 251.214 182.468 251.289 182.468 251.382V253.72H184.204C184.297 253.72 184.372 253.753 184.428 253.818C184.493 253.874 184.526 253.949 184.526 254.042V254.518C184.526 254.611 184.493 254.691 184.428 254.756C184.372 254.812 184.297 254.84 184.204 254.84H182.468V258.438C182.468 258.877 182.543 259.222 182.692 259.474C182.841 259.726 183.107 259.852 183.49 259.852H184.344C184.437 259.852 184.512 259.885 184.568 259.95C184.633 260.006 184.666 260.081 184.666 260.174V260.678C184.666 260.771 184.633 260.851 184.568 260.916C184.512 260.972 184.437 261 184.344 261H183.378ZM190.107 261.14C189.398 261.14 188.805 261.005 188.329 260.734C187.853 260.463 187.489 260.09 187.237 259.614C186.985 259.129 186.845 258.578 186.817 257.962C186.808 257.803 186.803 257.603 186.803 257.36C186.803 257.108 186.808 256.907 186.817 256.758C186.845 256.133 186.985 255.582 187.237 255.106C187.498 254.63 187.867 254.257 188.343 253.986C188.819 253.715 189.407 253.58 190.107 253.58C190.807 253.58 191.395 253.715 191.871 253.986C192.347 254.257 192.711 254.63 192.963 255.106C193.224 255.582 193.369 256.133 193.397 256.758C193.406 256.907 193.411 257.108 193.411 257.36C193.411 257.603 193.406 257.803 193.397 257.962C193.369 258.578 193.229 259.129 192.977 259.614C192.725 260.09 192.361 260.463 191.885 260.734C191.409 261.005 190.816 261.14 190.107 261.14ZM190.107 260.062C190.686 260.062 191.148 259.88 191.493 259.516C191.838 259.143 192.025 258.601 192.053 257.892C192.062 257.752 192.067 257.575 192.067 257.36C192.067 257.145 192.062 256.968 192.053 256.828C192.025 256.119 191.838 255.582 191.493 255.218C191.148 254.845 190.686 254.658 190.107 254.658C189.528 254.658 189.062 254.845 188.707 255.218C188.362 255.582 188.18 256.119 188.161 256.828C188.152 256.968 188.147 257.145 188.147 257.36C188.147 257.575 188.152 257.752 188.161 257.892C188.18 258.601 188.362 259.143 188.707 259.516C189.062 259.88 189.528 260.062 190.107 260.062ZM196.606 261C196.513 261 196.433 260.972 196.368 260.916C196.312 260.851 196.284 260.771 196.284 260.678V254.042C196.284 253.949 196.312 253.874 196.368 253.818C196.433 253.753 196.513 253.72 196.606 253.72H197.236C197.329 253.72 197.404 253.753 197.46 253.818C197.525 253.874 197.558 253.949 197.558 254.042V254.532C197.773 254.243 198.043 254.014 198.37 253.846C198.697 253.669 199.089 253.58 199.546 253.58C200.601 253.571 201.347 254 201.786 254.868C202.001 254.476 202.313 254.163 202.724 253.93C203.135 253.697 203.601 253.58 204.124 253.58C204.609 253.58 205.048 253.692 205.44 253.916C205.841 254.14 206.154 254.481 206.378 254.938C206.611 255.386 206.728 255.951 206.728 256.632V260.678C206.728 260.771 206.695 260.851 206.63 260.916C206.574 260.972 206.499 261 206.406 261H205.748C205.655 261 205.575 260.972 205.51 260.916C205.454 260.851 205.426 260.771 205.426 260.678V256.758C205.426 256.235 205.351 255.825 205.202 255.526C205.053 255.227 204.852 255.017 204.6 254.896C204.348 254.775 204.073 254.714 203.774 254.714C203.531 254.714 203.284 254.775 203.032 254.896C202.78 255.017 202.57 255.227 202.402 255.526C202.243 255.825 202.164 256.235 202.164 256.758V260.678C202.164 260.771 202.131 260.851 202.066 260.916C202.01 260.972 201.935 261 201.842 261H201.184C201.091 261 201.011 260.972 200.946 260.916C200.89 260.851 200.862 260.771 200.862 260.678V256.758C200.862 256.235 200.783 255.825 200.624 255.526C200.465 255.227 200.26 255.017 200.008 254.896C199.756 254.775 199.49 254.714 199.21 254.714C198.967 254.714 198.72 254.775 198.468 254.896C198.216 255.017 198.006 255.227 197.838 255.526C197.679 255.825 197.6 256.231 197.6 256.744V260.678C197.6 260.771 197.567 260.851 197.502 260.916C197.446 260.972 197.371 261 197.278 261H196.606ZM212.743 261.14C211.782 261.14 211.017 260.846 210.447 260.258C209.878 259.661 209.565 258.849 209.509 257.822C209.5 257.701 209.495 257.547 209.495 257.36C209.495 257.164 209.5 257.005 209.509 256.884C209.547 256.221 209.701 255.643 209.971 255.148C210.242 254.644 210.611 254.257 211.077 253.986C211.553 253.715 212.109 253.58 212.743 253.58C213.453 253.58 214.045 253.729 214.521 254.028C215.007 254.327 215.375 254.751 215.627 255.302C215.879 255.853 216.005 256.497 216.005 257.234V257.472C216.005 257.575 215.973 257.654 215.907 257.71C215.851 257.766 215.777 257.794 215.683 257.794H210.839C210.839 257.803 210.839 257.822 210.839 257.85C210.839 257.878 210.839 257.901 210.839 257.92C210.858 258.303 210.942 258.662 211.091 258.998C211.241 259.325 211.455 259.591 211.735 259.796C212.015 260.001 212.351 260.104 212.743 260.104C213.079 260.104 213.359 260.053 213.583 259.95C213.807 259.847 213.989 259.735 214.129 259.614C214.269 259.483 214.363 259.385 214.409 259.32C214.493 259.199 214.559 259.129 214.605 259.11C214.652 259.082 214.727 259.068 214.829 259.068H215.501C215.595 259.068 215.669 259.096 215.725 259.152C215.791 259.199 215.819 259.269 215.809 259.362C215.8 259.502 215.725 259.675 215.585 259.88C215.445 260.076 215.245 260.272 214.983 260.468C214.722 260.664 214.405 260.827 214.031 260.958C213.658 261.079 213.229 261.14 212.743 261.14ZM210.839 256.828H214.675V256.786C214.675 256.366 214.596 255.993 214.437 255.666C214.288 255.339 214.069 255.083 213.779 254.896C213.49 254.7 213.145 254.602 212.743 254.602C212.342 254.602 211.997 254.7 211.707 254.896C211.427 255.083 211.213 255.339 211.063 255.666C210.914 255.993 210.839 256.366 210.839 256.786V256.828ZM219.121 261C219.028 261 218.949 260.972 218.883 260.916C218.827 260.851 218.799 260.771 218.799 260.678V254.056C218.799 253.963 218.827 253.883 218.883 253.818C218.949 253.753 219.028 253.72 219.121 253.72H219.765C219.859 253.72 219.938 253.753 220.003 253.818C220.069 253.883 220.101 253.963 220.101 254.056V254.672C220.288 254.355 220.545 254.117 220.871 253.958C221.198 253.799 221.59 253.72 222.047 253.72H222.607C222.701 253.72 222.775 253.753 222.831 253.818C222.887 253.874 222.915 253.949 222.915 254.042V254.616C222.915 254.709 222.887 254.784 222.831 254.84C222.775 254.896 222.701 254.924 222.607 254.924H221.767C221.263 254.924 220.867 255.073 220.577 255.372C220.288 255.661 220.143 256.058 220.143 256.562V260.678C220.143 260.771 220.111 260.851 220.045 260.916C219.98 260.972 219.901 261 219.807 261H219.121ZM227.758 261.14C227.235 261.14 226.787 261.075 226.414 260.944C226.04 260.813 225.737 260.655 225.504 260.468C225.27 260.281 225.093 260.095 224.972 259.908C224.86 259.721 224.799 259.572 224.79 259.46C224.78 259.357 224.813 259.278 224.888 259.222C224.962 259.166 225.037 259.138 225.112 259.138H225.728C225.784 259.138 225.826 259.147 225.854 259.166C225.891 259.175 225.938 259.213 225.994 259.278C226.115 259.409 226.25 259.539 226.4 259.67C226.549 259.801 226.731 259.908 226.946 259.992C227.17 260.076 227.445 260.118 227.772 260.118C228.248 260.118 228.64 260.029 228.948 259.852C229.256 259.665 229.41 259.395 229.41 259.04C229.41 258.807 229.344 258.62 229.214 258.48C229.092 258.34 228.868 258.214 228.542 258.102C228.224 257.99 227.786 257.873 227.226 257.752C226.666 257.621 226.222 257.463 225.896 257.276C225.569 257.08 225.336 256.851 225.196 256.59C225.056 256.319 224.986 256.016 224.986 255.68C224.986 255.335 225.088 255.003 225.294 254.686C225.499 254.359 225.798 254.093 226.19 253.888C226.591 253.683 227.09 253.58 227.688 253.58C228.173 253.58 228.588 253.641 228.934 253.762C229.279 253.883 229.564 254.037 229.788 254.224C230.012 254.401 230.18 254.579 230.292 254.756C230.404 254.933 230.464 255.083 230.474 255.204C230.483 255.297 230.455 255.377 230.39 255.442C230.324 255.498 230.25 255.526 230.166 255.526H229.578C229.512 255.526 229.456 255.512 229.41 255.484C229.372 255.456 229.335 255.423 229.298 255.386C229.204 255.265 229.092 255.143 228.962 255.022C228.84 254.901 228.677 254.803 228.472 254.728C228.276 254.644 228.014 254.602 227.688 254.602C227.221 254.602 226.871 254.7 226.638 254.896C226.404 255.092 226.288 255.339 226.288 255.638C226.288 255.815 226.339 255.974 226.442 256.114C226.544 256.254 226.74 256.38 227.03 256.492C227.319 256.604 227.748 256.725 228.318 256.856C228.934 256.977 229.419 257.141 229.774 257.346C230.128 257.551 230.38 257.789 230.53 258.06C230.679 258.331 230.754 258.643 230.754 258.998C230.754 259.39 230.637 259.749 230.404 260.076C230.18 260.403 229.844 260.664 229.396 260.86C228.957 261.047 228.411 261.14 227.758 261.14Z" fill="white"/>
<path d="M92.7429 206C92.6109 206 92.5029 205.958 92.4189 205.874C92.3349 205.79 92.2929 205.682 92.2929 205.55V193.85C92.2929 193.718 92.3349 193.61 92.4189 193.526C92.5029 193.442 92.6109 193.4 92.7429 193.4H101.005C101.137 193.4 101.245 193.442 101.329 193.526C101.425 193.61 101.473 193.718 101.473 193.85V195.668C101.473 195.8 101.425 195.908 101.329 195.992C101.245 196.076 101.137 196.118 101.005 196.118H95.4609V198.764H100.645C100.777 198.764 100.885 198.812 100.969 198.908C101.065 198.992 101.113 199.1 101.113 199.232V201.032C101.113 201.152 101.065 201.26 100.969 201.356C100.885 201.44 100.777 201.482 100.645 201.482H95.4609V205.55C95.4609 205.682 95.4189 205.79 95.3349 205.874C95.2509 205.958 95.1429 206 95.0109 206H92.7429ZM107.994 206.18C107.31 206.18 106.698 206.024 106.158 205.712C105.63 205.4 105.216 204.944 104.916 204.344C104.616 203.732 104.466 202.988 104.466 202.112V197.09C104.466 196.958 104.508 196.85 104.592 196.766C104.676 196.682 104.784 196.64 104.916 196.64H107.166C107.298 196.64 107.406 196.682 107.49 196.766C107.574 196.85 107.616 196.958 107.616 197.09V202.004C107.616 203.18 108.144 203.768 109.2 203.768C109.692 203.768 110.082 203.618 110.37 203.318C110.67 203.006 110.82 202.568 110.82 202.004V197.09C110.82 196.958 110.862 196.85 110.946 196.766C111.03 196.682 111.138 196.64 111.27 196.64H113.52C113.652 196.64 113.76 196.682 113.844 196.766C113.928 196.85 113.97 196.958 113.97 197.09V205.55C113.97 205.682 113.928 205.79 113.844 205.874C113.76 205.958 113.652 206 113.52 206H111.432C111.312 206 111.204 205.958 111.108 205.874C111.024 205.79 110.982 205.682 110.982 205.55V204.866C110.67 205.298 110.262 205.628 109.758 205.856C109.266 206.072 108.678 206.18 107.994 206.18ZM117.978 206C117.846 206 117.738 205.958 117.654 205.874C117.57 205.79 117.528 205.682 117.528 205.55V193.67C117.528 193.538 117.57 193.43 117.654 193.346C117.738 193.262 117.846 193.22 117.978 193.22H120.102C120.234 193.22 120.342 193.262 120.426 193.346C120.51 193.43 120.552 193.538 120.552 193.67V205.55C120.552 205.682 120.51 205.79 120.426 205.874C120.342 205.958 120.234 206 120.102 206H117.978ZM124.568 206C124.436 206 124.328 205.958 124.244 205.874C124.16 205.79 124.118 205.682 124.118 205.55V193.67C124.118 193.538 124.16 193.43 124.244 193.346C124.328 193.262 124.436 193.22 124.568 193.22H126.692C126.824 193.22 126.932 193.262 127.016 193.346C127.1 193.43 127.142 193.538 127.142 193.67V205.55C127.142 205.682 127.1 205.79 127.016 205.874C126.932 205.958 126.824 206 126.692 206H124.568ZM139.832 206.18C139.052 206.18 138.386 206.096 137.834 205.928C137.294 205.748 136.85 205.532 136.502 205.28C136.166 205.028 135.914 204.77 135.746 204.506C135.578 204.23 135.488 203.996 135.476 203.804C135.464 203.672 135.506 203.564 135.602 203.48C135.698 203.384 135.8 203.336 135.908 203.336H137.96C137.996 203.336 138.026 203.342 138.05 203.354C138.074 203.366 138.11 203.39 138.158 203.426C138.314 203.51 138.47 203.618 138.626 203.75C138.782 203.87 138.962 203.978 139.166 204.074C139.37 204.17 139.616 204.218 139.904 204.218C140.24 204.218 140.522 204.152 140.75 204.02C140.978 203.888 141.092 203.69 141.092 203.426C141.092 203.234 141.038 203.078 140.93 202.958C140.822 202.826 140.6 202.7 140.264 202.58C139.94 202.46 139.448 202.34 138.788 202.22C138.164 202.076 137.618 201.89 137.15 201.662C136.682 201.422 136.322 201.116 136.07 200.744C135.818 200.36 135.692 199.898 135.692 199.358C135.692 198.878 135.848 198.416 136.16 197.972C136.472 197.528 136.928 197.168 137.528 196.892C138.128 196.604 138.866 196.46 139.742 196.46C140.438 196.46 141.038 196.544 141.542 196.712C142.058 196.868 142.49 197.072 142.838 197.324C143.198 197.576 143.468 197.834 143.648 198.098C143.828 198.362 143.924 198.602 143.936 198.818C143.948 198.938 143.912 199.046 143.828 199.142C143.744 199.226 143.648 199.268 143.54 199.268H141.668C141.62 199.268 141.572 199.262 141.524 199.25C141.476 199.226 141.434 199.202 141.398 199.178C141.254 199.106 141.11 199.01 140.966 198.89C140.822 198.77 140.654 198.662 140.462 198.566C140.27 198.47 140.03 198.422 139.742 198.422C139.418 198.422 139.166 198.494 138.986 198.638C138.806 198.782 138.716 198.968 138.716 199.196C138.716 199.352 138.764 199.496 138.86 199.628C138.968 199.76 139.178 199.88 139.49 199.988C139.814 200.096 140.312 200.216 140.984 200.348C141.812 200.48 142.472 200.696 142.964 200.996C143.456 201.284 143.804 201.626 144.008 202.022C144.212 202.406 144.314 202.814 144.314 203.246C144.314 203.822 144.14 204.332 143.792 204.776C143.456 205.22 142.952 205.568 142.28 205.82C141.608 206.06 140.792 206.18 139.832 206.18ZM151.69 206.18C150.274 206.18 149.146 205.796 148.306 205.028C147.466 204.26 147.028 203.12 146.992 201.608C146.992 201.524 146.992 201.416 146.992 201.284C146.992 201.152 146.992 201.05 146.992 200.978C147.028 200.03 147.238 199.22 147.622 198.548C148.018 197.864 148.558 197.348 149.242 197C149.938 196.64 150.748 196.46 151.672 196.46C152.728 196.46 153.598 196.67 154.282 197.09C154.978 197.51 155.5 198.08 155.848 198.8C156.196 199.52 156.37 200.342 156.37 201.266V201.698C156.37 201.83 156.322 201.938 156.226 202.022C156.142 202.106 156.04 202.148 155.92 202.148H150.16C150.16 202.16 150.16 202.178 150.16 202.202C150.16 202.226 150.16 202.25 150.16 202.274C150.172 202.622 150.232 202.94 150.34 203.228C150.448 203.516 150.616 203.744 150.844 203.912C151.072 204.08 151.348 204.164 151.672 204.164C151.912 204.164 152.11 204.128 152.266 204.056C152.434 203.972 152.572 203.882 152.68 203.786C152.788 203.678 152.872 203.588 152.932 203.516C153.04 203.396 153.124 203.324 153.184 203.3C153.256 203.264 153.364 203.246 153.508 203.246H155.74C155.86 203.246 155.956 203.282 156.028 203.354C156.112 203.414 156.148 203.504 156.136 203.624C156.124 203.828 156.022 204.074 155.83 204.362C155.638 204.65 155.356 204.938 154.984 205.226C154.624 205.502 154.168 205.73 153.616 205.91C153.064 206.09 152.422 206.18 151.69 206.18ZM150.16 200.366H153.202V200.33C153.202 199.946 153.142 199.61 153.022 199.322C152.914 199.034 152.74 198.812 152.5 198.656C152.272 198.5 151.996 198.422 151.672 198.422C151.348 198.422 151.072 198.5 150.844 198.656C150.628 198.812 150.46 199.034 150.34 199.322C150.22 199.61 150.16 199.946 150.16 200.33V200.366ZM163.799 206.18C162.911 206.18 162.125 206.018 161.441 205.694C160.757 205.37 160.211 204.902 159.803 204.29C159.407 203.666 159.191 202.922 159.155 202.058C159.143 201.866 159.137 201.626 159.137 201.338C159.137 201.038 159.143 200.792 159.155 200.6C159.191 199.724 159.407 198.98 159.803 198.368C160.199 197.744 160.739 197.27 161.423 196.946C162.119 196.622 162.911 196.46 163.799 196.46C164.627 196.46 165.335 196.58 165.923 196.82C166.511 197.048 166.991 197.336 167.363 197.684C167.735 198.032 168.011 198.392 168.191 198.764C168.383 199.124 168.485 199.442 168.497 199.718C168.509 199.838 168.467 199.946 168.371 200.042C168.275 200.126 168.167 200.168 168.047 200.168H165.761C165.629 200.168 165.527 200.138 165.455 200.078C165.383 200.018 165.317 199.928 165.257 199.808C165.113 199.436 164.927 199.172 164.699 199.016C164.483 198.86 164.201 198.782 163.853 198.782C163.373 198.782 163.001 198.938 162.737 199.25C162.485 199.562 162.347 200.042 162.323 200.69C162.311 201.17 162.311 201.596 162.323 201.968C162.347 202.628 162.485 203.108 162.737 203.408C163.001 203.708 163.373 203.858 163.853 203.858C164.225 203.858 164.519 203.78 164.735 203.624C164.951 203.468 165.125 203.204 165.257 202.832C165.317 202.712 165.383 202.622 165.455 202.562C165.527 202.502 165.629 202.472 165.761 202.472H168.047C168.167 202.472 168.275 202.52 168.371 202.616C168.467 202.7 168.509 202.802 168.497 202.922C168.485 203.126 168.425 203.366 168.317 203.642C168.209 203.906 168.041 204.188 167.813 204.488C167.585 204.788 167.285 205.07 166.913 205.334C166.553 205.586 166.115 205.79 165.599 205.946C165.083 206.102 164.483 206.18 163.799 206.18ZM174.992 206.18C174.308 206.18 173.696 206.024 173.156 205.712C172.628 205.4 172.214 204.944 171.914 204.344C171.614 203.732 171.464 202.988 171.464 202.112V197.09C171.464 196.958 171.506 196.85 171.59 196.766C171.674 196.682 171.782 196.64 171.914 196.64H174.164C174.296 196.64 174.404 196.682 174.488 196.766C174.572 196.85 174.614 196.958 174.614 197.09V202.004C174.614 203.18 175.142 203.768 176.198 203.768C176.69 203.768 177.08 203.618 177.368 203.318C177.668 203.006 177.818 202.568 177.818 202.004V197.09C177.818 196.958 177.86 196.85 177.944 196.766C178.028 196.682 178.136 196.64 178.268 196.64H180.518C180.65 196.64 180.758 196.682 180.842 196.766C180.926 196.85 180.968 196.958 180.968 197.09V205.55C180.968 205.682 180.926 205.79 180.842 205.874C180.758 205.958 180.65 206 180.518 206H178.43C178.31 206 178.202 205.958 178.106 205.874C178.022 205.79 177.98 205.682 177.98 205.55V204.866C177.668 205.298 177.26 205.628 176.756 205.856C176.264 206.072 175.676 206.18 174.992 206.18ZM184.976 206C184.844 206 184.736 205.958 184.652 205.874C184.568 205.79 184.526 205.682 184.526 205.55V197.09C184.526 196.97 184.568 196.868 184.652 196.784C184.736 196.688 184.844 196.64 184.976 196.64H187.046C187.178 196.64 187.286 196.688 187.37 196.784C187.454 196.868 187.496 196.97 187.496 197.09V197.81C187.82 197.438 188.204 197.15 188.648 196.946C189.104 196.742 189.614 196.64 190.178 196.64H190.97C191.09 196.64 191.192 196.682 191.276 196.766C191.372 196.85 191.42 196.958 191.42 197.09V198.944C191.42 199.064 191.372 199.172 191.276 199.268C191.192 199.352 191.09 199.394 190.97 199.394H189.224C188.732 199.394 188.348 199.532 188.072 199.808C187.808 200.072 187.676 200.45 187.676 200.942V205.55C187.676 205.682 187.628 205.79 187.532 205.874C187.448 205.958 187.34 206 187.208 206H184.976ZM194.589 206C194.457 206 194.349 205.958 194.265 205.874C194.181 205.79 194.139 205.682 194.139 205.55V197.09C194.139 196.958 194.181 196.85 194.265 196.766C194.349 196.682 194.457 196.64 194.589 196.64H196.713C196.833 196.64 196.935 196.682 197.019 196.766C197.115 196.85 197.163 196.958 197.163 197.09V205.55C197.163 205.682 197.115 205.79 197.019 205.874C196.935 205.958 196.833 206 196.713 206H194.589ZM194.571 195.29C194.439 195.29 194.331 195.248 194.247 195.164C194.163 195.08 194.121 194.972 194.121 194.84V193.238C194.121 193.106 194.163 192.998 194.247 192.914C194.331 192.818 194.439 192.77 194.571 192.77H196.713C196.845 192.77 196.953 192.818 197.037 192.914C197.133 192.998 197.181 193.106 197.181 193.238V194.84C197.181 194.972 197.133 195.08 197.037 195.164C196.953 195.248 196.845 195.29 196.713 195.29H194.571ZM205.5 206C204.732 206 204.066 205.88 203.502 205.64C202.95 205.388 202.524 205.004 202.224 204.488C201.924 203.96 201.774 203.282 201.774 202.454V198.998H200.37C200.238 198.998 200.124 198.956 200.028 198.872C199.944 198.788 199.902 198.68 199.902 198.548V197.09C199.902 196.958 199.944 196.85 200.028 196.766C200.124 196.682 200.238 196.64 200.37 196.64H201.774V193.67C201.774 193.538 201.816 193.43 201.9 193.346C201.996 193.262 202.104 193.22 202.224 193.22H204.312C204.444 193.22 204.552 193.262 204.636 193.346C204.72 193.43 204.762 193.538 204.762 193.67V196.64H207.012C207.144 196.64 207.252 196.682 207.336 196.766C207.42 196.85 207.462 196.958 207.462 197.09V198.548C207.462 198.68 207.42 198.788 207.336 198.872C207.252 198.956 207.144 198.998 207.012 198.998H204.762V202.202C204.762 202.61 204.84 202.934 204.996 203.174C205.152 203.414 205.416 203.534 205.788 203.534H207.174C207.306 203.534 207.414 203.576 207.498 203.66C207.582 203.744 207.624 203.852 207.624 203.984V205.55C207.624 205.682 207.582 205.79 207.498 205.874C207.414 205.958 207.306 206 207.174 206H205.5ZM212.301 209.42C212.193 209.42 212.103 209.384 212.031 209.312C211.959 209.24 211.923 209.15 211.923 209.042C211.923 209.018 211.923 208.982 211.923 208.934C211.935 208.898 211.953 208.856 211.977 208.808L213.381 205.424L209.925 197.252C209.889 197.168 209.871 197.096 209.871 197.036C209.895 196.928 209.943 196.838 210.015 196.766C210.087 196.682 210.177 196.64 210.285 196.64H212.337C212.493 196.64 212.607 196.682 212.679 196.766C212.763 196.838 212.817 196.922 212.841 197.018L214.911 202.256L217.017 197.018C217.065 196.922 217.125 196.838 217.197 196.766C217.281 196.682 217.401 196.64 217.557 196.64H219.573C219.681 196.64 219.771 196.682 219.843 196.766C219.927 196.838 219.969 196.922 219.969 197.018C219.969 197.078 219.951 197.156 219.915 197.252L214.821 209.042C214.785 209.138 214.725 209.222 214.641 209.294C214.557 209.378 214.437 209.42 214.281 209.42H212.301Z" fill="white"/>
<path d="M203.687 56.8125C202.961 56.2251 202.113 55.8079 201.204 55.5916C200.296 55.3753 199.35 55.3653 198.437 55.5625C191.759 56.9621 184.865 56.98 178.179 55.6149C171.493 54.2498 165.158 51.5307 159.562 47.625C158.516 46.8992 157.273 46.5103 156 46.5103C154.727 46.5103 153.484 46.8992 152.437 47.625C146.842 51.5307 140.507 54.2498 133.821 55.6149C127.135 56.98 120.241 56.9621 113.562 55.5625C112.65 55.3653 111.704 55.3753 110.796 55.5916C109.887 55.8079 109.039 56.2251 108.312 56.8125C107.587 57.4007 107.003 58.144 106.603 58.9876C106.203 59.8312 105.997 60.7538 106 61.6875V108.25C105.994 117.211 108.13 126.044 112.228 134.012C116.327 141.981 122.27 148.855 129.562 154.062L152.375 170.312C153.433 171.066 154.701 171.471 156 171.471C157.299 171.471 158.566 171.066 159.625 170.312L182.437 154.062C189.73 148.855 195.673 141.981 199.772 134.012C203.87 126.044 206.006 117.211 206 108.25V61.6875C206.003 60.7538 205.797 59.8312 205.397 58.9876C204.997 58.144 204.413 57.4007 203.687 56.8125ZM193.5 108.25C193.505 115.217 191.846 122.085 188.66 128.281C185.475 134.478 180.856 139.824 175.187 143.875L156 157.562L136.812 143.875C131.144 139.824 126.525 134.478 123.34 128.281C120.154 122.085 118.495 115.217 118.5 108.25V68.875C131.603 69.9964 144.725 66.9564 156 60.1875C167.275 66.9564 180.397 69.9964 193.5 68.875V108.25Z" fill="white"/>
<defs>
<filter id="filter0_d_142_11" x="0" y="0" width="312" height="312" filterUnits="userSpaceOnUse" color-interpolation-filters="sRGB">
<feFlood flood-opacity="0" result="BackgroundImageFix"/>
<feColorMatrix in="SourceAlpha" type="matrix" values="0 0 0 0 0 0 0 0 0 0 0 0 0 0 0 0 0 0 127 0" result="hardAlpha"/>
<feOffset dy="4"/>
<feGaussianBlur stdDeviation="9"/>
<feColorMatrix type="matrix" values="0 0 0 0 0.345098 0 0 0 0 0.494118 0 0 0 0 0.92549 0 0 0 0.18 0"/>
<feBlend mode="normal" in2="BackgroundImageFix" result="effect1_dropShadow_142_11"/>
<feBlend mode="normal" in="SourceGraphic" in2="effect1_dropShadow_142_11" result="shape"/>
</filter>
</defs>
</svg>
