<svg width="312" height="312" viewBox="0 0 312 312" fill="none" xmlns="http://www.w3.org/2000/svg">
<g filter="url(#filter0_d_142_9)">
<rect x="18" y="14" width="276" height="276" rx="10" fill="#A0A0A0"/>
</g>
<path d="M61.9774 239C61.884 239 61.8047 238.972 61.7394 238.916C61.6834 238.851 61.6554 238.771 61.6554 238.678V235.374L58.2814 229.662C58.272 229.634 58.2627 229.606 58.2534 229.578C58.244 229.55 58.2394 229.517 58.2394 229.48C58.2394 229.405 58.2674 229.34 58.3234 229.284C58.3794 229.228 58.4447 229.2 58.5194 229.2H59.2474C59.3314 229.2 59.406 229.223 59.4714 229.27C59.5367 229.307 59.5834 229.363 59.6114 229.438L62.3414 233.974L65.0714 229.438C65.118 229.363 65.1694 229.307 65.2254 229.27C65.2907 229.223 65.3654 229.2 65.4494 229.2H66.1634C66.2474 229.2 66.3174 229.228 66.3734 229.284C66.4294 229.34 66.4574 229.405 66.4574 229.48C66.4574 229.517 66.4527 229.55 66.4434 229.578C66.434 229.606 66.42 229.634 66.4014 229.662L63.0414 235.374V238.678C63.0414 238.771 63.0087 238.851 62.9434 238.916C62.8874 238.972 62.808 239 62.7054 239H61.9774ZM70.8461 239.14C70.1367 239.14 69.5441 239.005 69.0681 238.734C68.5921 238.463 68.2281 238.09 67.9761 237.614C67.7241 237.129 67.5841 236.578 67.5561 235.962C67.5467 235.803 67.5421 235.603 67.5421 235.36C67.5421 235.108 67.5467 234.907 67.5561 234.758C67.5841 234.133 67.7241 233.582 67.9761 233.106C68.2374 232.63 68.6061 232.257 69.0821 231.986C69.5581 231.715 70.1461 231.58 70.8461 231.58C71.5461 231.58 72.1341 231.715 72.6101 231.986C73.0861 232.257 73.4501 232.63 73.7021 233.106C73.9634 233.582 74.1081 234.133 74.1361 234.758C74.1454 234.907 74.1501 235.108 74.1501 235.36C74.1501 235.603 74.1454 235.803 74.1361 235.962C74.1081 236.578 73.9681 237.129 73.7161 237.614C73.4641 238.09 73.1001 238.463 72.6241 238.734C72.1481 239.005 71.5554 239.14 70.8461 239.14ZM70.8461 238.062C71.4247 238.062 71.8867 237.88 72.2321 237.516C72.5774 237.143 72.7641 236.601 72.7921 235.892C72.8014 235.752 72.8061 235.575 72.8061 235.36C72.8061 235.145 72.8014 234.968 72.7921 234.828C72.7641 234.119 72.5774 233.582 72.2321 233.218C71.8867 232.845 71.4247 232.658 70.8461 232.658C70.2674 232.658 69.8007 232.845 69.4461 233.218C69.1007 233.582 68.9187 234.119 68.9001 234.828C68.8907 234.968 68.8861 235.145 68.8861 235.36C68.8861 235.575 68.8907 235.752 68.9001 235.892C68.9187 236.601 69.1007 237.143 69.4461 237.516C69.8007 237.88 70.2674 238.062 70.8461 238.062ZM79.7391 239.14C79.1418 239.14 78.6331 239.009 78.2131 238.748C77.8024 238.477 77.4898 238.104 77.2751 237.628C77.0604 237.152 76.9531 236.606 76.9531 235.99V232.042C76.9531 231.949 76.9811 231.874 77.0371 231.818C77.1024 231.753 77.1818 231.72 77.2751 231.72H77.9751C78.0684 231.72 78.1431 231.753 78.1991 231.818C78.2644 231.874 78.2971 231.949 78.2971 232.042V235.92C78.2971 237.311 78.9038 238.006 80.1171 238.006C80.6958 238.006 81.1578 237.824 81.5031 237.46C81.8578 237.087 82.0351 236.573 82.0351 235.92V232.042C82.0351 231.949 82.0631 231.874 82.1191 231.818C82.1844 231.753 82.2638 231.72 82.3571 231.72H83.0431C83.1458 231.72 83.2251 231.753 83.2811 231.818C83.3371 231.874 83.3651 231.949 83.3651 232.042V238.678C83.3651 238.771 83.3371 238.851 83.2811 238.916C83.2251 238.972 83.1458 239 83.0431 239H82.3991C82.3058 239 82.2264 238.972 82.1611 238.916C82.1051 238.851 82.0771 238.771 82.0771 238.678V238.062C81.8251 238.389 81.5171 238.65 81.1531 238.846C80.7984 239.042 80.3271 239.14 79.7391 239.14ZM94.0566 239.14C93.394 239.14 92.82 239.014 92.3346 238.762C91.8586 238.501 91.49 238.132 91.2286 237.656C90.9673 237.171 90.8273 236.592 90.8086 235.92C90.7993 235.78 90.7946 235.593 90.7946 235.36C90.7946 235.127 90.7993 234.94 90.8086 234.8C90.8273 234.128 90.9673 233.554 91.2286 233.078C91.49 232.593 91.8586 232.224 92.3346 231.972C92.82 231.711 93.394 231.58 94.0566 231.58C94.598 231.58 95.06 231.655 95.4426 231.804C95.8346 231.953 96.1566 232.145 96.4086 232.378C96.6606 232.611 96.8473 232.863 96.9686 233.134C97.0993 233.405 97.1693 233.661 97.1786 233.904C97.188 233.997 97.16 234.072 97.0946 234.128C97.0293 234.184 96.95 234.212 96.8566 234.212H96.1846C96.0913 234.212 96.0213 234.193 95.9746 234.156C95.928 234.109 95.8813 234.035 95.8346 233.932C95.6666 233.475 95.438 233.153 95.1486 232.966C94.8593 232.779 94.5 232.686 94.0706 232.686C93.5106 232.686 93.0533 232.859 92.6986 233.204C92.3533 233.549 92.1666 234.105 92.1386 234.87C92.1293 235.206 92.1293 235.533 92.1386 235.85C92.1666 236.625 92.3533 237.185 92.6986 237.53C93.0533 237.866 93.5106 238.034 94.0706 238.034C94.5 238.034 94.8593 237.941 95.1486 237.754C95.438 237.567 95.6666 237.245 95.8346 236.788C95.8813 236.685 95.928 236.615 95.9746 236.578C96.0213 236.531 96.0913 236.508 96.1846 236.508H96.8566C96.95 236.508 97.0293 236.536 97.0946 236.592C97.16 236.648 97.188 236.723 97.1786 236.816C97.1693 237.012 97.1273 237.213 97.0526 237.418C96.978 237.623 96.8566 237.833 96.6886 238.048C96.53 238.253 96.3293 238.44 96.0866 238.608C95.844 238.767 95.55 238.897 95.2046 239C94.8686 239.093 94.486 239.14 94.0566 239.14ZM101.991 239.14C101.525 239.14 101.1 239.047 100.717 238.86C100.335 238.673 100.027 238.421 99.7932 238.104C99.5599 237.787 99.4432 237.427 99.4432 237.026C99.4432 236.382 99.7046 235.869 100.227 235.486C100.75 235.103 101.431 234.851 102.271 234.73L104.357 234.436V234.03C104.357 233.582 104.227 233.232 103.965 232.98C103.713 232.728 103.298 232.602 102.719 232.602C102.299 232.602 101.959 232.686 101.697 232.854C101.445 233.022 101.268 233.237 101.165 233.498C101.109 233.638 101.011 233.708 100.871 233.708H100.241C100.139 233.708 100.059 233.68 100.003 233.624C99.9566 233.559 99.9332 233.484 99.9332 233.4C99.9332 233.26 99.9846 233.087 100.087 232.882C100.199 232.677 100.367 232.476 100.591 232.28C100.815 232.084 101.1 231.921 101.445 231.79C101.8 231.65 102.229 231.58 102.733 231.58C103.293 231.58 103.765 231.655 104.147 231.804C104.53 231.944 104.829 232.135 105.043 232.378C105.267 232.621 105.426 232.896 105.519 233.204C105.622 233.512 105.673 233.825 105.673 234.142V238.678C105.673 238.771 105.641 238.851 105.575 238.916C105.519 238.972 105.445 239 105.351 239H104.707C104.605 239 104.525 238.972 104.469 238.916C104.413 238.851 104.385 238.771 104.385 238.678V238.076C104.264 238.244 104.101 238.412 103.895 238.58C103.69 238.739 103.433 238.874 103.125 238.986C102.817 239.089 102.439 239.14 101.991 239.14ZM102.285 238.09C102.668 238.09 103.018 238.011 103.335 237.852C103.653 237.684 103.9 237.427 104.077 237.082C104.264 236.737 104.357 236.303 104.357 235.78V235.388L102.733 235.626C102.071 235.719 101.571 235.878 101.235 236.102C100.899 236.317 100.731 236.592 100.731 236.928C100.731 237.189 100.806 237.409 100.955 237.586C101.114 237.754 101.31 237.88 101.543 237.964C101.786 238.048 102.033 238.09 102.285 238.09ZM109.128 239C109.035 239 108.955 238.972 108.89 238.916C108.834 238.851 108.806 238.771 108.806 238.678V232.042C108.806 231.949 108.834 231.874 108.89 231.818C108.955 231.753 109.035 231.72 109.128 231.72H109.786C109.879 231.72 109.954 231.753 110.01 231.818C110.075 231.874 110.108 231.949 110.108 232.042V232.658C110.351 232.341 110.654 232.084 111.018 231.888C111.391 231.683 111.867 231.58 112.446 231.58C113.053 231.58 113.566 231.715 113.986 231.986C114.415 232.247 114.737 232.616 114.952 233.092C115.167 233.559 115.274 234.105 115.274 234.73V238.678C115.274 238.771 115.246 238.851 115.19 238.916C115.134 238.972 115.059 239 114.966 239H114.266C114.173 239 114.093 238.972 114.028 238.916C113.972 238.851 113.944 238.771 113.944 238.678V234.8C113.944 234.147 113.785 233.638 113.468 233.274C113.151 232.901 112.684 232.714 112.068 232.714C111.489 232.714 111.023 232.901 110.668 233.274C110.323 233.638 110.15 234.147 110.15 234.8V238.678C110.15 238.771 110.117 238.851 110.052 238.916C109.996 238.972 109.921 239 109.828 239H109.128ZM125.488 239.14C124.965 239.14 124.517 239.075 124.144 238.944C123.77 238.813 123.467 238.655 123.234 238.468C123 238.281 122.823 238.095 122.702 237.908C122.59 237.721 122.529 237.572 122.52 237.46C122.51 237.357 122.543 237.278 122.618 237.222C122.692 237.166 122.767 237.138 122.842 237.138H123.458C123.514 237.138 123.556 237.147 123.584 237.166C123.621 237.175 123.668 237.213 123.724 237.278C123.845 237.409 123.98 237.539 124.13 237.67C124.279 237.801 124.461 237.908 124.676 237.992C124.9 238.076 125.175 238.118 125.502 238.118C125.978 238.118 126.37 238.029 126.678 237.852C126.986 237.665 127.14 237.395 127.14 237.04C127.14 236.807 127.074 236.62 126.944 236.48C126.822 236.34 126.598 236.214 126.272 236.102C125.954 235.99 125.516 235.873 124.956 235.752C124.396 235.621 123.952 235.463 123.626 235.276C123.299 235.08 123.066 234.851 122.926 234.59C122.786 234.319 122.716 234.016 122.716 233.68C122.716 233.335 122.818 233.003 123.024 232.686C123.229 232.359 123.528 232.093 123.92 231.888C124.321 231.683 124.82 231.58 125.418 231.58C125.903 231.58 126.318 231.641 126.664 231.762C127.009 231.883 127.294 232.037 127.518 232.224C127.742 232.401 127.91 232.579 128.022 232.756C128.134 232.933 128.194 233.083 128.204 233.204C128.213 233.297 128.185 233.377 128.12 233.442C128.054 233.498 127.98 233.526 127.896 233.526H127.308C127.242 233.526 127.186 233.512 127.14 233.484C127.102 233.456 127.065 233.423 127.028 233.386C126.934 233.265 126.822 233.143 126.692 233.022C126.57 232.901 126.407 232.803 126.202 232.728C126.006 232.644 125.744 232.602 125.418 232.602C124.951 232.602 124.601 232.7 124.368 232.896C124.134 233.092 124.018 233.339 124.018 233.638C124.018 233.815 124.069 233.974 124.172 234.114C124.274 234.254 124.47 234.38 124.76 234.492C125.049 234.604 125.478 234.725 126.048 234.856C126.664 234.977 127.149 235.141 127.504 235.346C127.858 235.551 128.11 235.789 128.26 236.06C128.409 236.331 128.484 236.643 128.484 236.998C128.484 237.39 128.367 237.749 128.134 238.076C127.91 238.403 127.574 238.664 127.126 238.86C126.687 239.047 126.141 239.14 125.488 239.14ZM134.053 239C133.53 239 133.105 238.902 132.779 238.706C132.452 238.501 132.214 238.216 132.065 237.852C131.915 237.479 131.841 237.04 131.841 236.536V232.84H130.749C130.655 232.84 130.576 232.812 130.511 232.756C130.455 232.691 130.427 232.611 130.427 232.518V232.042C130.427 231.949 130.455 231.874 130.511 231.818C130.576 231.753 130.655 231.72 130.749 231.72H131.841V229.382C131.841 229.289 131.869 229.214 131.925 229.158C131.99 229.093 132.069 229.06 132.163 229.06H132.821C132.914 229.06 132.989 229.093 133.045 229.158C133.11 229.214 133.143 229.289 133.143 229.382V231.72H134.879C134.972 231.72 135.047 231.753 135.103 231.818C135.168 231.874 135.201 231.949 135.201 232.042V232.518C135.201 232.611 135.168 232.691 135.103 232.756C135.047 232.812 134.972 232.84 134.879 232.84H133.143V236.438C133.143 236.877 133.217 237.222 133.367 237.474C133.516 237.726 133.782 237.852 134.165 237.852H135.019C135.112 237.852 135.187 237.885 135.243 237.95C135.308 238.006 135.341 238.081 135.341 238.174V238.678C135.341 238.771 135.308 238.851 135.243 238.916C135.187 238.972 135.112 239 135.019 239H134.053ZM139.83 239.14C139.363 239.14 138.938 239.047 138.556 238.86C138.173 238.673 137.865 238.421 137.632 238.104C137.398 237.787 137.282 237.427 137.282 237.026C137.282 236.382 137.543 235.869 138.066 235.486C138.588 235.103 139.27 234.851 140.11 234.73L142.196 234.436V234.03C142.196 233.582 142.065 233.232 141.804 232.98C141.552 232.728 141.136 232.602 140.558 232.602C140.138 232.602 139.797 232.686 139.536 232.854C139.284 233.022 139.106 233.237 139.004 233.498C138.948 233.638 138.85 233.708 138.71 233.708H138.08C137.977 233.708 137.898 233.68 137.842 233.624C137.795 233.559 137.772 233.484 137.772 233.4C137.772 233.26 137.823 233.087 137.926 232.882C138.038 232.677 138.206 232.476 138.43 232.28C138.654 232.084 138.938 231.921 139.284 231.79C139.638 231.65 140.068 231.58 140.572 231.58C141.132 231.58 141.603 231.655 141.986 231.804C142.368 231.944 142.667 232.135 142.882 232.378C143.106 232.621 143.264 232.896 143.358 233.204C143.46 233.512 143.512 233.825 143.512 234.142V238.678C143.512 238.771 143.479 238.851 143.414 238.916C143.358 238.972 143.283 239 143.19 239H142.546C142.443 239 142.364 238.972 142.308 238.916C142.252 238.851 142.224 238.771 142.224 238.678V238.076C142.102 238.244 141.939 238.412 141.734 238.58C141.528 238.739 141.272 238.874 140.964 238.986C140.656 239.089 140.278 239.14 139.83 239.14ZM140.124 238.09C140.506 238.09 140.856 238.011 141.174 237.852C141.491 237.684 141.738 237.427 141.916 237.082C142.102 236.737 142.196 236.303 142.196 235.78V235.388L140.572 235.626C139.909 235.719 139.41 235.878 139.074 236.102C138.738 236.317 138.57 236.592 138.57 236.928C138.57 237.189 138.644 237.409 138.794 237.586C138.952 237.754 139.148 237.88 139.382 237.964C139.624 238.048 139.872 238.09 140.124 238.09ZM146.966 239C146.873 239 146.793 238.972 146.728 238.916C146.672 238.851 146.644 238.771 146.644 238.678V232.056C146.644 231.963 146.672 231.883 146.728 231.818C146.793 231.753 146.873 231.72 146.966 231.72H147.61C147.703 231.72 147.783 231.753 147.848 231.818C147.913 231.883 147.946 231.963 147.946 232.056V232.672C148.133 232.355 148.389 232.117 148.716 231.958C149.043 231.799 149.435 231.72 149.892 231.72H150.452C150.545 231.72 150.62 231.753 150.676 231.818C150.732 231.874 150.76 231.949 150.76 232.042V232.616C150.76 232.709 150.732 232.784 150.676 232.84C150.62 232.896 150.545 232.924 150.452 232.924H149.612C149.108 232.924 148.711 233.073 148.422 233.372C148.133 233.661 147.988 234.058 147.988 234.562V238.678C147.988 238.771 147.955 238.851 147.89 238.916C147.825 238.972 147.745 239 147.652 239H146.966ZM155.924 239C155.402 239 154.977 238.902 154.65 238.706C154.324 238.501 154.086 238.216 153.936 237.852C153.787 237.479 153.712 237.04 153.712 236.536V232.84H152.62C152.527 232.84 152.448 232.812 152.382 232.756C152.326 232.691 152.298 232.611 152.298 232.518V232.042C152.298 231.949 152.326 231.874 152.382 231.818C152.448 231.753 152.527 231.72 152.62 231.72H153.712V229.382C153.712 229.289 153.74 229.214 153.796 229.158C153.862 229.093 153.941 229.06 154.034 229.06H154.692C154.786 229.06 154.86 229.093 154.916 229.158C154.982 229.214 155.014 229.289 155.014 229.382V231.72H156.75C156.844 231.72 156.918 231.753 156.974 231.818C157.04 231.874 157.072 231.949 157.072 232.042V232.518C157.072 232.611 157.04 232.691 156.974 232.756C156.918 232.812 156.844 232.84 156.75 232.84H155.014V236.438C155.014 236.877 155.089 237.222 155.238 237.474C155.388 237.726 155.654 237.852 156.036 237.852H156.89C156.984 237.852 157.058 237.885 157.114 237.95C157.18 238.006 157.212 238.081 157.212 238.174V238.678C157.212 238.771 157.18 238.851 157.114 238.916C157.058 238.972 156.984 239 156.89 239H155.924ZM165.827 239C165.705 239 165.612 238.972 165.547 238.916C165.481 238.851 165.425 238.762 165.379 238.65L163.391 232.154C163.372 232.107 163.363 232.061 163.363 232.014C163.363 231.93 163.391 231.86 163.447 231.804C163.512 231.748 163.582 231.72 163.657 231.72H164.273C164.375 231.72 164.455 231.748 164.511 231.804C164.567 231.86 164.604 231.911 164.623 231.958L166.177 237.236L167.843 232.014C167.861 231.949 167.899 231.883 167.955 231.818C168.02 231.753 168.113 231.72 168.235 231.72H168.711C168.832 231.72 168.925 231.753 168.991 231.818C169.056 231.883 169.093 231.949 169.103 232.014L170.769 237.236L172.323 231.958C172.332 231.911 172.365 231.86 172.421 231.804C172.477 231.748 172.556 231.72 172.659 231.72H173.275C173.359 231.72 173.429 231.748 173.485 231.804C173.541 231.86 173.569 231.93 173.569 232.014C173.569 232.061 173.559 232.107 173.541 232.154L171.553 238.65C171.525 238.762 171.473 238.851 171.399 238.916C171.333 238.972 171.235 239 171.105 239H170.559C170.437 239 170.335 238.972 170.251 238.916C170.176 238.851 170.125 238.762 170.097 238.65L168.473 233.638L166.849 238.65C166.811 238.762 166.755 238.851 166.681 238.916C166.606 238.972 166.503 239 166.373 239H165.827ZM179.03 239.14C178.321 239.14 177.728 239.005 177.252 238.734C176.776 238.463 176.412 238.09 176.16 237.614C175.908 237.129 175.768 236.578 175.74 235.962C175.731 235.803 175.726 235.603 175.726 235.36C175.726 235.108 175.731 234.907 175.74 234.758C175.768 234.133 175.908 233.582 176.16 233.106C176.421 232.63 176.79 232.257 177.266 231.986C177.742 231.715 178.33 231.58 179.03 231.58C179.73 231.58 180.318 231.715 180.794 231.986C181.27 232.257 181.634 232.63 181.886 233.106C182.147 233.582 182.292 234.133 182.32 234.758C182.329 234.907 182.334 235.108 182.334 235.36C182.334 235.603 182.329 235.803 182.32 235.962C182.292 236.578 182.152 237.129 181.9 237.614C181.648 238.09 181.284 238.463 180.808 238.734C180.332 239.005 179.739 239.14 179.03 239.14ZM179.03 238.062C179.609 238.062 180.071 237.88 180.416 237.516C180.761 237.143 180.948 236.601 180.976 235.892C180.985 235.752 180.99 235.575 180.99 235.36C180.99 235.145 180.985 234.968 180.976 234.828C180.948 234.119 180.761 233.582 180.416 233.218C180.071 232.845 179.609 232.658 179.03 232.658C178.451 232.658 177.985 232.845 177.63 233.218C177.285 233.582 177.103 234.119 177.084 234.828C177.075 234.968 177.07 235.145 177.07 235.36C177.07 235.575 177.075 235.752 177.084 235.892C177.103 236.601 177.285 237.143 177.63 237.516C177.985 237.88 178.451 238.062 179.03 238.062ZM185.529 239C185.436 239 185.356 238.972 185.291 238.916C185.235 238.851 185.207 238.771 185.207 238.678V232.056C185.207 231.963 185.235 231.883 185.291 231.818C185.356 231.753 185.436 231.72 185.529 231.72H186.173C186.266 231.72 186.346 231.753 186.411 231.818C186.476 231.883 186.509 231.963 186.509 232.056V232.672C186.696 232.355 186.952 232.117 187.279 231.958C187.606 231.799 187.998 231.72 188.455 231.72H189.015C189.108 231.72 189.183 231.753 189.239 231.818C189.295 231.874 189.323 231.949 189.323 232.042V232.616C189.323 232.709 189.295 232.784 189.239 232.84C189.183 232.896 189.108 232.924 189.015 232.924H188.175C187.671 232.924 187.274 233.073 186.985 233.372C186.696 233.661 186.551 234.058 186.551 234.562V238.678C186.551 238.771 186.518 238.851 186.453 238.916C186.388 238.972 186.308 239 186.215 239H185.529ZM191.981 239C191.888 239 191.809 238.972 191.743 238.916C191.687 238.851 191.659 238.771 191.659 238.678V229.382C191.659 229.289 191.687 229.214 191.743 229.158C191.809 229.093 191.888 229.06 191.981 229.06H192.639C192.733 229.06 192.807 229.093 192.863 229.158C192.929 229.214 192.961 229.289 192.961 229.382V234.254L195.719 231.958C195.831 231.865 195.915 231.804 195.971 231.776C196.037 231.739 196.139 231.72 196.279 231.72H197.021C197.105 231.72 197.175 231.748 197.231 231.804C197.287 231.86 197.315 231.93 197.315 232.014C197.315 232.051 197.301 232.093 197.273 232.14C197.255 232.187 197.213 232.233 197.147 232.28L193.913 234.968L197.497 238.454C197.609 238.547 197.665 238.631 197.665 238.706C197.665 238.79 197.637 238.86 197.581 238.916C197.525 238.972 197.455 239 197.371 239H196.643C196.503 239 196.401 238.986 196.335 238.958C196.27 238.921 196.186 238.855 196.083 238.762L192.961 235.78V238.678C192.961 238.771 192.929 238.851 192.863 238.916C192.807 238.972 192.733 239 192.639 239H191.981ZM200.306 239C200.213 239 200.133 238.972 200.068 238.916C200.012 238.851 199.984 238.771 199.984 238.678V232.042C199.984 231.949 200.012 231.874 200.068 231.818C200.133 231.753 200.213 231.72 200.306 231.72H200.978C201.071 231.72 201.146 231.753 201.202 231.818C201.258 231.874 201.286 231.949 201.286 232.042V238.678C201.286 238.771 201.258 238.851 201.202 238.916C201.146 238.972 201.071 239 200.978 239H200.306ZM200.194 230.362C200.101 230.362 200.021 230.334 199.956 230.278C199.9 230.213 199.872 230.133 199.872 230.04V229.284C199.872 229.191 199.9 229.116 199.956 229.06C200.021 228.995 200.101 228.962 200.194 228.962H201.076C201.169 228.962 201.244 228.995 201.3 229.06C201.365 229.116 201.398 229.191 201.398 229.284V230.04C201.398 230.133 201.365 230.213 201.3 230.278C201.244 230.334 201.169 230.362 201.076 230.362H200.194ZM204.953 239C204.86 239 204.781 238.972 204.715 238.916C204.659 238.851 204.631 238.771 204.631 238.678V232.042C204.631 231.949 204.659 231.874 204.715 231.818C204.781 231.753 204.86 231.72 204.953 231.72H205.611C205.705 231.72 205.779 231.753 205.835 231.818C205.901 231.874 205.933 231.949 205.933 232.042V232.658C206.176 232.341 206.479 232.084 206.843 231.888C207.217 231.683 207.693 231.58 208.271 231.58C208.878 231.58 209.391 231.715 209.811 231.986C210.241 232.247 210.563 232.616 210.777 233.092C210.992 233.559 211.099 234.105 211.099 234.73V238.678C211.099 238.771 211.071 238.851 211.015 238.916C210.959 238.972 210.885 239 210.791 239H210.091C209.998 239 209.919 238.972 209.853 238.916C209.797 238.851 209.769 238.771 209.769 238.678V234.8C209.769 234.147 209.611 233.638 209.293 233.274C208.976 232.901 208.509 232.714 207.893 232.714C207.315 232.714 206.848 232.901 206.493 233.274C206.148 233.638 205.975 234.147 205.975 234.8V238.678C205.975 238.771 205.943 238.851 205.877 238.916C205.821 238.972 205.747 239 205.653 239H204.953ZM217.224 242.08C216.589 242.08 216.066 241.996 215.656 241.828C215.254 241.66 214.937 241.455 214.704 241.212C214.48 240.979 214.316 240.741 214.214 240.498C214.12 240.265 214.069 240.078 214.06 239.938C214.05 239.845 214.078 239.765 214.144 239.7C214.218 239.635 214.298 239.602 214.382 239.602H215.054C215.138 239.602 215.208 239.621 215.264 239.658C215.32 239.695 215.366 239.775 215.404 239.896C215.46 240.036 215.544 240.19 215.656 240.358C215.768 240.535 215.94 240.685 216.174 240.806C216.407 240.937 216.734 241.002 217.154 241.002C217.592 241.002 217.961 240.941 218.26 240.82C218.558 240.708 218.782 240.503 218.932 240.204C219.09 239.915 219.17 239.513 219.17 239V238.048C218.946 238.337 218.652 238.58 218.288 238.776C217.924 238.963 217.466 239.056 216.916 239.056C216.393 239.056 215.945 238.967 215.572 238.79C215.198 238.603 214.89 238.356 214.648 238.048C214.414 237.731 214.237 237.371 214.116 236.97C214.004 236.569 213.938 236.149 213.92 235.71C213.91 235.449 213.91 235.192 213.92 234.94C213.938 234.501 214.004 234.081 214.116 233.68C214.237 233.279 214.414 232.919 214.648 232.602C214.89 232.285 215.198 232.037 215.572 231.86C215.945 231.673 216.393 231.58 216.916 231.58C217.476 231.58 217.938 231.687 218.302 231.902C218.675 232.107 218.978 232.359 219.212 232.658V232.056C219.212 231.963 219.24 231.883 219.296 231.818C219.361 231.753 219.44 231.72 219.534 231.72H220.178C220.271 231.72 220.35 231.753 220.416 231.818C220.481 231.883 220.514 231.963 220.514 232.056V238.846C220.514 239.471 220.406 240.027 220.192 240.512C219.986 240.997 219.641 241.38 219.156 241.66C218.68 241.94 218.036 242.08 217.224 242.08ZM217.196 237.936C217.662 237.936 218.036 237.829 218.316 237.614C218.605 237.399 218.815 237.129 218.946 236.802C219.086 236.475 219.16 236.144 219.17 235.808C219.179 235.677 219.184 235.519 219.184 235.332C219.184 235.136 219.179 234.973 219.17 234.842C219.16 234.506 219.086 234.175 218.946 233.848C218.815 233.521 218.605 233.251 218.316 233.036C218.036 232.821 217.662 232.714 217.196 232.714C216.729 232.714 216.356 232.821 216.076 233.036C215.796 233.241 215.595 233.517 215.474 233.862C215.352 234.198 215.282 234.562 215.264 234.954C215.254 235.197 215.254 235.444 215.264 235.696C215.282 236.088 215.352 236.457 215.474 236.802C215.595 237.138 215.796 237.413 216.076 237.628C216.356 237.833 216.729 237.936 217.196 237.936ZM229.871 239C229.749 239 229.656 238.972 229.591 238.916C229.525 238.851 229.469 238.762 229.423 238.65L227.435 232.154C227.416 232.107 227.407 232.061 227.407 232.014C227.407 231.93 227.435 231.86 227.491 231.804C227.556 231.748 227.626 231.72 227.701 231.72H228.317C228.419 231.72 228.499 231.748 228.555 231.804C228.611 231.86 228.648 231.911 228.667 231.958L230.221 237.236L231.887 232.014C231.905 231.949 231.943 231.883 231.999 231.818C232.064 231.753 232.157 231.72 232.279 231.72H232.755C232.876 231.72 232.969 231.753 233.035 231.818C233.1 231.883 233.137 231.949 233.147 232.014L234.813 237.236L236.367 231.958C236.376 231.911 236.409 231.86 236.465 231.804C236.521 231.748 236.6 231.72 236.703 231.72H237.319C237.403 231.72 237.473 231.748 237.529 231.804C237.585 231.86 237.613 231.93 237.613 232.014C237.613 232.061 237.603 232.107 237.585 232.154L235.597 238.65C235.569 238.762 235.517 238.851 235.443 238.916C235.377 238.972 235.279 239 235.149 239H234.603C234.481 239 234.379 238.972 234.295 238.916C234.22 238.851 234.169 238.762 234.141 238.65L232.517 233.638L230.893 238.65C230.855 238.762 230.799 238.851 230.725 238.916C230.65 238.972 230.547 239 230.417 239H229.871ZM240.605 239C240.512 239 240.433 238.972 240.367 238.916C240.311 238.851 240.283 238.771 240.283 238.678V232.042C240.283 231.949 240.311 231.874 240.367 231.818C240.433 231.753 240.512 231.72 240.605 231.72H241.277C241.371 231.72 241.445 231.753 241.501 231.818C241.557 231.874 241.585 231.949 241.585 232.042V238.678C241.585 238.771 241.557 238.851 241.501 238.916C241.445 238.972 241.371 239 241.277 239H240.605ZM240.493 230.362C240.4 230.362 240.321 230.334 240.255 230.278C240.199 230.213 240.171 230.133 240.171 230.04V229.284C240.171 229.191 240.199 229.116 240.255 229.06C240.321 228.995 240.4 228.962 240.493 228.962H241.375C241.469 228.962 241.543 228.995 241.599 229.06C241.665 229.116 241.697 229.191 241.697 229.284V230.04C241.697 230.133 241.665 230.213 241.599 230.278C241.543 230.334 241.469 230.362 241.375 230.362H240.493ZM247.636 239C247.113 239 246.689 238.902 246.362 238.706C246.035 238.501 245.797 238.216 245.648 237.852C245.499 237.479 245.424 237.04 245.424 236.536V232.84H244.332C244.239 232.84 244.159 232.812 244.094 232.756C244.038 232.691 244.01 232.611 244.01 232.518V232.042C244.01 231.949 244.038 231.874 244.094 231.818C244.159 231.753 244.239 231.72 244.332 231.72H245.424V229.382C245.424 229.289 245.452 229.214 245.508 229.158C245.573 229.093 245.653 229.06 245.746 229.06H246.404C246.497 229.06 246.572 229.093 246.628 229.158C246.693 229.214 246.726 229.289 246.726 229.382V231.72H248.462C248.555 231.72 248.63 231.753 248.686 231.818C248.751 231.874 248.784 231.949 248.784 232.042V232.518C248.784 232.611 248.751 232.691 248.686 232.756C248.63 232.812 248.555 232.84 248.462 232.84H246.726V236.438C246.726 236.877 246.801 237.222 246.95 237.474C247.099 237.726 247.365 237.852 247.748 237.852H248.602C248.695 237.852 248.77 237.885 248.826 237.95C248.891 238.006 248.924 238.081 248.924 238.174V238.678C248.924 238.771 248.891 238.851 248.826 238.916C248.77 238.972 248.695 239 248.602 239H247.636ZM251.719 239C251.625 239 251.546 238.972 251.481 238.916C251.425 238.851 251.397 238.771 251.397 238.678V229.382C251.397 229.289 251.425 229.214 251.481 229.158C251.546 229.093 251.625 229.06 251.719 229.06H252.419C252.521 229.06 252.601 229.093 252.657 229.158C252.713 229.214 252.741 229.289 252.741 229.382V232.644C252.993 232.327 253.301 232.07 253.665 231.874C254.029 231.678 254.491 231.58 255.051 231.58C255.657 231.58 256.171 231.715 256.591 231.986C257.02 232.247 257.342 232.616 257.557 233.092C257.781 233.559 257.893 234.105 257.893 234.73V238.678C257.893 238.771 257.865 238.851 257.809 238.916C257.753 238.972 257.673 239 257.571 239H256.871C256.777 239 256.698 238.972 256.633 238.916C256.577 238.851 256.549 238.771 256.549 238.678V234.8C256.549 234.147 256.39 233.638 256.073 233.274C255.755 232.901 255.289 232.714 254.673 232.714C254.094 232.714 253.627 232.901 253.273 233.274C252.918 233.638 252.741 234.147 252.741 234.8V238.678C252.741 238.771 252.713 238.851 252.657 238.916C252.601 238.972 252.521 239 252.419 239H251.719ZM66.455 258.14C65.9884 258.14 65.5637 258.047 65.181 257.86C64.7984 257.673 64.4904 257.421 64.257 257.104C64.0237 256.787 63.907 256.427 63.907 256.026C63.907 255.382 64.1684 254.869 64.691 254.486C65.2137 254.103 65.895 253.851 66.735 253.73L68.821 253.436V253.03C68.821 252.582 68.6904 252.232 68.429 251.98C68.177 251.728 67.7617 251.602 67.183 251.602C66.763 251.602 66.4224 251.686 66.161 251.854C65.909 252.022 65.7317 252.237 65.629 252.498C65.573 252.638 65.475 252.708 65.335 252.708H64.705C64.6024 252.708 64.523 252.68 64.467 252.624C64.4204 252.559 64.397 252.484 64.397 252.4C64.397 252.26 64.4484 252.087 64.551 251.882C64.663 251.677 64.831 251.476 65.055 251.28C65.279 251.084 65.5637 250.921 65.909 250.79C66.2637 250.65 66.693 250.58 67.197 250.58C67.757 250.58 68.2284 250.655 68.611 250.804C68.9937 250.944 69.2924 251.135 69.507 251.378C69.731 251.621 69.8897 251.896 69.983 252.204C70.0857 252.512 70.137 252.825 70.137 253.142V257.678C70.137 257.771 70.1044 257.851 70.039 257.916C69.983 257.972 69.9084 258 69.815 258H69.171C69.0684 258 68.989 257.972 68.933 257.916C68.877 257.851 68.849 257.771 68.849 257.678V257.076C68.7277 257.244 68.5644 257.412 68.359 257.58C68.1537 257.739 67.897 257.874 67.589 257.986C67.281 258.089 66.903 258.14 66.455 258.14ZM66.749 257.09C67.1317 257.09 67.4817 257.011 67.799 256.852C68.1164 256.684 68.3637 256.427 68.541 256.082C68.7277 255.737 68.821 255.303 68.821 254.78V254.388L67.197 254.626C66.5344 254.719 66.035 254.878 65.699 255.102C65.363 255.317 65.195 255.592 65.195 255.928C65.195 256.189 65.2697 256.409 65.419 256.586C65.5777 256.754 65.7737 256.88 66.007 256.964C66.2497 257.048 66.497 257.09 66.749 257.09ZM76.8676 258.14C76.3076 258.14 75.841 258.042 75.4676 257.846C75.0943 257.641 74.7956 257.389 74.5716 257.09V257.678C74.5716 257.771 74.539 257.851 74.4736 257.916C74.4176 257.972 74.343 258 74.2496 258H73.6056C73.5123 258 73.433 257.972 73.3676 257.916C73.3116 257.851 73.2836 257.771 73.2836 257.678V248.382C73.2836 248.289 73.3116 248.214 73.3676 248.158C73.433 248.093 73.5123 248.06 73.6056 248.06H74.2776C74.3803 248.06 74.4596 248.093 74.5156 248.158C74.5716 248.214 74.5996 248.289 74.5996 248.382V251.602C74.833 251.313 75.1316 251.07 75.4956 250.874C75.869 250.678 76.3263 250.58 76.8676 250.58C77.3903 250.58 77.8336 250.673 78.1976 250.86C78.571 251.037 78.8743 251.285 79.1076 251.602C79.3503 251.919 79.5323 252.279 79.6536 252.68C79.775 253.081 79.8403 253.501 79.8496 253.94C79.859 254.089 79.8636 254.229 79.8636 254.36C79.8636 254.491 79.859 254.631 79.8496 254.78C79.8403 255.228 79.775 255.653 79.6536 256.054C79.5323 256.455 79.3503 256.815 79.1076 257.132C78.8743 257.44 78.571 257.687 78.1976 257.874C77.8336 258.051 77.3903 258.14 76.8676 258.14ZM76.5736 257.006C77.059 257.006 77.437 256.903 77.7076 256.698C77.9876 256.483 78.1883 256.208 78.3096 255.872C78.431 255.527 78.501 255.158 78.5196 254.766C78.529 254.495 78.529 254.225 78.5196 253.954C78.501 253.562 78.431 253.198 78.3096 252.862C78.1883 252.517 77.9876 252.241 77.7076 252.036C77.437 251.821 77.059 251.714 76.5736 251.714C76.135 251.714 75.771 251.817 75.4816 252.022C75.1923 252.227 74.973 252.489 74.8236 252.806C74.6836 253.123 74.609 253.445 74.5996 253.772C74.5903 253.921 74.5856 254.103 74.5856 254.318C74.5856 254.523 74.5903 254.701 74.5996 254.85C74.6183 255.195 74.693 255.536 74.8236 255.872C74.9636 256.199 75.1736 256.469 75.4536 256.684C75.743 256.899 76.1163 257.006 76.5736 257.006ZM85.2358 258.14C84.7131 258.14 84.2651 258.075 83.8918 257.944C83.5185 257.813 83.2151 257.655 82.9818 257.468C82.7485 257.281 82.5711 257.095 82.4498 256.908C82.3378 256.721 82.2771 256.572 82.2678 256.46C82.2585 256.357 82.2911 256.278 82.3658 256.222C82.4405 256.166 82.5151 256.138 82.5898 256.138H83.2058C83.2618 256.138 83.3038 256.147 83.3318 256.166C83.3691 256.175 83.4158 256.213 83.4718 256.278C83.5931 256.409 83.7285 256.539 83.8778 256.67C84.0271 256.801 84.2091 256.908 84.4238 256.992C84.6478 257.076 84.9231 257.118 85.2498 257.118C85.7258 257.118 86.1178 257.029 86.4258 256.852C86.7338 256.665 86.8878 256.395 86.8878 256.04C86.8878 255.807 86.8225 255.62 86.6918 255.48C86.5705 255.34 86.3465 255.214 86.0198 255.102C85.7025 254.99 85.2638 254.873 84.7038 254.752C84.1438 254.621 83.7005 254.463 83.3738 254.276C83.0471 254.08 82.8138 253.851 82.6738 253.59C82.5338 253.319 82.4638 253.016 82.4638 252.68C82.4638 252.335 82.5665 252.003 82.7718 251.686C82.9771 251.359 83.2758 251.093 83.6678 250.888C84.0691 250.683 84.5685 250.58 85.1658 250.58C85.6511 250.58 86.0665 250.641 86.4118 250.762C86.7571 250.883 87.0418 251.037 87.2658 251.224C87.4898 251.401 87.6578 251.579 87.7698 251.756C87.8818 251.933 87.9425 252.083 87.9518 252.204C87.9611 252.297 87.9331 252.377 87.8678 252.442C87.8025 252.498 87.7278 252.526 87.6438 252.526H87.0558C86.9905 252.526 86.9345 252.512 86.8878 252.484C86.8505 252.456 86.8131 252.423 86.7758 252.386C86.6825 252.265 86.5705 252.143 86.4398 252.022C86.3185 251.901 86.1551 251.803 85.9498 251.728C85.7538 251.644 85.4925 251.602 85.1658 251.602C84.6991 251.602 84.3491 251.7 84.1158 251.896C83.8825 252.092 83.7658 252.339 83.7658 252.638C83.7658 252.815 83.8171 252.974 83.9198 253.114C84.0225 253.254 84.2185 253.38 84.5078 253.492C84.7971 253.604 85.2265 253.725 85.7958 253.856C86.4118 253.977 86.8971 254.141 87.2518 254.346C87.6065 254.551 87.8585 254.789 88.0078 255.06C88.1571 255.331 88.2318 255.643 88.2318 255.998C88.2318 256.39 88.1151 256.749 87.8818 257.076C87.6578 257.403 87.3218 257.664 86.8738 257.86C86.4351 258.047 85.8891 258.14 85.2358 258.14ZM93.9545 258.14C93.2452 258.14 92.6525 258.005 92.1765 257.734C91.7005 257.463 91.3365 257.09 91.0845 256.614C90.8325 256.129 90.6925 255.578 90.6645 254.962C90.6552 254.803 90.6505 254.603 90.6505 254.36C90.6505 254.108 90.6552 253.907 90.6645 253.758C90.6925 253.133 90.8325 252.582 91.0845 252.106C91.3459 251.63 91.7145 251.257 92.1905 250.986C92.6665 250.715 93.2545 250.58 93.9545 250.58C94.6545 250.58 95.2425 250.715 95.7185 250.986C96.1945 251.257 96.5585 251.63 96.8105 252.106C97.0719 252.582 97.2165 253.133 97.2445 253.758C97.2539 253.907 97.2585 254.108 97.2585 254.36C97.2585 254.603 97.2539 254.803 97.2445 254.962C97.2165 255.578 97.0765 256.129 96.8245 256.614C96.5725 257.09 96.2085 257.463 95.7325 257.734C95.2565 258.005 94.6639 258.14 93.9545 258.14ZM93.9545 257.062C94.5332 257.062 94.9952 256.88 95.3405 256.516C95.6859 256.143 95.8725 255.601 95.9005 254.892C95.9099 254.752 95.9145 254.575 95.9145 254.36C95.9145 254.145 95.9099 253.968 95.9005 253.828C95.8725 253.119 95.6859 252.582 95.3405 252.218C94.9952 251.845 94.5332 251.658 93.9545 251.658C93.3759 251.658 92.9092 251.845 92.5545 252.218C92.2092 252.582 92.0272 253.119 92.0085 253.828C91.9992 253.968 91.9945 254.145 91.9945 254.36C91.9945 254.575 91.9992 254.752 92.0085 254.892C92.0272 255.601 92.2092 256.143 92.5545 256.516C92.9092 256.88 93.3759 257.062 93.9545 257.062ZM100.468 258C100.374 258 100.295 257.972 100.23 257.916C100.174 257.851 100.146 257.771 100.146 257.678V248.382C100.146 248.289 100.174 248.214 100.23 248.158C100.295 248.093 100.374 248.06 100.468 248.06H101.126C101.228 248.06 101.308 248.093 101.364 248.158C101.42 248.214 101.448 248.289 101.448 248.382V257.678C101.448 257.771 101.42 257.851 101.364 257.916C101.308 257.972 101.228 258 101.126 258H100.468ZM107.372 258.14C106.775 258.14 106.266 258.009 105.846 257.748C105.435 257.477 105.123 257.104 104.908 256.628C104.693 256.152 104.586 255.606 104.586 254.99V251.042C104.586 250.949 104.614 250.874 104.67 250.818C104.735 250.753 104.815 250.72 104.908 250.72H105.608C105.701 250.72 105.776 250.753 105.832 250.818C105.897 250.874 105.93 250.949 105.93 251.042V254.92C105.93 256.311 106.537 257.006 107.75 257.006C108.329 257.006 108.791 256.824 109.136 256.46C109.491 256.087 109.668 255.573 109.668 254.92V251.042C109.668 250.949 109.696 250.874 109.752 250.818C109.817 250.753 109.897 250.72 109.99 250.72H110.676C110.779 250.72 110.858 250.753 110.914 250.818C110.97 250.874 110.998 250.949 110.998 251.042V257.678C110.998 257.771 110.97 257.851 110.914 257.916C110.858 257.972 110.779 258 110.676 258H110.032C109.939 258 109.859 257.972 109.794 257.916C109.738 257.851 109.71 257.771 109.71 257.678V257.062C109.458 257.389 109.15 257.65 108.786 257.846C108.431 258.042 107.96 258.14 107.372 258.14ZM117.04 258C116.517 258 116.092 257.902 115.766 257.706C115.439 257.501 115.201 257.216 115.052 256.852C114.902 256.479 114.828 256.04 114.828 255.536V251.84H113.736C113.642 251.84 113.563 251.812 113.498 251.756C113.442 251.691 113.414 251.611 113.414 251.518V251.042C113.414 250.949 113.442 250.874 113.498 250.818C113.563 250.753 113.642 250.72 113.736 250.72H114.828V248.382C114.828 248.289 114.856 248.214 114.912 248.158C114.977 248.093 115.056 248.06 115.15 248.06H115.808C115.901 248.06 115.976 248.093 116.032 248.158C116.097 248.214 116.13 248.289 116.13 248.382V250.72H117.866C117.959 250.72 118.034 250.753 118.09 250.818C118.155 250.874 118.188 250.949 118.188 251.042V251.518C118.188 251.611 118.155 251.691 118.09 251.756C118.034 251.812 117.959 251.84 117.866 251.84H116.13V255.438C116.13 255.877 116.204 256.222 116.354 256.474C116.503 256.726 116.769 256.852 117.152 256.852H118.006C118.099 256.852 118.174 256.885 118.23 256.95C118.295 257.006 118.328 257.081 118.328 257.174V257.678C118.328 257.771 118.295 257.851 118.23 257.916C118.174 257.972 118.099 258 118.006 258H117.04ZM123.685 258.14C122.723 258.14 121.958 257.846 121.389 257.258C120.819 256.661 120.507 255.849 120.451 254.822C120.441 254.701 120.437 254.547 120.437 254.36C120.437 254.164 120.441 254.005 120.451 253.884C120.488 253.221 120.642 252.643 120.913 252.148C121.183 251.644 121.552 251.257 122.019 250.986C122.495 250.715 123.05 250.58 123.685 250.58C124.394 250.58 124.987 250.729 125.463 251.028C125.948 251.327 126.317 251.751 126.569 252.302C126.821 252.853 126.947 253.497 126.947 254.234V254.472C126.947 254.575 126.914 254.654 126.849 254.71C126.793 254.766 126.718 254.794 126.625 254.794H121.781C121.781 254.803 121.781 254.822 121.781 254.85C121.781 254.878 121.781 254.901 121.781 254.92C121.799 255.303 121.883 255.662 122.033 255.998C122.182 256.325 122.397 256.591 122.677 256.796C122.957 257.001 123.293 257.104 123.685 257.104C124.021 257.104 124.301 257.053 124.525 256.95C124.749 256.847 124.931 256.735 125.071 256.614C125.211 256.483 125.304 256.385 125.351 256.32C125.435 256.199 125.5 256.129 125.547 256.11C125.593 256.082 125.668 256.068 125.771 256.068H126.443C126.536 256.068 126.611 256.096 126.667 256.152C126.732 256.199 126.76 256.269 126.751 256.362C126.741 256.502 126.667 256.675 126.527 256.88C126.387 257.076 126.186 257.272 125.925 257.468C125.663 257.664 125.346 257.827 124.973 257.958C124.599 258.079 124.17 258.14 123.685 258.14ZM121.781 253.828H125.617V253.786C125.617 253.366 125.537 252.993 125.379 252.666C125.229 252.339 125.01 252.083 124.721 251.896C124.431 251.7 124.086 251.602 123.685 251.602C123.283 251.602 122.938 251.7 122.649 251.896C122.369 252.083 122.154 252.339 122.005 252.666C121.855 252.993 121.781 253.366 121.781 253.786V253.828ZM134.152 258C134.059 258 133.979 257.972 133.914 257.916C133.858 257.851 133.83 257.771 133.83 257.678V257.188C133.83 257.104 133.849 257.025 133.886 256.95C133.933 256.875 133.979 256.805 134.026 256.74L137.89 251.826H134.278C134.185 251.826 134.105 251.798 134.04 251.742C133.984 251.686 133.956 251.607 133.956 251.504V251.042C133.956 250.949 133.984 250.874 134.04 250.818C134.105 250.753 134.185 250.72 134.278 250.72H139.262C139.355 250.72 139.43 250.753 139.486 250.818C139.551 250.874 139.584 250.949 139.584 251.042V251.56C139.584 251.644 139.561 251.719 139.514 251.784C139.477 251.849 139.435 251.919 139.388 251.994L135.566 256.894H139.542C139.635 256.894 139.71 256.922 139.766 256.978C139.831 257.034 139.864 257.113 139.864 257.216V257.678C139.864 257.771 139.831 257.851 139.766 257.916C139.71 257.972 139.635 258 139.542 258H134.152ZM145.351 258.14C144.39 258.14 143.624 257.846 143.055 257.258C142.486 256.661 142.173 255.849 142.117 254.822C142.108 254.701 142.103 254.547 142.103 254.36C142.103 254.164 142.108 254.005 142.117 253.884C142.154 253.221 142.308 252.643 142.579 252.148C142.85 251.644 143.218 251.257 143.685 250.986C144.161 250.715 144.716 250.58 145.351 250.58C146.06 250.58 146.653 250.729 147.129 251.028C147.614 251.327 147.983 251.751 148.235 252.302C148.487 252.853 148.613 253.497 148.613 254.234V254.472C148.613 254.575 148.58 254.654 148.515 254.71C148.459 254.766 148.384 254.794 148.291 254.794H143.447C143.447 254.803 143.447 254.822 143.447 254.85C143.447 254.878 143.447 254.901 143.447 254.92C143.466 255.303 143.55 255.662 143.699 255.998C143.848 256.325 144.063 256.591 144.343 256.796C144.623 257.001 144.959 257.104 145.351 257.104C145.687 257.104 145.967 257.053 146.191 256.95C146.415 256.847 146.597 256.735 146.737 256.614C146.877 256.483 146.97 256.385 147.017 256.32C147.101 256.199 147.166 256.129 147.213 256.11C147.26 256.082 147.334 256.068 147.437 256.068H148.109C148.202 256.068 148.277 256.096 148.333 256.152C148.398 256.199 148.426 256.269 148.417 256.362C148.408 256.502 148.333 256.675 148.193 256.88C148.053 257.076 147.852 257.272 147.591 257.468C147.33 257.664 147.012 257.827 146.639 257.958C146.266 258.079 145.836 258.14 145.351 258.14ZM143.447 253.828H147.283V253.786C147.283 253.366 147.204 252.993 147.045 252.666C146.896 252.339 146.676 252.083 146.387 251.896C146.098 251.7 145.752 251.602 145.351 251.602C144.95 251.602 144.604 251.7 144.315 251.896C144.035 252.083 143.82 252.339 143.671 252.666C143.522 252.993 143.447 253.366 143.447 253.786V253.828ZM151.729 258C151.636 258 151.556 257.972 151.491 257.916C151.435 257.851 151.407 257.771 151.407 257.678V251.056C151.407 250.963 151.435 250.883 151.491 250.818C151.556 250.753 151.636 250.72 151.729 250.72H152.373C152.466 250.72 152.546 250.753 152.611 250.818C152.676 250.883 152.709 250.963 152.709 251.056V251.672C152.896 251.355 153.152 251.117 153.479 250.958C153.806 250.799 154.198 250.72 154.655 250.72H155.215C155.308 250.72 155.383 250.753 155.439 250.818C155.495 250.874 155.523 250.949 155.523 251.042V251.616C155.523 251.709 155.495 251.784 155.439 251.84C155.383 251.896 155.308 251.924 155.215 251.924H154.375C153.871 251.924 153.474 252.073 153.185 252.372C152.896 252.661 152.751 253.058 152.751 253.562V257.678C152.751 257.771 152.718 257.851 152.653 257.916C152.588 257.972 152.508 258 152.415 258H151.729ZM160.691 258.14C159.981 258.14 159.389 258.005 158.913 257.734C158.437 257.463 158.073 257.09 157.821 256.614C157.569 256.129 157.429 255.578 157.401 254.962C157.391 254.803 157.387 254.603 157.387 254.36C157.387 254.108 157.391 253.907 157.401 253.758C157.429 253.133 157.569 252.582 157.821 252.106C158.082 251.63 158.451 251.257 158.927 250.986C159.403 250.715 159.991 250.58 160.691 250.58C161.391 250.58 161.979 250.715 162.455 250.986C162.931 251.257 163.295 251.63 163.547 252.106C163.808 252.582 163.953 253.133 163.981 253.758C163.99 253.907 163.995 254.108 163.995 254.36C163.995 254.603 163.99 254.803 163.981 254.962C163.953 255.578 163.813 256.129 163.561 256.614C163.309 257.09 162.945 257.463 162.469 257.734C161.993 258.005 161.4 258.14 160.691 258.14ZM160.691 257.062C161.269 257.062 161.731 256.88 162.077 256.516C162.422 256.143 162.609 255.601 162.637 254.892C162.646 254.752 162.651 254.575 162.651 254.36C162.651 254.145 162.646 253.968 162.637 253.828C162.609 253.119 162.422 252.582 162.077 252.218C161.731 251.845 161.269 251.658 160.691 251.658C160.112 251.658 159.645 251.845 159.291 252.218C158.945 252.582 158.763 253.119 158.745 253.828C158.735 253.968 158.731 254.145 158.731 254.36C158.731 254.575 158.735 254.752 158.745 254.892C158.763 255.601 158.945 256.143 159.291 256.516C159.645 256.88 160.112 257.062 160.691 257.062ZM171.755 258C171.662 258 171.583 257.972 171.517 257.916C171.461 257.851 171.433 257.771 171.433 257.678V248.382C171.433 248.289 171.461 248.214 171.517 248.158C171.583 248.093 171.662 248.06 171.755 248.06H172.413C172.507 248.06 172.581 248.093 172.637 248.158C172.703 248.214 172.735 248.289 172.735 248.382V253.254L175.493 250.958C175.605 250.865 175.689 250.804 175.745 250.776C175.811 250.739 175.913 250.72 176.053 250.72H176.795C176.879 250.72 176.949 250.748 177.005 250.804C177.061 250.86 177.089 250.93 177.089 251.014C177.089 251.051 177.075 251.093 177.047 251.14C177.029 251.187 176.987 251.233 176.921 251.28L173.687 253.968L177.271 257.454C177.383 257.547 177.439 257.631 177.439 257.706C177.439 257.79 177.411 257.86 177.355 257.916C177.299 257.972 177.229 258 177.145 258H176.417C176.277 258 176.175 257.986 176.109 257.958C176.044 257.921 175.96 257.855 175.857 257.762L172.735 254.78V257.678C172.735 257.771 172.703 257.851 172.637 257.916C172.581 257.972 172.507 258 172.413 258H171.755ZM180.08 258C179.987 258 179.908 257.972 179.842 257.916C179.786 257.851 179.758 257.771 179.758 257.678V251.042C179.758 250.949 179.786 250.874 179.842 250.818C179.908 250.753 179.987 250.72 180.08 250.72H180.738C180.832 250.72 180.906 250.753 180.962 250.818C181.028 250.874 181.06 250.949 181.06 251.042V251.658C181.303 251.341 181.606 251.084 181.97 250.888C182.344 250.683 182.82 250.58 183.398 250.58C184.005 250.58 184.518 250.715 184.938 250.986C185.368 251.247 185.69 251.616 185.904 252.092C186.119 252.559 186.226 253.105 186.226 253.73V257.678C186.226 257.771 186.198 257.851 186.142 257.916C186.086 257.972 186.012 258 185.918 258H185.218C185.125 258 185.046 257.972 184.98 257.916C184.924 257.851 184.896 257.771 184.896 257.678V253.8C184.896 253.147 184.738 252.638 184.42 252.274C184.103 251.901 183.636 251.714 183.02 251.714C182.442 251.714 181.975 251.901 181.62 252.274C181.275 252.638 181.102 253.147 181.102 253.8V257.678C181.102 257.771 181.07 257.851 181.004 257.916C180.948 257.972 180.874 258 180.78 258H180.08ZM192.35 258.14C191.641 258.14 191.048 258.005 190.572 257.734C190.096 257.463 189.732 257.09 189.48 256.614C189.228 256.129 189.088 255.578 189.06 254.962C189.051 254.803 189.046 254.603 189.046 254.36C189.046 254.108 189.051 253.907 189.06 253.758C189.088 253.133 189.228 252.582 189.48 252.106C189.742 251.63 190.11 251.257 190.586 250.986C191.062 250.715 191.65 250.58 192.35 250.58C193.05 250.58 193.638 250.715 194.114 250.986C194.59 251.257 194.954 251.63 195.206 252.106C195.468 252.582 195.612 253.133 195.64 253.758C195.65 253.907 195.654 254.108 195.654 254.36C195.654 254.603 195.65 254.803 195.64 254.962C195.612 255.578 195.472 256.129 195.22 256.614C194.968 257.09 194.604 257.463 194.128 257.734C193.652 258.005 193.06 258.14 192.35 258.14ZM192.35 257.062C192.929 257.062 193.391 256.88 193.736 256.516C194.082 256.143 194.268 255.601 194.296 254.892C194.306 254.752 194.31 254.575 194.31 254.36C194.31 254.145 194.306 253.968 194.296 253.828C194.268 253.119 194.082 252.582 193.736 252.218C193.391 251.845 192.929 251.658 192.35 251.658C191.772 251.658 191.305 251.845 190.95 252.218C190.605 252.582 190.423 253.119 190.404 253.828C190.395 253.968 190.39 254.145 190.39 254.36C190.39 254.575 190.395 254.752 190.404 254.892C190.423 255.601 190.605 256.143 190.95 256.516C191.305 256.88 191.772 257.062 192.35 257.062ZM200.268 258C200.147 258 200.053 257.972 199.988 257.916C199.923 257.851 199.867 257.762 199.82 257.65L197.832 251.154C197.813 251.107 197.804 251.061 197.804 251.014C197.804 250.93 197.832 250.86 197.888 250.804C197.953 250.748 198.023 250.72 198.098 250.72H198.714C198.817 250.72 198.896 250.748 198.952 250.804C199.008 250.86 199.045 250.911 199.064 250.958L200.618 256.236L202.284 251.014C202.303 250.949 202.34 250.883 202.396 250.818C202.461 250.753 202.555 250.72 202.676 250.72H203.152C203.273 250.72 203.367 250.753 203.432 250.818C203.497 250.883 203.535 250.949 203.544 251.014L205.21 256.236L206.764 250.958C206.773 250.911 206.806 250.86 206.862 250.804C206.918 250.748 206.997 250.72 207.1 250.72H207.716C207.8 250.72 207.87 250.748 207.926 250.804C207.982 250.86 208.01 250.93 208.01 251.014C208.01 251.061 208.001 251.107 207.982 251.154L205.994 257.65C205.966 257.762 205.915 257.851 205.84 257.916C205.775 257.972 205.677 258 205.546 258H205C204.879 258 204.776 257.972 204.692 257.916C204.617 257.851 204.566 257.762 204.538 257.65L202.914 252.638L201.29 257.65C201.253 257.762 201.197 257.851 201.122 257.916C201.047 257.972 200.945 258 200.814 258H200.268ZM211.017 258C210.923 258 210.844 257.972 210.779 257.916C210.723 257.851 210.695 257.771 210.695 257.678V248.382C210.695 248.289 210.723 248.214 210.779 248.158C210.844 248.093 210.923 248.06 211.017 248.06H211.675C211.777 248.06 211.857 248.093 211.913 248.158C211.969 248.214 211.997 248.289 211.997 248.382V257.678C211.997 257.771 211.969 257.851 211.913 257.916C211.857 257.972 211.777 258 211.675 258H211.017ZM218.103 258.14C217.142 258.14 216.376 257.846 215.807 257.258C215.238 256.661 214.925 255.849 214.869 254.822C214.86 254.701 214.855 254.547 214.855 254.36C214.855 254.164 214.86 254.005 214.869 253.884C214.906 253.221 215.06 252.643 215.331 252.148C215.602 251.644 215.97 251.257 216.437 250.986C216.913 250.715 217.468 250.58 218.103 250.58C218.812 250.58 219.405 250.729 219.881 251.028C220.366 251.327 220.735 251.751 220.987 252.302C221.239 252.853 221.365 253.497 221.365 254.234V254.472C221.365 254.575 221.332 254.654 221.267 254.71C221.211 254.766 221.136 254.794 221.043 254.794H216.199C216.199 254.803 216.199 254.822 216.199 254.85C216.199 254.878 216.199 254.901 216.199 254.92C216.218 255.303 216.302 255.662 216.451 255.998C216.6 256.325 216.815 256.591 217.095 256.796C217.375 257.001 217.711 257.104 218.103 257.104C218.439 257.104 218.719 257.053 218.943 256.95C219.167 256.847 219.349 256.735 219.489 256.614C219.629 256.483 219.722 256.385 219.769 256.32C219.853 256.199 219.918 256.129 219.965 256.11C220.012 256.082 220.086 256.068 220.189 256.068H220.861C220.954 256.068 221.029 256.096 221.085 256.152C221.15 256.199 221.178 256.269 221.169 256.362C221.16 256.502 221.085 256.675 220.945 256.88C220.805 257.076 220.604 257.272 220.343 257.468C220.082 257.664 219.764 257.827 219.391 257.958C219.018 258.079 218.588 258.14 218.103 258.14ZM216.199 253.828H220.035V253.786C220.035 253.366 219.956 252.993 219.797 252.666C219.648 252.339 219.428 252.083 219.139 251.896C218.85 251.7 218.504 251.602 218.103 251.602C217.702 251.602 217.356 251.7 217.067 251.896C216.787 252.083 216.572 252.339 216.423 252.666C216.274 252.993 216.199 253.366 216.199 253.786V253.828ZM226.819 258.14C226.306 258.14 225.862 258.051 225.489 257.874C225.116 257.687 224.808 257.44 224.565 257.132C224.332 256.815 224.154 256.455 224.033 256.054C223.921 255.653 223.856 255.228 223.837 254.78C223.828 254.631 223.823 254.491 223.823 254.36C223.823 254.229 223.828 254.089 223.837 253.94C223.856 253.501 223.921 253.081 224.033 252.68C224.154 252.279 224.332 251.919 224.565 251.602C224.808 251.285 225.116 251.037 225.489 250.86C225.862 250.673 226.306 250.58 226.819 250.58C227.37 250.58 227.827 250.678 228.191 250.874C228.555 251.07 228.854 251.313 229.087 251.602V248.382C229.087 248.289 229.115 248.214 229.171 248.158C229.236 248.093 229.316 248.06 229.409 248.06H230.081C230.174 248.06 230.249 248.093 230.305 248.158C230.37 248.214 230.403 248.289 230.403 248.382V257.678C230.403 257.771 230.37 257.851 230.305 257.916C230.249 257.972 230.174 258 230.081 258H229.451C229.348 258 229.269 257.972 229.213 257.916C229.157 257.851 229.129 257.771 229.129 257.678V257.09C228.896 257.389 228.592 257.641 228.219 257.846C227.846 258.042 227.379 258.14 226.819 258.14ZM227.113 257.006C227.58 257.006 227.953 256.899 228.233 256.684C228.513 256.469 228.723 256.199 228.863 255.872C229.003 255.536 229.078 255.195 229.087 254.85C229.096 254.701 229.101 254.523 229.101 254.318C229.101 254.103 229.096 253.921 229.087 253.772C229.078 253.445 228.998 253.123 228.849 252.806C228.709 252.489 228.494 252.227 228.205 252.022C227.925 251.817 227.561 251.714 227.113 251.714C226.637 251.714 226.259 251.821 225.979 252.036C225.699 252.241 225.498 252.517 225.377 252.862C225.256 253.198 225.186 253.562 225.167 253.954C225.158 254.225 225.158 254.495 225.167 254.766C225.186 255.158 225.256 255.527 225.377 255.872C225.498 256.208 225.699 256.483 225.979 256.698C226.259 256.903 226.637 257.006 227.113 257.006ZM236.587 261.08C235.953 261.08 235.43 260.996 235.019 260.828C234.618 260.66 234.301 260.455 234.067 260.212C233.843 259.979 233.68 259.741 233.577 259.498C233.484 259.265 233.433 259.078 233.423 258.938C233.414 258.845 233.442 258.765 233.507 258.7C233.582 258.635 233.661 258.602 233.745 258.602H234.417C234.501 258.602 234.571 258.621 234.627 258.658C234.683 258.695 234.73 258.775 234.767 258.896C234.823 259.036 234.907 259.19 235.019 259.358C235.131 259.535 235.304 259.685 235.537 259.806C235.771 259.937 236.097 260.002 236.517 260.002C236.956 260.002 237.325 259.941 237.623 259.82C237.922 259.708 238.146 259.503 238.295 259.204C238.454 258.915 238.533 258.513 238.533 258V257.048C238.309 257.337 238.015 257.58 237.651 257.776C237.287 257.963 236.83 258.056 236.279 258.056C235.757 258.056 235.309 257.967 234.935 257.79C234.562 257.603 234.254 257.356 234.011 257.048C233.778 256.731 233.601 256.371 233.479 255.97C233.367 255.569 233.302 255.149 233.283 254.71C233.274 254.449 233.274 254.192 233.283 253.94C233.302 253.501 233.367 253.081 233.479 252.68C233.601 252.279 233.778 251.919 234.011 251.602C234.254 251.285 234.562 251.037 234.935 250.86C235.309 250.673 235.757 250.58 236.279 250.58C236.839 250.58 237.301 250.687 237.665 250.902C238.039 251.107 238.342 251.359 238.575 251.658V251.056C238.575 250.963 238.603 250.883 238.659 250.818C238.725 250.753 238.804 250.72 238.897 250.72H239.541C239.635 250.72 239.714 250.753 239.779 250.818C239.845 250.883 239.877 250.963 239.877 251.056V257.846C239.877 258.471 239.77 259.027 239.555 259.512C239.35 259.997 239.005 260.38 238.519 260.66C238.043 260.94 237.399 261.08 236.587 261.08ZM236.559 256.936C237.026 256.936 237.399 256.829 237.679 256.614C237.969 256.399 238.179 256.129 238.309 255.802C238.449 255.475 238.524 255.144 238.533 254.808C238.543 254.677 238.547 254.519 238.547 254.332C238.547 254.136 238.543 253.973 238.533 253.842C238.524 253.506 238.449 253.175 238.309 252.848C238.179 252.521 237.969 252.251 237.679 252.036C237.399 251.821 237.026 251.714 236.559 251.714C236.093 251.714 235.719 251.821 235.439 252.036C235.159 252.241 234.959 252.517 234.837 252.862C234.716 253.198 234.646 253.562 234.627 253.954C234.618 254.197 234.618 254.444 234.627 254.696C234.646 255.088 234.716 255.457 234.837 255.802C234.959 256.138 235.159 256.413 235.439 256.628C235.719 256.833 236.093 256.936 236.559 256.936ZM245.977 258.14C245.015 258.14 244.25 257.846 243.681 257.258C243.111 256.661 242.799 255.849 242.743 254.822C242.733 254.701 242.729 254.547 242.729 254.36C242.729 254.164 242.733 254.005 242.743 253.884C242.78 253.221 242.934 252.643 243.205 252.148C243.475 251.644 243.844 251.257 244.311 250.986C244.787 250.715 245.342 250.58 245.977 250.58C246.686 250.58 247.279 250.729 247.755 251.028C248.24 251.327 248.609 251.751 248.861 252.302C249.113 252.853 249.239 253.497 249.239 254.234V254.472C249.239 254.575 249.206 254.654 249.141 254.71C249.085 254.766 249.01 254.794 248.917 254.794H244.073C244.073 254.803 244.073 254.822 244.073 254.85C244.073 254.878 244.073 254.901 244.073 254.92C244.091 255.303 244.175 255.662 244.325 255.998C244.474 256.325 244.689 256.591 244.969 256.796C245.249 257.001 245.585 257.104 245.977 257.104C246.313 257.104 246.593 257.053 246.817 256.95C247.041 256.847 247.223 256.735 247.363 256.614C247.503 256.483 247.596 256.385 247.643 256.32C247.727 256.199 247.792 256.129 247.839 256.11C247.885 256.082 247.96 256.068 248.063 256.068H248.735C248.828 256.068 248.903 256.096 248.959 256.152C249.024 256.199 249.052 256.269 249.043 256.362C249.033 256.502 248.959 256.675 248.819 256.88C248.679 257.076 248.478 257.272 248.217 257.468C247.955 257.664 247.638 257.827 247.265 257.958C246.891 258.079 246.462 258.14 245.977 258.14ZM244.073 253.828H247.909V253.786C247.909 253.366 247.829 252.993 247.671 252.666C247.521 252.339 247.302 252.083 247.013 251.896C246.723 251.7 246.378 251.602 245.977 251.602C245.575 251.602 245.23 251.7 244.941 251.896C244.661 252.083 244.446 252.339 244.297 252.666C244.147 252.993 244.073 253.366 244.073 253.786V253.828Z" fill="white"/>
<path d="M80.3593 203C80.2273 203 80.1193 202.958 80.0353 202.874C79.9513 202.79 79.9093 202.682 79.9093 202.55V190.85C79.9093 190.718 79.9513 190.61 80.0353 190.526C80.1193 190.442 80.2273 190.4 80.3593 190.4H82.7713C82.9033 190.4 83.0113 190.442 83.0953 190.526C83.1793 190.61 83.2213 190.718 83.2213 190.85V202.55C83.2213 202.682 83.1793 202.79 83.0953 202.874C83.0113 202.958 82.9033 203 82.7713 203H80.3593ZM91.7752 203C91.0072 203 90.3412 202.88 89.7772 202.64C89.2252 202.388 88.7992 202.004 88.4992 201.488C88.1992 200.96 88.0492 200.282 88.0492 199.454V195.998H86.6452C86.5132 195.998 86.3992 195.956 86.3032 195.872C86.2192 195.788 86.1772 195.68 86.1772 195.548V194.09C86.1772 193.958 86.2192 193.85 86.3032 193.766C86.3992 193.682 86.5132 193.64 86.6452 193.64H88.0492V190.67C88.0492 190.538 88.0912 190.43 88.1752 190.346C88.2712 190.262 88.3792 190.22 88.4992 190.22H90.5872C90.7192 190.22 90.8272 190.262 90.9112 190.346C90.9952 190.43 91.0372 190.538 91.0372 190.67V193.64H93.2872C93.4192 193.64 93.5272 193.682 93.6112 193.766C93.6952 193.85 93.7372 193.958 93.7372 194.09V195.548C93.7372 195.68 93.6952 195.788 93.6112 195.872C93.5272 195.956 93.4192 195.998 93.2872 195.998H91.0372V199.202C91.0372 199.61 91.1152 199.934 91.2712 200.174C91.4272 200.414 91.6912 200.534 92.0632 200.534H93.4492C93.5812 200.534 93.6892 200.576 93.7732 200.66C93.8572 200.744 93.8992 200.852 93.8992 200.984V202.55C93.8992 202.682 93.8572 202.79 93.7732 202.874C93.6892 202.958 93.5812 203 93.4492 203H91.7752ZM96.8655 194.756C96.7575 194.756 96.6675 194.72 96.5955 194.648C96.5355 194.576 96.5115 194.474 96.5235 194.342L97.0635 190.832C97.0875 190.676 97.1475 190.538 97.2435 190.418C97.3515 190.286 97.5075 190.22 97.7115 190.22H99.8175C99.9135 190.22 99.9915 190.256 100.052 190.328C100.124 190.4 100.16 190.484 100.16 190.58C100.16 190.652 100.148 190.718 100.124 190.778L98.7735 194.252C98.7255 194.372 98.6535 194.486 98.5575 194.594C98.4615 194.702 98.3115 194.756 98.1075 194.756H96.8655ZM106.288 203.18C105.508 203.18 104.842 203.096 104.29 202.928C103.75 202.748 103.306 202.532 102.958 202.28C102.622 202.028 102.37 201.77 102.202 201.506C102.034 201.23 101.944 200.996 101.932 200.804C101.92 200.672 101.962 200.564 102.058 200.48C102.154 200.384 102.256 200.336 102.364 200.336H104.416C104.452 200.336 104.482 200.342 104.506 200.354C104.53 200.366 104.566 200.39 104.614 200.426C104.77 200.51 104.926 200.618 105.082 200.75C105.238 200.87 105.418 200.978 105.622 201.074C105.826 201.17 106.072 201.218 106.36 201.218C106.696 201.218 106.978 201.152 107.206 201.02C107.434 200.888 107.548 200.69 107.548 200.426C107.548 200.234 107.494 200.078 107.386 199.958C107.278 199.826 107.056 199.7 106.72 199.58C106.396 199.46 105.904 199.34 105.244 199.22C104.62 199.076 104.074 198.89 103.606 198.662C103.138 198.422 102.778 198.116 102.526 197.744C102.274 197.36 102.148 196.898 102.148 196.358C102.148 195.878 102.304 195.416 102.616 194.972C102.928 194.528 103.384 194.168 103.984 193.892C104.584 193.604 105.322 193.46 106.198 193.46C106.894 193.46 107.494 193.544 107.998 193.712C108.514 193.868 108.946 194.072 109.294 194.324C109.654 194.576 109.924 194.834 110.104 195.098C110.284 195.362 110.38 195.602 110.392 195.818C110.404 195.938 110.368 196.046 110.284 196.142C110.2 196.226 110.104 196.268 109.996 196.268H108.124C108.076 196.268 108.028 196.262 107.98 196.25C107.932 196.226 107.89 196.202 107.854 196.178C107.71 196.106 107.566 196.01 107.422 195.89C107.278 195.77 107.11 195.662 106.918 195.566C106.726 195.47 106.486 195.422 106.198 195.422C105.874 195.422 105.622 195.494 105.442 195.638C105.262 195.782 105.172 195.968 105.172 196.196C105.172 196.352 105.22 196.496 105.316 196.628C105.424 196.76 105.634 196.88 105.946 196.988C106.27 197.096 106.768 197.216 107.44 197.348C108.268 197.48 108.928 197.696 109.42 197.996C109.912 198.284 110.26 198.626 110.464 199.022C110.668 199.406 110.77 199.814 110.77 200.246C110.77 200.822 110.596 201.332 110.248 201.776C109.912 202.22 109.408 202.568 108.736 202.82C108.064 203.06 107.248 203.18 106.288 203.18ZM121.97 203C121.79 203 121.658 202.958 121.574 202.874C121.49 202.778 121.418 202.67 121.358 202.55L117.956 194.198C117.932 194.15 117.92 194.096 117.92 194.036C117.92 193.928 117.956 193.838 118.028 193.766C118.112 193.682 118.214 193.64 118.334 193.64H120.368C120.524 193.64 120.644 193.682 120.728 193.766C120.812 193.85 120.866 193.934 120.89 194.018L122.924 199.544L124.976 194.018C125 193.934 125.054 193.85 125.138 193.766C125.222 193.682 125.342 193.64 125.498 193.64H127.532C127.64 193.64 127.736 193.682 127.82 193.766C127.904 193.838 127.946 193.928 127.946 194.036C127.946 194.096 127.934 194.15 127.91 194.198L124.508 202.55C124.46 202.67 124.388 202.778 124.292 202.874C124.208 202.958 124.07 203 123.878 203H121.97ZM134.753 203.18C133.337 203.18 132.209 202.796 131.369 202.028C130.529 201.26 130.091 200.12 130.055 198.608C130.055 198.524 130.055 198.416 130.055 198.284C130.055 198.152 130.055 198.05 130.055 197.978C130.091 197.03 130.301 196.22 130.685 195.548C131.081 194.864 131.621 194.348 132.305 194C133.001 193.64 133.811 193.46 134.735 193.46C135.791 193.46 136.661 193.67 137.345 194.09C138.041 194.51 138.563 195.08 138.911 195.8C139.259 196.52 139.433 197.342 139.433 198.266V198.698C139.433 198.83 139.385 198.938 139.289 199.022C139.205 199.106 139.103 199.148 138.983 199.148H133.223C133.223 199.16 133.223 199.178 133.223 199.202C133.223 199.226 133.223 199.25 133.223 199.274C133.235 199.622 133.295 199.94 133.403 200.228C133.511 200.516 133.679 200.744 133.907 200.912C134.135 201.08 134.411 201.164 134.735 201.164C134.975 201.164 135.173 201.128 135.329 201.056C135.497 200.972 135.635 200.882 135.743 200.786C135.851 200.678 135.935 200.588 135.995 200.516C136.103 200.396 136.187 200.324 136.247 200.3C136.319 200.264 136.427 200.246 136.571 200.246H138.803C138.923 200.246 139.019 200.282 139.091 200.354C139.175 200.414 139.211 200.504 139.199 200.624C139.187 200.828 139.085 201.074 138.893 201.362C138.701 201.65 138.419 201.938 138.047 202.226C137.687 202.502 137.231 202.73 136.679 202.91C136.127 203.09 135.485 203.18 134.753 203.18ZM133.223 197.366H136.265V197.33C136.265 196.946 136.205 196.61 136.085 196.322C135.977 196.034 135.803 195.812 135.563 195.656C135.335 195.5 135.059 195.422 134.735 195.422C134.411 195.422 134.135 195.5 133.907 195.656C133.691 195.812 133.523 196.034 133.403 196.322C133.283 196.61 133.223 196.946 133.223 197.33V197.366ZM143.011 203C142.879 203 142.771 202.958 142.687 202.874C142.603 202.79 142.561 202.682 142.561 202.55V194.09C142.561 193.97 142.603 193.868 142.687 193.784C142.771 193.688 142.879 193.64 143.011 193.64H145.081C145.213 193.64 145.321 193.688 145.405 193.784C145.489 193.868 145.531 193.97 145.531 194.09V194.81C145.855 194.438 146.239 194.15 146.683 193.946C147.139 193.742 147.649 193.64 148.213 193.64H149.005C149.125 193.64 149.227 193.682 149.311 193.766C149.407 193.85 149.455 193.958 149.455 194.09V195.944C149.455 196.064 149.407 196.172 149.311 196.268C149.227 196.352 149.125 196.394 149.005 196.394H147.259C146.767 196.394 146.383 196.532 146.107 196.808C145.843 197.072 145.711 197.45 145.711 197.942V202.55C145.711 202.682 145.663 202.79 145.567 202.874C145.483 202.958 145.375 203 145.243 203H143.011ZM153.921 206.42C153.813 206.42 153.723 206.384 153.651 206.312C153.579 206.24 153.543 206.15 153.543 206.042C153.543 206.018 153.543 205.982 153.543 205.934C153.555 205.898 153.573 205.856 153.597 205.808L155.001 202.424L151.545 194.252C151.509 194.168 151.491 194.096 151.491 194.036C151.515 193.928 151.563 193.838 151.635 193.766C151.707 193.682 151.797 193.64 151.905 193.64H153.957C154.113 193.64 154.227 193.682 154.299 193.766C154.383 193.838 154.437 193.922 154.461 194.018L156.531 199.256L158.637 194.018C158.685 193.922 158.745 193.838 158.817 193.766C158.901 193.682 159.021 193.64 159.177 193.64H161.193C161.301 193.64 161.391 193.682 161.463 193.766C161.547 193.838 161.589 193.922 161.589 194.018C161.589 194.078 161.571 194.156 161.535 194.252L156.441 206.042C156.405 206.138 156.345 206.222 156.261 206.294C156.177 206.378 156.057 206.42 155.901 206.42H153.921ZM173.022 203.18C172.242 203.18 171.576 203.096 171.024 202.928C170.484 202.748 170.04 202.532 169.692 202.28C169.356 202.028 169.104 201.77 168.936 201.506C168.768 201.23 168.678 200.996 168.666 200.804C168.654 200.672 168.696 200.564 168.792 200.48C168.888 200.384 168.99 200.336 169.098 200.336H171.15C171.186 200.336 171.216 200.342 171.24 200.354C171.264 200.366 171.3 200.39 171.348 200.426C171.504 200.51 171.66 200.618 171.816 200.75C171.972 200.87 172.152 200.978 172.356 201.074C172.56 201.17 172.806 201.218 173.094 201.218C173.43 201.218 173.712 201.152 173.94 201.02C174.168 200.888 174.282 200.69 174.282 200.426C174.282 200.234 174.228 200.078 174.12 199.958C174.012 199.826 173.79 199.7 173.454 199.58C173.13 199.46 172.638 199.34 171.978 199.22C171.354 199.076 170.808 198.89 170.34 198.662C169.872 198.422 169.512 198.116 169.26 197.744C169.008 197.36 168.882 196.898 168.882 196.358C168.882 195.878 169.038 195.416 169.35 194.972C169.662 194.528 170.118 194.168 170.718 193.892C171.318 193.604 172.056 193.46 172.932 193.46C173.628 193.46 174.228 193.544 174.732 193.712C175.248 193.868 175.68 194.072 176.028 194.324C176.388 194.576 176.658 194.834 176.838 195.098C177.018 195.362 177.114 195.602 177.126 195.818C177.138 195.938 177.102 196.046 177.018 196.142C176.934 196.226 176.838 196.268 176.73 196.268H174.858C174.81 196.268 174.762 196.262 174.714 196.25C174.666 196.226 174.624 196.202 174.588 196.178C174.444 196.106 174.3 196.01 174.156 195.89C174.012 195.77 173.844 195.662 173.652 195.566C173.46 195.47 173.22 195.422 172.932 195.422C172.608 195.422 172.356 195.494 172.176 195.638C171.996 195.782 171.906 195.968 171.906 196.196C171.906 196.352 171.954 196.496 172.05 196.628C172.158 196.76 172.368 196.88 172.68 196.988C173.004 197.096 173.502 197.216 174.174 197.348C175.002 197.48 175.662 197.696 176.154 197.996C176.646 198.284 176.994 198.626 177.198 199.022C177.402 199.406 177.504 199.814 177.504 200.246C177.504 200.822 177.33 201.332 176.982 201.776C176.646 202.22 176.142 202.568 175.47 202.82C174.798 203.06 173.982 203.18 173.022 203.18ZM181.009 203C180.877 203 180.769 202.958 180.685 202.874C180.601 202.79 180.559 202.682 180.559 202.55V194.09C180.559 193.958 180.601 193.85 180.685 193.766C180.769 193.682 180.877 193.64 181.009 193.64H183.133C183.253 193.64 183.355 193.682 183.439 193.766C183.535 193.85 183.583 193.958 183.583 194.09V202.55C183.583 202.682 183.535 202.79 183.439 202.874C183.355 202.958 183.253 203 183.133 203H181.009ZM180.991 192.29C180.859 192.29 180.751 192.248 180.667 192.164C180.583 192.08 180.541 191.972 180.541 191.84V190.238C180.541 190.106 180.583 189.998 180.667 189.914C180.751 189.818 180.859 189.77 180.991 189.77H183.133C183.265 189.77 183.373 189.818 183.457 189.914C183.553 189.998 183.601 190.106 183.601 190.238V191.84C183.601 191.972 183.553 192.08 183.457 192.164C183.373 192.248 183.265 192.29 183.133 192.29H180.991ZM188.144 203C188.012 203 187.904 202.958 187.82 202.874C187.736 202.79 187.694 202.682 187.694 202.55V194.09C187.694 193.958 187.736 193.85 187.82 193.766C187.904 193.682 188.012 193.64 188.144 193.64H190.106C190.238 193.64 190.346 193.682 190.43 193.766C190.514 193.85 190.556 193.958 190.556 194.09V194.702C190.796 194.378 191.132 194.096 191.564 193.856C191.996 193.604 192.506 193.472 193.094 193.46C194.474 193.436 195.422 193.958 195.938 195.026C196.214 194.57 196.61 194.198 197.126 193.91C197.642 193.61 198.206 193.46 198.818 193.46C199.442 193.46 200 193.604 200.492 193.892C200.996 194.168 201.398 194.6 201.698 195.188C201.998 195.764 202.148 196.514 202.148 197.438V202.55C202.148 202.682 202.1 202.79 202.004 202.874C201.92 202.958 201.818 203 201.698 203H199.61C199.478 203 199.364 202.958 199.268 202.874C199.184 202.79 199.142 202.682 199.142 202.55V197.564C199.142 197.144 199.082 196.814 198.962 196.574C198.842 196.322 198.68 196.142 198.476 196.034C198.272 195.926 198.038 195.872 197.774 195.872C197.558 195.872 197.342 195.926 197.126 196.034C196.922 196.142 196.754 196.322 196.622 196.574C196.502 196.814 196.442 197.144 196.442 197.564V202.55C196.442 202.682 196.4 202.79 196.316 202.874C196.232 202.958 196.124 203 195.992 203H193.904C193.772 203 193.664 202.958 193.58 202.874C193.496 202.79 193.454 202.682 193.454 202.55V197.564C193.454 197.144 193.388 196.814 193.256 196.574C193.124 196.322 192.956 196.142 192.752 196.034C192.548 195.926 192.32 195.872 192.068 195.872C191.852 195.872 191.636 195.926 191.42 196.034C191.216 196.142 191.048 196.322 190.916 196.574C190.796 196.814 190.736 197.138 190.736 197.546V202.55C190.736 202.682 190.688 202.79 190.592 202.874C190.508 202.958 190.4 203 190.268 203H188.144ZM206.055 206.42C205.923 206.42 205.815 206.378 205.731 206.294C205.647 206.21 205.605 206.102 205.605 205.97V194.09C205.605 193.958 205.647 193.85 205.731 193.766C205.815 193.682 205.923 193.64 206.055 193.64H208.089C208.209 193.64 208.311 193.682 208.395 193.766C208.491 193.85 208.539 193.958 208.539 194.09V194.756C208.815 194.384 209.181 194.078 209.637 193.838C210.093 193.586 210.657 193.46 211.329 193.46C211.929 193.46 212.457 193.556 212.913 193.748C213.369 193.928 213.759 194.198 214.083 194.558C214.407 194.918 214.659 195.356 214.839 195.872C215.031 196.388 215.139 196.982 215.163 197.654C215.175 197.894 215.181 198.116 215.181 198.32C215.181 198.524 215.175 198.746 215.163 198.986C215.139 199.634 215.037 200.216 214.857 200.732C214.677 201.248 214.425 201.686 214.101 202.046C213.777 202.406 213.381 202.688 212.913 202.892C212.457 203.084 211.929 203.18 211.329 203.18C210.741 203.18 210.225 203.078 209.781 202.874C209.349 202.658 208.989 202.358 208.701 201.974V205.97C208.701 206.102 208.659 206.21 208.575 206.294C208.491 206.378 208.383 206.42 208.251 206.42H206.055ZM210.357 200.768C210.765 200.768 211.083 200.684 211.311 200.516C211.539 200.348 211.701 200.12 211.797 199.832C211.905 199.544 211.971 199.226 211.995 198.878C212.019 198.506 212.019 198.134 211.995 197.762C211.971 197.414 211.905 197.096 211.797 196.808C211.701 196.52 211.539 196.292 211.311 196.124C211.083 195.956 210.765 195.872 210.357 195.872C209.961 195.872 209.643 195.962 209.403 196.142C209.163 196.31 208.989 196.532 208.881 196.808C208.773 197.084 208.713 197.384 208.701 197.708C208.689 197.936 208.683 198.158 208.683 198.374C208.683 198.59 208.689 198.818 208.701 199.058C208.713 199.358 208.779 199.64 208.899 199.904C209.019 200.156 209.199 200.366 209.439 200.534C209.679 200.69 209.985 200.768 210.357 200.768ZM218.851 203C218.719 203 218.611 202.958 218.527 202.874C218.443 202.79 218.401 202.682 218.401 202.55V190.67C218.401 190.538 218.443 190.43 218.527 190.346C218.611 190.262 218.719 190.22 218.851 190.22H220.975C221.107 190.22 221.215 190.262 221.299 190.346C221.383 190.43 221.425 190.538 221.425 190.67V202.55C221.425 202.682 221.383 202.79 221.299 202.874C221.215 202.958 221.107 203 220.975 203H218.851ZM229.311 203.18C227.895 203.18 226.767 202.796 225.927 202.028C225.087 201.26 224.649 200.12 224.613 198.608C224.613 198.524 224.613 198.416 224.613 198.284C224.613 198.152 224.613 198.05 224.613 197.978C224.649 197.03 224.859 196.22 225.243 195.548C225.639 194.864 226.179 194.348 226.863 194C227.559 193.64 228.369 193.46 229.293 193.46C230.349 193.46 231.219 193.67 231.903 194.09C232.599 194.51 233.121 195.08 233.469 195.8C233.817 196.52 233.991 197.342 233.991 198.266V198.698C233.991 198.83 233.943 198.938 233.847 199.022C233.763 199.106 233.661 199.148 233.541 199.148H227.781C227.781 199.16 227.781 199.178 227.781 199.202C227.781 199.226 227.781 199.25 227.781 199.274C227.793 199.622 227.853 199.94 227.961 200.228C228.069 200.516 228.237 200.744 228.465 200.912C228.693 201.08 228.969 201.164 229.293 201.164C229.533 201.164 229.731 201.128 229.887 201.056C230.055 200.972 230.193 200.882 230.301 200.786C230.409 200.678 230.493 200.588 230.553 200.516C230.661 200.396 230.745 200.324 230.805 200.3C230.877 200.264 230.985 200.246 231.129 200.246H233.361C233.481 200.246 233.577 200.282 233.649 200.354C233.733 200.414 233.769 200.504 233.757 200.624C233.745 200.828 233.643 201.074 233.451 201.362C233.259 201.65 232.977 201.938 232.605 202.226C232.245 202.502 231.789 202.73 231.237 202.91C230.685 203.09 230.043 203.18 229.311 203.18ZM227.781 197.366H230.823V197.33C230.823 196.946 230.763 196.61 230.643 196.322C230.535 196.034 230.361 195.812 230.121 195.656C229.893 195.5 229.617 195.422 229.293 195.422C228.969 195.422 228.693 195.5 228.465 195.656C228.249 195.812 228.081 196.034 227.961 196.322C227.841 196.61 227.781 196.946 227.781 197.33V197.366Z" fill="white"/>
<path d="M195.375 90.6875L201.062 85.0625C202.239 83.8856 202.901 82.2894 202.901 80.625C202.901 78.9606 202.239 77.3644 201.062 76.1875C199.886 75.0106 198.289 74.3494 196.625 74.3494C194.961 74.3494 193.364 75.0106 192.188 76.1875L186.562 81.875C177.803 75.0991 167.043 71.4227 155.969 71.4227C144.895 71.4227 134.134 75.0991 125.375 81.875L119.687 76.125C118.502 74.9481 116.898 74.2902 115.228 74.2961C113.558 74.3019 111.958 74.9711 110.781 76.1563C109.604 77.3414 108.946 78.9456 108.952 80.6158C108.958 82.2861 109.627 83.8856 110.812 85.0625L116.562 90.75C109.706 99.4847 105.986 110.271 106 121.375C105.98 129.346 107.865 137.207 111.5 144.302C115.135 151.396 120.413 157.519 126.895 162.159C133.377 166.799 140.874 169.822 148.761 170.976C156.649 172.13 164.698 171.382 172.237 168.793C179.777 166.204 186.588 161.851 192.103 156.095C197.618 150.339 201.676 143.348 203.941 135.705C206.205 128.062 206.609 119.988 205.119 112.157C203.629 104.326 200.288 96.965 195.375 90.6875V90.6875ZM156 158.875C148.583 158.875 141.333 156.676 135.166 152.555C128.999 148.435 124.193 142.578 121.355 135.726C118.516 128.873 117.774 121.333 119.221 114.059C120.667 106.785 124.239 100.103 129.483 94.8585C134.728 89.614 141.41 86.0425 148.684 84.5956C155.958 83.1486 163.498 83.8912 170.351 86.7295C177.203 89.5678 183.06 94.3743 187.18 100.541C191.301 106.708 193.5 113.958 193.5 121.375C193.5 131.321 189.549 140.859 182.517 147.892C175.484 154.924 165.946 158.875 156 158.875ZM143.5 65.125H168.5C170.158 65.125 171.747 64.4665 172.919 63.2944C174.092 62.1223 174.75 60.5326 174.75 58.875C174.75 57.2174 174.092 55.6277 172.919 54.4556C171.747 53.2835 170.158 52.625 168.5 52.625H143.5C141.842 52.625 140.253 53.2835 139.081 54.4556C137.908 55.6277 137.25 57.2174 137.25 58.875C137.25 60.5326 137.908 62.1223 139.081 63.2944C140.253 64.4665 141.842 65.125 143.5 65.125V65.125ZM162.25 102.625C162.25 100.967 161.592 99.3777 160.419 98.2056C159.247 97.0335 157.658 96.375 156 96.375C154.342 96.375 152.753 97.0335 151.581 98.2056C150.408 99.3777 149.75 100.967 149.75 102.625V114.438C148.335 115.703 147.337 117.369 146.889 119.214C146.442 121.059 146.565 122.997 147.242 124.77C147.92 126.544 149.12 128.07 150.684 129.147C152.247 130.224 154.101 130.8 156 130.8C157.899 130.8 159.753 130.224 161.316 129.147C162.88 128.07 164.08 126.544 164.758 124.77C165.435 122.997 165.558 121.059 165.111 119.214C164.663 117.369 163.665 115.703 162.25 114.438V102.625Z" fill="white"/>
<defs>
<filter id="filter0_d_142_9" x="0" y="0" width="312" height="312" filterUnits="userSpaceOnUse" color-interpolation-filters="sRGB">
<feFlood flood-opacity="0" result="BackgroundImageFix"/>
<feColorMatrix in="SourceAlpha" type="matrix" values="0 0 0 0 0 0 0 0 0 0 0 0 0 0 0 0 0 0 127 0" result="hardAlpha"/>
<feOffset dy="4"/>
<feGaussianBlur stdDeviation="9"/>
<feColorMatrix type="matrix" values="0 0 0 0 0.345098 0 0 0 0 0.494118 0 0 0 0 0.92549 0 0 0 0.18 0"/>
<feBlend mode="normal" in2="BackgroundImageFix" result="effect1_dropShadow_142_9"/>
<feBlend mode="normal" in="SourceGraphic" in2="effect1_dropShadow_142_9" result="shape"/>
</filter>
</defs>
</svg>
